<?xml version="1.0" encoding="utf-8" standalone="no"?>
<!DOCTYPE svg PUBLIC "-//W3C//DTD SVG 1.1//EN"
  "http://www.w3.org/Graphics/SVG/1.1/DTD/svg11.dtd">
<!-- Created with matplotlib (http://matplotlib.org/) -->
<svg height="432pt" version="1.1" viewBox="0 0 576 432" width="576pt" xmlns="http://www.w3.org/2000/svg" xmlns:xlink="http://www.w3.org/1999/xlink">
 <defs>
  <style type="text/css">
*{stroke-linecap:butt;stroke-linejoin:round;stroke-miterlimit:100000;}
  </style>
 </defs>
 <g id="figure_1">
  <g id="patch_1">
   <path d="M 0 432 
L 576 432 
L 576 0 
L 0 0 
z
" style="fill:#ffffff;"/>
  </g>
  <g id="axes_1">
   <g id="patch_2">
    <path d="M 72 388.8 
L 518.4 388.8 
L 518.4 43.2 
L 72 43.2 
z
" style="fill:#ffffff;"/>
   </g>
   <g id="line2d_1">
    <path clip-path="url(#pd301923995)" d="M 72 75.494437 
L 72.4464 77.328716 
L 72.8928 76.800164 
L 73.7856 76.315824 
L 74.6784 76.09239 
L 75.1248 79.247074 
L 76.0176 90.414929 
L 76.464 91.647427 
L 76.9104 92.215923 
L 77.3568 90.473786 
L 77.8032 92.094751 
L 78.2496 93.165779 
L 79.1424 90.961025 
L 80.0352 94.79372 
L 80.928 92.478542 
L 81.3744 91.942108 
L 82.2672 90.38119 
L 83.16 89.832017 
L 84.0528 89.177937 
L 84.4992 89.695958 
L 84.9456 89.111392 
L 85.392 89.758744 
L 85.8384 90.946271 
L 86.2848 90.306687 
L 88.5168 88.28649 
L 91.1952 86.390355 
L 91.6416 86.528651 
L 92.5344 85.962811 
L 95.6592 85.060069 
L 96.1056 84.885387 
L 96.9984 85.619031 
L 99.2304 84.665487 
L 101.016 85.277203 
L 102.3552 85.269806 
L 103.248 85.00971 
L 103.6944 85.218395 
L 105.0336 84.914652 
L 105.9264 85.26051 
L 107.2656 85.856162 
L 108.6048 85.44948 
L 109.0512 85.304342 
L 109.944 85.937065 
L 113.9616 96.968717 
L 116.1936 103.450157 
L 116.64 103.271259 
L 117.0864 103.605839 
L 118.4256 104.104242 
L 119.7648 106.303565 
L 121.104 111.790432 
L 121.5504 111.291201 
L 122.4432 111.159951 
L 122.8896 111.297648 
L 123.7824 112.646075 
L 124.6752 121.156132 
L 125.1216 126.474422 
L 125.568 129.07689 
L 126.9072 133.251087 
L 127.3536 131.92667 
L 127.8 131.512041 
L 129.5856 135.739831 
L 130.032 136.024771 
L 130.4784 139.048477 
L 130.9248 141.008292 
L 131.8176 138.756777 
L 132.7104 140.11953 
L 133.1568 138.84085 
L 133.6032 137.068285 
L 134.0496 137.240731 
L 134.9424 134.439003 
L 135.3888 134.339126 
L 137.6208 132.465219 
L 138.96 132.489608 
L 140.7456 132.26486 
L 141.192 132.168061 
L 142.0848 132.382188 
L 142.5312 131.052447 
L 142.9776 130.075105 
L 143.8704 131.776764 
L 144.3168 131.62453 
L 145.656 131.815436 
L 146.1024 131.711111 
L 146.5488 132.233803 
L 147.4416 134.439195 
L 147.888 133.717744 
L 148.3344 137.074535 
L 148.7808 136.164272 
L 149.6736 133.811792 
L 151.0128 131.775889 
L 151.4592 130.69089 
L 152.352 129.388506 
L 153.6912 132.468371 
L 154.1376 131.335566 
L 155.9232 132.75248 
L 156.816 130.76968 
L 157.7088 132.594397 
L 158.1552 133.720397 
L 158.6016 132.900886 
L 160.8336 135.367643 
L 161.28 135.822792 
L 161.7264 134.895845 
L 162.1728 134.509043 
L 162.6192 134.835646 
L 164.8512 130.170479 
L 165.744 128.608245 
L 166.1904 128.731413 
L 168.4224 125.955803 
L 169.7616 123.905188 
L 170.208 124.709697 
L 171.1008 124.950921 
L 171.9936 125.451724 
L 172.44 125.047791 
L 174.672 124.928471 
L 177.3504 124.422869 
L 177.7968 123.82157 
L 179.5824 123.086285 
L 180.9216 122.32854 
L 182.2608 123.058909 
L 183.6 122.529339 
L 184.4928 121.560359 
L 184.9392 121.512747 
L 185.3856 121.635445 
L 185.832 121.553145 
L 189.4032 119.116819 
L 190.7424 119.396521 
L 191.6352 118.552329 
L 192.528 119.379852 
L 193.8672 118.345403 
L 194.3136 118.204946 
L 194.76 118.192304 
L 195.6528 119.215162 
L 197.4384 120.303247 
L 198.3312 120.338071 
L 198.7776 120.104635 
L 200.5632 119.906262 
L 201.9024 121.909761 
L 203.688 124.152912 
L 204.1344 124.156516 
L 204.5808 123.660562 
L 205.0272 123.433064 
L 205.92 123.784377 
L 206.8128 125.476209 
L 207.2592 125.125794 
L 207.7056 125.153696 
L 208.152 126.739311 
L 209.0448 126.622939 
L 209.4912 126.518533 
L 210.384 127.960619 
L 210.8304 128.779231 
L 211.2768 128.985981 
L 211.7232 128.994957 
L 212.1696 128.445703 
L 215.2944 126.331001 
L 215.7408 127.623626 
L 216.1872 127.651446 
L 217.08 126.817734 
L 217.5264 126.713761 
L 217.9728 127.318468 
L 218.8656 126.636904 
L 222.4368 135.641631 
L 222.8832 136.849529 
L 223.776 135.721872 
L 224.6688 134.718676 
L 225.1152 136.025657 
L 225.5616 136.496716 
L 228.6864 132.846978 
L 229.1328 132.466524 
L 229.5792 133.223394 
L 230.0256 132.698816 
L 232.704 130.977263 
L 235.3824 129.085654 
L 235.8288 129.530669 
L 236.7216 129.226247 
L 237.168 129.952884 
L 238.0608 130.219755 
L 238.9536 129.644798 
L 239.4 130.327501 
L 240.2928 132.493947 
L 240.7392 133.114667 
L 242.5248 134.010514 
L 242.9712 133.407474 
L 245.6496 131.04692 
L 246.096 131.309327 
L 246.5424 131.229258 
L 247.4352 132.804615 
L 249.2208 131.171431 
L 249.6672 130.866777 
L 250.1136 130.39381 
L 251.0064 130.136857 
L 251.4528 130.319786 
L 251.8992 130.087311 
L 252.792 129.20674 
L 253.2384 128.940129 
L 254.1312 131.083728 
L 254.5776 131.397127 
L 255.9168 131.147882 
L 257.7024 133.718387 
L 258.1488 134.493884 
L 258.5952 134.622264 
L 259.0416 134.089647 
L 260.3808 133.412989 
L 261.2736 133.126828 
L 262.1664 135.942673 
L 263.0592 135.437593 
L 263.5056 136.710943 
L 263.952 136.756844 
L 264.8448 136.486272 
L 265.2912 136.380634 
L 265.7376 135.840523 
L 266.184 135.82364 
L 267.0768 134.84475 
L 269.3088 133.471994 
L 270.2016 133.790718 
L 270.648 133.527016 
L 271.0944 133.477953 
L 272.88 132.484525 
L 275.112 131.251683 
L 275.5584 130.833946 
L 276.8976 130.575914 
L 278.6832 129.308158 
L 279.1296 128.965717 
L 280.0224 128.965717 
L 280.4688 129.253611 
L 280.9152 128.875276 
L 282.7008 128.975417 
L 283.1472 128.77691 
L 284.4864 129.404419 
L 284.9328 130.306677 
L 285.8256 130.394743 
L 287.1648 130.179714 
L 287.6112 129.859757 
L 288.0576 129.722578 
L 288.504 129.407594 
L 288.9504 129.382143 
L 290.2896 130.028042 
L 292.0752 129.871305 
L 292.968 129.330215 
L 293.4144 129.296223 
L 294.3072 128.91695 
L 294.7536 129.257239 
L 295.2 129.115512 
L 295.6464 129.387177 
L 296.0928 129.169061 
L 296.5392 129.295845 
L 296.9856 129.192243 
L 301.0032 126.750446 
L 302.3424 127.497003 
L 302.7888 127.780353 
L 305.9136 126.204988 
L 307.2528 125.575442 
L 307.6992 125.896341 
L 308.1456 125.829545 
L 308.592 126.23462 
L 312.6096 128.291537 
L 313.5024 128.557933 
L 314.3952 129.296551 
L 315.288 128.794328 
L 315.7344 128.928775 
L 316.1808 128.938375 
L 317.52 128.32539 
L 319.3056 127.542917 
L 319.752 127.252659 
L 323.3232 126.573339 
L 324.216 126.00687 
L 324.6624 126.084875 
L 325.1088 125.815714 
L 326.8944 125.430106 
L 333.144 124.188933 
L 333.5904 124.855606 
L 334.9296 124.940432 
L 336.7152 125.214238 
L 337.608 124.7032 
L 338.0544 124.709668 
L 340.7328 126.275678 
L 341.1792 126.20855 
L 342.072 126.846402 
L 343.8576 127.142279 
L 345.1968 126.425651 
L 345.6432 126.453568 
L 347.4288 125.894095 
L 347.8752 126.164928 
L 349.6608 126.117293 
L 350.1072 125.861159 
L 351 125.940332 
L 352.3392 125.290178 
L 353.232 125.656088 
L 354.5712 125.5176 
L 355.9104 125.599048 
L 356.3568 125.478494 
L 357.696 125.78241 
L 358.1424 126.159143 
L 358.5888 125.938971 
L 359.4816 125.780766 
L 360.8208 125.497726 
L 361.7136 125.395299 
L 363.4992 125.845023 
L 364.8384 127.733512 
L 365.7312 129.777669 
L 367.0704 133.321118 
L 368.4096 135.695099 
L 368.856 135.797675 
L 369.3024 136.247102 
L 370.6416 135.644463 
L 371.088 136.27216 
L 371.5344 136.008045 
L 371.9808 136.152009 
L 373.32 135.104245 
L 373.7664 134.914034 
L 374.2128 134.866942 
L 375.1056 134.274913 
L 375.9984 133.919504 
L 376.4448 133.593614 
L 377.3376 133.110413 
L 378.6768 132.437559 
L 382.248 130.408769 
L 384.48 129.687723 
L 384.9264 129.507325 
L 387.6048 132.882636 
L 388.0512 133.476971 
L 388.4976 133.685289 
L 390.2832 132.777085 
L 391.176 132.718719 
L 391.6224 132.655052 
L 392.5152 132.077884 
L 392.9616 131.913153 
L 393.408 131.983569 
L 393.8544 131.865512 
L 394.7472 133.36745 
L 395.64 133.280277 
L 396.5328 132.715356 
L 396.9792 132.51665 
L 397.4256 132.861392 
L 397.872 132.938241 
L 398.7648 132.799893 
L 400.5504 131.850874 
L 401.4432 132.042152 
L 403.6752 135.306825 
L 404.1216 136.112993 
L 405.4608 137.645268 
L 405.9072 138.336393 
L 407.2464 137.65965 
L 408.5856 136.868296 
L 410.8176 135.632673 
L 411.7104 135.22594 
L 414.3888 133.76269 
L 414.8352 133.926949 
L 415.728 133.94652 
L 417.5136 133.339617 
L 417.96 133.748762 
L 418.4064 133.859563 
L 419.7456 133.3164 
L 421.9776 134.174168 
L 425.1024 133.751547 
L 425.5488 133.479565 
L 429.12 132.697883 
L 429.5664 133.272114 
L 430.4592 132.928229 
L 430.9056 133.356103 
L 434.4768 134.950632 
L 436.7088 135.949332 
L 438.048 136.738904 
L 438.9408 136.149201 
L 439.8336 135.811717 
L 440.7264 136.077039 
L 441.6192 136.237212 
L 444.744 135.127223 
L 445.6368 135.198201 
L 446.0832 135.39293 
L 447.8688 135.097998 
L 448.7616 134.662955 
L 449.6544 134.262709 
L 450.5472 133.75513 
L 452.3328 134.551855 
L 453.2256 134.066111 
L 454.1184 133.968078 
L 455.4576 133.794964 
L 456.3504 133.279509 
L 456.7968 133.367666 
L 458.5824 132.746662 
L 460.368 132.731531 
L 462.1536 132.085434 
L 463.9392 131.32184 
L 465.2784 131.030649 
L 466.6176 131.946754 
L 468.4032 131.565204 
L 469.296 131.469359 
L 469.7424 131.26661 
L 470.6352 131.130234 
L 473.3136 130.084994 
L 474.2064 130.791984 
L 474.6528 130.778038 
L 475.5456 131.302328 
L 477.3312 130.689511 
L 479.1168 130.119605 
L 479.5632 129.924214 
L 481.3488 129.693075 
L 482.688 130.221779 
L 484.0272 131.410603 
L 484.4736 131.200516 
L 484.92 131.190882 
L 489.384 129.856307 
L 489.8304 129.804546 
L 490.2768 129.633428 
L 493.4016 129.602919 
L 495.1872 129.213486 
L 498.312 128.741663 
L 499.6512 128.703638 
L 500.9904 128.716509 
L 501.4368 128.528176 
L 501.8832 128.501573 
L 503.2224 128.907946 
L 503.6688 128.764067 
L 505.008 129.102564 
L 506.3472 129.092974 
L 507.24 129.773955 
L 509.0256 129.854907 
L 509.9184 131.137644 
L 511.2576 133.200947 
L 512.5968 134.600501 
L 513.4896 135.444202 
L 514.3824 135.257758 
L 516.168 135.023578 
L 516.6144 134.824722 
L 517.0608 135.262542 
L 517.9536 134.88061 
L 517.9536 134.88061 
" style="fill:none;stroke:#0000ff;stroke-linecap:square;"/>
   </g>
   <g id="line2d_2">
    <path clip-path="url(#pd301923995)" d="M 72 75.494437 
L 72.4464 75.499506 
L 72.8928 149.252953 
L 73.3392 118.427414 
L 73.7856 123.422644 
L 74.232 179.626877 
L 74.6784 97.608425 
L 75.1248 106.105975 
L 75.5712 122.488133 
L 76.0176 119.709381 
L 76.464 115.858839 
L 76.9104 125.320006 
L 77.3568 147.36271 
L 78.2496 110.378734 
L 78.696 103.881729 
L 79.1424 110.670741 
L 79.5888 115.276745 
L 80.0352 121.276599 
L 80.4816 114.918078 
L 80.928 123.056342 
L 81.3744 118.189633 
L 81.8208 121.331253 
L 82.2672 128.842046 
L 82.7136 130.453342 
L 83.16 125.145163 
L 83.6064 129.245679 
L 84.0528 132.083975 
L 84.4992 137.186458 
L 84.9456 137.400581 
L 85.392 138.186396 
L 85.8384 141.939728 
L 86.2848 143.808311 
L 86.7312 157.409082 
L 87.1776 153.823735 
L 87.624 151.402312 
L 88.0704 134.757469 
L 88.5168 129.902956 
L 88.9632 133.371868 
L 89.4096 138.713352 
L 89.856 127.574278 
L 90.3024 128.789117 
L 90.7488 129.405562 
L 91.1952 130.447198 
L 91.6416 130.294303 
L 92.088 134.901625 
L 92.5344 132.20065 
L 92.9808 122.390965 
L 93.4272 126.166875 
L 93.8736 128.46892 
L 94.32 132.208811 
L 94.7664 133.922083 
L 95.6592 120.807365 
L 96.1056 119.967222 
L 96.552 120.749933 
L 96.9984 123.987475 
L 97.4448 123.349339 
L 97.8912 126.378151 
L 98.3376 127.356448 
L 98.784 131.238339 
L 99.2304 128.900556 
L 99.6768 131.616608 
L 100.1232 135.245022 
L 100.5696 130.424717 
L 101.016 132.429861 
L 101.4624 135.108288 
L 101.9088 128.228395 
L 102.3552 130.629126 
L 102.8016 128.694497 
L 103.248 127.368469 
L 103.6944 130.514942 
L 104.1408 130.015449 
L 105.0336 133.49768 
L 105.48 136.845869 
L 105.9264 135.698651 
L 106.8192 143.14063 
L 107.2656 142.435025 
L 107.712 142.799523 
L 108.1584 145.749337 
L 108.6048 150.031167 
L 109.0512 156.484287 
L 109.4976 160.752829 
L 109.944 150.437494 
L 110.3904 147.148819 
L 110.8368 147.022235 
L 111.2832 148.896415 
L 111.7296 153.942498 
L 112.176 151.116064 
L 112.6224 156.545156 
L 113.0688 142.831274 
L 113.5152 142.013216 
L 113.9616 137.426274 
L 114.408 139.647563 
L 114.8544 142.650926 
L 115.3008 137.490298 
L 115.7472 140.423168 
L 116.1936 139.339467 
L 116.64 142.267666 
L 117.5328 137.87759 
L 117.9792 136.896165 
L 118.872 142.880373 
L 119.3184 143.745207 
L 119.7648 139.962396 
L 120.2112 137.597756 
L 120.6576 136.242206 
L 121.104 136.623456 
L 121.5504 136.403795 
L 121.9968 139.208639 
L 122.4432 138.093269 
L 122.8896 133.297367 
L 123.336 133.466091 
L 123.7824 133.058207 
L 124.2288 134.054149 
L 124.6752 135.679587 
L 125.1216 134.711152 
L 125.568 136.406387 
L 126.0144 136.102512 
L 126.4608 134.21175 
L 126.9072 135.899301 
L 127.3536 135.600498 
L 127.8 135.923221 
L 128.2464 137.227844 
L 128.6928 135.426287 
L 129.1392 135.238073 
L 130.032 132.519298 
L 130.4784 134.567117 
L 130.9248 131.516693 
L 131.3712 132.664976 
L 131.8176 134.125858 
L 132.264 134.113959 
L 132.7104 134.790598 
L 133.1568 136.643651 
L 133.6032 137.581913 
L 134.0496 137.540432 
L 134.496 130.767191 
L 134.9424 129.262227 
L 135.3888 130.253644 
L 136.2816 133.081248 
L 136.728 133.31266 
L 137.1744 132.07687 
L 137.6208 132.680669 
L 138.0672 134.284342 
L 138.5136 132.797784 
L 138.96 134.064853 
L 139.4064 130.462944 
L 139.8528 130.70536 
L 140.2992 132.140424 
L 140.7456 132.491876 
L 141.192 134.279854 
L 141.6384 135.466308 
L 142.5312 138.912221 
L 142.9776 136.248676 
L 143.424 135.201344 
L 143.8704 136.210826 
L 145.2096 140.671555 
L 145.656 140.622612 
L 146.1024 138.869437 
L 146.5488 136.183239 
L 146.9952 135.811712 
L 147.888 137.440429 
L 148.3344 138.68365 
L 148.7808 138.410252 
L 149.2272 139.147764 
L 150.12 142.480538 
L 151.0128 144.142211 
L 151.4592 144.043556 
L 151.9056 145.205796 
L 153.6912 135.700495 
L 154.1376 135.2927 
L 154.584 131.98439 
L 155.4768 134.201648 
L 155.9232 134.888802 
L 156.3696 133.378025 
L 156.816 134.078197 
L 157.2624 135.289144 
L 157.7088 135.204844 
L 158.1552 135.54558 
L 158.6016 136.048711 
L 159.048 137.285665 
L 159.4944 136.291688 
L 159.9408 134.755061 
L 161.28 138.455548 
L 161.7264 136.433006 
L 162.1728 135.230373 
L 162.6192 134.950432 
L 163.0656 134.13615 
L 163.512 133.609272 
L 163.9584 134.984288 
L 164.4048 133.397921 
L 165.2976 134.264575 
L 165.744 133.920875 
L 166.1904 132.756421 
L 166.6368 132.508853 
L 167.0832 133.788197 
L 167.5296 133.499389 
L 168.8688 137.173878 
L 169.3152 138.09081 
L 169.7616 138.546525 
L 170.6544 136.81958 
L 171.1008 135.171801 
L 171.5472 136.234279 
L 171.9936 136.754311 
L 172.44 136.114171 
L 172.8864 136.806831 
L 173.3328 138.141248 
L 173.7792 137.370585 
L 174.2256 138.37961 
L 174.672 136.081659 
L 175.1184 136.062845 
L 175.5648 137.00743 
L 176.0112 137.591552 
L 176.4576 138.779652 
L 176.904 139.277989 
L 177.3504 140.351569 
L 177.7968 140.504844 
L 178.2432 138.751118 
L 178.6896 139.509677 
L 179.136 138.322353 
L 179.5824 138.263501 
L 180.0288 136.92683 
L 180.4752 136.676457 
L 180.9216 137.305874 
L 181.8144 138.054159 
L 182.7072 139.242259 
L 183.1536 139.35038 
L 183.6 139.199342 
L 184.4928 141.703317 
L 184.9392 141.344416 
L 185.3856 140.057812 
L 185.832 138.397713 
L 186.2784 137.968102 
L 187.1712 138.694199 
L 187.6176 138.489321 
L 188.064 138.777016 
L 188.5104 139.442508 
L 188.9568 138.778594 
L 189.4032 139.743067 
L 189.8496 140.156077 
L 190.296 138.357028 
L 190.7424 138.680625 
L 191.1888 139.932712 
L 191.6352 140.497918 
L 192.0816 141.463854 
L 192.528 141.995055 
L 192.9744 141.912408 
L 193.4208 143.031559 
L 193.8672 143.355961 
L 195.2064 140.920497 
L 195.6528 140.403262 
L 196.0992 141.56188 
L 196.5456 141.447191 
L 196.992 140.393579 
L 197.4384 140.317615 
L 197.8848 141.201598 
L 198.3312 141.117152 
L 198.7776 141.298739 
L 199.224 140.193685 
L 199.6704 140.589144 
L 200.1168 141.443223 
L 200.5632 142.772994 
L 201.0096 143.471604 
L 201.456 144.646751 
L 201.9024 145.131412 
L 202.3488 144.838338 
L 202.7952 144.860248 
L 203.688 147.561332 
L 204.5808 144.914037 
L 205.0272 142.526508 
L 205.4736 142.952064 
L 206.3664 139.673139 
L 206.8128 139.145098 
L 207.2592 139.005847 
L 207.7056 139.884867 
L 208.152 140.006264 
L 208.5984 139.080207 
L 209.0448 137.61154 
L 209.4912 138.357566 
L 209.9376 137.467932 
L 210.384 137.146809 
L 210.8304 136.635913 
L 211.2768 137.655896 
L 212.1696 137.886638 
L 212.616 138.448044 
L 213.0624 137.512144 
L 213.5088 136.919816 
L 213.9552 137.396693 
L 214.4016 138.125798 
L 214.848 138.395812 
L 215.2944 138.849422 
L 215.7408 138.629539 
L 216.1872 137.595114 
L 216.6336 137.801195 
L 217.08 138.699806 
L 217.5264 138.401183 
L 218.4192 140.493625 
L 218.8656 140.535266 
L 219.312 141.327472 
L 220.2048 143.370443 
L 220.6512 143.631224 
L 221.0976 141.680647 
L 221.544 142.040229 
L 221.9904 143.030445 
L 222.4368 143.7089 
L 222.8832 143.655333 
L 223.3296 144.822488 
L 223.776 144.536339 
L 224.2224 145.531833 
L 224.6688 146.162943 
L 225.1152 147.400694 
L 225.5616 147.532788 
L 226.008 148.133673 
L 226.4544 147.197679 
L 226.9008 145.926878 
L 227.3472 145.764525 
L 227.7936 146.094302 
L 228.24 147.153429 
L 228.6864 145.585925 
L 229.5792 144.935605 
L 230.0256 145.633806 
L 230.472 145.068542 
L 230.9184 146.17285 
L 231.3648 145.851244 
L 231.8112 145.841248 
L 232.2576 146.546301 
L 232.704 146.76866 
L 233.1504 147.317869 
L 233.5968 147.160553 
L 234.0432 148.316334 
L 234.4896 148.77962 
L 234.936 150.076182 
L 235.3824 148.746318 
L 235.8288 149.108312 
L 236.2752 149.053318 
L 236.7216 150.34231 
L 237.168 149.640356 
L 237.6144 148.607052 
L 238.0608 149.665792 
L 238.5072 150.371717 
L 238.9536 149.998348 
L 239.4 150.579488 
L 239.8464 151.885996 
L 240.2928 151.609819 
L 240.7392 153.101509 
L 241.1856 153.840284 
L 241.632 154.923162 
L 242.0784 153.528748 
L 242.5248 153.461862 
L 242.9712 154.263723 
L 243.864 154.34388 
L 244.7568 156.996081 
L 245.2032 156.052619 
L 245.6496 155.975912 
L 246.096 156.289423 
L 246.5424 155.208767 
L 246.9888 153.688089 
L 247.4352 154.3784 
L 247.8816 153.624228 
L 248.328 154.827904 
L 248.7744 153.090393 
L 249.2208 154.511991 
L 249.6672 153.928413 
L 250.1136 154.580366 
L 250.56 152.795246 
L 251.4528 155.694405 
L 251.8992 155.883838 
L 252.3456 154.425044 
L 252.792 153.727107 
L 253.2384 154.60408 
L 253.6848 154.400005 
L 254.5776 157.291281 
L 255.024 157.800392 
L 255.9168 159.526333 
L 256.3632 159.645666 
L 256.8096 160.663707 
L 257.256 160.348497 
L 257.7024 159.081496 
L 258.1488 159.257749 
L 258.5952 160.746205 
L 259.0416 161.360308 
L 259.488 160.356965 
L 259.9344 161.56793 
L 260.3808 160.333389 
L 260.8272 162.203559 
L 261.2736 161.717978 
L 261.72 161.735435 
L 262.1664 162.346529 
L 262.6128 162.089411 
L 263.0592 159.849468 
L 263.5056 160.414181 
L 263.952 160.755765 
L 265.2912 162.354275 
L 265.7376 163.430785 
L 266.184 163.980725 
L 267.0768 160.872723 
L 267.5232 160.163028 
L 267.9696 160.768309 
L 268.8624 163.301889 
L 269.3088 161.218672 
L 269.7552 161.145464 
L 270.2016 162.289585 
L 270.648 163.033745 
L 271.9872 168.824353 
L 272.4336 168.375137 
L 272.88 168.183058 
L 273.3264 170.112864 
L 273.7728 165.529585 
L 274.2192 167.13458 
L 274.6656 167.933345 
L 275.112 169.087828 
L 275.5584 166.763713 
L 276.0048 165.85049 
L 276.4512 166.796823 
L 276.8976 164.301654 
L 277.344 163.929 
L 277.7904 164.267436 
L 278.2368 163.113611 
L 279.1296 158.808127 
L 279.576 159.608356 
L 280.0224 157.741508 
L 280.4688 158.989526 
L 281.808 163.455214 
L 282.2544 164.776525 
L 282.7008 163.11803 
L 283.1472 160.292286 
L 283.5936 161.037774 
L 284.04 160.723001 
L 284.4864 162.380829 
L 284.9328 162.051218 
L 285.3792 162.471559 
L 285.8256 162.595022 
L 286.272 161.473066 
L 286.7184 161.992923 
L 287.1648 163.01494 
L 287.6112 162.928555 
L 288.0576 164.702 
L 288.504 165.129847 
L 288.9504 165.109077 
L 289.3968 166.496211 
L 289.8432 166.866221 
L 290.2896 168.459456 
L 290.736 168.84698 
L 291.1824 169.966064 
L 291.6288 167.816883 
L 292.0752 168.123685 
L 292.5216 167.530061 
L 292.968 168.785776 
L 293.4144 170.898358 
L 293.8608 170.462554 
L 294.3072 167.508516 
L 294.7536 169.08874 
L 295.6464 167.37857 
L 296.0928 167.444783 
L 296.5392 168.252814 
L 296.9856 167.780631 
L 297.8784 168.004731 
L 298.3248 170.006257 
L 299.2176 172.32678 
L 299.664 174.677484 
L 300.1104 173.511082 
L 300.5568 175.430682 
L 301.0032 175.239329 
L 301.4496 171.500287 
L 301.896 170.901356 
L 302.3424 170.796615 
L 302.7888 171.029468 
L 303.2352 167.840309 
L 303.6816 167.418512 
L 304.128 168.151569 
L 304.5744 169.133683 
L 305.0208 167.006693 
L 306.36 171.91886 
L 306.8064 172.582294 
L 307.6992 173.175049 
L 308.1456 174.149854 
L 308.592 173.993689 
L 309.0384 174.969209 
L 309.4848 175.506845 
L 309.9312 177.401888 
L 310.3776 180.359526 
L 310.824 180.750056 
L 311.2704 183.843082 
L 311.7168 184.637265 
L 312.1632 187.178777 
L 312.6096 187.320919 
L 313.056 191.072721 
L 313.5024 191.615397 
L 313.9488 195.348879 
L 314.3952 192.186722 
L 314.8416 191.527227 
L 315.288 194.086173 
L 315.7344 199.70195 
L 316.1808 194.760674 
L 316.6272 196.279355 
L 317.0736 202.408833 
L 317.52 210.570664 
L 317.9664 198.013818 
L 318.4128 195.229744 
L 318.8592 194.098218 
L 319.3056 188.658603 
L 319.752 193.071274 
L 320.1984 194.449665 
L 320.6448 196.773646 
L 321.0912 202.497718 
L 321.5376 198.60296 
L 321.984 198.568213 
L 322.4304 200.620669 
L 322.8768 203.378098 
L 323.3232 200.362822 
L 323.7696 200.493003 
L 324.216 189.815739 
L 324.6624 184.049136 
L 325.1088 187.043361 
L 325.5552 191.142072 
L 326.0016 192.859659 
L 326.448 189.217455 
L 326.8944 191.116166 
L 327.3408 188.077173 
L 327.7872 188.736211 
L 328.2336 187.771683 
L 328.68 185.095048 
L 329.1264 187.929988 
L 329.5728 189.319398 
L 330.0192 186.657696 
L 330.4656 185.614247 
L 330.912 186.486752 
L 331.3584 187.974042 
L 332.2512 195.30559 
L 332.6976 197.61892 
L 333.144 202.240607 
L 333.5904 200.390098 
L 334.0368 201.735995 
L 334.4832 193.395538 
L 334.9296 197.853744 
L 335.376 200.446223 
L 335.8224 196.899612 
L 336.2688 198.670981 
L 336.7152 204.287918 
L 337.1616 203.099243 
L 338.5008 224.953378 
L 338.9472 251.768407 
L 339.84 230.926867 
L 340.2864 264.439488 
L 340.7328 265.3455 
L 341.1792 234.565257 
L 341.6256 261.564716 
L 342.072 246.324327 
L 342.5184 265.228349 
L 342.9648 263.46495 
L 343.4112 243.100383 
L 343.8576 268.163327 
L 344.304 213.180408 
L 344.7504 212.608193 
L 345.1968 211.676144 
L 345.6432 214.735317 
L 346.0896 211.494634 
L 346.536 209.568639 
L 346.9824 218.38873 
L 347.4288 230.443704 
L 347.8752 205.960349 
L 348.3216 211.811914 
L 349.2144 207.528632 
L 349.6608 209.122368 
L 350.1072 212.090126 
L 350.5536 209.660717 
L 351 217.186393 
L 351.4464 216.961233 
L 351.8928 226.758227 
L 352.3392 228.74175 
L 352.7856 255.257604 
L 353.232 359.690707 
L 353.6784 245.93423 
L 354.1248 235.670868 
L 354.5712 231.401649 
L 355.0176 222.513417 
L 355.464 222.883415 
L 355.9104 215.2932 
L 356.3568 214.012708 
L 356.8032 225.867084 
L 357.2496 209.890702 
L 357.696 205.490005 
L 358.1424 202.612074 
L 359.0352 206.540437 
L 359.4816 202.825758 
L 359.928 204.703405 
L 360.3744 207.225712 
L 361.2672 221.017356 
L 362.16 245.779044 
L 362.6064 234.753528 
L 363.0528 239.170256 
L 363.4992 261.891316 
L 363.9456 256.11213 
L 364.392 257.568173 
L 364.8384 230.581604 
L 365.2848 232.52554 
L 365.7312 236.914768 
L 366.1776 231.393781 
L 366.624 233.177012 
L 367.0704 238.08533 
L 367.5168 276.026255 
L 367.9632 233.188668 
L 368.4096 220.681064 
L 368.856 237.385777 
L 369.3024 237.046682 
L 369.7488 236.52139 
L 370.1952 251.69132 
L 370.6416 238.733045 
L 371.088 232.549943 
L 371.5344 220.735331 
L 371.9808 235.464401 
L 374.2128 204.607469 
L 374.6592 202.46249 
L 375.1056 201.53855 
L 375.552 198.132519 
L 376.4448 206.633475 
L 377.3376 197.815367 
L 377.784 196.132408 
L 378.2304 192.703476 
L 378.6768 193.053949 
L 380.016 188.510432 
L 380.4624 190.479261 
L 380.9088 187.888588 
L 381.3552 187.506907 
L 381.8016 184.55584 
L 382.248 182.750841 
L 382.6944 182.127941 
L 383.1408 180.363708 
L 383.5872 182.641648 
L 384.48 179.064314 
L 384.9264 178.117942 
L 385.3728 178.504091 
L 385.8192 176.622941 
L 386.2656 176.105708 
L 387.1584 173.849089 
L 387.6048 173.454539 
L 388.0512 171.893608 
L 388.4976 177.4252 
L 388.944 176.406387 
L 389.3904 174.918964 
L 389.8368 177.15239 
L 390.2832 175.447998 
L 390.7296 175.747603 
L 391.176 177.377323 
L 391.6224 176.983677 
L 392.0688 180.327253 
L 392.9616 176.572559 
L 393.408 177.9678 
L 393.8544 176.962701 
L 394.3008 178.302961 
L 394.7472 178.682905 
L 395.1936 176.719469 
L 395.64 179.029799 
L 396.0864 179.502101 
L 396.5328 184.504778 
L 396.9792 182.28161 
L 397.872 185.058454 
L 398.3184 184.685205 
L 398.7648 185.19714 
L 399.2112 187.543869 
L 400.104 182.573411 
L 400.5504 181.970501 
L 400.9968 181.717388 
L 401.4432 181.282983 
L 401.8896 180.075047 
L 402.336 181.389047 
L 402.7824 183.955679 
L 403.2288 184.236333 
L 403.6752 182.92572 
L 404.1216 182.015709 
L 404.568 186.845127 
L 405.0144 186.326614 
L 405.4608 187.419022 
L 405.9072 185.476173 
L 406.3536 185.954127 
L 406.8 183.979274 
L 407.2464 183.973259 
L 407.6928 184.274503 
L 408.1392 189.635152 
L 408.5856 191.406585 
L 409.4784 193.592674 
L 409.9248 192.419407 
L 410.3712 194.877016 
L 410.8176 194.571331 
L 411.264 194.572817 
L 411.7104 193.730884 
L 412.1568 195.976407 
L 412.6032 197.483729 
L 413.0496 210.149995 
L 413.496 212.887414 
L 413.9424 220.099146 
L 414.3888 214.46517 
L 414.8352 229.285181 
L 415.2816 223.337041 
L 415.728 215.60925 
L 416.1744 210.510458 
L 416.6208 210.555144 
L 417.0672 222.144691 
L 417.5136 212.918902 
L 418.8528 201.08214 
L 419.2992 202.176499 
L 419.7456 197.733497 
L 420.192 194.806983 
L 420.6384 197.431282 
L 421.0848 194.501498 
L 421.5312 196.00594 
L 421.9776 195.275435 
L 422.424 192.927673 
L 422.8704 194.442391 
L 423.3168 194.650491 
L 423.7632 193.28189 
L 424.656 197.952675 
L 425.1024 195.524888 
L 425.5488 192.386783 
L 425.9952 195.13083 
L 426.888 203.535654 
L 427.3344 202.540145 
L 427.7808 203.208034 
L 429.12 193.206342 
L 429.5664 195.637061 
L 430.0128 192.808562 
L 430.9056 200.077885 
L 431.352 199.020749 
L 431.7984 202.468831 
L 432.2448 203.956116 
L 432.6912 204.761256 
L 433.1376 216.35426 
L 433.584 220.277845 
L 434.0304 243.245521 
L 434.4768 225.88222 
L 434.9232 215.859263 
L 435.3696 209.068219 
L 435.816 210.756468 
L 436.7088 202.848858 
L 437.1552 201.760491 
L 437.6016 208.494775 
L 438.048 211.497757 
L 438.9408 203.875436 
L 439.3872 205.53528 
L 439.8336 202.951014 
L 440.7264 246.396044 
L 441.1728 231.897088 
L 441.6192 255.896025 
L 442.0656 236.743763 
L 442.512 251.106871 
L 442.9584 283.606873 
L 443.4048 226.274018 
L 443.8512 219.726503 
L 444.2976 210.399814 
L 444.744 215.775317 
L 445.1904 216.804276 
L 445.6368 209.4004 
L 446.0832 210.644867 
L 446.5296 214.501829 
L 447.4224 217.853245 
L 447.8688 227.006931 
L 448.3152 238.992789 
L 448.7616 230.449114 
L 449.208 229.923442 
L 449.6544 230.214098 
L 450.1008 241.979672 
L 450.5472 237.339227 
L 450.9936 252.836659 
L 451.44 231.33198 
L 451.8864 215.256168 
L 452.3328 221.106489 
L 452.7792 217.467394 
L 453.2256 219.429988 
L 453.672 229.648406 
L 454.5648 214.230041 
L 455.0112 219.138287 
L 455.4576 211.124525 
L 455.904 206.299972 
L 456.3504 210.659281 
L 456.7968 204.400798 
L 457.2432 203.509034 
L 458.136 207.301435 
L 458.5824 206.467116 
L 459.4752 212.637496 
L 459.9216 205.157648 
L 460.8144 215.39911 
L 461.2608 204.294165 
L 461.7072 205.383155 
L 462.1536 209.696987 
L 462.6 206.438053 
L 463.0464 209.411022 
L 463.4928 203.133895 
L 464.3856 211.412476 
L 464.832 215.635061 
L 465.2784 222.420203 
L 465.7248 226.625756 
L 466.1712 223.369484 
L 466.6176 232.884973 
L 467.064 235.42222 
L 467.5104 260.951196 
L 468.4032 279.639509 
L 468.8496 240.982839 
L 469.296 224.794302 
L 469.7424 223.256685 
L 471.0816 252.753781 
L 471.528 267.012972 
L 471.9744 262.987754 
L 472.4208 284.430726 
L 472.8672 241.592886 
L 473.3136 227.004805 
L 474.2064 212.414187 
L 475.992 197.360044 
L 476.4384 195.984194 
L 476.8848 193.06262 
L 477.7776 191.144122 
L 478.224 190.908901 
L 478.6704 189.798532 
L 479.5632 185.696742 
L 480.0096 186.520121 
L 480.456 189.337862 
L 480.9024 189.038084 
L 481.3488 187.650762 
L 481.7952 191.234657 
L 482.2416 190.178957 
L 482.688 190.790309 
L 483.1344 188.231806 
L 483.5808 186.59265 
L 484.0272 189.767158 
L 484.92 188.251812 
L 485.3664 188.299344 
L 485.8128 186.183988 
L 486.2592 190.907589 
L 486.7056 188.963866 
L 487.152 190.156542 
L 488.0448 195.455599 
L 488.4912 193.309117 
L 488.9376 192.621945 
L 489.384 192.518751 
L 489.8304 192.750349 
L 490.2768 193.887425 
L 491.1696 190.47153 
L 491.616 189.064998 
L 492.0624 188.891206 
L 492.5088 191.209751 
L 492.9552 194.632902 
L 493.4016 192.866971 
L 493.848 190.256213 
L 494.2944 189.681257 
L 494.7408 188.180954 
L 495.1872 192.691387 
L 496.08 191.361318 
L 497.4192 187.31641 
L 497.8656 185.428338 
L 498.312 187.05409 
L 500.0976 180.765408 
L 500.544 181.240638 
L 500.9904 183.94596 
L 501.4368 184.503272 
L 501.8832 184.134279 
L 502.3296 185.366992 
L 502.776 185.808823 
L 503.2224 189.384721 
L 503.6688 188.980177 
L 504.1152 190.330693 
L 504.5616 189.687361 
L 505.008 187.989361 
L 505.4544 188.122715 
L 505.9008 189.082896 
L 506.7936 186.017131 
L 507.24 188.834435 
L 508.1328 185.405659 
L 508.5792 185.70441 
L 509.0256 185.791526 
L 509.472 184.44199 
L 509.9184 185.317168 
L 510.3648 183.450638 
L 510.8112 184.388734 
L 511.2576 184.133846 
L 511.704 184.033212 
L 512.1504 183.538782 
L 512.5968 181.756413 
L 513.0432 180.486615 
L 513.936 180.761938 
L 514.3824 180.527184 
L 514.8288 179.042002 
L 515.2752 180.457378 
L 515.7216 180.33137 
L 516.168 179.480132 
L 517.0608 181.692157 
L 517.5072 180.707009 
L 517.9536 179.14176 
L 517.9536 179.14176 
" style="fill:none;stroke:#008000;stroke-linecap:square;"/>
   </g>
   <g id="patch_3">
    <path d="M 72 388.8 
L 518.4 388.8 
" style="fill:none;stroke:#000000;stroke-linecap:square;stroke-linejoin:miter;"/>
   </g>
   <g id="patch_4">
    <path d="M 72 43.2 
L 518.4 43.2 
" style="fill:none;stroke:#000000;stroke-linecap:square;stroke-linejoin:miter;"/>
   </g>
   <g id="patch_5">
    <path d="M 518.4 388.8 
L 518.4 43.2 
" style="fill:none;stroke:#000000;stroke-linecap:square;stroke-linejoin:miter;"/>
   </g>
   <g id="patch_6">
    <path d="M 72 388.8 
L 72 43.2 
" style="fill:none;stroke:#000000;stroke-linecap:square;stroke-linejoin:miter;"/>
   </g>
   <g id="matplotlib.axis_1">
    <g id="xtick_1">
     <g id="line2d_3">
      <defs>
       <path d="M 0 0 
L 0 -4 
" id="m9359bfb9d5" style="stroke:#000000;stroke-width:0.5;"/>
      </defs>
      <g>
       <use style="stroke:#000000;stroke-width:0.5;" x="72.0" xlink:href="#m9359bfb9d5" y="388.8"/>
      </g>
     </g>
     <g id="line2d_4">
      <defs>
       <path d="M 0 0 
L 0 4 
" id="md8a34325f7" style="stroke:#000000;stroke-width:0.5;"/>
      </defs>
      <g>
       <use style="stroke:#000000;stroke-width:0.5;" x="72.0" xlink:href="#md8a34325f7" y="43.2"/>
      </g>
     </g>
     <g id="text_1">
      <!-- 0 -->
      <defs>
       <path d="M 31.78125 66.40625 
Q 24.171875 66.40625 20.328125 58.90625 
Q 16.5 51.421875 16.5 36.375 
Q 16.5 21.390625 20.328125 13.890625 
Q 24.171875 6.390625 31.78125 6.390625 
Q 39.453125 6.390625 43.28125 13.890625 
Q 47.125 21.390625 47.125 36.375 
Q 47.125 51.421875 43.28125 58.90625 
Q 39.453125 66.40625 31.78125 66.40625 
M 31.78125 74.21875 
Q 44.046875 74.21875 50.515625 64.515625 
Q 56.984375 54.828125 56.984375 36.375 
Q 56.984375 17.96875 50.515625 8.265625 
Q 44.046875 -1.421875 31.78125 -1.421875 
Q 19.53125 -1.421875 13.0625 8.265625 
Q 6.59375 17.96875 6.59375 36.375 
Q 6.59375 54.828125 13.0625 64.515625 
Q 19.53125 74.21875 31.78125 74.21875 
" id="BitstreamVeraSans-Roman-30"/>
      </defs>
      <g transform="translate(68.1825 401.918125)scale(0.12 -0.12)">
       <use xlink:href="#BitstreamVeraSans-Roman-30"/>
      </g>
     </g>
    </g>
    <g id="xtick_2">
     <g id="line2d_5">
      <g>
       <use style="stroke:#000000;stroke-width:0.5;" x="161.28" xlink:href="#m9359bfb9d5" y="388.8"/>
      </g>
     </g>
     <g id="line2d_6">
      <g>
       <use style="stroke:#000000;stroke-width:0.5;" x="161.28" xlink:href="#md8a34325f7" y="43.2"/>
      </g>
     </g>
     <g id="text_2">
      <!-- 200 -->
      <defs>
       <path d="M 19.1875 8.296875 
L 53.609375 8.296875 
L 53.609375 0 
L 7.328125 0 
L 7.328125 8.296875 
Q 12.9375 14.109375 22.625 23.890625 
Q 32.328125 33.6875 34.8125 36.53125 
Q 39.546875 41.84375 41.421875 45.53125 
Q 43.3125 49.21875 43.3125 52.78125 
Q 43.3125 58.59375 39.234375 62.25 
Q 35.15625 65.921875 28.609375 65.921875 
Q 23.96875 65.921875 18.8125 64.3125 
Q 13.671875 62.703125 7.8125 59.421875 
L 7.8125 69.390625 
Q 13.765625 71.78125 18.9375 73 
Q 24.125 74.21875 28.421875 74.21875 
Q 39.75 74.21875 46.484375 68.546875 
Q 53.21875 62.890625 53.21875 53.421875 
Q 53.21875 48.921875 51.53125 44.890625 
Q 49.859375 40.875 45.40625 35.40625 
Q 44.1875 33.984375 37.640625 27.21875 
Q 31.109375 20.453125 19.1875 8.296875 
" id="BitstreamVeraSans-Roman-32"/>
      </defs>
      <g transform="translate(149.8275 401.918125)scale(0.12 -0.12)">
       <use xlink:href="#BitstreamVeraSans-Roman-32"/>
       <use x="63.623046875" xlink:href="#BitstreamVeraSans-Roman-30"/>
       <use x="127.24609375" xlink:href="#BitstreamVeraSans-Roman-30"/>
      </g>
     </g>
    </g>
    <g id="xtick_3">
     <g id="line2d_7">
      <g>
       <use style="stroke:#000000;stroke-width:0.5;" x="250.56" xlink:href="#m9359bfb9d5" y="388.8"/>
      </g>
     </g>
     <g id="line2d_8">
      <g>
       <use style="stroke:#000000;stroke-width:0.5;" x="250.56" xlink:href="#md8a34325f7" y="43.2"/>
      </g>
     </g>
     <g id="text_3">
      <!-- 400 -->
      <defs>
       <path d="M 37.796875 64.3125 
L 12.890625 25.390625 
L 37.796875 25.390625 
z
M 35.203125 72.90625 
L 47.609375 72.90625 
L 47.609375 25.390625 
L 58.015625 25.390625 
L 58.015625 17.1875 
L 47.609375 17.1875 
L 47.609375 0 
L 37.796875 0 
L 37.796875 17.1875 
L 4.890625 17.1875 
L 4.890625 26.703125 
z
" id="BitstreamVeraSans-Roman-34"/>
      </defs>
      <g transform="translate(239.1075 401.918125)scale(0.12 -0.12)">
       <use xlink:href="#BitstreamVeraSans-Roman-34"/>
       <use x="63.623046875" xlink:href="#BitstreamVeraSans-Roman-30"/>
       <use x="127.24609375" xlink:href="#BitstreamVeraSans-Roman-30"/>
      </g>
     </g>
    </g>
    <g id="xtick_4">
     <g id="line2d_9">
      <g>
       <use style="stroke:#000000;stroke-width:0.5;" x="339.84" xlink:href="#m9359bfb9d5" y="388.8"/>
      </g>
     </g>
     <g id="line2d_10">
      <g>
       <use style="stroke:#000000;stroke-width:0.5;" x="339.84" xlink:href="#md8a34325f7" y="43.2"/>
      </g>
     </g>
     <g id="text_4">
      <!-- 600 -->
      <defs>
       <path d="M 33.015625 40.375 
Q 26.375 40.375 22.484375 35.828125 
Q 18.609375 31.296875 18.609375 23.390625 
Q 18.609375 15.53125 22.484375 10.953125 
Q 26.375 6.390625 33.015625 6.390625 
Q 39.65625 6.390625 43.53125 10.953125 
Q 47.40625 15.53125 47.40625 23.390625 
Q 47.40625 31.296875 43.53125 35.828125 
Q 39.65625 40.375 33.015625 40.375 
M 52.59375 71.296875 
L 52.59375 62.3125 
Q 48.875 64.0625 45.09375 64.984375 
Q 41.3125 65.921875 37.59375 65.921875 
Q 27.828125 65.921875 22.671875 59.328125 
Q 17.53125 52.734375 16.796875 39.40625 
Q 19.671875 43.65625 24.015625 45.921875 
Q 28.375 48.1875 33.59375 48.1875 
Q 44.578125 48.1875 50.953125 41.515625 
Q 57.328125 34.859375 57.328125 23.390625 
Q 57.328125 12.15625 50.6875 5.359375 
Q 44.046875 -1.421875 33.015625 -1.421875 
Q 20.359375 -1.421875 13.671875 8.265625 
Q 6.984375 17.96875 6.984375 36.375 
Q 6.984375 53.65625 15.1875 63.9375 
Q 23.390625 74.21875 37.203125 74.21875 
Q 40.921875 74.21875 44.703125 73.484375 
Q 48.484375 72.75 52.59375 71.296875 
" id="BitstreamVeraSans-Roman-36"/>
      </defs>
      <g transform="translate(328.3875 401.918125)scale(0.12 -0.12)">
       <use xlink:href="#BitstreamVeraSans-Roman-36"/>
       <use x="63.623046875" xlink:href="#BitstreamVeraSans-Roman-30"/>
       <use x="127.24609375" xlink:href="#BitstreamVeraSans-Roman-30"/>
      </g>
     </g>
    </g>
    <g id="xtick_5">
     <g id="line2d_11">
      <g>
       <use style="stroke:#000000;stroke-width:0.5;" x="429.12" xlink:href="#m9359bfb9d5" y="388.8"/>
      </g>
     </g>
     <g id="line2d_12">
      <g>
       <use style="stroke:#000000;stroke-width:0.5;" x="429.12" xlink:href="#md8a34325f7" y="43.2"/>
      </g>
     </g>
     <g id="text_5">
      <!-- 800 -->
      <defs>
       <path d="M 31.78125 34.625 
Q 24.75 34.625 20.71875 30.859375 
Q 16.703125 27.09375 16.703125 20.515625 
Q 16.703125 13.921875 20.71875 10.15625 
Q 24.75 6.390625 31.78125 6.390625 
Q 38.8125 6.390625 42.859375 10.171875 
Q 46.921875 13.96875 46.921875 20.515625 
Q 46.921875 27.09375 42.890625 30.859375 
Q 38.875 34.625 31.78125 34.625 
M 21.921875 38.8125 
Q 15.578125 40.375 12.03125 44.71875 
Q 8.5 49.078125 8.5 55.328125 
Q 8.5 64.0625 14.71875 69.140625 
Q 20.953125 74.21875 31.78125 74.21875 
Q 42.671875 74.21875 48.875 69.140625 
Q 55.078125 64.0625 55.078125 55.328125 
Q 55.078125 49.078125 51.53125 44.71875 
Q 48 40.375 41.703125 38.8125 
Q 48.828125 37.15625 52.796875 32.3125 
Q 56.78125 27.484375 56.78125 20.515625 
Q 56.78125 9.90625 50.3125 4.234375 
Q 43.84375 -1.421875 31.78125 -1.421875 
Q 19.734375 -1.421875 13.25 4.234375 
Q 6.78125 9.90625 6.78125 20.515625 
Q 6.78125 27.484375 10.78125 32.3125 
Q 14.796875 37.15625 21.921875 38.8125 
M 18.3125 54.390625 
Q 18.3125 48.734375 21.84375 45.5625 
Q 25.390625 42.390625 31.78125 42.390625 
Q 38.140625 42.390625 41.71875 45.5625 
Q 45.3125 48.734375 45.3125 54.390625 
Q 45.3125 60.0625 41.71875 63.234375 
Q 38.140625 66.40625 31.78125 66.40625 
Q 25.390625 66.40625 21.84375 63.234375 
Q 18.3125 60.0625 18.3125 54.390625 
" id="BitstreamVeraSans-Roman-38"/>
      </defs>
      <g transform="translate(417.6675 401.918125)scale(0.12 -0.12)">
       <use xlink:href="#BitstreamVeraSans-Roman-38"/>
       <use x="63.623046875" xlink:href="#BitstreamVeraSans-Roman-30"/>
       <use x="127.24609375" xlink:href="#BitstreamVeraSans-Roman-30"/>
      </g>
     </g>
    </g>
    <g id="xtick_6">
     <g id="line2d_13">
      <g>
       <use style="stroke:#000000;stroke-width:0.5;" x="518.4" xlink:href="#m9359bfb9d5" y="388.8"/>
      </g>
     </g>
     <g id="line2d_14">
      <g>
       <use style="stroke:#000000;stroke-width:0.5;" x="518.4" xlink:href="#md8a34325f7" y="43.2"/>
      </g>
     </g>
     <g id="text_6">
      <!-- 1000 -->
      <defs>
       <path d="M 12.40625 8.296875 
L 28.515625 8.296875 
L 28.515625 63.921875 
L 10.984375 60.40625 
L 10.984375 69.390625 
L 28.421875 72.90625 
L 38.28125 72.90625 
L 38.28125 8.296875 
L 54.390625 8.296875 
L 54.390625 0 
L 12.40625 0 
z
" id="BitstreamVeraSans-Roman-31"/>
      </defs>
      <g transform="translate(503.13 401.918125)scale(0.12 -0.12)">
       <use xlink:href="#BitstreamVeraSans-Roman-31"/>
       <use x="63.623046875" xlink:href="#BitstreamVeraSans-Roman-30"/>
       <use x="127.24609375" xlink:href="#BitstreamVeraSans-Roman-30"/>
       <use x="190.869140625" xlink:href="#BitstreamVeraSans-Roman-30"/>
      </g>
     </g>
    </g>
    <g id="text_7">
     <!-- Sample Number -->
     <defs>
      <path d="M 41.109375 46.296875 
Q 39.59375 47.171875 37.8125 47.578125 
Q 36.03125 48 33.890625 48 
Q 26.265625 48 22.1875 43.046875 
Q 18.109375 38.09375 18.109375 28.8125 
L 18.109375 0 
L 9.078125 0 
L 9.078125 54.6875 
L 18.109375 54.6875 
L 18.109375 46.1875 
Q 20.953125 51.171875 25.484375 53.578125 
Q 30.03125 56 36.53125 56 
Q 37.453125 56 38.578125 55.875 
Q 39.703125 55.765625 41.0625 55.515625 
z
" id="BitstreamVeraSans-Roman-72"/>
      <path d="M 53.515625 70.515625 
L 53.515625 60.890625 
Q 47.90625 63.578125 42.921875 64.890625 
Q 37.9375 66.21875 33.296875 66.21875 
Q 25.25 66.21875 20.875 63.09375 
Q 16.5 59.96875 16.5 54.203125 
Q 16.5 49.359375 19.40625 46.890625 
Q 22.3125 44.4375 30.421875 42.921875 
L 36.375 41.703125 
Q 47.40625 39.59375 52.65625 34.296875 
Q 57.90625 29 57.90625 20.125 
Q 57.90625 9.515625 50.796875 4.046875 
Q 43.703125 -1.421875 29.984375 -1.421875 
Q 24.8125 -1.421875 18.96875 -0.25 
Q 13.140625 0.921875 6.890625 3.21875 
L 6.890625 13.375 
Q 12.890625 10.015625 18.65625 8.296875 
Q 24.421875 6.59375 29.984375 6.59375 
Q 38.421875 6.59375 43.015625 9.90625 
Q 47.609375 13.234375 47.609375 19.390625 
Q 47.609375 24.75 44.3125 27.78125 
Q 41.015625 30.8125 33.5 32.328125 
L 27.484375 33.5 
Q 16.453125 35.6875 11.515625 40.375 
Q 6.59375 45.0625 6.59375 53.421875 
Q 6.59375 63.09375 13.40625 68.65625 
Q 20.21875 74.21875 32.171875 74.21875 
Q 37.3125 74.21875 42.625 73.28125 
Q 47.953125 72.359375 53.515625 70.515625 
" id="BitstreamVeraSans-Roman-53"/>
      <path d="M 18.109375 8.203125 
L 18.109375 -20.796875 
L 9.078125 -20.796875 
L 9.078125 54.6875 
L 18.109375 54.6875 
L 18.109375 46.390625 
Q 20.953125 51.265625 25.265625 53.625 
Q 29.59375 56 35.59375 56 
Q 45.5625 56 51.78125 48.09375 
Q 58.015625 40.1875 58.015625 27.296875 
Q 58.015625 14.40625 51.78125 6.484375 
Q 45.5625 -1.421875 35.59375 -1.421875 
Q 29.59375 -1.421875 25.265625 0.953125 
Q 20.953125 3.328125 18.109375 8.203125 
M 48.6875 27.296875 
Q 48.6875 37.203125 44.609375 42.84375 
Q 40.53125 48.484375 33.40625 48.484375 
Q 26.265625 48.484375 22.1875 42.84375 
Q 18.109375 37.203125 18.109375 27.296875 
Q 18.109375 17.390625 22.1875 11.75 
Q 26.265625 6.109375 33.40625 6.109375 
Q 40.53125 6.109375 44.609375 11.75 
Q 48.6875 17.390625 48.6875 27.296875 
" id="BitstreamVeraSans-Roman-70"/>
      <path d="M 9.8125 72.90625 
L 23.09375 72.90625 
L 55.421875 11.921875 
L 55.421875 72.90625 
L 64.984375 72.90625 
L 64.984375 0 
L 51.703125 0 
L 19.390625 60.984375 
L 19.390625 0 
L 9.8125 0 
z
" id="BitstreamVeraSans-Roman-4e"/>
      <path id="BitstreamVeraSans-Roman-20"/>
      <path d="M 34.28125 27.484375 
Q 23.390625 27.484375 19.1875 25 
Q 14.984375 22.515625 14.984375 16.5 
Q 14.984375 11.71875 18.140625 8.90625 
Q 21.296875 6.109375 26.703125 6.109375 
Q 34.1875 6.109375 38.703125 11.40625 
Q 43.21875 16.703125 43.21875 25.484375 
L 43.21875 27.484375 
z
M 52.203125 31.203125 
L 52.203125 0 
L 43.21875 0 
L 43.21875 8.296875 
Q 40.140625 3.328125 35.546875 0.953125 
Q 30.953125 -1.421875 24.3125 -1.421875 
Q 15.921875 -1.421875 10.953125 3.296875 
Q 6 8.015625 6 15.921875 
Q 6 25.140625 12.171875 29.828125 
Q 18.359375 34.515625 30.609375 34.515625 
L 43.21875 34.515625 
L 43.21875 35.40625 
Q 43.21875 41.609375 39.140625 45 
Q 35.0625 48.390625 27.6875 48.390625 
Q 23 48.390625 18.546875 47.265625 
Q 14.109375 46.140625 10.015625 43.890625 
L 10.015625 52.203125 
Q 14.9375 54.109375 19.578125 55.046875 
Q 24.21875 56 28.609375 56 
Q 40.484375 56 46.34375 49.84375 
Q 52.203125 43.703125 52.203125 31.203125 
" id="BitstreamVeraSans-Roman-61"/>
      <path d="M 52 44.1875 
Q 55.375 50.25 60.0625 53.125 
Q 64.75 56 71.09375 56 
Q 79.640625 56 84.28125 50.015625 
Q 88.921875 44.046875 88.921875 33.015625 
L 88.921875 0 
L 79.890625 0 
L 79.890625 32.71875 
Q 79.890625 40.578125 77.09375 44.375 
Q 74.3125 48.1875 68.609375 48.1875 
Q 61.625 48.1875 57.5625 43.546875 
Q 53.515625 38.921875 53.515625 30.90625 
L 53.515625 0 
L 44.484375 0 
L 44.484375 32.71875 
Q 44.484375 40.625 41.703125 44.40625 
Q 38.921875 48.1875 33.109375 48.1875 
Q 26.21875 48.1875 22.15625 43.53125 
Q 18.109375 38.875 18.109375 30.90625 
L 18.109375 0 
L 9.078125 0 
L 9.078125 54.6875 
L 18.109375 54.6875 
L 18.109375 46.1875 
Q 21.1875 51.21875 25.484375 53.609375 
Q 29.78125 56 35.6875 56 
Q 41.65625 56 45.828125 52.96875 
Q 50 49.953125 52 44.1875 
" id="BitstreamVeraSans-Roman-6d"/>
      <path d="M 56.203125 29.59375 
L 56.203125 25.203125 
L 14.890625 25.203125 
Q 15.484375 15.921875 20.484375 11.0625 
Q 25.484375 6.203125 34.421875 6.203125 
Q 39.59375 6.203125 44.453125 7.46875 
Q 49.3125 8.734375 54.109375 11.28125 
L 54.109375 2.78125 
Q 49.265625 0.734375 44.1875 -0.34375 
Q 39.109375 -1.421875 33.890625 -1.421875 
Q 20.796875 -1.421875 13.15625 6.1875 
Q 5.515625 13.8125 5.515625 26.8125 
Q 5.515625 40.234375 12.765625 48.109375 
Q 20.015625 56 32.328125 56 
Q 43.359375 56 49.78125 48.890625 
Q 56.203125 41.796875 56.203125 29.59375 
M 47.21875 32.234375 
Q 47.125 39.59375 43.09375 43.984375 
Q 39.0625 48.390625 32.421875 48.390625 
Q 24.90625 48.390625 20.390625 44.140625 
Q 15.875 39.890625 15.1875 32.171875 
z
" id="BitstreamVeraSans-Roman-65"/>
      <path d="M 8.5 21.578125 
L 8.5 54.6875 
L 17.484375 54.6875 
L 17.484375 21.921875 
Q 17.484375 14.15625 20.5 10.265625 
Q 23.53125 6.390625 29.59375 6.390625 
Q 36.859375 6.390625 41.078125 11.03125 
Q 45.3125 15.671875 45.3125 23.6875 
L 45.3125 54.6875 
L 54.296875 54.6875 
L 54.296875 0 
L 45.3125 0 
L 45.3125 8.40625 
Q 42.046875 3.421875 37.71875 1 
Q 33.40625 -1.421875 27.6875 -1.421875 
Q 18.265625 -1.421875 13.375 4.4375 
Q 8.5 10.296875 8.5 21.578125 
" id="BitstreamVeraSans-Roman-75"/>
      <path d="M 9.421875 75.984375 
L 18.40625 75.984375 
L 18.40625 0 
L 9.421875 0 
z
" id="BitstreamVeraSans-Roman-6c"/>
      <path d="M 48.6875 27.296875 
Q 48.6875 37.203125 44.609375 42.84375 
Q 40.53125 48.484375 33.40625 48.484375 
Q 26.265625 48.484375 22.1875 42.84375 
Q 18.109375 37.203125 18.109375 27.296875 
Q 18.109375 17.390625 22.1875 11.75 
Q 26.265625 6.109375 33.40625 6.109375 
Q 40.53125 6.109375 44.609375 11.75 
Q 48.6875 17.390625 48.6875 27.296875 
M 18.109375 46.390625 
Q 20.953125 51.265625 25.265625 53.625 
Q 29.59375 56 35.59375 56 
Q 45.5625 56 51.78125 48.09375 
Q 58.015625 40.1875 58.015625 27.296875 
Q 58.015625 14.40625 51.78125 6.484375 
Q 45.5625 -1.421875 35.59375 -1.421875 
Q 29.59375 -1.421875 25.265625 0.953125 
Q 20.953125 3.328125 18.109375 8.203125 
L 18.109375 0 
L 9.078125 0 
L 9.078125 75.984375 
L 18.109375 75.984375 
z
" id="BitstreamVeraSans-Roman-62"/>
     </defs>
     <g transform="translate(246.691875 418.531875)scale(0.12 -0.12)">
      <use xlink:href="#BitstreamVeraSans-Roman-53"/>
      <use x="63.4765625" xlink:href="#BitstreamVeraSans-Roman-61"/>
      <use x="124.755859375" xlink:href="#BitstreamVeraSans-Roman-6d"/>
      <use x="222.16796875" xlink:href="#BitstreamVeraSans-Roman-70"/>
      <use x="285.64453125" xlink:href="#BitstreamVeraSans-Roman-6c"/>
      <use x="313.427734375" xlink:href="#BitstreamVeraSans-Roman-65"/>
      <use x="374.951171875" xlink:href="#BitstreamVeraSans-Roman-20"/>
      <use x="406.73828125" xlink:href="#BitstreamVeraSans-Roman-4e"/>
      <use x="481.54296875" xlink:href="#BitstreamVeraSans-Roman-75"/>
      <use x="544.921875" xlink:href="#BitstreamVeraSans-Roman-6d"/>
      <use x="642.333984375" xlink:href="#BitstreamVeraSans-Roman-62"/>
      <use x="705.810546875" xlink:href="#BitstreamVeraSans-Roman-65"/>
      <use x="767.333984375" xlink:href="#BitstreamVeraSans-Roman-72"/>
     </g>
    </g>
   </g>
   <g id="matplotlib.axis_2">
    <g id="ytick_1">
     <g id="line2d_15">
      <defs>
       <path d="M 0 0 
L 4 0 
" id="mb32473b6dc" style="stroke:#000000;stroke-width:0.5;"/>
      </defs>
      <g>
       <use style="stroke:#000000;stroke-width:0.5;" x="72.0" xlink:href="#mb32473b6dc" y="388.8"/>
      </g>
     </g>
     <g id="line2d_16">
      <defs>
       <path d="M 0 0 
L -4 0 
" id="m14ba2707fc" style="stroke:#000000;stroke-width:0.5;"/>
      </defs>
      <g>
       <use style="stroke:#000000;stroke-width:0.5;" x="518.4" xlink:href="#m14ba2707fc" y="388.8"/>
      </g>
     </g>
     <g id="text_8">
      <!-- −5 -->
      <defs>
       <path d="M 10.59375 35.5 
L 73.1875 35.5 
L 73.1875 27.203125 
L 10.59375 27.203125 
z
" id="BitstreamVeraSans-Roman-2212"/>
       <path d="M 10.796875 72.90625 
L 49.515625 72.90625 
L 49.515625 64.59375 
L 19.828125 64.59375 
L 19.828125 46.734375 
Q 21.96875 47.46875 24.109375 47.828125 
Q 26.265625 48.1875 28.421875 48.1875 
Q 40.625 48.1875 47.75 41.5 
Q 54.890625 34.8125 54.890625 23.390625 
Q 54.890625 11.625 47.5625 5.09375 
Q 40.234375 -1.421875 26.90625 -1.421875 
Q 22.3125 -1.421875 17.546875 -0.640625 
Q 12.796875 0.140625 7.71875 1.703125 
L 7.71875 11.625 
Q 12.109375 9.234375 16.796875 8.0625 
Q 21.484375 6.890625 26.703125 6.890625 
Q 35.15625 6.890625 40.078125 11.328125 
Q 45.015625 15.765625 45.015625 23.390625 
Q 45.015625 31 40.078125 35.4375 
Q 35.15625 39.890625 26.703125 39.890625 
Q 22.75 39.890625 18.8125 39.015625 
Q 14.890625 38.140625 10.796875 36.28125 
z
" id="BitstreamVeraSans-Roman-35"/>
      </defs>
      <g transform="translate(50.309375 392.11125)scale(0.12 -0.12)">
       <use xlink:href="#BitstreamVeraSans-Roman-2212"/>
       <use x="83.7890625" xlink:href="#BitstreamVeraSans-Roman-35"/>
      </g>
     </g>
    </g>
    <g id="ytick_2">
     <g id="line2d_17">
      <g>
       <use style="stroke:#000000;stroke-width:0.5;" x="72.0" xlink:href="#mb32473b6dc" y="331.2"/>
      </g>
     </g>
     <g id="line2d_18">
      <g>
       <use style="stroke:#000000;stroke-width:0.5;" x="518.4" xlink:href="#m14ba2707fc" y="331.2"/>
      </g>
     </g>
     <g id="text_9">
      <!-- −4 -->
      <g transform="translate(50.309375 334.51125)scale(0.12 -0.12)">
       <use xlink:href="#BitstreamVeraSans-Roman-2212"/>
       <use x="83.7890625" xlink:href="#BitstreamVeraSans-Roman-34"/>
      </g>
     </g>
    </g>
    <g id="ytick_3">
     <g id="line2d_19">
      <g>
       <use style="stroke:#000000;stroke-width:0.5;" x="72.0" xlink:href="#mb32473b6dc" y="273.6"/>
      </g>
     </g>
     <g id="line2d_20">
      <g>
       <use style="stroke:#000000;stroke-width:0.5;" x="518.4" xlink:href="#m14ba2707fc" y="273.6"/>
      </g>
     </g>
     <g id="text_10">
      <!-- −3 -->
      <defs>
       <path d="M 40.578125 39.3125 
Q 47.65625 37.796875 51.625 33 
Q 55.609375 28.21875 55.609375 21.1875 
Q 55.609375 10.40625 48.1875 4.484375 
Q 40.765625 -1.421875 27.09375 -1.421875 
Q 22.515625 -1.421875 17.65625 -0.515625 
Q 12.796875 0.390625 7.625 2.203125 
L 7.625 11.71875 
Q 11.71875 9.328125 16.59375 8.109375 
Q 21.484375 6.890625 26.8125 6.890625 
Q 36.078125 6.890625 40.9375 10.546875 
Q 45.796875 14.203125 45.796875 21.1875 
Q 45.796875 27.640625 41.28125 31.265625 
Q 36.765625 34.90625 28.71875 34.90625 
L 20.21875 34.90625 
L 20.21875 43.015625 
L 29.109375 43.015625 
Q 36.375 43.015625 40.234375 45.921875 
Q 44.09375 48.828125 44.09375 54.296875 
Q 44.09375 59.90625 40.109375 62.90625 
Q 36.140625 65.921875 28.71875 65.921875 
Q 24.65625 65.921875 20.015625 65.03125 
Q 15.375 64.15625 9.8125 62.3125 
L 9.8125 71.09375 
Q 15.4375 72.65625 20.34375 73.4375 
Q 25.25 74.21875 29.59375 74.21875 
Q 40.828125 74.21875 47.359375 69.109375 
Q 53.90625 64.015625 53.90625 55.328125 
Q 53.90625 49.265625 50.4375 45.09375 
Q 46.96875 40.921875 40.578125 39.3125 
" id="BitstreamVeraSans-Roman-33"/>
      </defs>
      <g transform="translate(50.309375 276.91125)scale(0.12 -0.12)">
       <use xlink:href="#BitstreamVeraSans-Roman-2212"/>
       <use x="83.7890625" xlink:href="#BitstreamVeraSans-Roman-33"/>
      </g>
     </g>
    </g>
    <g id="ytick_4">
     <g id="line2d_21">
      <g>
       <use style="stroke:#000000;stroke-width:0.5;" x="72.0" xlink:href="#mb32473b6dc" y="216.0"/>
      </g>
     </g>
     <g id="line2d_22">
      <g>
       <use style="stroke:#000000;stroke-width:0.5;" x="518.4" xlink:href="#m14ba2707fc" y="216.0"/>
      </g>
     </g>
     <g id="text_11">
      <!-- −2 -->
      <g transform="translate(50.309375 219.31125)scale(0.12 -0.12)">
       <use xlink:href="#BitstreamVeraSans-Roman-2212"/>
       <use x="83.7890625" xlink:href="#BitstreamVeraSans-Roman-32"/>
      </g>
     </g>
    </g>
    <g id="ytick_5">
     <g id="line2d_23">
      <g>
       <use style="stroke:#000000;stroke-width:0.5;" x="72.0" xlink:href="#mb32473b6dc" y="158.4"/>
      </g>
     </g>
     <g id="line2d_24">
      <g>
       <use style="stroke:#000000;stroke-width:0.5;" x="518.4" xlink:href="#m14ba2707fc" y="158.4"/>
      </g>
     </g>
     <g id="text_12">
      <!-- −1 -->
      <g transform="translate(50.309375 161.71125)scale(0.12 -0.12)">
       <use xlink:href="#BitstreamVeraSans-Roman-2212"/>
       <use x="83.7890625" xlink:href="#BitstreamVeraSans-Roman-31"/>
      </g>
     </g>
    </g>
    <g id="ytick_6">
     <g id="line2d_25">
      <g>
       <use style="stroke:#000000;stroke-width:0.5;" x="72.0" xlink:href="#mb32473b6dc" y="100.8"/>
      </g>
     </g>
     <g id="line2d_26">
      <g>
       <use style="stroke:#000000;stroke-width:0.5;" x="518.4" xlink:href="#m14ba2707fc" y="100.8"/>
      </g>
     </g>
     <g id="text_13">
      <!-- 0 -->
      <g transform="translate(60.365 104.11125)scale(0.12 -0.12)">
       <use xlink:href="#BitstreamVeraSans-Roman-30"/>
      </g>
     </g>
    </g>
    <g id="ytick_7">
     <g id="line2d_27">
      <g>
       <use style="stroke:#000000;stroke-width:0.5;" x="72.0" xlink:href="#mb32473b6dc" y="43.2"/>
      </g>
     </g>
     <g id="line2d_28">
      <g>
       <use style="stroke:#000000;stroke-width:0.5;" x="518.4" xlink:href="#m14ba2707fc" y="43.2"/>
      </g>
     </g>
     <g id="text_14">
      <!-- 1 -->
      <g transform="translate(60.365 46.51125)scale(0.12 -0.12)">
       <use xlink:href="#BitstreamVeraSans-Roman-31"/>
      </g>
     </g>
    </g>
    <g id="text_15">
     <!-- Log Error -->
     <defs>
      <path d="M 9.8125 72.90625 
L 55.90625 72.90625 
L 55.90625 64.59375 
L 19.671875 64.59375 
L 19.671875 43.015625 
L 54.390625 43.015625 
L 54.390625 34.71875 
L 19.671875 34.71875 
L 19.671875 8.296875 
L 56.78125 8.296875 
L 56.78125 0 
L 9.8125 0 
z
" id="BitstreamVeraSans-Roman-45"/>
      <path d="M 30.609375 48.390625 
Q 23.390625 48.390625 19.1875 42.75 
Q 14.984375 37.109375 14.984375 27.296875 
Q 14.984375 17.484375 19.15625 11.84375 
Q 23.34375 6.203125 30.609375 6.203125 
Q 37.796875 6.203125 41.984375 11.859375 
Q 46.1875 17.53125 46.1875 27.296875 
Q 46.1875 37.015625 41.984375 42.703125 
Q 37.796875 48.390625 30.609375 48.390625 
M 30.609375 56 
Q 42.328125 56 49.015625 48.375 
Q 55.71875 40.765625 55.71875 27.296875 
Q 55.71875 13.875 49.015625 6.21875 
Q 42.328125 -1.421875 30.609375 -1.421875 
Q 18.84375 -1.421875 12.171875 6.21875 
Q 5.515625 13.875 5.515625 27.296875 
Q 5.515625 40.765625 12.171875 48.375 
Q 18.84375 56 30.609375 56 
" id="BitstreamVeraSans-Roman-6f"/>
      <path d="M 9.8125 72.90625 
L 19.671875 72.90625 
L 19.671875 8.296875 
L 55.171875 8.296875 
L 55.171875 0 
L 9.8125 0 
z
" id="BitstreamVeraSans-Roman-4c"/>
      <path d="M 45.40625 27.984375 
Q 45.40625 37.75 41.375 43.109375 
Q 37.359375 48.484375 30.078125 48.484375 
Q 22.859375 48.484375 18.828125 43.109375 
Q 14.796875 37.75 14.796875 27.984375 
Q 14.796875 18.265625 18.828125 12.890625 
Q 22.859375 7.515625 30.078125 7.515625 
Q 37.359375 7.515625 41.375 12.890625 
Q 45.40625 18.265625 45.40625 27.984375 
M 54.390625 6.78125 
Q 54.390625 -7.171875 48.1875 -13.984375 
Q 42 -20.796875 29.203125 -20.796875 
Q 24.46875 -20.796875 20.265625 -20.09375 
Q 16.0625 -19.390625 12.109375 -17.921875 
L 12.109375 -9.1875 
Q 16.0625 -11.328125 19.921875 -12.34375 
Q 23.78125 -13.375 27.78125 -13.375 
Q 36.625 -13.375 41.015625 -8.765625 
Q 45.40625 -4.15625 45.40625 5.171875 
L 45.40625 9.625 
Q 42.625 4.78125 38.28125 2.390625 
Q 33.9375 0 27.875 0 
Q 17.828125 0 11.671875 7.65625 
Q 5.515625 15.328125 5.515625 27.984375 
Q 5.515625 40.671875 11.671875 48.328125 
Q 17.828125 56 27.875 56 
Q 33.9375 56 38.28125 53.609375 
Q 42.625 51.21875 45.40625 46.390625 
L 45.40625 54.6875 
L 54.390625 54.6875 
z
" id="BitstreamVeraSans-Roman-67"/>
     </defs>
     <g transform="translate(42.81375 243.58875)rotate(-90.0)scale(0.12 -0.12)">
      <use xlink:href="#BitstreamVeraSans-Roman-4c"/>
      <use x="55.697265625" xlink:href="#BitstreamVeraSans-Roman-6f"/>
      <use x="116.87890625" xlink:href="#BitstreamVeraSans-Roman-67"/>
      <use x="180.35546875" xlink:href="#BitstreamVeraSans-Roman-20"/>
      <use x="212.142578125" xlink:href="#BitstreamVeraSans-Roman-45"/>
      <use x="275.326171875" xlink:href="#BitstreamVeraSans-Roman-72"/>
      <use x="316.423828125" xlink:href="#BitstreamVeraSans-Roman-72"/>
      <use x="357.505859375" xlink:href="#BitstreamVeraSans-Roman-6f"/>
      <use x="418.6875" xlink:href="#BitstreamVeraSans-Roman-72"/>
     </g>
    </g>
   </g>
   <g id="text_16">
    <!-- Log Base 10 of Error of Running Variances -->
    <defs>
     <path d="M 44.28125 53.078125 
L 44.28125 44.578125 
Q 40.484375 46.53125 36.375 47.5 
Q 32.28125 48.484375 27.875 48.484375 
Q 21.1875 48.484375 17.84375 46.4375 
Q 14.5 44.390625 14.5 40.28125 
Q 14.5 37.15625 16.890625 35.375 
Q 19.28125 33.59375 26.515625 31.984375 
L 29.59375 31.296875 
Q 39.15625 29.25 43.1875 25.515625 
Q 47.21875 21.78125 47.21875 15.09375 
Q 47.21875 7.46875 41.1875 3.015625 
Q 35.15625 -1.421875 24.609375 -1.421875 
Q 20.21875 -1.421875 15.453125 -0.5625 
Q 10.6875 0.296875 5.421875 2 
L 5.421875 11.28125 
Q 10.40625 8.6875 15.234375 7.390625 
Q 20.0625 6.109375 24.8125 6.109375 
Q 31.15625 6.109375 34.5625 8.28125 
Q 37.984375 10.453125 37.984375 14.40625 
Q 37.984375 18.0625 35.515625 20.015625 
Q 33.0625 21.96875 24.703125 23.78125 
L 21.578125 24.515625 
Q 13.234375 26.265625 9.515625 29.90625 
Q 5.8125 33.546875 5.8125 39.890625 
Q 5.8125 47.609375 11.28125 51.796875 
Q 16.75 56 26.8125 56 
Q 31.78125 56 36.171875 55.265625 
Q 40.578125 54.546875 44.28125 53.078125 
" id="BitstreamVeraSans-Roman-73"/>
     <path d="M 37.109375 75.984375 
L 37.109375 68.5 
L 28.515625 68.5 
Q 23.6875 68.5 21.796875 66.546875 
Q 19.921875 64.59375 19.921875 59.515625 
L 19.921875 54.6875 
L 34.71875 54.6875 
L 34.71875 47.703125 
L 19.921875 47.703125 
L 19.921875 0 
L 10.890625 0 
L 10.890625 47.703125 
L 2.296875 47.703125 
L 2.296875 54.6875 
L 10.890625 54.6875 
L 10.890625 58.5 
Q 10.890625 67.625 15.140625 71.796875 
Q 19.390625 75.984375 28.609375 75.984375 
z
" id="BitstreamVeraSans-Roman-66"/>
     <path d="M 19.671875 34.8125 
L 19.671875 8.109375 
L 35.5 8.109375 
Q 43.453125 8.109375 47.28125 11.40625 
Q 51.125 14.703125 51.125 21.484375 
Q 51.125 28.328125 47.28125 31.5625 
Q 43.453125 34.8125 35.5 34.8125 
z
M 19.671875 64.796875 
L 19.671875 42.828125 
L 34.28125 42.828125 
Q 41.5 42.828125 45.03125 45.53125 
Q 48.578125 48.25 48.578125 53.8125 
Q 48.578125 59.328125 45.03125 62.0625 
Q 41.5 64.796875 34.28125 64.796875 
z
M 9.8125 72.90625 
L 35.015625 72.90625 
Q 46.296875 72.90625 52.390625 68.21875 
Q 58.5 63.53125 58.5 54.890625 
Q 58.5 48.1875 55.375 44.234375 
Q 52.25 40.28125 46.1875 39.3125 
Q 53.46875 37.75 57.5 32.78125 
Q 61.53125 27.828125 61.53125 20.40625 
Q 61.53125 10.640625 54.890625 5.3125 
Q 48.25 0 35.984375 0 
L 9.8125 0 
z
" id="BitstreamVeraSans-Roman-42"/>
     <path d="M 54.890625 33.015625 
L 54.890625 0 
L 45.90625 0 
L 45.90625 32.71875 
Q 45.90625 40.484375 42.875 44.328125 
Q 39.84375 48.1875 33.796875 48.1875 
Q 26.515625 48.1875 22.3125 43.546875 
Q 18.109375 38.921875 18.109375 30.90625 
L 18.109375 0 
L 9.078125 0 
L 9.078125 54.6875 
L 18.109375 54.6875 
L 18.109375 46.1875 
Q 21.34375 51.125 25.703125 53.5625 
Q 30.078125 56 35.796875 56 
Q 45.21875 56 50.046875 50.171875 
Q 54.890625 44.34375 54.890625 33.015625 
" id="BitstreamVeraSans-Roman-6e"/>
     <path d="M 28.609375 0 
L 0.78125 72.90625 
L 11.078125 72.90625 
L 34.1875 11.53125 
L 57.328125 72.90625 
L 67.578125 72.90625 
L 39.796875 0 
z
" id="BitstreamVeraSans-Roman-56"/>
     <path d="M 48.78125 52.59375 
L 48.78125 44.1875 
Q 44.96875 46.296875 41.140625 47.34375 
Q 37.3125 48.390625 33.40625 48.390625 
Q 24.65625 48.390625 19.8125 42.84375 
Q 14.984375 37.3125 14.984375 27.296875 
Q 14.984375 17.28125 19.8125 11.734375 
Q 24.65625 6.203125 33.40625 6.203125 
Q 37.3125 6.203125 41.140625 7.25 
Q 44.96875 8.296875 48.78125 10.40625 
L 48.78125 2.09375 
Q 45.015625 0.34375 40.984375 -0.53125 
Q 36.96875 -1.421875 32.421875 -1.421875 
Q 20.0625 -1.421875 12.78125 6.34375 
Q 5.515625 14.109375 5.515625 27.296875 
Q 5.515625 40.671875 12.859375 48.328125 
Q 20.21875 56 33.015625 56 
Q 37.15625 56 41.109375 55.140625 
Q 45.0625 54.296875 48.78125 52.59375 
" id="BitstreamVeraSans-Roman-63"/>
     <path d="M 9.421875 54.6875 
L 18.40625 54.6875 
L 18.40625 0 
L 9.421875 0 
z
M 9.421875 75.984375 
L 18.40625 75.984375 
L 18.40625 64.59375 
L 9.421875 64.59375 
z
" id="BitstreamVeraSans-Roman-69"/>
     <path d="M 44.390625 34.1875 
Q 47.5625 33.109375 50.5625 29.59375 
Q 53.5625 26.078125 56.59375 19.921875 
L 66.609375 0 
L 56 0 
L 46.6875 18.703125 
Q 43.0625 26.03125 39.671875 28.421875 
Q 36.28125 30.8125 30.421875 30.8125 
L 19.671875 30.8125 
L 19.671875 0 
L 9.8125 0 
L 9.8125 72.90625 
L 32.078125 72.90625 
Q 44.578125 72.90625 50.734375 67.671875 
Q 56.890625 62.453125 56.890625 51.90625 
Q 56.890625 45.015625 53.6875 40.46875 
Q 50.484375 35.9375 44.390625 34.1875 
M 19.671875 64.796875 
L 19.671875 38.921875 
L 32.078125 38.921875 
Q 39.203125 38.921875 42.84375 42.21875 
Q 46.484375 45.515625 46.484375 51.90625 
Q 46.484375 58.296875 42.84375 61.546875 
Q 39.203125 64.796875 32.078125 64.796875 
z
" id="BitstreamVeraSans-Roman-52"/>
    </defs>
    <g transform="translate(142.56225 38.2)scale(0.144 -0.144)">
     <use xlink:href="#BitstreamVeraSans-Roman-4c"/>
     <use x="55.697265625" xlink:href="#BitstreamVeraSans-Roman-6f"/>
     <use x="116.87890625" xlink:href="#BitstreamVeraSans-Roman-67"/>
     <use x="180.35546875" xlink:href="#BitstreamVeraSans-Roman-20"/>
     <use x="212.142578125" xlink:href="#BitstreamVeraSans-Roman-42"/>
     <use x="280.74609375" xlink:href="#BitstreamVeraSans-Roman-61"/>
     <use x="342.025390625" xlink:href="#BitstreamVeraSans-Roman-73"/>
     <use x="394.125" xlink:href="#BitstreamVeraSans-Roman-65"/>
     <use x="455.6484375" xlink:href="#BitstreamVeraSans-Roman-20"/>
     <use x="487.435546875" xlink:href="#BitstreamVeraSans-Roman-31"/>
     <use x="551.05859375" xlink:href="#BitstreamVeraSans-Roman-30"/>
     <use x="614.681640625" xlink:href="#BitstreamVeraSans-Roman-20"/>
     <use x="646.46875" xlink:href="#BitstreamVeraSans-Roman-6f"/>
     <use x="707.650390625" xlink:href="#BitstreamVeraSans-Roman-66"/>
     <use x="742.85546875" xlink:href="#BitstreamVeraSans-Roman-20"/>
     <use x="774.642578125" xlink:href="#BitstreamVeraSans-Roman-45"/>
     <use x="837.826171875" xlink:href="#BitstreamVeraSans-Roman-72"/>
     <use x="878.923828125" xlink:href="#BitstreamVeraSans-Roman-72"/>
     <use x="920.005859375" xlink:href="#BitstreamVeraSans-Roman-6f"/>
     <use x="981.1875" xlink:href="#BitstreamVeraSans-Roman-72"/>
     <use x="1022.30078125" xlink:href="#BitstreamVeraSans-Roman-20"/>
     <use x="1054.087890625" xlink:href="#BitstreamVeraSans-Roman-6f"/>
     <use x="1115.26953125" xlink:href="#BitstreamVeraSans-Roman-66"/>
     <use x="1150.474609375" xlink:href="#BitstreamVeraSans-Roman-20"/>
     <use x="1182.26171875" xlink:href="#BitstreamVeraSans-Roman-52"/>
     <use x="1251.681640625" xlink:href="#BitstreamVeraSans-Roman-75"/>
     <use x="1315.060546875" xlink:href="#BitstreamVeraSans-Roman-6e"/>
     <use x="1378.439453125" xlink:href="#BitstreamVeraSans-Roman-6e"/>
     <use x="1441.818359375" xlink:href="#BitstreamVeraSans-Roman-69"/>
     <use x="1469.6015625" xlink:href="#BitstreamVeraSans-Roman-6e"/>
     <use x="1532.98046875" xlink:href="#BitstreamVeraSans-Roman-67"/>
     <use x="1596.45703125" xlink:href="#BitstreamVeraSans-Roman-20"/>
     <use x="1628.244140625" xlink:href="#BitstreamVeraSans-Roman-56"/>
     <use x="1696.54296875" xlink:href="#BitstreamVeraSans-Roman-61"/>
     <use x="1757.822265625" xlink:href="#BitstreamVeraSans-Roman-72"/>
     <use x="1798.935546875" xlink:href="#BitstreamVeraSans-Roman-69"/>
     <use x="1826.71875" xlink:href="#BitstreamVeraSans-Roman-61"/>
     <use x="1887.998046875" xlink:href="#BitstreamVeraSans-Roman-6e"/>
     <use x="1951.376953125" xlink:href="#BitstreamVeraSans-Roman-63"/>
     <use x="2006.357421875" xlink:href="#BitstreamVeraSans-Roman-65"/>
     <use x="2067.880859375" xlink:href="#BitstreamVeraSans-Roman-73"/>
    </g>
   </g>
   <g id="legend_1">
    <g id="patch_7">
     <path d="M 295.2 371.52 
L 504.3915 371.52 
L 504.3915 324.927 
L 295.2 324.927 
z
" style="fill:#ffffff;stroke:#000000;stroke-linejoin:miter;"/>
    </g>
    <g id="line2d_29">
     <path d="M 305.28 336.58875 
L 325.44 336.58875 
" style="fill:none;stroke:#0000ff;stroke-linecap:square;"/>
    </g>
    <g id="line2d_30"/>
    <g id="text_17">
     <!-- DependentSamples -->
     <defs>
      <path d="M 18.3125 70.21875 
L 18.3125 54.6875 
L 36.8125 54.6875 
L 36.8125 47.703125 
L 18.3125 47.703125 
L 18.3125 18.015625 
Q 18.3125 11.328125 20.140625 9.421875 
Q 21.96875 7.515625 27.59375 7.515625 
L 36.8125 7.515625 
L 36.8125 0 
L 27.59375 0 
Q 17.1875 0 13.234375 3.875 
Q 9.28125 7.765625 9.28125 18.015625 
L 9.28125 47.703125 
L 2.6875 47.703125 
L 2.6875 54.6875 
L 9.28125 54.6875 
L 9.28125 70.21875 
z
" id="BitstreamVeraSans-Roman-74"/>
      <path d="M 45.40625 46.390625 
L 45.40625 75.984375 
L 54.390625 75.984375 
L 54.390625 0 
L 45.40625 0 
L 45.40625 8.203125 
Q 42.578125 3.328125 38.25 0.953125 
Q 33.9375 -1.421875 27.875 -1.421875 
Q 17.96875 -1.421875 11.734375 6.484375 
Q 5.515625 14.40625 5.515625 27.296875 
Q 5.515625 40.1875 11.734375 48.09375 
Q 17.96875 56 27.875 56 
Q 33.9375 56 38.25 53.625 
Q 42.578125 51.265625 45.40625 46.390625 
M 14.796875 27.296875 
Q 14.796875 17.390625 18.875 11.75 
Q 22.953125 6.109375 30.078125 6.109375 
Q 37.203125 6.109375 41.296875 11.75 
Q 45.40625 17.390625 45.40625 27.296875 
Q 45.40625 37.203125 41.296875 42.84375 
Q 37.203125 48.484375 30.078125 48.484375 
Q 22.953125 48.484375 18.875 42.84375 
Q 14.796875 37.203125 14.796875 27.296875 
" id="BitstreamVeraSans-Roman-64"/>
      <path d="M 19.671875 64.796875 
L 19.671875 8.109375 
L 31.59375 8.109375 
Q 46.6875 8.109375 53.6875 14.9375 
Q 60.6875 21.78125 60.6875 36.53125 
Q 60.6875 51.171875 53.6875 57.984375 
Q 46.6875 64.796875 31.59375 64.796875 
z
M 9.8125 72.90625 
L 30.078125 72.90625 
Q 51.265625 72.90625 61.171875 64.09375 
Q 71.09375 55.28125 71.09375 36.53125 
Q 71.09375 17.671875 61.125 8.828125 
Q 51.171875 0 30.078125 0 
L 9.8125 0 
z
" id="BitstreamVeraSans-Roman-44"/>
     </defs>
     <g transform="translate(341.28 341.62875)scale(0.144 -0.144)">
      <use xlink:href="#BitstreamVeraSans-Roman-44"/>
      <use x="77.001953125" xlink:href="#BitstreamVeraSans-Roman-65"/>
      <use x="138.525390625" xlink:href="#BitstreamVeraSans-Roman-70"/>
      <use x="202.001953125" xlink:href="#BitstreamVeraSans-Roman-65"/>
      <use x="263.525390625" xlink:href="#BitstreamVeraSans-Roman-6e"/>
      <use x="326.904296875" xlink:href="#BitstreamVeraSans-Roman-64"/>
      <use x="390.380859375" xlink:href="#BitstreamVeraSans-Roman-65"/>
      <use x="451.904296875" xlink:href="#BitstreamVeraSans-Roman-6e"/>
      <use x="515.283203125" xlink:href="#BitstreamVeraSans-Roman-74"/>
      <use x="554.4921875" xlink:href="#BitstreamVeraSans-Roman-53"/>
      <use x="617.96875" xlink:href="#BitstreamVeraSans-Roman-61"/>
      <use x="679.248046875" xlink:href="#BitstreamVeraSans-Roman-6d"/>
      <use x="776.66015625" xlink:href="#BitstreamVeraSans-Roman-70"/>
      <use x="840.13671875" xlink:href="#BitstreamVeraSans-Roman-6c"/>
      <use x="867.919921875" xlink:href="#BitstreamVeraSans-Roman-65"/>
      <use x="929.443359375" xlink:href="#BitstreamVeraSans-Roman-73"/>
     </g>
    </g>
    <g id="line2d_31">
     <path d="M 305.28 357.72525 
L 325.44 357.72525 
" style="fill:none;stroke:#008000;stroke-linecap:square;"/>
    </g>
    <g id="line2d_32"/>
    <g id="text_18">
     <!-- Independent Samples -->
     <defs>
      <path d="M 9.8125 72.90625 
L 19.671875 72.90625 
L 19.671875 0 
L 9.8125 0 
z
" id="BitstreamVeraSans-Roman-49"/>
     </defs>
     <g transform="translate(341.28 362.76525)scale(0.144 -0.144)">
      <use xlink:href="#BitstreamVeraSans-Roman-49"/>
      <use x="29.4921875" xlink:href="#BitstreamVeraSans-Roman-6e"/>
      <use x="92.87109375" xlink:href="#BitstreamVeraSans-Roman-64"/>
      <use x="156.34765625" xlink:href="#BitstreamVeraSans-Roman-65"/>
      <use x="217.87109375" xlink:href="#BitstreamVeraSans-Roman-70"/>
      <use x="281.34765625" xlink:href="#BitstreamVeraSans-Roman-65"/>
      <use x="342.87109375" xlink:href="#BitstreamVeraSans-Roman-6e"/>
      <use x="406.25" xlink:href="#BitstreamVeraSans-Roman-64"/>
      <use x="469.7265625" xlink:href="#BitstreamVeraSans-Roman-65"/>
      <use x="531.25" xlink:href="#BitstreamVeraSans-Roman-6e"/>
      <use x="594.62890625" xlink:href="#BitstreamVeraSans-Roman-74"/>
      <use x="633.837890625" xlink:href="#BitstreamVeraSans-Roman-20"/>
      <use x="665.625" xlink:href="#BitstreamVeraSans-Roman-53"/>
      <use x="729.1015625" xlink:href="#BitstreamVeraSans-Roman-61"/>
      <use x="790.380859375" xlink:href="#BitstreamVeraSans-Roman-6d"/>
      <use x="887.79296875" xlink:href="#BitstreamVeraSans-Roman-70"/>
      <use x="951.26953125" xlink:href="#BitstreamVeraSans-Roman-6c"/>
      <use x="979.052734375" xlink:href="#BitstreamVeraSans-Roman-65"/>
      <use x="1040.576171875" xlink:href="#BitstreamVeraSans-Roman-73"/>
     </g>
    </g>
   </g>
  </g>
 </g>
 <defs>
  <clipPath id="pd301923995">
   <rect height="345.6" width="446.4" x="72.0" y="43.2"/>
  </clipPath>
 </defs>
</svg>
