<?xml version="1.0" encoding="utf-8" standalone="no"?>
<!DOCTYPE svg PUBLIC "-//W3C//DTD SVG 1.1//EN"
  "http://www.w3.org/Graphics/SVG/1.1/DTD/svg11.dtd">
<!-- Created with matplotlib (http://matplotlib.org/) -->
<svg height="432pt" version="1.1" viewBox="0 0 576 432" width="576pt" xmlns="http://www.w3.org/2000/svg" xmlns:xlink="http://www.w3.org/1999/xlink">
 <defs>
  <style type="text/css">
*{stroke-linecap:butt;stroke-linejoin:round;stroke-miterlimit:100000;}
  </style>
 </defs>
 <g id="figure_1">
  <g id="patch_1">
   <path d="M 0 432 
L 576 432 
L 576 0 
L 0 0 
z
" style="fill:#ffffff;"/>
  </g>
  <g id="axes_1">
   <g id="patch_2">
    <path d="M 72 388.8 
L 518.4 388.8 
L 518.4 43.2 
L 72 43.2 
z
" style="fill:#ffffff;"/>
   </g>
   <g id="line2d_1">
    <path clip-path="url(#p30ea263ab4)" d="M 72 118.553297 
L 72.4464 102.541859 
L 72.8928 100.692954 
L 73.3392 99.817343 
L 73.7856 99.30632 
L 74.6784 98.734798 
L 75.1248 104.278675 
L 76.0176 124.466063 
L 76.464 135.258805 
L 76.9104 150.194205 
L 77.3568 148.273725 
L 77.8032 133.679219 
L 78.2496 125.566434 
L 79.1424 121.13563 
L 79.5888 115.767299 
L 80.0352 111.779855 
L 80.928 110.166003 
L 81.3744 108.798054 
L 82.2672 107.417559 
L 83.16 105.19367 
L 84.0528 103.504987 
L 84.4992 102.124835 
L 84.9456 101.864551 
L 85.8384 104.926425 
L 86.2848 104.919951 
L 87.624 103.511572 
L 88.0704 103.107711 
L 88.5168 102.956849 
L 88.9632 103.3398 
L 89.4096 103.447752 
L 90.3024 104.026858 
L 91.1952 104.468396 
L 91.6416 105.25425 
L 92.5344 105.464885 
L 94.32 103.770558 
L 94.7664 103.506829 
L 95.2128 103.075706 
L 96.1056 103.397686 
L 96.9984 104.988367 
L 97.8912 104.891554 
L 99.2304 104.606259 
L 101.016 102.400269 
L 102.3552 101.313706 
L 103.248 100.99013 
L 103.6944 100.497128 
L 104.5872 100.15398 
L 105.0336 100.369066 
L 107.2656 98.235656 
L 107.712 98.396216 
L 109.0512 98.39587 
L 109.944 99.321367 
L 112.6224 104.280323 
L 114.8544 108.741425 
L 116.1936 111.623133 
L 116.64 112.046716 
L 118.872 115.543598 
L 119.7648 117.396062 
L 121.104 121.41814 
L 121.5504 121.834196 
L 122.8896 124.153535 
L 123.7824 126.482963 
L 126.9072 141.736243 
L 127.3536 142.562034 
L 127.8 144.046621 
L 128.6928 148.93269 
L 130.032 157.782788 
L 130.9248 168.336331 
L 131.3712 171.518797 
L 131.8176 175.546699 
L 132.264 183.355952 
L 133.1568 204.013848 
L 133.6032 198.528306 
L 134.0496 186.923432 
L 134.496 183.840661 
L 134.9424 179.891854 
L 135.3888 174.240263 
L 136.2816 166.493588 
L 137.1744 160.730732 
L 138.96 151.473682 
L 140.2992 146.288117 
L 142.0848 140.730861 
L 142.5312 140.649543 
L 142.9776 141.227962 
L 146.1024 152.590697 
L 146.5488 154.899173 
L 147.888 162.907501 
L 148.3344 168.516303 
L 148.7808 170.803405 
L 149.6736 167.955961 
L 150.5664 163.63618 
L 151.0128 162.08164 
L 151.4592 162.739643 
L 151.9056 161.260879 
L 152.352 162.963086 
L 153.2448 171.411106 
L 153.6912 176.918009 
L 154.1376 177.571535 
L 154.584 183.46602 
L 155.0304 191.095479 
L 155.4768 201.980393 
L 155.9232 221.372594 
L 156.3696 231.916864 
L 156.816 250.213582 
L 157.2624 220.398914 
L 157.7088 199.242434 
L 158.1552 187.746724 
L 158.6016 184.404183 
L 159.4944 173.521563 
L 160.3872 166.09472 
L 161.28 160.477442 
L 161.7264 159.434674 
L 162.1728 157.817034 
L 162.6192 155.762881 
L 163.0656 155.051111 
L 163.512 155.842166 
L 163.9584 155.729487 
L 164.8512 156.827233 
L 165.2976 155.957669 
L 165.744 155.703527 
L 166.1904 153.997727 
L 167.976 150.45346 
L 168.4224 150.487831 
L 168.8688 150.691214 
L 169.7616 150.147319 
L 170.208 148.364832 
L 171.9936 143.642681 
L 172.44 143.03409 
L 174.2256 139.671851 
L 175.5648 137.520528 
L 177.3504 135.008911 
L 177.7968 134.872745 
L 179.5824 132.876685 
L 180.9216 131.636901 
L 182.2608 129.799869 
L 183.6 128.615039 
L 184.0464 128.429324 
L 184.4928 128.518651 
L 186.2784 126.932108 
L 188.9568 125.440506 
L 189.4032 125.260926 
L 190.7424 124.045806 
L 191.1888 124.024834 
L 191.6352 124.116623 
L 192.528 125.126936 
L 193.8672 125.601551 
L 194.76 126.271334 
L 196.992 128.9478 
L 197.8848 129.931565 
L 198.7776 130.669213 
L 200.5632 132.361383 
L 204.1344 138.381479 
L 204.5808 138.341499 
L 205.0272 138.765928 
L 205.92 140.164029 
L 206.8128 142.255602 
L 207.2592 142.639814 
L 207.7056 143.341411 
L 208.152 144.761251 
L 209.4912 146.883412 
L 210.384 149.394295 
L 211.2768 151.871968 
L 211.7232 152.855588 
L 212.1696 152.601522 
L 213.9552 155.455328 
L 215.2944 157.577778 
L 215.7408 159.832534 
L 216.1872 161.1704 
L 217.08 162.438877 
L 217.5264 163.717082 
L 217.9728 165.964253 
L 218.8656 167.906427 
L 219.7584 174.792055 
L 220.6512 184.096103 
L 221.0976 190.150308 
L 221.544 198.09804 
L 221.9904 209.726158 
L 222.8832 253.608555 
L 223.3296 236.677519 
L 224.2224 280.149534 
L 225.1152 213.559279 
L 225.5616 202.891714 
L 226.4544 196.642824 
L 227.3472 191.708851 
L 229.1328 184.38209 
L 229.5792 180.104876 
L 230.0256 179.041109 
L 231.3648 185.461361 
L 232.2576 191.070724 
L 232.704 189.35159 
L 233.5968 194.728659 
L 234.4896 201.500911 
L 235.3824 210.55371 
L 236.2752 245.39545 
L 236.7216 293.513483 
L 237.168 225.019736 
L 237.6144 212.106312 
L 238.0608 203.670303 
L 238.9536 196.310072 
L 239.8464 184.373707 
L 240.2928 179.75653 
L 240.7392 176.480832 
L 241.632 171.951221 
L 242.5248 168.085064 
L 242.9712 168.114367 
L 244.3104 170.963751 
L 245.2032 169.241254 
L 245.6496 169.83197 
L 246.5424 173.480092 
L 247.4352 179.956247 
L 248.328 182.378308 
L 248.7744 183.171649 
L 249.6672 179.992441 
L 250.1136 180.582398 
L 251.0064 185.026645 
L 251.4528 188.562704 
L 251.8992 191.025737 
L 252.3456 191.293694 
L 252.792 192.70135 
L 253.2384 195.288905 
L 253.6848 204.258901 
L 254.1312 218.2848 
L 254.5776 237.349086 
L 255.024 276.200409 
L 255.9168 228.105604 
L 256.3632 211.943071 
L 257.256 195.330486 
L 258.1488 185.010097 
L 258.5952 182.156006 
L 259.0416 181.560229 
L 259.9344 185.210566 
L 260.8272 190.3726 
L 261.2736 193.394364 
L 261.72 201.661396 
L 262.1664 214.018162 
L 262.6128 221.510154 
L 263.0592 232.192246 
L 263.5056 267.307001 
L 263.952 232.829454 
L 264.3984 220.854058 
L 264.8448 212.35292 
L 265.2912 206.04536 
L 265.7376 204.296776 
L 266.184 199.235498 
L 266.6304 197.449914 
L 267.0768 198.98386 
L 267.9696 193.303856 
L 268.8624 188.716154 
L 269.3088 186.716632 
L 270.2016 181.103038 
L 270.648 179.612271 
L 271.0944 177.726245 
L 271.9872 175.116157 
L 273.3264 171.806648 
L 275.112 168.03589 
L 275.5584 168.376016 
L 276.8976 165.167399 
L 277.7904 163.89522 
L 279.1296 162.68007 
L 280.0224 160.772067 
L 280.4688 159.599675 
L 280.9152 159.392643 
L 282.7008 156.075136 
L 283.1472 155.552947 
L 285.3792 151.17126 
L 286.272 150.002265 
L 287.1648 148.970908 
L 287.6112 148.717272 
L 288.0576 148.277356 
L 288.504 148.036059 
L 289.3968 146.891573 
L 290.736 145.219114 
L 292.0752 143.920959 
L 292.968 143.439028 
L 293.8608 142.732425 
L 294.3072 142.439392 
L 294.7536 141.877013 
L 295.2 141.561026 
L 295.6464 141.046407 
L 296.0928 140.795663 
L 296.9856 140.038894 
L 300.1104 138.761518 
L 300.5568 138.627811 
L 301.0032 138.679635 
L 303.2352 140.791703 
L 303.6816 140.720228 
L 305.0208 141.470606 
L 306.8064 140.825342 
L 307.2528 141.106955 
L 307.6992 141.636455 
L 308.1456 141.968635 
L 309.9312 144.137046 
L 313.5024 148.65579 
L 314.3952 150.096133 
L 314.8416 150.350802 
L 315.288 150.069391 
L 316.1808 148.973365 
L 317.9664 147.77631 
L 318.8592 147.205562 
L 319.3056 147.464433 
L 319.752 147.341745 
L 321.984 145.445697 
L 322.4304 145.285735 
L 322.8768 144.842382 
L 323.3232 144.561773 
L 324.216 144.653132 
L 324.6624 145.100747 
L 325.1088 145.201209 
L 330.0192 141.869296 
L 330.4656 141.981667 
L 330.912 142.365099 
L 331.3584 142.532793 
L 333.144 143.778119 
L 333.5904 144.477554 
L 335.376 146.133732 
L 336.7152 147.509904 
L 337.1616 147.449703 
L 337.608 147.517329 
L 338.0544 147.943605 
L 340.2864 151.120737 
L 340.7328 151.800696 
L 341.1792 152.231869 
L 342.5184 154.347965 
L 343.8576 156.24215 
L 344.7504 156.063203 
L 345.1968 156.413391 
L 345.6432 157.03256 
L 347.4288 158.729707 
L 347.8752 159.646767 
L 349.6608 162.344196 
L 350.1072 162.451915 
L 351 160.93887 
L 351.4464 161.043199 
L 351.8928 160.864303 
L 352.3392 160.458016 
L 353.232 158.771257 
L 354.5712 157.157922 
L 355.9104 155.397401 
L 356.3568 155.01357 
L 358.1424 152.448375 
L 358.5888 152.274143 
L 359.4816 151.514183 
L 361.2672 150.087813 
L 362.16 149.207266 
L 363.4992 147.770682 
L 367.5168 141.546872 
L 368.4096 140.509999 
L 369.7488 139.586338 
L 370.6416 139.194105 
L 371.088 138.752206 
L 371.5344 138.60262 
L 371.9808 138.291414 
L 372.8736 138.149001 
L 373.32 138.204567 
L 374.6592 137.761289 
L 375.1056 137.905277 
L 375.9984 137.551942 
L 376.4448 137.602591 
L 376.8912 137.771527 
L 377.3376 137.692626 
L 378.2304 138.006517 
L 378.6768 137.910757 
L 379.5696 138.114293 
L 380.9088 137.854238 
L 384.9264 136.599473 
L 388.0512 133.966609 
L 388.4976 133.700078 
L 388.944 133.588401 
L 391.176 134.309929 
L 391.6224 134.497255 
L 392.5152 134.561357 
L 393.408 134.93852 
L 393.8544 135.104217 
L 394.7472 135.914749 
L 395.64 136.328406 
L 396.5328 136.210064 
L 396.9792 136.080196 
L 397.872 135.516888 
L 399.2112 135.05619 
L 400.104 134.887664 
L 400.5504 135.003531 
L 401.4432 135.489682 
L 406.3536 139.570558 
L 406.8 139.747685 
L 407.6928 139.536582 
L 408.1392 139.686504 
L 413.0496 138.29545 
L 413.9424 138.546686 
L 414.3888 138.527502 
L 415.728 137.780798 
L 417.0672 137.261944 
L 417.5136 137.335155 
L 418.4064 137.936027 
L 419.7456 138.353995 
L 422.8704 140.24262 
L 425.1024 141.346072 
L 425.5488 141.282307 
L 429.12 139.720595 
L 429.5664 139.317285 
L 430.0128 139.146868 
L 430.4592 139.252204 
L 431.7984 140.233917 
L 436.7088 143.807357 
L 438.048 144.926953 
L 438.4944 145.000189 
L 439.3872 144.733559 
L 439.8336 144.547126 
L 441.6192 143.304378 
L 445.6368 141.614505 
L 446.5296 141.100648 
L 447.8688 140.497256 
L 448.7616 140.284624 
L 449.208 140.141146 
L 449.6544 140.236693 
L 450.5472 140.10815 
L 452.3328 138.9649 
L 453.2256 138.815886 
L 455.904 139.82836 
L 456.3504 139.83036 
L 456.7968 139.580599 
L 457.6896 139.345985 
L 458.136 139.374131 
L 460.8144 138.206399 
L 461.7072 137.940188 
L 462.1536 137.987743 
L 463.9392 137.632895 
L 465.2784 138.082609 
L 466.6176 138.992757 
L 469.7424 140.080741 
L 470.6352 139.728806 
L 471.0816 139.814642 
L 471.528 139.71838 
L 473.3136 140.111297 
L 474.6528 141.002109 
L 475.5456 141.644633 
L 475.992 141.747656 
L 476.8848 141.477712 
L 477.7776 141.746082 
L 478.6704 141.541251 
L 479.5632 141.76872 
L 481.7952 140.746001 
L 483.1344 139.830965 
L 484.0272 139.179983 
L 484.4736 139.129655 
L 485.3664 138.820227 
L 486.7056 138.465066 
L 487.5984 138.685624 
L 488.4912 138.893234 
L 488.9376 138.819184 
L 489.8304 139.152076 
L 490.7232 138.882526 
L 493.848 137.667499 
L 496.08 136.996787 
L 497.4192 136.615676 
L 498.7584 137.105375 
L 500.544 137.781515 
L 500.9904 137.96153 
L 501.4368 137.939065 
L 502.3296 138.340611 
L 503.2224 138.817252 
L 503.6688 138.909707 
L 505.9008 139.994387 
L 506.3472 140.185147 
L 507.6864 141.041787 
L 509.0256 141.677304 
L 510.8112 143.429545 
L 513.4896 145.808237 
L 514.8288 146.406151 
L 517.5072 147.712799 
L 517.9536 147.588026 
L 517.9536 147.588026 
" style="fill:none;stroke:#0000ff;stroke-linecap:square;"/>
   </g>
   <g id="line2d_2">
    <path clip-path="url(#p30ea263ab4)" d="M 72 83.039455 
L 72.4464 83.331458 
L 72.8928 106.148863 
L 73.3392 139.92926 
L 73.7856 114.288325 
L 74.232 107.526932 
L 74.6784 133.973515 
L 75.1248 122.739869 
L 75.5712 121.049367 
L 76.0176 136.155821 
L 76.464 175.365088 
L 76.9104 177.992248 
L 77.3568 161.83976 
L 77.8032 160.785584 
L 78.2496 157.53831 
L 78.696 169.89006 
L 79.1424 176.709987 
L 79.5888 199.744975 
L 80.0352 183.978117 
L 80.4816 146.812693 
L 80.928 147.158873 
L 81.3744 174.927487 
L 81.8208 217.180367 
L 82.2672 182.53275 
L 82.7136 157.533179 
L 83.16 203.624059 
L 83.6064 187.599751 
L 84.0528 196.646896 
L 84.4992 197.01137 
L 84.9456 164.190985 
L 85.392 151.11478 
L 85.8384 161.259612 
L 86.2848 180.891625 
L 86.7312 171.620732 
L 87.1776 155.449117 
L 87.624 146.060127 
L 88.0704 161.402546 
L 88.5168 148.437024 
L 88.9632 154.414072 
L 89.4096 149.682157 
L 89.856 166.702785 
L 90.3024 156.205861 
L 90.7488 167.231797 
L 91.1952 185.440723 
L 91.6416 229.214824 
L 92.088 211.032149 
L 92.5344 172.378182 
L 92.9808 221.411883 
L 93.4272 248.072193 
L 93.8736 196.142291 
L 94.7664 168.433632 
L 95.2128 208.073608 
L 95.6592 168.414601 
L 96.1056 188.425621 
L 96.552 171.983081 
L 96.9984 174.288197 
L 97.4448 161.994464 
L 97.8912 165.437351 
L 98.3376 158.183792 
L 98.784 157.175333 
L 99.2304 167.600739 
L 99.6768 174.052111 
L 100.1232 169.232546 
L 100.5696 157.335822 
L 101.016 153.211777 
L 101.4624 150.180408 
L 101.9088 143.41911 
L 102.3552 141.512558 
L 102.8016 145.869676 
L 103.248 141.746688 
L 103.6944 141.051792 
L 104.1408 138.015546 
L 104.5872 139.844443 
L 105.0336 137.829973 
L 105.48 138.819706 
L 105.9264 141.936237 
L 106.3728 141.237856 
L 106.8192 142.695287 
L 107.2656 145.97809 
L 107.712 143.03983 
L 108.1584 144.957319 
L 108.6048 143.467602 
L 109.0512 142.704227 
L 109.4976 140.889079 
L 109.944 137.35247 
L 110.3904 134.820348 
L 110.8368 132.968781 
L 111.2832 131.599045 
L 111.7296 130.93614 
L 112.176 132.89377 
L 112.6224 132.218096 
L 113.0688 135.446018 
L 113.5152 137.535762 
L 113.9616 140.684553 
L 114.408 142.072273 
L 114.8544 141.015793 
L 115.3008 144.698647 
L 115.7472 143.72803 
L 116.1936 141.119949 
L 116.64 140.192278 
L 117.5328 146.021192 
L 117.9792 149.124266 
L 118.4256 149.978598 
L 118.872 148.947384 
L 119.3184 151.492414 
L 119.7648 156.282672 
L 120.2112 151.859063 
L 121.5504 163.950653 
L 121.9968 164.85923 
L 122.4432 171.414738 
L 123.336 199.246054 
L 123.7824 243.116407 
L 124.6752 203.50753 
L 125.1216 185.70428 
L 125.568 180.268634 
L 126.0144 172.556695 
L 126.4608 182.667587 
L 126.9072 178.085146 
L 127.3536 171.070838 
L 127.8 177.065717 
L 128.2464 172.546535 
L 128.6928 165.692876 
L 129.1392 170.890928 
L 129.5856 179.038751 
L 130.032 170.763718 
L 130.4784 169.742141 
L 130.9248 179.568948 
L 131.8176 190.769363 
L 132.264 181.155351 
L 132.7104 188.701799 
L 133.1568 193.312118 
L 134.0496 177.366071 
L 134.496 197.302252 
L 134.9424 237.524836 
L 135.3888 240.607774 
L 135.8352 223.231146 
L 136.2816 297.084196 
L 136.728 214.055755 
L 137.1744 191.952886 
L 137.6208 203.470038 
L 138.0672 197.460641 
L 138.5136 183.573475 
L 138.96 188.459498 
L 139.4064 175.67121 
L 139.8528 170.880313 
L 140.2992 169.132765 
L 140.7456 165.537352 
L 141.192 165.500994 
L 141.6384 167.838586 
L 142.0848 166.704906 
L 142.5312 165.014873 
L 142.9776 160.157368 
L 143.424 164.055837 
L 143.8704 166.450693 
L 144.3168 168.237822 
L 144.7632 167.081357 
L 145.2096 164.573194 
L 145.656 168.183025 
L 146.1024 173.977486 
L 146.5488 182.795104 
L 146.9952 176.25293 
L 147.4416 172.54198 
L 148.3344 179.234714 
L 149.2272 193.1056 
L 152.352 164.201411 
L 152.7984 168.841996 
L 153.2448 175.152457 
L 154.1376 191.824942 
L 154.584 179.506259 
L 155.0304 176.921173 
L 155.4768 179.429881 
L 155.9232 183.752976 
L 156.3696 176.113811 
L 156.816 179.721904 
L 157.2624 182.248818 
L 157.7088 176.871543 
L 159.048 189.953991 
L 159.4944 202.534936 
L 159.9408 234.890801 
L 160.3872 218.67476 
L 160.8336 237.567398 
L 161.28 262.282365 
L 161.7264 206.768406 
L 162.1728 192.159897 
L 163.0656 177.891057 
L 163.512 183.997727 
L 163.9584 184.653428 
L 164.4048 177.140185 
L 165.2976 170.776256 
L 165.744 174.884481 
L 166.6368 187.302472 
L 167.0832 187.932456 
L 167.5296 196.55018 
L 167.976 196.948438 
L 168.4224 202.023091 
L 168.8688 198.801572 
L 169.3152 205.863204 
L 170.6544 180.557273 
L 171.1008 188.762796 
L 171.5472 191.989604 
L 171.9936 186.745021 
L 172.44 195.2483 
L 172.8864 189.97779 
L 173.3328 191.679463 
L 173.7792 184.089885 
L 174.2256 187.111205 
L 175.5648 221.737025 
L 176.0112 208.383421 
L 176.4576 203.473919 
L 176.904 195.794682 
L 177.3504 200.497843 
L 177.7968 212.027661 
L 178.2432 272.907658 
L 179.136 208.273376 
L 180.0288 187.718156 
L 180.4752 194.925944 
L 180.9216 189.984263 
L 181.368 195.925058 
L 181.8144 203.612764 
L 182.7072 191.30298 
L 183.1536 185.783358 
L 183.6 191.882217 
L 184.0464 190.552421 
L 184.4928 187.901908 
L 184.9392 182.410998 
L 185.3856 189.375258 
L 185.832 200.045716 
L 186.2784 191.448206 
L 186.7248 197.172103 
L 187.1712 191.066379 
L 187.6176 198.727144 
L 188.064 192.308618 
L 188.5104 188.182075 
L 188.9568 195.883011 
L 189.4032 199.951618 
L 189.8496 208.333664 
L 190.296 241.759517 
L 190.7424 218.230566 
L 191.1888 215.307604 
L 191.6352 231.3124 
L 192.0816 256.566261 
L 192.528 245.950565 
L 192.9744 242.39272 
L 193.4208 227.146091 
L 193.8672 276.77153 
L 194.3136 224.870525 
L 194.76 276.322549 
L 195.2064 225.682612 
L 195.6528 289.795273 
L 196.0992 248.888497 
L 196.5456 240.783809 
L 196.992 211.561068 
L 197.8848 253.441091 
L 198.3312 238.848223 
L 198.7776 262.027578 
L 199.224 226.275259 
L 199.6704 260.853905 
L 200.1168 259.103498 
L 200.5632 258.69606 
L 201.0096 252.355399 
L 201.456 328.547698 
L 201.9024 233.821371 
L 202.3488 212.92759 
L 203.2416 246.075235 
L 203.688 256.150299 
L 204.1344 229.287207 
L 204.5808 256.491697 
L 205.0272 223.108251 
L 205.4736 210.964925 
L 205.92 243.959973 
L 206.3664 232.53441 
L 206.8128 260.124634 
L 207.2592 237.106573 
L 207.7056 224.886096 
L 208.152 260.58531 
L 208.5984 229.280123 
L 209.0448 248.549516 
L 209.9376 208.775317 
L 210.384 224.989803 
L 210.8304 316.61935 
L 211.2768 381.310408 
L 211.7232 232.291876 
L 212.1696 337.771823 
L 212.616 240.160381 
L 213.0624 240.825518 
L 213.5088 244.91354 
L 213.9552 224.655755 
L 214.4016 237.795719 
L 214.848 293.930689 
L 215.2944 236.078712 
L 215.7408 215.120687 
L 216.1872 201.407191 
L 216.6336 209.094714 
L 217.08 205.832301 
L 217.5264 218.583943 
L 217.9728 216.945776 
L 218.4192 218.416602 
L 218.8656 207.23572 
L 219.312 202.755469 
L 219.7584 204.808518 
L 220.2048 201.527011 
L 220.6512 195.844812 
L 221.0976 207.554846 
L 221.544 200.963526 
L 221.9904 203.778985 
L 222.4368 199.128697 
L 222.8832 206.772612 
L 223.3296 208.725021 
L 223.776 222.19883 
L 224.2224 230.80197 
L 224.6688 256.609859 
L 225.1152 243.817203 
L 225.5616 221.612135 
L 226.4544 255.072032 
L 227.3472 215.99102 
L 227.7936 229.616889 
L 228.24 221.9386 
L 228.6864 284.476563 
L 229.1328 228.808755 
L 229.5792 293.595935 
L 230.0256 241.555152 
L 230.472 217.510006 
L 230.9184 213.766871 
L 231.3648 203.791565 
L 232.2576 220.40914 
L 232.704 238.371377 
L 233.1504 222.699255 
L 233.5968 249.052447 
L 234.0432 237.401424 
L 234.4896 292.404928 
L 234.936 261.28319 
L 235.3824 221.14336 
L 236.2752 203.002577 
L 236.7216 204.848252 
L 237.6144 190.846433 
L 238.0608 188.99534 
L 238.5072 186.424076 
L 238.9536 182.782141 
L 239.4 185.183577 
L 239.8464 184.206711 
L 240.2928 187.907845 
L 240.7392 188.026805 
L 241.632 193.258152 
L 242.5248 207.201165 
L 243.864 192.115487 
L 244.7568 188.608554 
L 245.2032 184.43865 
L 245.6496 187.800285 
L 246.5424 181.110471 
L 246.9888 177.608038 
L 247.4352 179.389997 
L 247.8816 176.522318 
L 248.328 177.571214 
L 248.7744 181.190262 
L 249.2208 181.814157 
L 249.6672 178.813642 
L 250.1136 177.063309 
L 250.56 180.615676 
L 251.4528 179.60665 
L 251.8992 177.407946 
L 252.3456 180.734451 
L 252.792 177.818729 
L 253.2384 176.406251 
L 253.6848 174.228798 
L 254.1312 174.46491 
L 254.5776 175.248968 
L 255.4704 172.353782 
L 255.9168 173.702953 
L 256.3632 175.590536 
L 256.8096 174.273377 
L 257.256 172.284466 
L 258.1488 176.612045 
L 258.5952 175.745084 
L 259.0416 174.147003 
L 259.488 171.915851 
L 259.9344 170.91813 
L 260.3808 173.136079 
L 260.8272 173.268804 
L 261.72 169.732599 
L 262.6128 166.958616 
L 263.0592 169.112431 
L 263.5056 167.897981 
L 266.184 176.180493 
L 267.0768 182.118769 
L 267.5232 179.339771 
L 267.9696 177.606951 
L 268.416 178.675512 
L 268.8624 177.385919 
L 269.3088 180.532387 
L 269.7552 178.287241 
L 270.2016 179.602448 
L 270.648 177.941721 
L 271.0944 178.380712 
L 271.5408 177.712366 
L 271.9872 178.453707 
L 272.88 174.371823 
L 273.3264 175.160787 
L 273.7728 178.530624 
L 274.2192 179.587163 
L 275.112 183.069851 
L 276.0048 190.542154 
L 276.4512 193.134216 
L 276.8976 199.300601 
L 277.344 194.642956 
L 278.2368 187.369053 
L 278.6832 192.226154 
L 279.1296 187.481063 
L 279.576 185.522692 
L 280.0224 181.830975 
L 280.4688 180.870519 
L 280.9152 180.958516 
L 281.3616 182.105591 
L 281.808 182.852845 
L 282.2544 181.587162 
L 282.7008 178.672473 
L 283.1472 182.164769 
L 283.5936 180.522894 
L 284.04 182.982847 
L 284.4864 183.309894 
L 284.9328 186.061362 
L 286.272 178.906325 
L 287.6112 184.415819 
L 288.0576 184.787444 
L 288.504 187.077223 
L 288.9504 189.973717 
L 289.3968 191.664641 
L 289.8432 188.887122 
L 290.2896 187.514739 
L 290.736 185.147105 
L 291.1824 186.964757 
L 292.5216 198.504761 
L 292.968 201.32932 
L 293.4144 200.236991 
L 293.8608 195.766546 
L 294.3072 202.3307 
L 294.7536 204.868786 
L 295.2 199.091038 
L 296.0928 210.47732 
L 297.432 196.332146 
L 297.8784 200.343616 
L 298.3248 199.319296 
L 298.7712 196.430934 
L 299.2176 199.148263 
L 299.664 198.107961 
L 300.1104 203.474061 
L 300.5568 201.0607 
L 301.0032 196.800871 
L 301.4496 203.643393 
L 301.896 198.607132 
L 302.3424 203.138849 
L 302.7888 198.926647 
L 303.2352 193.162285 
L 303.6816 189.819465 
L 304.5744 194.511765 
L 305.0208 199.964807 
L 305.4672 201.56547 
L 306.36 206.567081 
L 307.2528 198.397533 
L 307.6992 194.942793 
L 308.1456 197.734365 
L 309.4848 210.940536 
L 309.9312 207.665864 
L 310.3776 207.919783 
L 310.824 213.862704 
L 311.2704 211.869282 
L 311.7168 206.634186 
L 312.1632 203.683894 
L 312.6096 208.820511 
L 313.056 211.150562 
L 313.5024 217.973017 
L 313.9488 222.823947 
L 314.3952 212.520604 
L 314.8416 206.271759 
L 315.288 202.88154 
L 315.7344 201.913165 
L 316.6272 213.933169 
L 317.0736 215.569153 
L 317.52 214.030525 
L 317.9664 229.019966 
L 318.4128 253.043329 
L 318.8592 230.563826 
L 319.3056 215.980618 
L 319.752 214.613306 
L 320.1984 221.548149 
L 320.6448 215.306274 
L 321.0912 213.006372 
L 321.984 235.69575 
L 322.4304 224.946224 
L 322.8768 234.952183 
L 323.3232 220.90129 
L 323.7696 231.870519 
L 324.216 315.608308 
L 324.6624 236.12934 
L 325.1088 230.049323 
L 325.5552 228.45659 
L 326.448 210.747935 
L 326.8944 206.66843 
L 327.3408 214.30037 
L 328.2336 203.328218 
L 328.68 209.840021 
L 329.1264 212.75458 
L 329.5728 218.501995 
L 330.0192 209.858272 
L 330.4656 217.237102 
L 330.912 211.394603 
L 331.3584 216.540763 
L 331.8048 214.553084 
L 332.2512 218.437066 
L 332.6976 213.098619 
L 333.144 210.082771 
L 333.5904 204.430238 
L 334.0368 200.744316 
L 334.4832 207.688146 
L 334.9296 205.839821 
L 335.376 209.650934 
L 335.8224 203.541658 
L 336.2688 200.232342 
L 336.7152 198.882922 
L 337.1616 203.021062 
L 337.608 202.227688 
L 338.5008 197.46147 
L 338.9472 197.568095 
L 339.84 190.883631 
L 340.2864 190.050629 
L 340.7328 192.603549 
L 341.1792 189.275743 
L 341.6256 190.624844 
L 342.072 193.630749 
L 342.5184 191.467221 
L 342.9648 193.053064 
L 343.4112 197.32824 
L 343.8576 195.090968 
L 344.304 201.019808 
L 344.7504 197.446895 
L 345.6432 204.409349 
L 346.0896 209.858947 
L 346.536 204.625235 
L 346.9824 206.292146 
L 347.4288 204.231128 
L 347.8752 197.765304 
L 348.3216 199.609788 
L 349.2144 208.913291 
L 349.6608 204.762577 
L 350.1072 208.506003 
L 350.5536 214.793408 
L 351 211.859059 
L 351.4464 218.296422 
L 351.8928 222.55003 
L 352.3392 232.316737 
L 352.7856 228.561721 
L 353.232 221.767062 
L 353.6784 217.521905 
L 354.1248 233.00416 
L 354.5712 253.837958 
L 355.0176 231.226624 
L 355.464 247.297275 
L 355.9104 292.98446 
L 356.3568 244.310102 
L 356.8032 240.002607 
L 357.2496 222.048894 
L 357.696 213.381695 
L 358.5888 229.451211 
L 359.0352 241.28397 
L 359.4816 225.477552 
L 359.928 235.054435 
L 360.8208 265.845911 
L 361.2672 318.665233 
L 361.7136 268.404951 
L 362.16 244.275813 
L 362.6064 227.791615 
L 363.0528 239.300271 
L 363.4992 230.40683 
L 363.9456 246.409784 
L 364.392 252.705111 
L 364.8384 244.684253 
L 365.2848 289.280235 
L 365.7312 253.635275 
L 366.1776 345.705485 
L 366.624 250.064573 
L 367.0704 313.858001 
L 367.5168 242.001347 
L 367.9632 243.179795 
L 368.4096 235.891875 
L 368.856 273.2843 
L 369.3024 242.395865 
L 369.7488 272.94224 
L 370.1952 238.610584 
L 370.6416 254.709489 
L 371.088 237.519029 
L 371.5344 245.880202 
L 371.9808 227.062438 
L 372.4272 236.537064 
L 372.8736 227.618352 
L 373.32 234.225113 
L 374.2128 254.733786 
L 374.6592 319.142573 
L 375.1056 255.440068 
L 375.552 285.324863 
L 375.9984 239.829945 
L 376.4448 224.888043 
L 376.8912 230.477555 
L 377.3376 226.935444 
L 377.784 220.409309 
L 378.2304 223.669533 
L 378.6768 216.339551 
L 379.1232 221.519586 
L 380.4624 206.477147 
L 380.9088 204.598156 
L 381.3552 208.410314 
L 381.8016 208.467574 
L 382.248 206.081957 
L 382.6944 202.843197 
L 383.1408 201.088073 
L 383.5872 206.067786 
L 384.0336 207.869036 
L 384.9264 202.894667 
L 385.3728 206.979655 
L 385.8192 205.784509 
L 386.2656 202.657923 
L 386.712 200.423233 
L 387.1584 202.23883 
L 387.6048 205.375728 
L 388.0512 206.415102 
L 388.4976 199.521528 
L 388.944 197.509824 
L 389.3904 198.81961 
L 389.8368 203.502956 
L 390.2832 202.3207 
L 390.7296 198.970404 
L 391.6224 206.557517 
L 392.0688 213.83341 
L 392.5152 216.151075 
L 392.9616 215.163174 
L 393.408 208.838401 
L 393.8544 212.06366 
L 394.3008 219.287146 
L 394.7472 213.075601 
L 395.1936 212.25223 
L 395.64 205.973486 
L 396.0864 210.560306 
L 396.5328 203.611251 
L 396.9792 204.840302 
L 397.4256 200.648881 
L 397.872 204.693378 
L 398.7648 198.3387 
L 399.2112 202.40372 
L 400.104 204.21575 
L 400.9968 198.586411 
L 401.8896 203.408191 
L 402.336 208.048841 
L 402.7824 202.826209 
L 403.2288 206.542571 
L 403.6752 209.308018 
L 404.1216 206.181835 
L 404.568 213.482619 
L 405.0144 209.335278 
L 405.4608 214.880998 
L 405.9072 212.13867 
L 406.3536 207.485481 
L 406.8 209.500318 
L 407.2464 214.126957 
L 407.6928 209.256868 
L 408.1392 202.991932 
L 408.5856 199.246277 
L 409.4784 206.638281 
L 409.9248 203.737111 
L 410.3712 208.464485 
L 411.264 201.614348 
L 411.7104 204.456104 
L 412.1568 209.172986 
L 412.6032 204.772226 
L 413.0496 212.032201 
L 413.9424 202.524638 
L 414.3888 200.609879 
L 414.8352 205.508891 
L 415.2816 202.9967 
L 416.1744 199.750844 
L 416.6208 197.09045 
L 417.0672 193.541189 
L 417.5136 193.800586 
L 418.4064 191.101484 
L 418.8528 192.027209 
L 419.2992 194.386404 
L 419.7456 194.813769 
L 420.192 196.005651 
L 420.6384 193.111669 
L 421.0848 194.194647 
L 421.5312 196.946136 
L 421.9776 194.825255 
L 422.424 196.197918 
L 422.8704 193.506365 
L 423.7632 197.710017 
L 424.2096 201.129434 
L 424.656 197.710782 
L 425.1024 196.185477 
L 425.5488 195.384144 
L 426.4416 189.805455 
L 426.888 192.483316 
L 427.3344 194.372844 
L 427.7808 192.150766 
L 428.2272 193.228862 
L 428.6736 192.502814 
L 429.12 193.406668 
L 429.5664 190.838411 
L 430.0128 190.001065 
L 430.4592 192.703382 
L 430.9056 190.062265 
L 431.352 191.700358 
L 432.6912 199.704167 
L 433.1376 195.655498 
L 433.584 198.515886 
L 434.0304 202.888197 
L 434.4768 203.02533 
L 434.9232 202.658087 
L 435.3696 203.442331 
L 435.816 207.147186 
L 436.2624 204.900323 
L 436.7088 206.372243 
L 437.1552 203.515544 
L 437.6016 208.594304 
L 438.048 204.431233 
L 438.9408 208.500229 
L 439.3872 213.177795 
L 439.8336 210.190483 
L 440.28 203.282826 
L 440.7264 199.186002 
L 441.1728 200.622406 
L 441.6192 204.759461 
L 442.0656 203.084637 
L 442.512 207.135639 
L 443.4048 198.291616 
L 443.8512 201.607661 
L 444.2976 206.125781 
L 444.744 204.44737 
L 445.1904 201.675481 
L 445.6368 205.999177 
L 446.0832 203.175756 
L 446.5296 205.277212 
L 447.4224 211.806231 
L 447.8688 210.342462 
L 448.3152 208.454703 
L 448.7616 204.358864 
L 449.208 207.713934 
L 449.6544 204.450026 
L 450.1008 202.696925 
L 450.5472 206.095762 
L 450.9936 208.246944 
L 451.44 213.848277 
L 451.8864 207.606539 
L 452.3328 209.713642 
L 453.2256 219.078414 
L 453.672 217.458852 
L 454.5648 206.557635 
L 455.0112 204.529667 
L 455.904 197.236234 
L 456.3504 196.088619 
L 456.7968 193.120783 
L 457.2432 191.10687 
L 458.136 188.417777 
L 458.5824 190.188314 
L 459.0288 191.336858 
L 459.4752 190.031429 
L 459.9216 192.713081 
L 460.368 192.072061 
L 460.8144 193.000806 
L 461.2608 196.406728 
L 461.7072 194.549191 
L 462.1536 193.591988 
L 462.6 191.27486 
L 463.0464 192.528126 
L 463.4928 195.427141 
L 465.7248 190.033955 
L 466.1712 188.210025 
L 466.6176 188.985157 
L 467.064 190.490923 
L 467.5104 190.106839 
L 468.4032 193.389327 
L 468.8496 190.889003 
L 469.296 193.48584 
L 469.7424 191.53741 
L 470.1888 190.743593 
L 470.6352 191.902629 
L 471.528 194.975124 
L 471.9744 197.135574 
L 472.4208 198.334089 
L 472.8672 198.773888 
L 473.3136 198.18023 
L 473.76 197.069664 
L 474.2064 197.646674 
L 474.6528 198.993448 
L 475.0992 197.857795 
L 475.5456 198.494257 
L 475.992 197.59382 
L 476.4384 199.351777 
L 476.8848 198.690116 
L 477.3312 200.64982 
L 478.224 196.659856 
L 478.6704 198.312634 
L 479.1168 197.449439 
L 479.5632 198.265706 
L 480.0096 201.003827 
L 480.456 197.604815 
L 480.9024 199.718492 
L 481.3488 198.217982 
L 481.7952 201.893704 
L 482.2416 199.977162 
L 482.688 197.485593 
L 483.1344 197.420205 
L 483.5808 196.276316 
L 484.0272 199.570912 
L 484.92 203.765842 
L 485.3664 201.150434 
L 485.8128 201.893527 
L 486.2592 206.648994 
L 486.7056 208.217285 
L 487.152 204.560005 
L 488.0448 213.858994 
L 488.4912 211.719061 
L 488.9376 215.204532 
L 489.8304 207.784214 
L 490.2768 211.830185 
L 491.616 205.574135 
L 492.0624 208.526265 
L 492.5088 204.401867 
L 492.9552 208.851748 
L 493.4016 211.034014 
L 493.848 211.733184 
L 494.7408 217.954122 
L 495.1872 227.301112 
L 495.6336 234.272369 
L 496.08 227.583376 
L 496.5264 232.938725 
L 497.4192 223.704086 
L 497.8656 221.645832 
L 498.312 230.075814 
L 498.7584 234.002927 
L 499.2048 229.852708 
L 499.6512 231.602027 
L 500.0976 235.946713 
L 500.544 249.971922 
L 500.9904 327.966446 
L 501.4368 255.625429 
L 502.3296 229.788588 
L 503.2224 215.058598 
L 503.6688 211.567482 
L 504.5616 220.503263 
L 505.008 223.367068 
L 505.9008 213.144543 
L 506.3472 210.829285 
L 506.7936 212.491085 
L 507.24 207.492379 
L 507.6864 206.196138 
L 508.1328 207.633352 
L 508.5792 211.088626 
L 509.0256 207.785666 
L 509.472 206.103162 
L 509.9184 209.747844 
L 510.3648 209.071566 
L 510.8112 213.284629 
L 511.2576 210.008634 
L 512.1504 216.909993 
L 512.5968 217.456802 
L 513.0432 219.783896 
L 513.4896 225.324086 
L 514.3824 241.568062 
L 514.8288 238.611776 
L 515.2752 259.228324 
L 515.7216 243.23582 
L 516.168 235.974947 
L 516.6144 226.170172 
L 517.0608 235.688938 
L 517.5072 230.433258 
L 517.9536 231.567984 
L 517.9536 231.567984 
" style="fill:none;stroke:#008000;stroke-linecap:square;"/>
   </g>
   <g id="patch_3">
    <path d="M 72 388.8 
L 518.4 388.8 
" style="fill:none;stroke:#000000;stroke-linecap:square;stroke-linejoin:miter;"/>
   </g>
   <g id="patch_4">
    <path d="M 72 43.2 
L 518.4 43.2 
" style="fill:none;stroke:#000000;stroke-linecap:square;stroke-linejoin:miter;"/>
   </g>
   <g id="patch_5">
    <path d="M 518.4 388.8 
L 518.4 43.2 
" style="fill:none;stroke:#000000;stroke-linecap:square;stroke-linejoin:miter;"/>
   </g>
   <g id="patch_6">
    <path d="M 72 388.8 
L 72 43.2 
" style="fill:none;stroke:#000000;stroke-linecap:square;stroke-linejoin:miter;"/>
   </g>
   <g id="matplotlib.axis_1">
    <g id="xtick_1">
     <g id="line2d_3">
      <defs>
       <path d="M 0 0 
L 0 -4 
" id="maf3f4a621c" style="stroke:#000000;stroke-width:0.5;"/>
      </defs>
      <g>
       <use style="stroke:#000000;stroke-width:0.5;" x="72.0" xlink:href="#maf3f4a621c" y="388.8"/>
      </g>
     </g>
     <g id="line2d_4">
      <defs>
       <path d="M 0 0 
L 0 4 
" id="mede1aa40f8" style="stroke:#000000;stroke-width:0.5;"/>
      </defs>
      <g>
       <use style="stroke:#000000;stroke-width:0.5;" x="72.0" xlink:href="#mede1aa40f8" y="43.2"/>
      </g>
     </g>
     <g id="text_1">
      <!-- 0 -->
      <defs>
       <path d="M 31.78125 66.40625 
Q 24.171875 66.40625 20.328125 58.90625 
Q 16.5 51.421875 16.5 36.375 
Q 16.5 21.390625 20.328125 13.890625 
Q 24.171875 6.390625 31.78125 6.390625 
Q 39.453125 6.390625 43.28125 13.890625 
Q 47.125 21.390625 47.125 36.375 
Q 47.125 51.421875 43.28125 58.90625 
Q 39.453125 66.40625 31.78125 66.40625 
M 31.78125 74.21875 
Q 44.046875 74.21875 50.515625 64.515625 
Q 56.984375 54.828125 56.984375 36.375 
Q 56.984375 17.96875 50.515625 8.265625 
Q 44.046875 -1.421875 31.78125 -1.421875 
Q 19.53125 -1.421875 13.0625 8.265625 
Q 6.59375 17.96875 6.59375 36.375 
Q 6.59375 54.828125 13.0625 64.515625 
Q 19.53125 74.21875 31.78125 74.21875 
" id="BitstreamVeraSans-Roman-30"/>
      </defs>
      <g transform="translate(68.1825 401.918125)scale(0.12 -0.12)">
       <use xlink:href="#BitstreamVeraSans-Roman-30"/>
      </g>
     </g>
    </g>
    <g id="xtick_2">
     <g id="line2d_5">
      <g>
       <use style="stroke:#000000;stroke-width:0.5;" x="161.28" xlink:href="#maf3f4a621c" y="388.8"/>
      </g>
     </g>
     <g id="line2d_6">
      <g>
       <use style="stroke:#000000;stroke-width:0.5;" x="161.28" xlink:href="#mede1aa40f8" y="43.2"/>
      </g>
     </g>
     <g id="text_2">
      <!-- 200 -->
      <defs>
       <path d="M 19.1875 8.296875 
L 53.609375 8.296875 
L 53.609375 0 
L 7.328125 0 
L 7.328125 8.296875 
Q 12.9375 14.109375 22.625 23.890625 
Q 32.328125 33.6875 34.8125 36.53125 
Q 39.546875 41.84375 41.421875 45.53125 
Q 43.3125 49.21875 43.3125 52.78125 
Q 43.3125 58.59375 39.234375 62.25 
Q 35.15625 65.921875 28.609375 65.921875 
Q 23.96875 65.921875 18.8125 64.3125 
Q 13.671875 62.703125 7.8125 59.421875 
L 7.8125 69.390625 
Q 13.765625 71.78125 18.9375 73 
Q 24.125 74.21875 28.421875 74.21875 
Q 39.75 74.21875 46.484375 68.546875 
Q 53.21875 62.890625 53.21875 53.421875 
Q 53.21875 48.921875 51.53125 44.890625 
Q 49.859375 40.875 45.40625 35.40625 
Q 44.1875 33.984375 37.640625 27.21875 
Q 31.109375 20.453125 19.1875 8.296875 
" id="BitstreamVeraSans-Roman-32"/>
      </defs>
      <g transform="translate(149.8275 401.918125)scale(0.12 -0.12)">
       <use xlink:href="#BitstreamVeraSans-Roman-32"/>
       <use x="63.623046875" xlink:href="#BitstreamVeraSans-Roman-30"/>
       <use x="127.24609375" xlink:href="#BitstreamVeraSans-Roman-30"/>
      </g>
     </g>
    </g>
    <g id="xtick_3">
     <g id="line2d_7">
      <g>
       <use style="stroke:#000000;stroke-width:0.5;" x="250.56" xlink:href="#maf3f4a621c" y="388.8"/>
      </g>
     </g>
     <g id="line2d_8">
      <g>
       <use style="stroke:#000000;stroke-width:0.5;" x="250.56" xlink:href="#mede1aa40f8" y="43.2"/>
      </g>
     </g>
     <g id="text_3">
      <!-- 400 -->
      <defs>
       <path d="M 37.796875 64.3125 
L 12.890625 25.390625 
L 37.796875 25.390625 
z
M 35.203125 72.90625 
L 47.609375 72.90625 
L 47.609375 25.390625 
L 58.015625 25.390625 
L 58.015625 17.1875 
L 47.609375 17.1875 
L 47.609375 0 
L 37.796875 0 
L 37.796875 17.1875 
L 4.890625 17.1875 
L 4.890625 26.703125 
z
" id="BitstreamVeraSans-Roman-34"/>
      </defs>
      <g transform="translate(239.1075 401.918125)scale(0.12 -0.12)">
       <use xlink:href="#BitstreamVeraSans-Roman-34"/>
       <use x="63.623046875" xlink:href="#BitstreamVeraSans-Roman-30"/>
       <use x="127.24609375" xlink:href="#BitstreamVeraSans-Roman-30"/>
      </g>
     </g>
    </g>
    <g id="xtick_4">
     <g id="line2d_9">
      <g>
       <use style="stroke:#000000;stroke-width:0.5;" x="339.84" xlink:href="#maf3f4a621c" y="388.8"/>
      </g>
     </g>
     <g id="line2d_10">
      <g>
       <use style="stroke:#000000;stroke-width:0.5;" x="339.84" xlink:href="#mede1aa40f8" y="43.2"/>
      </g>
     </g>
     <g id="text_4">
      <!-- 600 -->
      <defs>
       <path d="M 33.015625 40.375 
Q 26.375 40.375 22.484375 35.828125 
Q 18.609375 31.296875 18.609375 23.390625 
Q 18.609375 15.53125 22.484375 10.953125 
Q 26.375 6.390625 33.015625 6.390625 
Q 39.65625 6.390625 43.53125 10.953125 
Q 47.40625 15.53125 47.40625 23.390625 
Q 47.40625 31.296875 43.53125 35.828125 
Q 39.65625 40.375 33.015625 40.375 
M 52.59375 71.296875 
L 52.59375 62.3125 
Q 48.875 64.0625 45.09375 64.984375 
Q 41.3125 65.921875 37.59375 65.921875 
Q 27.828125 65.921875 22.671875 59.328125 
Q 17.53125 52.734375 16.796875 39.40625 
Q 19.671875 43.65625 24.015625 45.921875 
Q 28.375 48.1875 33.59375 48.1875 
Q 44.578125 48.1875 50.953125 41.515625 
Q 57.328125 34.859375 57.328125 23.390625 
Q 57.328125 12.15625 50.6875 5.359375 
Q 44.046875 -1.421875 33.015625 -1.421875 
Q 20.359375 -1.421875 13.671875 8.265625 
Q 6.984375 17.96875 6.984375 36.375 
Q 6.984375 53.65625 15.1875 63.9375 
Q 23.390625 74.21875 37.203125 74.21875 
Q 40.921875 74.21875 44.703125 73.484375 
Q 48.484375 72.75 52.59375 71.296875 
" id="BitstreamVeraSans-Roman-36"/>
      </defs>
      <g transform="translate(328.3875 401.918125)scale(0.12 -0.12)">
       <use xlink:href="#BitstreamVeraSans-Roman-36"/>
       <use x="63.623046875" xlink:href="#BitstreamVeraSans-Roman-30"/>
       <use x="127.24609375" xlink:href="#BitstreamVeraSans-Roman-30"/>
      </g>
     </g>
    </g>
    <g id="xtick_5">
     <g id="line2d_11">
      <g>
       <use style="stroke:#000000;stroke-width:0.5;" x="429.12" xlink:href="#maf3f4a621c" y="388.8"/>
      </g>
     </g>
     <g id="line2d_12">
      <g>
       <use style="stroke:#000000;stroke-width:0.5;" x="429.12" xlink:href="#mede1aa40f8" y="43.2"/>
      </g>
     </g>
     <g id="text_5">
      <!-- 800 -->
      <defs>
       <path d="M 31.78125 34.625 
Q 24.75 34.625 20.71875 30.859375 
Q 16.703125 27.09375 16.703125 20.515625 
Q 16.703125 13.921875 20.71875 10.15625 
Q 24.75 6.390625 31.78125 6.390625 
Q 38.8125 6.390625 42.859375 10.171875 
Q 46.921875 13.96875 46.921875 20.515625 
Q 46.921875 27.09375 42.890625 30.859375 
Q 38.875 34.625 31.78125 34.625 
M 21.921875 38.8125 
Q 15.578125 40.375 12.03125 44.71875 
Q 8.5 49.078125 8.5 55.328125 
Q 8.5 64.0625 14.71875 69.140625 
Q 20.953125 74.21875 31.78125 74.21875 
Q 42.671875 74.21875 48.875 69.140625 
Q 55.078125 64.0625 55.078125 55.328125 
Q 55.078125 49.078125 51.53125 44.71875 
Q 48 40.375 41.703125 38.8125 
Q 48.828125 37.15625 52.796875 32.3125 
Q 56.78125 27.484375 56.78125 20.515625 
Q 56.78125 9.90625 50.3125 4.234375 
Q 43.84375 -1.421875 31.78125 -1.421875 
Q 19.734375 -1.421875 13.25 4.234375 
Q 6.78125 9.90625 6.78125 20.515625 
Q 6.78125 27.484375 10.78125 32.3125 
Q 14.796875 37.15625 21.921875 38.8125 
M 18.3125 54.390625 
Q 18.3125 48.734375 21.84375 45.5625 
Q 25.390625 42.390625 31.78125 42.390625 
Q 38.140625 42.390625 41.71875 45.5625 
Q 45.3125 48.734375 45.3125 54.390625 
Q 45.3125 60.0625 41.71875 63.234375 
Q 38.140625 66.40625 31.78125 66.40625 
Q 25.390625 66.40625 21.84375 63.234375 
Q 18.3125 60.0625 18.3125 54.390625 
" id="BitstreamVeraSans-Roman-38"/>
      </defs>
      <g transform="translate(417.6675 401.918125)scale(0.12 -0.12)">
       <use xlink:href="#BitstreamVeraSans-Roman-38"/>
       <use x="63.623046875" xlink:href="#BitstreamVeraSans-Roman-30"/>
       <use x="127.24609375" xlink:href="#BitstreamVeraSans-Roman-30"/>
      </g>
     </g>
    </g>
    <g id="xtick_6">
     <g id="line2d_13">
      <g>
       <use style="stroke:#000000;stroke-width:0.5;" x="518.4" xlink:href="#maf3f4a621c" y="388.8"/>
      </g>
     </g>
     <g id="line2d_14">
      <g>
       <use style="stroke:#000000;stroke-width:0.5;" x="518.4" xlink:href="#mede1aa40f8" y="43.2"/>
      </g>
     </g>
     <g id="text_6">
      <!-- 1000 -->
      <defs>
       <path d="M 12.40625 8.296875 
L 28.515625 8.296875 
L 28.515625 63.921875 
L 10.984375 60.40625 
L 10.984375 69.390625 
L 28.421875 72.90625 
L 38.28125 72.90625 
L 38.28125 8.296875 
L 54.390625 8.296875 
L 54.390625 0 
L 12.40625 0 
z
" id="BitstreamVeraSans-Roman-31"/>
      </defs>
      <g transform="translate(503.13 401.918125)scale(0.12 -0.12)">
       <use xlink:href="#BitstreamVeraSans-Roman-31"/>
       <use x="63.623046875" xlink:href="#BitstreamVeraSans-Roman-30"/>
       <use x="127.24609375" xlink:href="#BitstreamVeraSans-Roman-30"/>
       <use x="190.869140625" xlink:href="#BitstreamVeraSans-Roman-30"/>
      </g>
     </g>
    </g>
    <g id="text_7">
     <!-- Sample Number -->
     <defs>
      <path d="M 41.109375 46.296875 
Q 39.59375 47.171875 37.8125 47.578125 
Q 36.03125 48 33.890625 48 
Q 26.265625 48 22.1875 43.046875 
Q 18.109375 38.09375 18.109375 28.8125 
L 18.109375 0 
L 9.078125 0 
L 9.078125 54.6875 
L 18.109375 54.6875 
L 18.109375 46.1875 
Q 20.953125 51.171875 25.484375 53.578125 
Q 30.03125 56 36.53125 56 
Q 37.453125 56 38.578125 55.875 
Q 39.703125 55.765625 41.0625 55.515625 
z
" id="BitstreamVeraSans-Roman-72"/>
      <path d="M 53.515625 70.515625 
L 53.515625 60.890625 
Q 47.90625 63.578125 42.921875 64.890625 
Q 37.9375 66.21875 33.296875 66.21875 
Q 25.25 66.21875 20.875 63.09375 
Q 16.5 59.96875 16.5 54.203125 
Q 16.5 49.359375 19.40625 46.890625 
Q 22.3125 44.4375 30.421875 42.921875 
L 36.375 41.703125 
Q 47.40625 39.59375 52.65625 34.296875 
Q 57.90625 29 57.90625 20.125 
Q 57.90625 9.515625 50.796875 4.046875 
Q 43.703125 -1.421875 29.984375 -1.421875 
Q 24.8125 -1.421875 18.96875 -0.25 
Q 13.140625 0.921875 6.890625 3.21875 
L 6.890625 13.375 
Q 12.890625 10.015625 18.65625 8.296875 
Q 24.421875 6.59375 29.984375 6.59375 
Q 38.421875 6.59375 43.015625 9.90625 
Q 47.609375 13.234375 47.609375 19.390625 
Q 47.609375 24.75 44.3125 27.78125 
Q 41.015625 30.8125 33.5 32.328125 
L 27.484375 33.5 
Q 16.453125 35.6875 11.515625 40.375 
Q 6.59375 45.0625 6.59375 53.421875 
Q 6.59375 63.09375 13.40625 68.65625 
Q 20.21875 74.21875 32.171875 74.21875 
Q 37.3125 74.21875 42.625 73.28125 
Q 47.953125 72.359375 53.515625 70.515625 
" id="BitstreamVeraSans-Roman-53"/>
      <path d="M 18.109375 8.203125 
L 18.109375 -20.796875 
L 9.078125 -20.796875 
L 9.078125 54.6875 
L 18.109375 54.6875 
L 18.109375 46.390625 
Q 20.953125 51.265625 25.265625 53.625 
Q 29.59375 56 35.59375 56 
Q 45.5625 56 51.78125 48.09375 
Q 58.015625 40.1875 58.015625 27.296875 
Q 58.015625 14.40625 51.78125 6.484375 
Q 45.5625 -1.421875 35.59375 -1.421875 
Q 29.59375 -1.421875 25.265625 0.953125 
Q 20.953125 3.328125 18.109375 8.203125 
M 48.6875 27.296875 
Q 48.6875 37.203125 44.609375 42.84375 
Q 40.53125 48.484375 33.40625 48.484375 
Q 26.265625 48.484375 22.1875 42.84375 
Q 18.109375 37.203125 18.109375 27.296875 
Q 18.109375 17.390625 22.1875 11.75 
Q 26.265625 6.109375 33.40625 6.109375 
Q 40.53125 6.109375 44.609375 11.75 
Q 48.6875 17.390625 48.6875 27.296875 
" id="BitstreamVeraSans-Roman-70"/>
      <path d="M 9.8125 72.90625 
L 23.09375 72.90625 
L 55.421875 11.921875 
L 55.421875 72.90625 
L 64.984375 72.90625 
L 64.984375 0 
L 51.703125 0 
L 19.390625 60.984375 
L 19.390625 0 
L 9.8125 0 
z
" id="BitstreamVeraSans-Roman-4e"/>
      <path id="BitstreamVeraSans-Roman-20"/>
      <path d="M 34.28125 27.484375 
Q 23.390625 27.484375 19.1875 25 
Q 14.984375 22.515625 14.984375 16.5 
Q 14.984375 11.71875 18.140625 8.90625 
Q 21.296875 6.109375 26.703125 6.109375 
Q 34.1875 6.109375 38.703125 11.40625 
Q 43.21875 16.703125 43.21875 25.484375 
L 43.21875 27.484375 
z
M 52.203125 31.203125 
L 52.203125 0 
L 43.21875 0 
L 43.21875 8.296875 
Q 40.140625 3.328125 35.546875 0.953125 
Q 30.953125 -1.421875 24.3125 -1.421875 
Q 15.921875 -1.421875 10.953125 3.296875 
Q 6 8.015625 6 15.921875 
Q 6 25.140625 12.171875 29.828125 
Q 18.359375 34.515625 30.609375 34.515625 
L 43.21875 34.515625 
L 43.21875 35.40625 
Q 43.21875 41.609375 39.140625 45 
Q 35.0625 48.390625 27.6875 48.390625 
Q 23 48.390625 18.546875 47.265625 
Q 14.109375 46.140625 10.015625 43.890625 
L 10.015625 52.203125 
Q 14.9375 54.109375 19.578125 55.046875 
Q 24.21875 56 28.609375 56 
Q 40.484375 56 46.34375 49.84375 
Q 52.203125 43.703125 52.203125 31.203125 
" id="BitstreamVeraSans-Roman-61"/>
      <path d="M 52 44.1875 
Q 55.375 50.25 60.0625 53.125 
Q 64.75 56 71.09375 56 
Q 79.640625 56 84.28125 50.015625 
Q 88.921875 44.046875 88.921875 33.015625 
L 88.921875 0 
L 79.890625 0 
L 79.890625 32.71875 
Q 79.890625 40.578125 77.09375 44.375 
Q 74.3125 48.1875 68.609375 48.1875 
Q 61.625 48.1875 57.5625 43.546875 
Q 53.515625 38.921875 53.515625 30.90625 
L 53.515625 0 
L 44.484375 0 
L 44.484375 32.71875 
Q 44.484375 40.625 41.703125 44.40625 
Q 38.921875 48.1875 33.109375 48.1875 
Q 26.21875 48.1875 22.15625 43.53125 
Q 18.109375 38.875 18.109375 30.90625 
L 18.109375 0 
L 9.078125 0 
L 9.078125 54.6875 
L 18.109375 54.6875 
L 18.109375 46.1875 
Q 21.1875 51.21875 25.484375 53.609375 
Q 29.78125 56 35.6875 56 
Q 41.65625 56 45.828125 52.96875 
Q 50 49.953125 52 44.1875 
" id="BitstreamVeraSans-Roman-6d"/>
      <path d="M 56.203125 29.59375 
L 56.203125 25.203125 
L 14.890625 25.203125 
Q 15.484375 15.921875 20.484375 11.0625 
Q 25.484375 6.203125 34.421875 6.203125 
Q 39.59375 6.203125 44.453125 7.46875 
Q 49.3125 8.734375 54.109375 11.28125 
L 54.109375 2.78125 
Q 49.265625 0.734375 44.1875 -0.34375 
Q 39.109375 -1.421875 33.890625 -1.421875 
Q 20.796875 -1.421875 13.15625 6.1875 
Q 5.515625 13.8125 5.515625 26.8125 
Q 5.515625 40.234375 12.765625 48.109375 
Q 20.015625 56 32.328125 56 
Q 43.359375 56 49.78125 48.890625 
Q 56.203125 41.796875 56.203125 29.59375 
M 47.21875 32.234375 
Q 47.125 39.59375 43.09375 43.984375 
Q 39.0625 48.390625 32.421875 48.390625 
Q 24.90625 48.390625 20.390625 44.140625 
Q 15.875 39.890625 15.1875 32.171875 
z
" id="BitstreamVeraSans-Roman-65"/>
      <path d="M 8.5 21.578125 
L 8.5 54.6875 
L 17.484375 54.6875 
L 17.484375 21.921875 
Q 17.484375 14.15625 20.5 10.265625 
Q 23.53125 6.390625 29.59375 6.390625 
Q 36.859375 6.390625 41.078125 11.03125 
Q 45.3125 15.671875 45.3125 23.6875 
L 45.3125 54.6875 
L 54.296875 54.6875 
L 54.296875 0 
L 45.3125 0 
L 45.3125 8.40625 
Q 42.046875 3.421875 37.71875 1 
Q 33.40625 -1.421875 27.6875 -1.421875 
Q 18.265625 -1.421875 13.375 4.4375 
Q 8.5 10.296875 8.5 21.578125 
" id="BitstreamVeraSans-Roman-75"/>
      <path d="M 9.421875 75.984375 
L 18.40625 75.984375 
L 18.40625 0 
L 9.421875 0 
z
" id="BitstreamVeraSans-Roman-6c"/>
      <path d="M 48.6875 27.296875 
Q 48.6875 37.203125 44.609375 42.84375 
Q 40.53125 48.484375 33.40625 48.484375 
Q 26.265625 48.484375 22.1875 42.84375 
Q 18.109375 37.203125 18.109375 27.296875 
Q 18.109375 17.390625 22.1875 11.75 
Q 26.265625 6.109375 33.40625 6.109375 
Q 40.53125 6.109375 44.609375 11.75 
Q 48.6875 17.390625 48.6875 27.296875 
M 18.109375 46.390625 
Q 20.953125 51.265625 25.265625 53.625 
Q 29.59375 56 35.59375 56 
Q 45.5625 56 51.78125 48.09375 
Q 58.015625 40.1875 58.015625 27.296875 
Q 58.015625 14.40625 51.78125 6.484375 
Q 45.5625 -1.421875 35.59375 -1.421875 
Q 29.59375 -1.421875 25.265625 0.953125 
Q 20.953125 3.328125 18.109375 8.203125 
L 18.109375 0 
L 9.078125 0 
L 9.078125 75.984375 
L 18.109375 75.984375 
z
" id="BitstreamVeraSans-Roman-62"/>
     </defs>
     <g transform="translate(246.691875 418.531875)scale(0.12 -0.12)">
      <use xlink:href="#BitstreamVeraSans-Roman-53"/>
      <use x="63.4765625" xlink:href="#BitstreamVeraSans-Roman-61"/>
      <use x="124.755859375" xlink:href="#BitstreamVeraSans-Roman-6d"/>
      <use x="222.16796875" xlink:href="#BitstreamVeraSans-Roman-70"/>
      <use x="285.64453125" xlink:href="#BitstreamVeraSans-Roman-6c"/>
      <use x="313.427734375" xlink:href="#BitstreamVeraSans-Roman-65"/>
      <use x="374.951171875" xlink:href="#BitstreamVeraSans-Roman-20"/>
      <use x="406.73828125" xlink:href="#BitstreamVeraSans-Roman-4e"/>
      <use x="481.54296875" xlink:href="#BitstreamVeraSans-Roman-75"/>
      <use x="544.921875" xlink:href="#BitstreamVeraSans-Roman-6d"/>
      <use x="642.333984375" xlink:href="#BitstreamVeraSans-Roman-62"/>
      <use x="705.810546875" xlink:href="#BitstreamVeraSans-Roman-65"/>
      <use x="767.333984375" xlink:href="#BitstreamVeraSans-Roman-72"/>
     </g>
    </g>
   </g>
   <g id="matplotlib.axis_2">
    <g id="ytick_1">
     <g id="line2d_15">
      <defs>
       <path d="M 0 0 
L 4 0 
" id="m7d431740d0" style="stroke:#000000;stroke-width:0.5;"/>
      </defs>
      <g>
       <use style="stroke:#000000;stroke-width:0.5;" x="72.0" xlink:href="#m7d431740d0" y="388.8"/>
      </g>
     </g>
     <g id="line2d_16">
      <defs>
       <path d="M 0 0 
L -4 0 
" id="md0b6a857ee" style="stroke:#000000;stroke-width:0.5;"/>
      </defs>
      <g>
       <use style="stroke:#000000;stroke-width:0.5;" x="518.4" xlink:href="#md0b6a857ee" y="388.8"/>
      </g>
     </g>
     <g id="text_8">
      <!-- −5 -->
      <defs>
       <path d="M 10.59375 35.5 
L 73.1875 35.5 
L 73.1875 27.203125 
L 10.59375 27.203125 
z
" id="BitstreamVeraSans-Roman-2212"/>
       <path d="M 10.796875 72.90625 
L 49.515625 72.90625 
L 49.515625 64.59375 
L 19.828125 64.59375 
L 19.828125 46.734375 
Q 21.96875 47.46875 24.109375 47.828125 
Q 26.265625 48.1875 28.421875 48.1875 
Q 40.625 48.1875 47.75 41.5 
Q 54.890625 34.8125 54.890625 23.390625 
Q 54.890625 11.625 47.5625 5.09375 
Q 40.234375 -1.421875 26.90625 -1.421875 
Q 22.3125 -1.421875 17.546875 -0.640625 
Q 12.796875 0.140625 7.71875 1.703125 
L 7.71875 11.625 
Q 12.109375 9.234375 16.796875 8.0625 
Q 21.484375 6.890625 26.703125 6.890625 
Q 35.15625 6.890625 40.078125 11.328125 
Q 45.015625 15.765625 45.015625 23.390625 
Q 45.015625 31 40.078125 35.4375 
Q 35.15625 39.890625 26.703125 39.890625 
Q 22.75 39.890625 18.8125 39.015625 
Q 14.890625 38.140625 10.796875 36.28125 
z
" id="BitstreamVeraSans-Roman-35"/>
      </defs>
      <g transform="translate(50.309375 392.11125)scale(0.12 -0.12)">
       <use xlink:href="#BitstreamVeraSans-Roman-2212"/>
       <use x="83.7890625" xlink:href="#BitstreamVeraSans-Roman-35"/>
      </g>
     </g>
    </g>
    <g id="ytick_2">
     <g id="line2d_17">
      <g>
       <use style="stroke:#000000;stroke-width:0.5;" x="72.0" xlink:href="#m7d431740d0" y="331.2"/>
      </g>
     </g>
     <g id="line2d_18">
      <g>
       <use style="stroke:#000000;stroke-width:0.5;" x="518.4" xlink:href="#md0b6a857ee" y="331.2"/>
      </g>
     </g>
     <g id="text_9">
      <!-- −4 -->
      <g transform="translate(50.309375 334.51125)scale(0.12 -0.12)">
       <use xlink:href="#BitstreamVeraSans-Roman-2212"/>
       <use x="83.7890625" xlink:href="#BitstreamVeraSans-Roman-34"/>
      </g>
     </g>
    </g>
    <g id="ytick_3">
     <g id="line2d_19">
      <g>
       <use style="stroke:#000000;stroke-width:0.5;" x="72.0" xlink:href="#m7d431740d0" y="273.6"/>
      </g>
     </g>
     <g id="line2d_20">
      <g>
       <use style="stroke:#000000;stroke-width:0.5;" x="518.4" xlink:href="#md0b6a857ee" y="273.6"/>
      </g>
     </g>
     <g id="text_10">
      <!-- −3 -->
      <defs>
       <path d="M 40.578125 39.3125 
Q 47.65625 37.796875 51.625 33 
Q 55.609375 28.21875 55.609375 21.1875 
Q 55.609375 10.40625 48.1875 4.484375 
Q 40.765625 -1.421875 27.09375 -1.421875 
Q 22.515625 -1.421875 17.65625 -0.515625 
Q 12.796875 0.390625 7.625 2.203125 
L 7.625 11.71875 
Q 11.71875 9.328125 16.59375 8.109375 
Q 21.484375 6.890625 26.8125 6.890625 
Q 36.078125 6.890625 40.9375 10.546875 
Q 45.796875 14.203125 45.796875 21.1875 
Q 45.796875 27.640625 41.28125 31.265625 
Q 36.765625 34.90625 28.71875 34.90625 
L 20.21875 34.90625 
L 20.21875 43.015625 
L 29.109375 43.015625 
Q 36.375 43.015625 40.234375 45.921875 
Q 44.09375 48.828125 44.09375 54.296875 
Q 44.09375 59.90625 40.109375 62.90625 
Q 36.140625 65.921875 28.71875 65.921875 
Q 24.65625 65.921875 20.015625 65.03125 
Q 15.375 64.15625 9.8125 62.3125 
L 9.8125 71.09375 
Q 15.4375 72.65625 20.34375 73.4375 
Q 25.25 74.21875 29.59375 74.21875 
Q 40.828125 74.21875 47.359375 69.109375 
Q 53.90625 64.015625 53.90625 55.328125 
Q 53.90625 49.265625 50.4375 45.09375 
Q 46.96875 40.921875 40.578125 39.3125 
" id="BitstreamVeraSans-Roman-33"/>
      </defs>
      <g transform="translate(50.309375 276.91125)scale(0.12 -0.12)">
       <use xlink:href="#BitstreamVeraSans-Roman-2212"/>
       <use x="83.7890625" xlink:href="#BitstreamVeraSans-Roman-33"/>
      </g>
     </g>
    </g>
    <g id="ytick_4">
     <g id="line2d_21">
      <g>
       <use style="stroke:#000000;stroke-width:0.5;" x="72.0" xlink:href="#m7d431740d0" y="216.0"/>
      </g>
     </g>
     <g id="line2d_22">
      <g>
       <use style="stroke:#000000;stroke-width:0.5;" x="518.4" xlink:href="#md0b6a857ee" y="216.0"/>
      </g>
     </g>
     <g id="text_11">
      <!-- −2 -->
      <g transform="translate(50.309375 219.31125)scale(0.12 -0.12)">
       <use xlink:href="#BitstreamVeraSans-Roman-2212"/>
       <use x="83.7890625" xlink:href="#BitstreamVeraSans-Roman-32"/>
      </g>
     </g>
    </g>
    <g id="ytick_5">
     <g id="line2d_23">
      <g>
       <use style="stroke:#000000;stroke-width:0.5;" x="72.0" xlink:href="#m7d431740d0" y="158.4"/>
      </g>
     </g>
     <g id="line2d_24">
      <g>
       <use style="stroke:#000000;stroke-width:0.5;" x="518.4" xlink:href="#md0b6a857ee" y="158.4"/>
      </g>
     </g>
     <g id="text_12">
      <!-- −1 -->
      <g transform="translate(50.309375 161.71125)scale(0.12 -0.12)">
       <use xlink:href="#BitstreamVeraSans-Roman-2212"/>
       <use x="83.7890625" xlink:href="#BitstreamVeraSans-Roman-31"/>
      </g>
     </g>
    </g>
    <g id="ytick_6">
     <g id="line2d_25">
      <g>
       <use style="stroke:#000000;stroke-width:0.5;" x="72.0" xlink:href="#m7d431740d0" y="100.8"/>
      </g>
     </g>
     <g id="line2d_26">
      <g>
       <use style="stroke:#000000;stroke-width:0.5;" x="518.4" xlink:href="#md0b6a857ee" y="100.8"/>
      </g>
     </g>
     <g id="text_13">
      <!-- 0 -->
      <g transform="translate(60.365 104.11125)scale(0.12 -0.12)">
       <use xlink:href="#BitstreamVeraSans-Roman-30"/>
      </g>
     </g>
    </g>
    <g id="ytick_7">
     <g id="line2d_27">
      <g>
       <use style="stroke:#000000;stroke-width:0.5;" x="72.0" xlink:href="#m7d431740d0" y="43.2"/>
      </g>
     </g>
     <g id="line2d_28">
      <g>
       <use style="stroke:#000000;stroke-width:0.5;" x="518.4" xlink:href="#md0b6a857ee" y="43.2"/>
      </g>
     </g>
     <g id="text_14">
      <!-- 1 -->
      <g transform="translate(60.365 46.51125)scale(0.12 -0.12)">
       <use xlink:href="#BitstreamVeraSans-Roman-31"/>
      </g>
     </g>
    </g>
    <g id="text_15">
     <!-- Log Error -->
     <defs>
      <path d="M 9.8125 72.90625 
L 55.90625 72.90625 
L 55.90625 64.59375 
L 19.671875 64.59375 
L 19.671875 43.015625 
L 54.390625 43.015625 
L 54.390625 34.71875 
L 19.671875 34.71875 
L 19.671875 8.296875 
L 56.78125 8.296875 
L 56.78125 0 
L 9.8125 0 
z
" id="BitstreamVeraSans-Roman-45"/>
      <path d="M 30.609375 48.390625 
Q 23.390625 48.390625 19.1875 42.75 
Q 14.984375 37.109375 14.984375 27.296875 
Q 14.984375 17.484375 19.15625 11.84375 
Q 23.34375 6.203125 30.609375 6.203125 
Q 37.796875 6.203125 41.984375 11.859375 
Q 46.1875 17.53125 46.1875 27.296875 
Q 46.1875 37.015625 41.984375 42.703125 
Q 37.796875 48.390625 30.609375 48.390625 
M 30.609375 56 
Q 42.328125 56 49.015625 48.375 
Q 55.71875 40.765625 55.71875 27.296875 
Q 55.71875 13.875 49.015625 6.21875 
Q 42.328125 -1.421875 30.609375 -1.421875 
Q 18.84375 -1.421875 12.171875 6.21875 
Q 5.515625 13.875 5.515625 27.296875 
Q 5.515625 40.765625 12.171875 48.375 
Q 18.84375 56 30.609375 56 
" id="BitstreamVeraSans-Roman-6f"/>
      <path d="M 9.8125 72.90625 
L 19.671875 72.90625 
L 19.671875 8.296875 
L 55.171875 8.296875 
L 55.171875 0 
L 9.8125 0 
z
" id="BitstreamVeraSans-Roman-4c"/>
      <path d="M 45.40625 27.984375 
Q 45.40625 37.75 41.375 43.109375 
Q 37.359375 48.484375 30.078125 48.484375 
Q 22.859375 48.484375 18.828125 43.109375 
Q 14.796875 37.75 14.796875 27.984375 
Q 14.796875 18.265625 18.828125 12.890625 
Q 22.859375 7.515625 30.078125 7.515625 
Q 37.359375 7.515625 41.375 12.890625 
Q 45.40625 18.265625 45.40625 27.984375 
M 54.390625 6.78125 
Q 54.390625 -7.171875 48.1875 -13.984375 
Q 42 -20.796875 29.203125 -20.796875 
Q 24.46875 -20.796875 20.265625 -20.09375 
Q 16.0625 -19.390625 12.109375 -17.921875 
L 12.109375 -9.1875 
Q 16.0625 -11.328125 19.921875 -12.34375 
Q 23.78125 -13.375 27.78125 -13.375 
Q 36.625 -13.375 41.015625 -8.765625 
Q 45.40625 -4.15625 45.40625 5.171875 
L 45.40625 9.625 
Q 42.625 4.78125 38.28125 2.390625 
Q 33.9375 0 27.875 0 
Q 17.828125 0 11.671875 7.65625 
Q 5.515625 15.328125 5.515625 27.984375 
Q 5.515625 40.671875 11.671875 48.328125 
Q 17.828125 56 27.875 56 
Q 33.9375 56 38.28125 53.609375 
Q 42.625 51.21875 45.40625 46.390625 
L 45.40625 54.6875 
L 54.390625 54.6875 
z
" id="BitstreamVeraSans-Roman-67"/>
     </defs>
     <g transform="translate(42.81375 243.58875)rotate(-90.0)scale(0.12 -0.12)">
      <use xlink:href="#BitstreamVeraSans-Roman-4c"/>
      <use x="55.697265625" xlink:href="#BitstreamVeraSans-Roman-6f"/>
      <use x="116.87890625" xlink:href="#BitstreamVeraSans-Roman-67"/>
      <use x="180.35546875" xlink:href="#BitstreamVeraSans-Roman-20"/>
      <use x="212.142578125" xlink:href="#BitstreamVeraSans-Roman-45"/>
      <use x="275.326171875" xlink:href="#BitstreamVeraSans-Roman-72"/>
      <use x="316.423828125" xlink:href="#BitstreamVeraSans-Roman-72"/>
      <use x="357.505859375" xlink:href="#BitstreamVeraSans-Roman-6f"/>
      <use x="418.6875" xlink:href="#BitstreamVeraSans-Roman-72"/>
     </g>
    </g>
   </g>
   <g id="text_16">
    <!-- Log Base 10 of Error of Running Means -->
    <defs>
     <path d="M 9.8125 72.90625 
L 24.515625 72.90625 
L 43.109375 23.296875 
L 61.8125 72.90625 
L 76.515625 72.90625 
L 76.515625 0 
L 66.890625 0 
L 66.890625 64.015625 
L 48.09375 14.015625 
L 38.1875 14.015625 
L 19.390625 64.015625 
L 19.390625 0 
L 9.8125 0 
z
" id="BitstreamVeraSans-Roman-4d"/>
     <path d="M 44.28125 53.078125 
L 44.28125 44.578125 
Q 40.484375 46.53125 36.375 47.5 
Q 32.28125 48.484375 27.875 48.484375 
Q 21.1875 48.484375 17.84375 46.4375 
Q 14.5 44.390625 14.5 40.28125 
Q 14.5 37.15625 16.890625 35.375 
Q 19.28125 33.59375 26.515625 31.984375 
L 29.59375 31.296875 
Q 39.15625 29.25 43.1875 25.515625 
Q 47.21875 21.78125 47.21875 15.09375 
Q 47.21875 7.46875 41.1875 3.015625 
Q 35.15625 -1.421875 24.609375 -1.421875 
Q 20.21875 -1.421875 15.453125 -0.5625 
Q 10.6875 0.296875 5.421875 2 
L 5.421875 11.28125 
Q 10.40625 8.6875 15.234375 7.390625 
Q 20.0625 6.109375 24.8125 6.109375 
Q 31.15625 6.109375 34.5625 8.28125 
Q 37.984375 10.453125 37.984375 14.40625 
Q 37.984375 18.0625 35.515625 20.015625 
Q 33.0625 21.96875 24.703125 23.78125 
L 21.578125 24.515625 
Q 13.234375 26.265625 9.515625 29.90625 
Q 5.8125 33.546875 5.8125 39.890625 
Q 5.8125 47.609375 11.28125 51.796875 
Q 16.75 56 26.8125 56 
Q 31.78125 56 36.171875 55.265625 
Q 40.578125 54.546875 44.28125 53.078125 
" id="BitstreamVeraSans-Roman-73"/>
     <path d="M 37.109375 75.984375 
L 37.109375 68.5 
L 28.515625 68.5 
Q 23.6875 68.5 21.796875 66.546875 
Q 19.921875 64.59375 19.921875 59.515625 
L 19.921875 54.6875 
L 34.71875 54.6875 
L 34.71875 47.703125 
L 19.921875 47.703125 
L 19.921875 0 
L 10.890625 0 
L 10.890625 47.703125 
L 2.296875 47.703125 
L 2.296875 54.6875 
L 10.890625 54.6875 
L 10.890625 58.5 
Q 10.890625 67.625 15.140625 71.796875 
Q 19.390625 75.984375 28.609375 75.984375 
z
" id="BitstreamVeraSans-Roman-66"/>
     <path d="M 19.671875 34.8125 
L 19.671875 8.109375 
L 35.5 8.109375 
Q 43.453125 8.109375 47.28125 11.40625 
Q 51.125 14.703125 51.125 21.484375 
Q 51.125 28.328125 47.28125 31.5625 
Q 43.453125 34.8125 35.5 34.8125 
z
M 19.671875 64.796875 
L 19.671875 42.828125 
L 34.28125 42.828125 
Q 41.5 42.828125 45.03125 45.53125 
Q 48.578125 48.25 48.578125 53.8125 
Q 48.578125 59.328125 45.03125 62.0625 
Q 41.5 64.796875 34.28125 64.796875 
z
M 9.8125 72.90625 
L 35.015625 72.90625 
Q 46.296875 72.90625 52.390625 68.21875 
Q 58.5 63.53125 58.5 54.890625 
Q 58.5 48.1875 55.375 44.234375 
Q 52.25 40.28125 46.1875 39.3125 
Q 53.46875 37.75 57.5 32.78125 
Q 61.53125 27.828125 61.53125 20.40625 
Q 61.53125 10.640625 54.890625 5.3125 
Q 48.25 0 35.984375 0 
L 9.8125 0 
z
" id="BitstreamVeraSans-Roman-42"/>
     <path d="M 54.890625 33.015625 
L 54.890625 0 
L 45.90625 0 
L 45.90625 32.71875 
Q 45.90625 40.484375 42.875 44.328125 
Q 39.84375 48.1875 33.796875 48.1875 
Q 26.515625 48.1875 22.3125 43.546875 
Q 18.109375 38.921875 18.109375 30.90625 
L 18.109375 0 
L 9.078125 0 
L 9.078125 54.6875 
L 18.109375 54.6875 
L 18.109375 46.1875 
Q 21.34375 51.125 25.703125 53.5625 
Q 30.078125 56 35.796875 56 
Q 45.21875 56 50.046875 50.171875 
Q 54.890625 44.34375 54.890625 33.015625 
" id="BitstreamVeraSans-Roman-6e"/>
     <path d="M 9.421875 54.6875 
L 18.40625 54.6875 
L 18.40625 0 
L 9.421875 0 
z
M 9.421875 75.984375 
L 18.40625 75.984375 
L 18.40625 64.59375 
L 9.421875 64.59375 
z
" id="BitstreamVeraSans-Roman-69"/>
     <path d="M 44.390625 34.1875 
Q 47.5625 33.109375 50.5625 29.59375 
Q 53.5625 26.078125 56.59375 19.921875 
L 66.609375 0 
L 56 0 
L 46.6875 18.703125 
Q 43.0625 26.03125 39.671875 28.421875 
Q 36.28125 30.8125 30.421875 30.8125 
L 19.671875 30.8125 
L 19.671875 0 
L 9.8125 0 
L 9.8125 72.90625 
L 32.078125 72.90625 
Q 44.578125 72.90625 50.734375 67.671875 
Q 56.890625 62.453125 56.890625 51.90625 
Q 56.890625 45.015625 53.6875 40.46875 
Q 50.484375 35.9375 44.390625 34.1875 
M 19.671875 64.796875 
L 19.671875 38.921875 
L 32.078125 38.921875 
Q 39.203125 38.921875 42.84375 42.21875 
Q 46.484375 45.515625 46.484375 51.90625 
Q 46.484375 58.296875 42.84375 61.546875 
Q 39.203125 64.796875 32.078125 64.796875 
z
" id="BitstreamVeraSans-Roman-52"/>
    </defs>
    <g transform="translate(154.598625 38.2)scale(0.144 -0.144)">
     <use xlink:href="#BitstreamVeraSans-Roman-4c"/>
     <use x="55.697265625" xlink:href="#BitstreamVeraSans-Roman-6f"/>
     <use x="116.87890625" xlink:href="#BitstreamVeraSans-Roman-67"/>
     <use x="180.35546875" xlink:href="#BitstreamVeraSans-Roman-20"/>
     <use x="212.142578125" xlink:href="#BitstreamVeraSans-Roman-42"/>
     <use x="280.74609375" xlink:href="#BitstreamVeraSans-Roman-61"/>
     <use x="342.025390625" xlink:href="#BitstreamVeraSans-Roman-73"/>
     <use x="394.125" xlink:href="#BitstreamVeraSans-Roman-65"/>
     <use x="455.6484375" xlink:href="#BitstreamVeraSans-Roman-20"/>
     <use x="487.435546875" xlink:href="#BitstreamVeraSans-Roman-31"/>
     <use x="551.05859375" xlink:href="#BitstreamVeraSans-Roman-30"/>
     <use x="614.681640625" xlink:href="#BitstreamVeraSans-Roman-20"/>
     <use x="646.46875" xlink:href="#BitstreamVeraSans-Roman-6f"/>
     <use x="707.650390625" xlink:href="#BitstreamVeraSans-Roman-66"/>
     <use x="742.85546875" xlink:href="#BitstreamVeraSans-Roman-20"/>
     <use x="774.642578125" xlink:href="#BitstreamVeraSans-Roman-45"/>
     <use x="837.826171875" xlink:href="#BitstreamVeraSans-Roman-72"/>
     <use x="878.923828125" xlink:href="#BitstreamVeraSans-Roman-72"/>
     <use x="920.005859375" xlink:href="#BitstreamVeraSans-Roman-6f"/>
     <use x="981.1875" xlink:href="#BitstreamVeraSans-Roman-72"/>
     <use x="1022.30078125" xlink:href="#BitstreamVeraSans-Roman-20"/>
     <use x="1054.087890625" xlink:href="#BitstreamVeraSans-Roman-6f"/>
     <use x="1115.26953125" xlink:href="#BitstreamVeraSans-Roman-66"/>
     <use x="1150.474609375" xlink:href="#BitstreamVeraSans-Roman-20"/>
     <use x="1182.26171875" xlink:href="#BitstreamVeraSans-Roman-52"/>
     <use x="1251.681640625" xlink:href="#BitstreamVeraSans-Roman-75"/>
     <use x="1315.060546875" xlink:href="#BitstreamVeraSans-Roman-6e"/>
     <use x="1378.439453125" xlink:href="#BitstreamVeraSans-Roman-6e"/>
     <use x="1441.818359375" xlink:href="#BitstreamVeraSans-Roman-69"/>
     <use x="1469.6015625" xlink:href="#BitstreamVeraSans-Roman-6e"/>
     <use x="1532.98046875" xlink:href="#BitstreamVeraSans-Roman-67"/>
     <use x="1596.45703125" xlink:href="#BitstreamVeraSans-Roman-20"/>
     <use x="1628.244140625" xlink:href="#BitstreamVeraSans-Roman-4d"/>
     <use x="1714.5234375" xlink:href="#BitstreamVeraSans-Roman-65"/>
     <use x="1776.046875" xlink:href="#BitstreamVeraSans-Roman-61"/>
     <use x="1837.326171875" xlink:href="#BitstreamVeraSans-Roman-6e"/>
     <use x="1900.705078125" xlink:href="#BitstreamVeraSans-Roman-73"/>
    </g>
   </g>
   <g id="legend_1">
    <g id="patch_7">
     <path d="M 295.2 371.52 
L 504.3915 371.52 
L 504.3915 324.927 
L 295.2 324.927 
z
" style="fill:#ffffff;stroke:#000000;stroke-linejoin:miter;"/>
    </g>
    <g id="line2d_29">
     <path d="M 305.28 336.58875 
L 325.44 336.58875 
" style="fill:none;stroke:#0000ff;stroke-linecap:square;"/>
    </g>
    <g id="line2d_30"/>
    <g id="text_17">
     <!-- DependentSamples -->
     <defs>
      <path d="M 18.3125 70.21875 
L 18.3125 54.6875 
L 36.8125 54.6875 
L 36.8125 47.703125 
L 18.3125 47.703125 
L 18.3125 18.015625 
Q 18.3125 11.328125 20.140625 9.421875 
Q 21.96875 7.515625 27.59375 7.515625 
L 36.8125 7.515625 
L 36.8125 0 
L 27.59375 0 
Q 17.1875 0 13.234375 3.875 
Q 9.28125 7.765625 9.28125 18.015625 
L 9.28125 47.703125 
L 2.6875 47.703125 
L 2.6875 54.6875 
L 9.28125 54.6875 
L 9.28125 70.21875 
z
" id="BitstreamVeraSans-Roman-74"/>
      <path d="M 45.40625 46.390625 
L 45.40625 75.984375 
L 54.390625 75.984375 
L 54.390625 0 
L 45.40625 0 
L 45.40625 8.203125 
Q 42.578125 3.328125 38.25 0.953125 
Q 33.9375 -1.421875 27.875 -1.421875 
Q 17.96875 -1.421875 11.734375 6.484375 
Q 5.515625 14.40625 5.515625 27.296875 
Q 5.515625 40.1875 11.734375 48.09375 
Q 17.96875 56 27.875 56 
Q 33.9375 56 38.25 53.625 
Q 42.578125 51.265625 45.40625 46.390625 
M 14.796875 27.296875 
Q 14.796875 17.390625 18.875 11.75 
Q 22.953125 6.109375 30.078125 6.109375 
Q 37.203125 6.109375 41.296875 11.75 
Q 45.40625 17.390625 45.40625 27.296875 
Q 45.40625 37.203125 41.296875 42.84375 
Q 37.203125 48.484375 30.078125 48.484375 
Q 22.953125 48.484375 18.875 42.84375 
Q 14.796875 37.203125 14.796875 27.296875 
" id="BitstreamVeraSans-Roman-64"/>
      <path d="M 19.671875 64.796875 
L 19.671875 8.109375 
L 31.59375 8.109375 
Q 46.6875 8.109375 53.6875 14.9375 
Q 60.6875 21.78125 60.6875 36.53125 
Q 60.6875 51.171875 53.6875 57.984375 
Q 46.6875 64.796875 31.59375 64.796875 
z
M 9.8125 72.90625 
L 30.078125 72.90625 
Q 51.265625 72.90625 61.171875 64.09375 
Q 71.09375 55.28125 71.09375 36.53125 
Q 71.09375 17.671875 61.125 8.828125 
Q 51.171875 0 30.078125 0 
L 9.8125 0 
z
" id="BitstreamVeraSans-Roman-44"/>
     </defs>
     <g transform="translate(341.28 341.62875)scale(0.144 -0.144)">
      <use xlink:href="#BitstreamVeraSans-Roman-44"/>
      <use x="77.001953125" xlink:href="#BitstreamVeraSans-Roman-65"/>
      <use x="138.525390625" xlink:href="#BitstreamVeraSans-Roman-70"/>
      <use x="202.001953125" xlink:href="#BitstreamVeraSans-Roman-65"/>
      <use x="263.525390625" xlink:href="#BitstreamVeraSans-Roman-6e"/>
      <use x="326.904296875" xlink:href="#BitstreamVeraSans-Roman-64"/>
      <use x="390.380859375" xlink:href="#BitstreamVeraSans-Roman-65"/>
      <use x="451.904296875" xlink:href="#BitstreamVeraSans-Roman-6e"/>
      <use x="515.283203125" xlink:href="#BitstreamVeraSans-Roman-74"/>
      <use x="554.4921875" xlink:href="#BitstreamVeraSans-Roman-53"/>
      <use x="617.96875" xlink:href="#BitstreamVeraSans-Roman-61"/>
      <use x="679.248046875" xlink:href="#BitstreamVeraSans-Roman-6d"/>
      <use x="776.66015625" xlink:href="#BitstreamVeraSans-Roman-70"/>
      <use x="840.13671875" xlink:href="#BitstreamVeraSans-Roman-6c"/>
      <use x="867.919921875" xlink:href="#BitstreamVeraSans-Roman-65"/>
      <use x="929.443359375" xlink:href="#BitstreamVeraSans-Roman-73"/>
     </g>
    </g>
    <g id="line2d_31">
     <path d="M 305.28 357.72525 
L 325.44 357.72525 
" style="fill:none;stroke:#008000;stroke-linecap:square;"/>
    </g>
    <g id="line2d_32"/>
    <g id="text_18">
     <!-- Independent Samples -->
     <defs>
      <path d="M 9.8125 72.90625 
L 19.671875 72.90625 
L 19.671875 0 
L 9.8125 0 
z
" id="BitstreamVeraSans-Roman-49"/>
     </defs>
     <g transform="translate(341.28 362.76525)scale(0.144 -0.144)">
      <use xlink:href="#BitstreamVeraSans-Roman-49"/>
      <use x="29.4921875" xlink:href="#BitstreamVeraSans-Roman-6e"/>
      <use x="92.87109375" xlink:href="#BitstreamVeraSans-Roman-64"/>
      <use x="156.34765625" xlink:href="#BitstreamVeraSans-Roman-65"/>
      <use x="217.87109375" xlink:href="#BitstreamVeraSans-Roman-70"/>
      <use x="281.34765625" xlink:href="#BitstreamVeraSans-Roman-65"/>
      <use x="342.87109375" xlink:href="#BitstreamVeraSans-Roman-6e"/>
      <use x="406.25" xlink:href="#BitstreamVeraSans-Roman-64"/>
      <use x="469.7265625" xlink:href="#BitstreamVeraSans-Roman-65"/>
      <use x="531.25" xlink:href="#BitstreamVeraSans-Roman-6e"/>
      <use x="594.62890625" xlink:href="#BitstreamVeraSans-Roman-74"/>
      <use x="633.837890625" xlink:href="#BitstreamVeraSans-Roman-20"/>
      <use x="665.625" xlink:href="#BitstreamVeraSans-Roman-53"/>
      <use x="729.1015625" xlink:href="#BitstreamVeraSans-Roman-61"/>
      <use x="790.380859375" xlink:href="#BitstreamVeraSans-Roman-6d"/>
      <use x="887.79296875" xlink:href="#BitstreamVeraSans-Roman-70"/>
      <use x="951.26953125" xlink:href="#BitstreamVeraSans-Roman-6c"/>
      <use x="979.052734375" xlink:href="#BitstreamVeraSans-Roman-65"/>
      <use x="1040.576171875" xlink:href="#BitstreamVeraSans-Roman-73"/>
     </g>
    </g>
   </g>
  </g>
 </g>
 <defs>
  <clipPath id="p30ea263ab4">
   <rect height="345.6" width="446.4" x="72.0" y="43.2"/>
  </clipPath>
 </defs>
</svg>
