<?xml version="1.0" encoding="utf-8" standalone="no"?>
<!DOCTYPE svg PUBLIC "-//W3C//DTD SVG 1.1//EN"
  "http://www.w3.org/Graphics/SVG/1.1/DTD/svg11.dtd">
<!-- Created with matplotlib (http://matplotlib.org/) -->
<svg height="432pt" version="1.1" viewBox="0 0 576 432" width="576pt" xmlns="http://www.w3.org/2000/svg" xmlns:xlink="http://www.w3.org/1999/xlink">
 <defs>
  <style type="text/css">
*{stroke-linecap:butt;stroke-linejoin:round;stroke-miterlimit:100000;}
  </style>
 </defs>
 <g id="figure_1">
  <g id="patch_1">
   <path d="M 0 432 
L 576 432 
L 576 0 
L 0 0 
z
" style="fill:#ffffff;"/>
  </g>
  <g id="axes_1">
   <g id="patch_2">
    <path d="M 72 388.8 
L 518.4 388.8 
L 518.4 43.2 
L 72 43.2 
z
" style="fill:#ffffff;"/>
   </g>
   <g id="line2d_1">
    <path clip-path="url(#p0dbb688484)" d="M 72 130.309017 
L 72.4464 92.21149 
L 72.8928 86.029483 
L 73.3392 82.93848 
L 73.7856 81.083878 
L 74.232 79.847477 
L 74.6784 78.964333 
L 76.464 151.009329 
L 76.9104 160.805685 
L 77.3568 159.848588 
L 78.2496 140.697346 
L 79.1424 134.476549 
L 80.0352 117.095375 
L 80.928 113.383164 
L 81.3744 110.043512 
L 82.2672 106.482893 
L 83.16 100.317235 
L 84.0528 95.255291 
L 84.4992 90.85676 
L 84.9456 89.999692 
L 85.8384 99.538733 
L 86.2848 99.519771 
L 87.624 95.275702 
L 88.0704 94.013952 
L 88.5168 93.537377 
L 88.9632 94.741537 
L 89.4096 95.077667 
L 90.3024 96.856275 
L 91.1952 98.184972 
L 91.6416 100.492556 
L 92.088 100.688487 
L 92.5344 101.098845 
L 94.32 96.074177 
L 94.7664 95.261003 
L 95.2128 93.913087 
L 95.6592 94.306312 
L 96.1056 94.921957 
L 96.9984 99.719917 
L 97.4448 99.736376 
L 99.2304 98.595053 
L 101.016 91.754053 
L 102.3552 88.156183 
L 103.248 87.054195 
L 103.6944 85.347561 
L 104.5872 84.139667 
L 105.0336 84.898712 
L 105.9264 81.809349 
L 107.2656 77.073186 
L 107.712 77.685635 
L 109.0512 77.684321 
L 109.944 81.139028 
L 112.176 95.04021 
L 114.8544 109.901284 
L 116.1936 116.745287 
L 116.64 117.686465 
L 117.9792 121.829583 
L 118.4256 123.117306 
L 120.2112 130.540844 
L 121.104 134.906919 
L 121.5504 135.531945 
L 122.8896 138.831964 
L 123.7824 141.852258 
L 125.1216 149.649801 
L 126.0144 153.01952 
L 126.9072 155.980422 
L 127.3536 156.526595 
L 127.8 157.464274 
L 129.5856 162.822612 
L 130.032 163.944171 
L 130.9248 166.992249 
L 131.8176 168.446606 
L 132.7104 170.76428 
L 133.1568 171.404896 
L 133.6032 171.062832 
L 134.0496 170.037417 
L 134.496 169.675104 
L 134.9424 169.140757 
L 136.2816 166.548272 
L 138.5136 162.302101 
L 142.0848 155.290666 
L 142.5312 155.233655 
L 142.9776 155.635174 
L 143.8704 157.806478 
L 146.1024 161.901425 
L 147.888 165.584632 
L 148.3344 167.033883 
L 148.7808 167.537685 
L 149.6736 166.903265 
L 151.0128 165.342446 
L 151.4592 165.536052 
L 151.9056 165.093704 
L 152.352 165.600646 
L 153.6912 168.67883 
L 154.1376 168.785101 
L 155.9232 172.102989 
L 156.816 172.579947 
L 158.1552 175.473142 
L 158.6016 175.855288 
L 161.28 180.751463 
L 161.7264 181.089926 
L 162.1728 181.643714 
L 162.6192 182.400571 
L 163.0656 182.677662 
L 163.512 182.37019 
L 163.9584 182.413395 
L 164.8512 182.000655 
L 165.2976 182.326104 
L 165.744 182.423377 
L 166.1904 183.102487 
L 167.976 184.67065 
L 169.3152 184.706488 
L 169.7616 184.816817 
L 170.6544 186.355806 
L 172.44 188.769195 
L 175.5648 192.706944 
L 177.3504 194.809443 
L 177.7968 194.929573 
L 180.0288 197.182534 
L 180.9216 197.985517 
L 182.2608 199.90465 
L 183.6 201.219325 
L 184.0464 201.431096 
L 184.4928 201.329041 
L 186.2784 203.197042 
L 188.9568 205.064666 
L 189.4032 205.297121 
L 190.7424 206.914635 
L 191.1888 206.943247 
L 191.6352 206.818194 
L 192.528 205.471653 
L 193.8672 204.857619 
L 194.76 204.01067 
L 196.0992 202.018112 
L 197.8848 199.762329 
L 198.7776 198.978877 
L 200.5632 197.266569 
L 202.3488 194.456798 
L 203.688 192.482416 
L 204.1344 192.033464 
L 204.5808 192.064228 
L 205.0272 191.740134 
L 205.92 190.710613 
L 206.8128 189.273976 
L 207.2592 189.022884 
L 207.7056 188.574208 
L 208.152 187.70382 
L 209.9376 185.85658 
L 211.2768 184.016249 
L 211.7232 183.583777 
L 212.1696 183.693859 
L 215.2944 181.728704 
L 215.7408 180.959121 
L 216.1872 180.53422 
L 217.08 180.151811 
L 217.5264 179.785593 
L 217.9728 179.185426 
L 218.8656 178.708423 
L 221.9904 173.910285 
L 222.8832 172.607873 
L 223.3296 172.421968 
L 224.6688 173.086819 
L 225.5616 174.25911 
L 229.1328 175.857988 
L 229.5792 176.428215 
L 230.0256 176.58583 
L 232.2576 175.140527 
L 232.704 175.307031 
L 235.3824 173.874156 
L 235.8288 173.374225 
L 236.7216 172.761024 
L 237.6144 171.790486 
L 238.0608 171.385604 
L 238.9536 170.901753 
L 241.632 167.773687 
L 242.5248 166.933619 
L 242.9712 166.940487 
L 244.3104 167.571308 
L 245.2032 167.198588 
L 245.6496 167.329311 
L 247.8816 169.319906 
L 248.7744 169.590404 
L 249.6672 169.155441 
L 250.1136 169.240388 
L 251.8992 170.45526 
L 252.792 170.607174 
L 253.2384 170.82266 
L 254.5776 172.431981 
L 255.9168 173.332534 
L 258.5952 176.14259 
L 259.0416 176.223154 
L 260.8272 175.206766 
L 261.2736 174.932911 
L 262.1664 173.735235 
L 263.0592 173.252271 
L 263.5056 172.688886 
L 264.8448 171.800389 
L 265.2912 171.513715 
L 265.7376 171.420586 
L 266.184 171.111255 
L 266.6304 170.986307 
L 267.0768 171.094181 
L 269.7552 169.663307 
L 270.648 169.09963 
L 271.5408 168.58172 
L 275.112 166.922076 
L 275.5584 167.001455 
L 277.344 166.035562 
L 278.6832 165.633318 
L 279.1296 165.518733 
L 284.4864 162.068495 
L 284.9328 161.56224 
L 287.1648 160.204563 
L 288.504 159.724953 
L 289.3968 159.112857 
L 290.736 158.166488 
L 292.5216 157.246769 
L 293.4144 156.828278 
L 294.3072 156.446616 
L 294.7536 156.074807 
L 295.2 155.862198 
L 295.6464 155.510143 
L 296.0928 155.335965 
L 296.9856 154.799568 
L 300.5568 153.755003 
L 301.0032 153.794417 
L 303.2352 155.3332 
L 303.6816 155.283222 
L 305.0208 155.800865 
L 306.8064 155.356673 
L 307.2528 155.551941 
L 308.592 156.51854 
L 313.056 159.752114 
L 314.8416 160.880535 
L 315.288 160.745689 
L 316.1808 160.2058 
L 318.8592 159.283582 
L 319.3056 159.422735 
L 319.752 159.356965 
L 323.3232 157.776859 
L 324.216 157.831625 
L 324.6624 158.097081 
L 325.1088 158.15601 
L 329.1264 156.455102 
L 330.0192 156.069646 
L 330.4656 156.144632 
L 330.912 156.397976 
L 331.8048 156.709492 
L 334.4832 158.184139 
L 336.7152 159.447029 
L 337.608 159.450992 
L 338.5008 159.991687 
L 342.072 162.392167 
L 343.8576 163.381615 
L 344.7504 163.314 
L 346.0896 163.824929 
L 347.4288 164.27313 
L 348.3216 164.791141 
L 349.6608 165.42031 
L 350.1072 165.45202 
L 351 164.993864 
L 351.8928 164.97056 
L 352.3392 164.84236 
L 353.6784 164.114491 
L 355.0176 163.498797 
L 359.0352 161.570927 
L 361.7136 160.57228 
L 363.9456 159.202861 
L 365.7312 157.571893 
L 367.5168 155.852612 
L 368.856 154.903962 
L 369.3024 154.601759 
L 370.6416 154.181297 
L 371.088 153.849474 
L 371.5344 153.735815 
L 371.9808 153.497163 
L 373.7664 153.291008 
L 374.2128 153.103252 
L 374.6592 153.083733 
L 375.1056 153.196893 
L 375.9984 152.91804 
L 377.784 153.152984 
L 378.2304 153.276069 
L 378.6768 153.201187 
L 379.5696 153.360005 
L 381.3552 153.056318 
L 384.9264 152.146431 
L 388.4976 149.60834 
L 388.944 149.504574 
L 393.8544 150.874252 
L 394.7472 151.57329 
L 395.64 151.921411 
L 396.5328 151.822405 
L 396.9792 151.713216 
L 397.872 151.232987 
L 399.2112 150.832116 
L 400.104 150.683621 
L 400.9968 150.997127 
L 401.8896 151.534813 
L 405.9072 154.329638 
L 406.8 154.588796 
L 407.6928 154.434462 
L 408.1392 154.544202 
L 413.0496 153.500277 
L 414.3888 153.678481 
L 415.728 153.099103 
L 417.0672 152.686211 
L 417.5136 152.744991 
L 418.4064 153.220975 
L 419.7456 153.545393 
L 422.424 154.791599 
L 425.1024 155.716027 
L 425.9952 155.533288 
L 429.12 154.569064 
L 429.5664 154.272754 
L 430.0128 154.146106 
L 430.4592 154.22449 
L 431.7984 154.939355 
L 438.048 157.994577 
L 438.9408 157.992258 
L 440.28 157.558839 
L 442.0656 156.887561 
L 445.6368 155.89837 
L 446.5296 155.547592 
L 448.3152 155.078293 
L 449.208 154.872995 
L 449.6544 154.941337 
L 450.5472 154.849333 
L 452.3328 154.009918 
L 453.2256 153.897653 
L 455.904 154.647433 
L 456.3504 154.648884 
L 457.2432 154.380274 
L 459.4752 153.847812 
L 461.2608 153.324878 
L 461.7072 153.224232 
L 462.6 153.199795 
L 463.9392 152.982277 
L 465.7248 153.567713 
L 467.064 154.14292 
L 469.7424 154.829654 
L 470.6352 154.575047 
L 471.0816 154.637476 
L 471.528 154.56745 
L 473.3136 154.851591 
L 475.0992 155.699349 
L 475.5456 155.918714 
L 475.992 155.988094 
L 476.8848 155.805693 
L 477.7776 155.987037 
L 478.6704 155.848804 
L 479.5632 156.002245 
L 482.2416 155.102871 
L 483.5808 154.394288 
L 484.0272 154.170783 
L 484.92 153.99023 
L 486.7056 153.630696 
L 488.0448 153.877573 
L 488.4912 153.95601 
L 488.9376 153.900146 
L 489.8304 154.149989 
L 490.7232 153.947942 
L 494.2944 152.918404 
L 497.4192 152.159805 
L 499.2048 152.674124 
L 500.9904 153.240926 
L 501.4368 153.223353 
L 502.776 153.717075 
L 504.1152 154.143534 
L 508.5792 155.796443 
L 509.0256 155.940747 
L 513.4896 158.507088 
L 515.7216 159.084738 
L 517.5072 159.554894 
L 517.9536 159.488665 
L 517.9536 159.488665 
" style="fill:none;stroke:#0000ff;stroke-linecap:square;"/>
   </g>
   <g id="line2d_2">
    <path clip-path="url(#p0dbb688484)" d="M 72 348.534303 
L 72.4464 346.494886 
L 72.8928 242.567238 
L 73.3392 190.879495 
L 73.7856 223.18966 
L 74.232 238.827786 
L 74.6784 195.739538 
L 75.1248 208.74291 
L 75.5712 211.255833 
L 76.464 177.185115 
L 76.9104 168.85206 
L 77.3568 165.269988 
L 77.8032 180.654117 
L 78.2496 163.857198 
L 78.696 178.258 
L 79.1424 176.955584 
L 79.5888 171.145301 
L 80.0352 175.907773 
L 80.4816 186.530371 
L 80.928 186.341669 
L 81.3744 177.2625 
L 81.8208 171.975822 
L 82.2672 169.507374 
L 82.7136 163.855363 
L 83.16 171.382987 
L 83.6064 175.488894 
L 84.0528 170.927141 
L 84.4992 174.64577 
L 85.392 184.360943 
L 86.2848 176.315881 
L 86.7312 177.893158 
L 87.624 186.949713 
L 88.0704 180.462777 
L 88.5168 185.667142 
L 88.9632 182.932436 
L 89.4096 185.042361 
L 89.856 178.999664 
L 90.3024 182.232057 
L 91.6416 172.290564 
L 92.088 173.853807 
L 92.5344 177.741252 
L 92.9808 172.104083 
L 93.4272 173.03972 
L 93.8736 170.888978 
L 94.32 169.419422 
L 94.7664 167.014795 
L 95.2128 171.613891 
L 95.6592 167.010392 
L 96.1056 170.198429 
L 96.552 167.780085 
L 96.9984 168.221987 
L 97.4448 165.316412 
L 97.8912 166.27865 
L 98.3376 164.085001 
L 98.784 163.72649 
L 99.2304 166.818933 
L 99.6768 168.178577 
L 100.1232 167.196638 
L 100.5696 163.784516 
L 101.4624 160.799068 
L 101.9088 157.074711 
L 102.3552 155.829349 
L 102.8016 158.542149 
L 103.248 155.987444 
L 103.6944 155.513865 
L 104.1408 153.283115 
L 104.5872 154.6591 
L 105.0336 153.137793 
L 105.48 153.90054 
L 105.9264 156.114356 
L 106.3728 155.641962 
L 106.8192 156.61305 
L 107.2656 158.603807 
L 107.712 156.834469 
L 108.1584 158.012538 
L 108.6048 157.105165 
L 109.0512 156.618835 
L 109.4976 155.40106 
L 110.3904 150.624026 
L 111.2832 147.57634 
L 111.7296 146.89898 
L 112.176 148.848637 
L 112.6224 148.192885 
L 113.0688 151.1718 
L 113.5152 152.905176 
L 113.9616 155.258223 
L 114.408 156.204849 
L 114.8544 155.488971 
L 115.3008 157.858835 
L 115.7472 157.267712 
L 116.1936 155.560899 
L 116.64 154.909601 
L 117.9792 160.281543 
L 118.4256 160.701859 
L 118.872 160.192712 
L 119.3184 161.412271 
L 119.7648 163.39686 
L 120.2112 161.577963 
L 121.104 164.487809 
L 121.5504 165.879329 
L 121.9968 166.126183 
L 122.4432 167.664728 
L 122.8896 169.857975 
L 124.2288 173.482447 
L 124.6752 174.223629 
L 125.1216 175.700555 
L 125.568 176.404541 
L 126.0144 177.706116 
L 126.4608 176.074926 
L 126.9072 176.733306 
L 127.3536 178.006357 
L 127.8 176.896907 
L 128.2464 177.708109 
L 128.6928 179.255075 
L 129.5856 176.586187 
L 130.032 178.07067 
L 130.4784 178.29037 
L 130.9248 176.506784 
L 131.8176 175.168894 
L 132.264 176.279009 
L 132.7104 175.373006 
L 133.1568 174.939935 
L 133.6032 175.769323 
L 134.0496 176.848011 
L 134.496 174.624431 
L 134.9424 173.165442 
L 135.3888 172.476931 
L 135.8352 172.152898 
L 136.2816 172.766209 
L 136.728 173.73383 
L 137.1744 175.059427 
L 137.6208 174.225765 
L 138.0672 174.612916 
L 138.5136 175.958452 
L 138.96 175.39805 
L 139.4064 177.13178 
L 139.8528 178.046161 
L 140.2992 178.425758 
L 140.7456 179.295332 
L 141.192 179.30478 
L 141.6384 178.724469 
L 142.0848 178.999139 
L 142.5312 179.432423 
L 142.9776 180.853856 
L 143.424 179.691633 
L 143.8704 179.062457 
L 144.3168 178.630667 
L 144.7632 178.906548 
L 145.2096 179.550567 
L 145.656 178.643453 
L 146.5488 176.058274 
L 146.9952 177.032208 
L 147.4416 177.709003 
L 148.7808 175.634704 
L 149.2272 174.957675 
L 150.12 175.719684 
L 151.9056 178.481013 
L 152.352 179.651644 
L 154.1376 175.071013 
L 154.584 176.516085 
L 155.0304 176.920649 
L 155.4768 176.527448 
L 155.9232 175.935869 
L 156.3696 177.055811 
L 156.816 176.484188 
L 157.2624 176.130211 
L 157.7088 176.928832 
L 158.6016 175.612786 
L 159.048 175.24738 
L 159.9408 173.206021 
L 160.3872 173.576385 
L 160.8336 173.164821 
L 161.28 172.935831 
L 162.1728 175.040807 
L 163.0656 176.763942 
L 163.512 175.905337 
L 163.9584 175.824998 
L 164.4048 176.88473 
L 165.2976 178.068029 
L 166.6368 175.521039 
L 167.0832 175.453368 
L 167.5296 174.680114 
L 167.976 174.650419 
L 168.4224 174.310666 
L 168.8688 174.518294 
L 169.3152 174.095686 
L 169.7616 174.663483 
L 170.6544 176.363189 
L 171.1008 175.36674 
L 171.5472 175.056113 
L 171.9936 175.582356 
L 172.44 174.780552 
L 172.8864 175.245053 
L 173.3328 175.084259 
L 173.7792 175.893918 
L 174.2256 175.541923 
L 174.672 174.486999 
L 175.1184 173.836629 
L 175.5648 173.48693 
L 176.0112 173.97151 
L 176.4576 174.225543 
L 176.904 174.737762 
L 177.3504 174.405641 
L 177.7968 173.812693 
L 178.2432 172.888825 
L 178.6896 172.462437 
L 180.0288 170.123804 
L 180.4752 170.793761 
L 180.9216 170.35558 
L 181.8144 171.382347 
L 183.1536 169.9086 
L 183.6 170.534181 
L 184.0464 170.410473 
L 184.4928 170.14339 
L 184.9392 169.49131 
L 185.832 171.165075 
L 186.2784 170.494526 
L 186.7248 170.966052 
L 187.1712 170.459066 
L 187.6176 171.076586 
L 188.5104 170.172977 
L 188.9568 170.869068 
L 189.4032 171.158913 
L 189.8496 171.626157 
L 190.296 172.491468 
L 190.7424 172.009706 
L 191.1888 171.911751 
L 192.528 173.060939 
L 192.9744 172.49918 
L 193.4208 172.246643 
L 193.8672 172.723888 
L 194.3136 173.406054 
L 194.76 172.72251 
L 195.2064 173.386696 
L 195.6528 172.754778 
L 196.0992 172.567976 
L 196.992 173.83176 
L 197.4384 173.288613 
L 197.8848 172.993417 
L 198.3312 172.453388 
L 198.7776 172.937222 
L 199.224 172.227041 
L 200.1168 172.954237 
L 200.5632 172.95677 
L 201.0096 172.598004 
L 201.456 172.809606 
L 202.3488 173.776909 
L 202.7952 173.277531 
L 203.2416 173.059642 
L 203.688 172.973564 
L 204.1344 172.292036 
L 204.5808 172.971211 
L 205.0272 172.149711 
L 205.4736 171.743357 
L 206.3664 173.246127 
L 206.8128 172.651932 
L 207.2592 173.171604 
L 207.7056 173.405677 
L 208.152 172.945366 
L 208.5984 172.291892 
L 209.0448 173.03519 
L 209.4912 173.300186 
L 209.9376 173.9533 
L 210.8304 172.815476 
L 211.2768 172.798834 
L 211.7232 173.250473 
L 212.1696 172.806644 
L 212.616 173.128899 
L 213.0624 172.479731 
L 213.5088 173.071984 
L 213.9552 173.41128 
L 214.4016 173.161506 
L 215.7408 171.90509 
L 216.1872 171.251679 
L 216.6336 171.661332 
L 217.08 171.502712 
L 217.5264 172.020792 
L 218.4192 172.015562 
L 218.8656 171.573489 
L 219.312 171.332921 
L 219.7584 171.448518 
L 220.2048 171.259077 
L 220.6512 170.866117 
L 221.0976 171.589037 
L 221.544 171.223973 
L 221.9904 171.391736 
L 222.4368 171.104029 
L 222.8832 171.550571 
L 223.3296 171.644379 
L 223.776 172.125635 
L 224.6688 172.629595 
L 225.1152 172.515831 
L 225.5616 172.109632 
L 226.008 172.429529 
L 226.4544 172.981209 
L 227.3472 171.93569 
L 227.7936 172.298686 
L 228.24 172.118583 
L 228.6864 172.744065 
L 229.1328 172.282227 
L 229.5792 172.761153 
L 230.0256 172.488937 
L 230.472 171.986611 
L 230.9184 171.855323 
L 231.3648 171.392444 
L 232.2576 172.07562 
L 232.704 172.446718 
L 233.1504 172.138991 
L 233.5968 172.569492 
L 234.0432 172.43275 
L 234.4896 172.759258 
L 234.936 172.658633 
L 235.3824 172.096573 
L 236.2752 171.347342 
L 236.7216 171.450663 
L 237.6144 170.438393 
L 238.5072 169.981717 
L 238.9536 169.540037 
L 239.4 169.838436 
L 239.8464 169.720497 
L 240.2928 170.14402 
L 240.7392 170.156621 
L 241.632 170.655444 
L 242.5248 171.571794 
L 243.4176 170.928474 
L 243.864 170.555212 
L 244.7568 170.217385 
L 245.2032 169.748918 
L 245.6496 170.132576 
L 246.096 169.795305 
L 246.9888 168.790956 
L 247.4352 169.066604 
L 247.8816 168.613123 
L 248.328 168.78505 
L 248.7744 169.325843 
L 249.2208 169.411418 
L 249.6672 168.979588 
L 250.1136 168.702698 
L 250.56 169.24512 
L 251.4528 169.098798 
L 251.8992 168.75876 
L 252.3456 169.261959 
L 252.792 168.82458 
L 253.2384 168.593652 
L 253.6848 168.211104 
L 254.5776 168.394483 
L 255.4704 167.853926 
L 256.3632 168.454228 
L 256.8096 168.219274 
L 257.256 167.840202 
L 258.1488 168.628114 
L 258.5952 168.480994 
L 259.0416 168.196075 
L 259.488 167.766576 
L 259.9344 167.561764 
L 260.3808 168.00621 
L 260.8272 168.031577 
L 262.1664 167.02569 
L 262.6128 166.663416 
L 263.0592 167.169668 
L 263.5056 166.889581 
L 265.2912 168.046836 
L 266.184 168.555519 
L 267.0768 169.452431 
L 267.9696 168.790781 
L 268.416 168.958434 
L 268.8624 168.7552 
L 269.3088 169.233264 
L 269.7552 168.898342 
L 270.2016 169.098177 
L 270.648 168.844078 
L 271.0944 168.912894 
L 271.5408 168.807641 
L 271.9872 168.92422 
L 272.88 168.237266 
L 273.3264 168.378925 
L 273.7728 168.936119 
L 274.6656 169.351811 
L 275.112 169.577316 
L 276.0048 170.409492 
L 276.4512 170.644792 
L 276.8976 171.115644 
L 278.2368 170.086194 
L 278.6832 170.56512 
L 279.1296 170.098318 
L 279.576 169.878313 
L 280.0224 169.413696 
L 280.4688 169.281152 
L 280.9152 169.293508 
L 281.808 169.549238 
L 282.2544 169.38053 
L 282.7008 168.957967 
L 283.1472 169.458581 
L 283.5936 169.231911 
L 284.04 169.566088 
L 284.4864 169.608092 
L 284.9328 169.940555 
L 285.8256 169.383555 
L 286.272 168.993716 
L 287.6112 169.746132 
L 288.0576 169.791165 
L 289.3968 170.514387 
L 290.736 169.834115 
L 291.1824 170.041977 
L 292.0752 170.728597 
L 292.5216 171.061196 
L 292.968 171.246851 
L 293.4144 171.177528 
L 293.8608 170.860057 
L 294.3072 171.307797 
L 294.7536 171.45177 
L 295.2 171.101474 
L 296.0928 171.722559 
L 296.9856 171.179718 
L 297.432 170.903427 
L 297.8784 171.184429 
L 298.3248 171.116902 
L 298.7712 170.910902 
L 299.2176 171.105355 
L 299.664 171.033395 
L 300.1104 171.374465 
L 300.5568 171.230083 
L 301.0032 170.938633 
L 301.4496 171.384082 
L 301.896 171.068298 
L 302.3424 171.355234 
L 302.7888 171.090276 
L 303.6816 170.339423 
L 304.5744 170.760267 
L 305.0208 171.159778 
L 306.36 171.540264 
L 307.6992 170.795111 
L 309.4848 171.742326 
L 309.9312 171.594399 
L 310.3776 171.606575 
L 310.824 171.858935 
L 311.2704 171.780875 
L 312.1632 171.386372 
L 312.6096 171.648782 
L 313.056 171.751169 
L 313.9488 172.142278 
L 314.8416 171.525303 
L 315.288 171.340296 
L 315.7344 171.282681 
L 316.6272 171.861582 
L 317.0736 171.92099 
L 317.52 171.865227 
L 318.4128 172.603483 
L 319.3056 171.93533 
L 319.752 171.886753 
L 320.1984 172.107864 
L 321.0912 171.826163 
L 321.984 172.406836 
L 322.4304 172.195777 
L 322.8768 172.394974 
L 323.3232 172.089733 
L 323.7696 172.341875 
L 324.6624 173.186408 
L 326.0016 173.526114 
L 326.448 173.865848 
L 326.8944 174.054643 
L 327.3408 173.724743 
L 328.2336 174.233871 
L 328.68 173.905243 
L 329.5728 173.581765 
L 330.0192 173.904437 
L 330.4656 173.622311 
L 330.912 173.838648 
L 331.3584 173.645523 
L 331.8048 173.715448 
L 332.2512 173.583797 
L 334.0368 174.389898 
L 334.4832 174.004528 
L 334.9296 174.096898 
L 335.376 173.913629 
L 336.2688 174.422773 
L 336.7152 174.512716 
L 337.1616 174.251585 
L 337.608 174.298361 
L 338.5008 174.612856 
L 338.9472 174.605145 
L 339.84 175.158098 
L 340.2864 175.237944 
L 340.7328 175.001416 
L 341.1792 175.314644 
L 341.6256 175.182619 
L 342.072 174.912851 
L 342.5184 175.103722 
L 342.9648 174.962211 
L 343.4112 174.622537 
L 343.8576 174.793048 
L 344.304 174.372485 
L 344.7504 174.613912 
L 346.0896 173.904407 
L 346.536 174.161421 
L 346.9824 174.073658 
L 347.4288 174.183039 
L 347.8752 174.59097 
L 348.3216 174.463666 
L 349.2144 173.946956 
L 349.6608 174.153966 
L 350.5536 173.706696 
L 351 173.819542 
L 352.3392 173.250025 
L 353.232 173.486106 
L 353.6784 173.613002 
L 354.5712 172.990373 
L 355.0176 173.27007 
L 357.696 171.840665 
L 358.5888 172.295355 
L 359.0352 172.485547 
L 359.4816 172.208475 
L 360.8208 172.682203 
L 362.16 173.079006 
L 362.6064 173.33926 
L 363.0528 173.140404 
L 363.4992 173.28573 
L 363.9456 173.056192 
L 364.392 172.999192 
L 364.8384 173.074488 
L 365.7312 172.608079 
L 366.624 173.021368 
L 367.5168 172.494437 
L 367.9632 172.508497 
L 368.4096 172.409907 
L 368.856 172.712503 
L 369.3024 172.499218 
L 369.7488 172.711298 
L 370.1952 172.45008 
L 370.6416 172.616146 
L 371.088 172.434473 
L 371.5344 172.538326 
L 371.9808 172.24479 
L 372.4272 172.419839 
L 372.8736 172.256992 
L 375.1056 172.978563 
L 375.552 172.85407 
L 376.4448 173.40563 
L 376.8912 173.284359 
L 378.6768 173.652352 
L 379.1232 173.492927 
L 380.9088 174.162895 
L 381.3552 173.970251 
L 381.8016 173.967576 
L 383.1408 174.3682 
L 383.5872 174.085133 
L 384.0336 173.995849 
L 384.9264 174.258938 
L 385.3728 174.03913 
L 385.8192 174.099769 
L 386.712 174.410437 
L 388.0512 174.067413 
L 388.4976 174.469546 
L 388.944 174.609355 
L 389.3904 174.517056 
L 389.8368 174.22389 
L 390.2832 174.2928 
L 390.7296 174.506736 
L 392.0688 173.742168 
L 392.5152 173.658798 
L 392.9616 173.693392 
L 393.408 173.950395 
L 394.3008 173.557609 
L 394.7472 173.771146 
L 395.1936 173.803643 
L 395.64 174.089986 
L 396.0864 173.873873 
L 396.5328 174.217739 
L 396.9792 174.149766 
L 397.4256 174.395975 
L 397.872 174.157717 
L 398.7648 174.550385 
L 399.2112 174.287854 
L 400.104 174.183889 
L 400.9968 174.533137 
L 402.336 173.987284 
L 402.7824 174.262936 
L 403.6752 173.929 
L 404.1216 174.079287 
L 404.568 173.755473 
L 405.0144 173.92777 
L 405.4608 173.703526 
L 406.8 173.920354 
L 407.2464 173.731176 
L 407.6928 173.931311 
L 408.5856 174.488018 
L 409.4784 174.056156 
L 409.9248 174.210624 
L 410.3712 173.96772 
L 411.264 174.335552 
L 412.1568 173.935111 
L 412.6032 174.153444 
L 413.0496 173.81251 
L 414.3888 174.398466 
L 414.8352 174.114168 
L 418.4064 175.137651 
L 418.8528 175.052724 
L 419.2992 174.849981 
L 420.192 174.721489 
L 420.6384 174.957151 
L 421.0848 174.865755 
L 421.5312 174.650589 
L 421.9776 174.814331 
L 422.424 174.706777 
L 422.8704 174.923383 
L 424.2096 174.365609 
L 425.1024 174.707725 
L 425.5488 174.769826 
L 426.4416 175.261955 
L 427.3344 174.851092 
L 427.7808 175.041625 
L 428.2272 174.947069 
L 428.6736 175.010299 
L 429.12 174.931862 
L 429.5664 175.162364 
L 430.0128 175.242779 
L 430.4592 174.992648 
L 430.9056 175.23681 
L 431.7984 174.848162 
L 432.6912 174.457401 
L 433.1376 174.748574 
L 434.0304 174.259316 
L 435.3696 174.227345 
L 435.816 174.030859 
L 436.2624 174.146531 
L 436.7088 174.069587 
L 437.1552 174.223173 
L 437.6016 173.961676 
L 438.048 174.17202 
L 439.3872 173.767187 
L 439.8336 173.889867 
L 440.7264 174.49209 
L 441.1728 174.397666 
L 441.6192 174.154135 
L 442.0656 174.247901 
L 442.512 174.031428 
L 443.4048 174.553682 
L 444.2976 174.082157 
L 445.1904 174.331804 
L 445.6368 174.088662 
L 446.0832 174.242636 
L 447.8688 173.883265 
L 448.3152 173.968177 
L 448.7616 174.175995 
L 449.208 174.003287 
L 450.1008 174.270517 
L 451.44 173.741608 
L 451.8864 174.008464 
L 452.7792 173.712252 
L 453.2256 173.563957 
L 453.672 173.615054 
L 455.904 174.629252 
L 456.3504 174.715126 
L 457.2432 175.137148 
L 458.136 175.402386 
L 459.0288 175.115759 
L 459.4752 175.239816 
L 459.9216 174.991798 
L 460.368 175.048689 
L 460.8144 174.966733 
L 461.2608 174.690927 
L 462.6 175.121505 
L 463.0464 175.008063 
L 463.4928 174.766443 
L 465.7248 175.239569 
L 466.1712 175.424089 
L 468.4032 174.93334 
L 468.8496 175.157591 
L 469.296 174.925126 
L 470.1888 175.171336 
L 472.8672 174.520197 
L 474.2064 174.599484 
L 474.6528 174.505165 
L 475.0992 174.58436 
L 476.4384 174.480914 
L 476.8848 174.525967 
L 477.3312 174.395916 
L 478.224 174.671889 
L 478.6704 174.55221 
L 479.1168 174.613728 
L 479.5632 174.5555 
L 480.0096 174.37349 
L 480.456 174.602497 
L 480.9024 174.456452 
L 481.3488 174.558852 
L 481.7952 174.3185 
L 483.5808 174.70081 
L 484.4736 174.337941 
L 484.92 174.209004 
L 485.3664 174.364295 
L 485.8128 174.31851 
L 486.2592 174.055618 
L 486.7056 173.979316 
L 487.152 174.164975 
L 488.0448 173.741204 
L 488.4912 173.825264 
L 488.9376 173.691916 
L 489.8304 173.999911 
L 490.2768 173.820719 
L 491.616 174.110745 
L 492.0624 173.964839 
L 492.5088 174.173631 
L 492.9552 173.949782 
L 494.7408 173.599076 
L 495.6336 173.216184 
L 496.08 173.343768 
L 496.5264 173.238974 
L 497.8656 173.489439 
L 498.312 173.2922 
L 498.7584 173.220691 
L 499.6512 173.263068 
L 500.544 173.022189 
L 501.4368 172.622756 
L 502.776 172.139765 
L 503.6688 171.768505 
L 504.5616 172.078341 
L 505.008 172.156404 
L 506.3472 171.737612 
L 506.7936 171.805895 
L 507.24 171.586009 
L 507.6864 171.521444 
L 508.5792 171.748569 
L 509.472 171.516683 
L 509.9184 171.690677 
L 510.3648 171.660278 
L 510.8112 171.836935 
L 511.2576 171.702182 
L 512.1504 171.966865 
L 513.0432 172.057287 
L 514.3824 172.489098 
L 514.8288 172.450097 
L 515.2752 172.646531 
L 516.6144 172.224629 
L 517.0608 172.406729 
L 517.5072 172.314783 
L 517.9536 172.336301 
L 517.9536 172.336301 
" style="fill:none;stroke:#008000;stroke-linecap:square;"/>
   </g>
   <g id="line2d_3">
    <path clip-path="url(#p0dbb688484)" d="M 72 172.8 
L 518.4 172.8 
" style="fill:none;stroke:#ff0000;stroke-linecap:square;"/>
   </g>
   <g id="patch_3">
    <path d="M 72 388.8 
L 518.4 388.8 
" style="fill:none;stroke:#000000;stroke-linecap:square;stroke-linejoin:miter;"/>
   </g>
   <g id="patch_4">
    <path d="M 72 43.2 
L 518.4 43.2 
" style="fill:none;stroke:#000000;stroke-linecap:square;stroke-linejoin:miter;"/>
   </g>
   <g id="patch_5">
    <path d="M 518.4 388.8 
L 518.4 43.2 
" style="fill:none;stroke:#000000;stroke-linecap:square;stroke-linejoin:miter;"/>
   </g>
   <g id="patch_6">
    <path d="M 72 388.8 
L 72 43.2 
" style="fill:none;stroke:#000000;stroke-linecap:square;stroke-linejoin:miter;"/>
   </g>
   <g id="matplotlib.axis_1">
    <g id="xtick_1">
     <g id="line2d_4">
      <defs>
       <path d="M 0 0 
L 0 -4 
" id="m33d3b5e5b5" style="stroke:#000000;stroke-width:0.5;"/>
      </defs>
      <g>
       <use style="stroke:#000000;stroke-width:0.5;" x="72.0" xlink:href="#m33d3b5e5b5" y="388.8"/>
      </g>
     </g>
     <g id="line2d_5">
      <defs>
       <path d="M 0 0 
L 0 4 
" id="me12d041594" style="stroke:#000000;stroke-width:0.5;"/>
      </defs>
      <g>
       <use style="stroke:#000000;stroke-width:0.5;" x="72.0" xlink:href="#me12d041594" y="43.2"/>
      </g>
     </g>
     <g id="text_1">
      <!-- 0 -->
      <defs>
       <path d="M 31.78125 66.40625 
Q 24.171875 66.40625 20.328125 58.90625 
Q 16.5 51.421875 16.5 36.375 
Q 16.5 21.390625 20.328125 13.890625 
Q 24.171875 6.390625 31.78125 6.390625 
Q 39.453125 6.390625 43.28125 13.890625 
Q 47.125 21.390625 47.125 36.375 
Q 47.125 51.421875 43.28125 58.90625 
Q 39.453125 66.40625 31.78125 66.40625 
M 31.78125 74.21875 
Q 44.046875 74.21875 50.515625 64.515625 
Q 56.984375 54.828125 56.984375 36.375 
Q 56.984375 17.96875 50.515625 8.265625 
Q 44.046875 -1.421875 31.78125 -1.421875 
Q 19.53125 -1.421875 13.0625 8.265625 
Q 6.59375 17.96875 6.59375 36.375 
Q 6.59375 54.828125 13.0625 64.515625 
Q 19.53125 74.21875 31.78125 74.21875 
" id="BitstreamVeraSans-Roman-30"/>
      </defs>
      <g transform="translate(68.1825 401.918125)scale(0.12 -0.12)">
       <use xlink:href="#BitstreamVeraSans-Roman-30"/>
      </g>
     </g>
    </g>
    <g id="xtick_2">
     <g id="line2d_6">
      <g>
       <use style="stroke:#000000;stroke-width:0.5;" x="161.28" xlink:href="#m33d3b5e5b5" y="388.8"/>
      </g>
     </g>
     <g id="line2d_7">
      <g>
       <use style="stroke:#000000;stroke-width:0.5;" x="161.28" xlink:href="#me12d041594" y="43.2"/>
      </g>
     </g>
     <g id="text_2">
      <!-- 200 -->
      <defs>
       <path d="M 19.1875 8.296875 
L 53.609375 8.296875 
L 53.609375 0 
L 7.328125 0 
L 7.328125 8.296875 
Q 12.9375 14.109375 22.625 23.890625 
Q 32.328125 33.6875 34.8125 36.53125 
Q 39.546875 41.84375 41.421875 45.53125 
Q 43.3125 49.21875 43.3125 52.78125 
Q 43.3125 58.59375 39.234375 62.25 
Q 35.15625 65.921875 28.609375 65.921875 
Q 23.96875 65.921875 18.8125 64.3125 
Q 13.671875 62.703125 7.8125 59.421875 
L 7.8125 69.390625 
Q 13.765625 71.78125 18.9375 73 
Q 24.125 74.21875 28.421875 74.21875 
Q 39.75 74.21875 46.484375 68.546875 
Q 53.21875 62.890625 53.21875 53.421875 
Q 53.21875 48.921875 51.53125 44.890625 
Q 49.859375 40.875 45.40625 35.40625 
Q 44.1875 33.984375 37.640625 27.21875 
Q 31.109375 20.453125 19.1875 8.296875 
" id="BitstreamVeraSans-Roman-32"/>
      </defs>
      <g transform="translate(149.8275 401.918125)scale(0.12 -0.12)">
       <use xlink:href="#BitstreamVeraSans-Roman-32"/>
       <use x="63.623046875" xlink:href="#BitstreamVeraSans-Roman-30"/>
       <use x="127.24609375" xlink:href="#BitstreamVeraSans-Roman-30"/>
      </g>
     </g>
    </g>
    <g id="xtick_3">
     <g id="line2d_8">
      <g>
       <use style="stroke:#000000;stroke-width:0.5;" x="250.56" xlink:href="#m33d3b5e5b5" y="388.8"/>
      </g>
     </g>
     <g id="line2d_9">
      <g>
       <use style="stroke:#000000;stroke-width:0.5;" x="250.56" xlink:href="#me12d041594" y="43.2"/>
      </g>
     </g>
     <g id="text_3">
      <!-- 400 -->
      <defs>
       <path d="M 37.796875 64.3125 
L 12.890625 25.390625 
L 37.796875 25.390625 
z
M 35.203125 72.90625 
L 47.609375 72.90625 
L 47.609375 25.390625 
L 58.015625 25.390625 
L 58.015625 17.1875 
L 47.609375 17.1875 
L 47.609375 0 
L 37.796875 0 
L 37.796875 17.1875 
L 4.890625 17.1875 
L 4.890625 26.703125 
z
" id="BitstreamVeraSans-Roman-34"/>
      </defs>
      <g transform="translate(239.1075 401.918125)scale(0.12 -0.12)">
       <use xlink:href="#BitstreamVeraSans-Roman-34"/>
       <use x="63.623046875" xlink:href="#BitstreamVeraSans-Roman-30"/>
       <use x="127.24609375" xlink:href="#BitstreamVeraSans-Roman-30"/>
      </g>
     </g>
    </g>
    <g id="xtick_4">
     <g id="line2d_10">
      <g>
       <use style="stroke:#000000;stroke-width:0.5;" x="339.84" xlink:href="#m33d3b5e5b5" y="388.8"/>
      </g>
     </g>
     <g id="line2d_11">
      <g>
       <use style="stroke:#000000;stroke-width:0.5;" x="339.84" xlink:href="#me12d041594" y="43.2"/>
      </g>
     </g>
     <g id="text_4">
      <!-- 600 -->
      <defs>
       <path d="M 33.015625 40.375 
Q 26.375 40.375 22.484375 35.828125 
Q 18.609375 31.296875 18.609375 23.390625 
Q 18.609375 15.53125 22.484375 10.953125 
Q 26.375 6.390625 33.015625 6.390625 
Q 39.65625 6.390625 43.53125 10.953125 
Q 47.40625 15.53125 47.40625 23.390625 
Q 47.40625 31.296875 43.53125 35.828125 
Q 39.65625 40.375 33.015625 40.375 
M 52.59375 71.296875 
L 52.59375 62.3125 
Q 48.875 64.0625 45.09375 64.984375 
Q 41.3125 65.921875 37.59375 65.921875 
Q 27.828125 65.921875 22.671875 59.328125 
Q 17.53125 52.734375 16.796875 39.40625 
Q 19.671875 43.65625 24.015625 45.921875 
Q 28.375 48.1875 33.59375 48.1875 
Q 44.578125 48.1875 50.953125 41.515625 
Q 57.328125 34.859375 57.328125 23.390625 
Q 57.328125 12.15625 50.6875 5.359375 
Q 44.046875 -1.421875 33.015625 -1.421875 
Q 20.359375 -1.421875 13.671875 8.265625 
Q 6.984375 17.96875 6.984375 36.375 
Q 6.984375 53.65625 15.1875 63.9375 
Q 23.390625 74.21875 37.203125 74.21875 
Q 40.921875 74.21875 44.703125 73.484375 
Q 48.484375 72.75 52.59375 71.296875 
" id="BitstreamVeraSans-Roman-36"/>
      </defs>
      <g transform="translate(328.3875 401.918125)scale(0.12 -0.12)">
       <use xlink:href="#BitstreamVeraSans-Roman-36"/>
       <use x="63.623046875" xlink:href="#BitstreamVeraSans-Roman-30"/>
       <use x="127.24609375" xlink:href="#BitstreamVeraSans-Roman-30"/>
      </g>
     </g>
    </g>
    <g id="xtick_5">
     <g id="line2d_12">
      <g>
       <use style="stroke:#000000;stroke-width:0.5;" x="429.12" xlink:href="#m33d3b5e5b5" y="388.8"/>
      </g>
     </g>
     <g id="line2d_13">
      <g>
       <use style="stroke:#000000;stroke-width:0.5;" x="429.12" xlink:href="#me12d041594" y="43.2"/>
      </g>
     </g>
     <g id="text_5">
      <!-- 800 -->
      <defs>
       <path d="M 31.78125 34.625 
Q 24.75 34.625 20.71875 30.859375 
Q 16.703125 27.09375 16.703125 20.515625 
Q 16.703125 13.921875 20.71875 10.15625 
Q 24.75 6.390625 31.78125 6.390625 
Q 38.8125 6.390625 42.859375 10.171875 
Q 46.921875 13.96875 46.921875 20.515625 
Q 46.921875 27.09375 42.890625 30.859375 
Q 38.875 34.625 31.78125 34.625 
M 21.921875 38.8125 
Q 15.578125 40.375 12.03125 44.71875 
Q 8.5 49.078125 8.5 55.328125 
Q 8.5 64.0625 14.71875 69.140625 
Q 20.953125 74.21875 31.78125 74.21875 
Q 42.671875 74.21875 48.875 69.140625 
Q 55.078125 64.0625 55.078125 55.328125 
Q 55.078125 49.078125 51.53125 44.71875 
Q 48 40.375 41.703125 38.8125 
Q 48.828125 37.15625 52.796875 32.3125 
Q 56.78125 27.484375 56.78125 20.515625 
Q 56.78125 9.90625 50.3125 4.234375 
Q 43.84375 -1.421875 31.78125 -1.421875 
Q 19.734375 -1.421875 13.25 4.234375 
Q 6.78125 9.90625 6.78125 20.515625 
Q 6.78125 27.484375 10.78125 32.3125 
Q 14.796875 37.15625 21.921875 38.8125 
M 18.3125 54.390625 
Q 18.3125 48.734375 21.84375 45.5625 
Q 25.390625 42.390625 31.78125 42.390625 
Q 38.140625 42.390625 41.71875 45.5625 
Q 45.3125 48.734375 45.3125 54.390625 
Q 45.3125 60.0625 41.71875 63.234375 
Q 38.140625 66.40625 31.78125 66.40625 
Q 25.390625 66.40625 21.84375 63.234375 
Q 18.3125 60.0625 18.3125 54.390625 
" id="BitstreamVeraSans-Roman-38"/>
      </defs>
      <g transform="translate(417.6675 401.918125)scale(0.12 -0.12)">
       <use xlink:href="#BitstreamVeraSans-Roman-38"/>
       <use x="63.623046875" xlink:href="#BitstreamVeraSans-Roman-30"/>
       <use x="127.24609375" xlink:href="#BitstreamVeraSans-Roman-30"/>
      </g>
     </g>
    </g>
    <g id="xtick_6">
     <g id="line2d_14">
      <g>
       <use style="stroke:#000000;stroke-width:0.5;" x="518.4" xlink:href="#m33d3b5e5b5" y="388.8"/>
      </g>
     </g>
     <g id="line2d_15">
      <g>
       <use style="stroke:#000000;stroke-width:0.5;" x="518.4" xlink:href="#me12d041594" y="43.2"/>
      </g>
     </g>
     <g id="text_6">
      <!-- 1000 -->
      <defs>
       <path d="M 12.40625 8.296875 
L 28.515625 8.296875 
L 28.515625 63.921875 
L 10.984375 60.40625 
L 10.984375 69.390625 
L 28.421875 72.90625 
L 38.28125 72.90625 
L 38.28125 8.296875 
L 54.390625 8.296875 
L 54.390625 0 
L 12.40625 0 
z
" id="BitstreamVeraSans-Roman-31"/>
      </defs>
      <g transform="translate(503.13 401.918125)scale(0.12 -0.12)">
       <use xlink:href="#BitstreamVeraSans-Roman-31"/>
       <use x="63.623046875" xlink:href="#BitstreamVeraSans-Roman-30"/>
       <use x="127.24609375" xlink:href="#BitstreamVeraSans-Roman-30"/>
       <use x="190.869140625" xlink:href="#BitstreamVeraSans-Roman-30"/>
      </g>
     </g>
    </g>
    <g id="text_7">
     <!-- Sample Number -->
     <defs>
      <path d="M 41.109375 46.296875 
Q 39.59375 47.171875 37.8125 47.578125 
Q 36.03125 48 33.890625 48 
Q 26.265625 48 22.1875 43.046875 
Q 18.109375 38.09375 18.109375 28.8125 
L 18.109375 0 
L 9.078125 0 
L 9.078125 54.6875 
L 18.109375 54.6875 
L 18.109375 46.1875 
Q 20.953125 51.171875 25.484375 53.578125 
Q 30.03125 56 36.53125 56 
Q 37.453125 56 38.578125 55.875 
Q 39.703125 55.765625 41.0625 55.515625 
z
" id="BitstreamVeraSans-Roman-72"/>
      <path d="M 53.515625 70.515625 
L 53.515625 60.890625 
Q 47.90625 63.578125 42.921875 64.890625 
Q 37.9375 66.21875 33.296875 66.21875 
Q 25.25 66.21875 20.875 63.09375 
Q 16.5 59.96875 16.5 54.203125 
Q 16.5 49.359375 19.40625 46.890625 
Q 22.3125 44.4375 30.421875 42.921875 
L 36.375 41.703125 
Q 47.40625 39.59375 52.65625 34.296875 
Q 57.90625 29 57.90625 20.125 
Q 57.90625 9.515625 50.796875 4.046875 
Q 43.703125 -1.421875 29.984375 -1.421875 
Q 24.8125 -1.421875 18.96875 -0.25 
Q 13.140625 0.921875 6.890625 3.21875 
L 6.890625 13.375 
Q 12.890625 10.015625 18.65625 8.296875 
Q 24.421875 6.59375 29.984375 6.59375 
Q 38.421875 6.59375 43.015625 9.90625 
Q 47.609375 13.234375 47.609375 19.390625 
Q 47.609375 24.75 44.3125 27.78125 
Q 41.015625 30.8125 33.5 32.328125 
L 27.484375 33.5 
Q 16.453125 35.6875 11.515625 40.375 
Q 6.59375 45.0625 6.59375 53.421875 
Q 6.59375 63.09375 13.40625 68.65625 
Q 20.21875 74.21875 32.171875 74.21875 
Q 37.3125 74.21875 42.625 73.28125 
Q 47.953125 72.359375 53.515625 70.515625 
" id="BitstreamVeraSans-Roman-53"/>
      <path d="M 18.109375 8.203125 
L 18.109375 -20.796875 
L 9.078125 -20.796875 
L 9.078125 54.6875 
L 18.109375 54.6875 
L 18.109375 46.390625 
Q 20.953125 51.265625 25.265625 53.625 
Q 29.59375 56 35.59375 56 
Q 45.5625 56 51.78125 48.09375 
Q 58.015625 40.1875 58.015625 27.296875 
Q 58.015625 14.40625 51.78125 6.484375 
Q 45.5625 -1.421875 35.59375 -1.421875 
Q 29.59375 -1.421875 25.265625 0.953125 
Q 20.953125 3.328125 18.109375 8.203125 
M 48.6875 27.296875 
Q 48.6875 37.203125 44.609375 42.84375 
Q 40.53125 48.484375 33.40625 48.484375 
Q 26.265625 48.484375 22.1875 42.84375 
Q 18.109375 37.203125 18.109375 27.296875 
Q 18.109375 17.390625 22.1875 11.75 
Q 26.265625 6.109375 33.40625 6.109375 
Q 40.53125 6.109375 44.609375 11.75 
Q 48.6875 17.390625 48.6875 27.296875 
" id="BitstreamVeraSans-Roman-70"/>
      <path d="M 9.8125 72.90625 
L 23.09375 72.90625 
L 55.421875 11.921875 
L 55.421875 72.90625 
L 64.984375 72.90625 
L 64.984375 0 
L 51.703125 0 
L 19.390625 60.984375 
L 19.390625 0 
L 9.8125 0 
z
" id="BitstreamVeraSans-Roman-4e"/>
      <path id="BitstreamVeraSans-Roman-20"/>
      <path d="M 34.28125 27.484375 
Q 23.390625 27.484375 19.1875 25 
Q 14.984375 22.515625 14.984375 16.5 
Q 14.984375 11.71875 18.140625 8.90625 
Q 21.296875 6.109375 26.703125 6.109375 
Q 34.1875 6.109375 38.703125 11.40625 
Q 43.21875 16.703125 43.21875 25.484375 
L 43.21875 27.484375 
z
M 52.203125 31.203125 
L 52.203125 0 
L 43.21875 0 
L 43.21875 8.296875 
Q 40.140625 3.328125 35.546875 0.953125 
Q 30.953125 -1.421875 24.3125 -1.421875 
Q 15.921875 -1.421875 10.953125 3.296875 
Q 6 8.015625 6 15.921875 
Q 6 25.140625 12.171875 29.828125 
Q 18.359375 34.515625 30.609375 34.515625 
L 43.21875 34.515625 
L 43.21875 35.40625 
Q 43.21875 41.609375 39.140625 45 
Q 35.0625 48.390625 27.6875 48.390625 
Q 23 48.390625 18.546875 47.265625 
Q 14.109375 46.140625 10.015625 43.890625 
L 10.015625 52.203125 
Q 14.9375 54.109375 19.578125 55.046875 
Q 24.21875 56 28.609375 56 
Q 40.484375 56 46.34375 49.84375 
Q 52.203125 43.703125 52.203125 31.203125 
" id="BitstreamVeraSans-Roman-61"/>
      <path d="M 52 44.1875 
Q 55.375 50.25 60.0625 53.125 
Q 64.75 56 71.09375 56 
Q 79.640625 56 84.28125 50.015625 
Q 88.921875 44.046875 88.921875 33.015625 
L 88.921875 0 
L 79.890625 0 
L 79.890625 32.71875 
Q 79.890625 40.578125 77.09375 44.375 
Q 74.3125 48.1875 68.609375 48.1875 
Q 61.625 48.1875 57.5625 43.546875 
Q 53.515625 38.921875 53.515625 30.90625 
L 53.515625 0 
L 44.484375 0 
L 44.484375 32.71875 
Q 44.484375 40.625 41.703125 44.40625 
Q 38.921875 48.1875 33.109375 48.1875 
Q 26.21875 48.1875 22.15625 43.53125 
Q 18.109375 38.875 18.109375 30.90625 
L 18.109375 0 
L 9.078125 0 
L 9.078125 54.6875 
L 18.109375 54.6875 
L 18.109375 46.1875 
Q 21.1875 51.21875 25.484375 53.609375 
Q 29.78125 56 35.6875 56 
Q 41.65625 56 45.828125 52.96875 
Q 50 49.953125 52 44.1875 
" id="BitstreamVeraSans-Roman-6d"/>
      <path d="M 56.203125 29.59375 
L 56.203125 25.203125 
L 14.890625 25.203125 
Q 15.484375 15.921875 20.484375 11.0625 
Q 25.484375 6.203125 34.421875 6.203125 
Q 39.59375 6.203125 44.453125 7.46875 
Q 49.3125 8.734375 54.109375 11.28125 
L 54.109375 2.78125 
Q 49.265625 0.734375 44.1875 -0.34375 
Q 39.109375 -1.421875 33.890625 -1.421875 
Q 20.796875 -1.421875 13.15625 6.1875 
Q 5.515625 13.8125 5.515625 26.8125 
Q 5.515625 40.234375 12.765625 48.109375 
Q 20.015625 56 32.328125 56 
Q 43.359375 56 49.78125 48.890625 
Q 56.203125 41.796875 56.203125 29.59375 
M 47.21875 32.234375 
Q 47.125 39.59375 43.09375 43.984375 
Q 39.0625 48.390625 32.421875 48.390625 
Q 24.90625 48.390625 20.390625 44.140625 
Q 15.875 39.890625 15.1875 32.171875 
z
" id="BitstreamVeraSans-Roman-65"/>
      <path d="M 8.5 21.578125 
L 8.5 54.6875 
L 17.484375 54.6875 
L 17.484375 21.921875 
Q 17.484375 14.15625 20.5 10.265625 
Q 23.53125 6.390625 29.59375 6.390625 
Q 36.859375 6.390625 41.078125 11.03125 
Q 45.3125 15.671875 45.3125 23.6875 
L 45.3125 54.6875 
L 54.296875 54.6875 
L 54.296875 0 
L 45.3125 0 
L 45.3125 8.40625 
Q 42.046875 3.421875 37.71875 1 
Q 33.40625 -1.421875 27.6875 -1.421875 
Q 18.265625 -1.421875 13.375 4.4375 
Q 8.5 10.296875 8.5 21.578125 
" id="BitstreamVeraSans-Roman-75"/>
      <path d="M 9.421875 75.984375 
L 18.40625 75.984375 
L 18.40625 0 
L 9.421875 0 
z
" id="BitstreamVeraSans-Roman-6c"/>
      <path d="M 48.6875 27.296875 
Q 48.6875 37.203125 44.609375 42.84375 
Q 40.53125 48.484375 33.40625 48.484375 
Q 26.265625 48.484375 22.1875 42.84375 
Q 18.109375 37.203125 18.109375 27.296875 
Q 18.109375 17.390625 22.1875 11.75 
Q 26.265625 6.109375 33.40625 6.109375 
Q 40.53125 6.109375 44.609375 11.75 
Q 48.6875 17.390625 48.6875 27.296875 
M 18.109375 46.390625 
Q 20.953125 51.265625 25.265625 53.625 
Q 29.59375 56 35.59375 56 
Q 45.5625 56 51.78125 48.09375 
Q 58.015625 40.1875 58.015625 27.296875 
Q 58.015625 14.40625 51.78125 6.484375 
Q 45.5625 -1.421875 35.59375 -1.421875 
Q 29.59375 -1.421875 25.265625 0.953125 
Q 20.953125 3.328125 18.109375 8.203125 
L 18.109375 0 
L 9.078125 0 
L 9.078125 75.984375 
L 18.109375 75.984375 
z
" id="BitstreamVeraSans-Roman-62"/>
     </defs>
     <g transform="translate(246.691875 418.531875)scale(0.12 -0.12)">
      <use xlink:href="#BitstreamVeraSans-Roman-53"/>
      <use x="63.4765625" xlink:href="#BitstreamVeraSans-Roman-61"/>
      <use x="124.755859375" xlink:href="#BitstreamVeraSans-Roman-6d"/>
      <use x="222.16796875" xlink:href="#BitstreamVeraSans-Roman-70"/>
      <use x="285.64453125" xlink:href="#BitstreamVeraSans-Roman-6c"/>
      <use x="313.427734375" xlink:href="#BitstreamVeraSans-Roman-65"/>
      <use x="374.951171875" xlink:href="#BitstreamVeraSans-Roman-20"/>
      <use x="406.73828125" xlink:href="#BitstreamVeraSans-Roman-4e"/>
      <use x="481.54296875" xlink:href="#BitstreamVeraSans-Roman-75"/>
      <use x="544.921875" xlink:href="#BitstreamVeraSans-Roman-6d"/>
      <use x="642.333984375" xlink:href="#BitstreamVeraSans-Roman-62"/>
      <use x="705.810546875" xlink:href="#BitstreamVeraSans-Roman-65"/>
      <use x="767.333984375" xlink:href="#BitstreamVeraSans-Roman-72"/>
     </g>
    </g>
   </g>
   <g id="matplotlib.axis_2">
    <g id="ytick_1">
     <g id="line2d_16">
      <defs>
       <path d="M 0 0 
L 4 0 
" id="mfef3fd253d" style="stroke:#000000;stroke-width:0.5;"/>
      </defs>
      <g>
       <use style="stroke:#000000;stroke-width:0.5;" x="72.0" xlink:href="#mfef3fd253d" y="388.8"/>
      </g>
     </g>
     <g id="line2d_17">
      <defs>
       <path d="M 0 0 
L -4 0 
" id="md07c94c9fe" style="stroke:#000000;stroke-width:0.5;"/>
      </defs>
      <g>
       <use style="stroke:#000000;stroke-width:0.5;" x="518.4" xlink:href="#md07c94c9fe" y="388.8"/>
      </g>
     </g>
     <g id="text_8">
      <!-- −2.5 -->
      <defs>
       <path d="M 10.6875 12.40625 
L 21 12.40625 
L 21 0 
L 10.6875 0 
z
" id="BitstreamVeraSans-Roman-2e"/>
       <path d="M 10.59375 35.5 
L 73.1875 35.5 
L 73.1875 27.203125 
L 10.59375 27.203125 
z
" id="BitstreamVeraSans-Roman-2212"/>
       <path d="M 10.796875 72.90625 
L 49.515625 72.90625 
L 49.515625 64.59375 
L 19.828125 64.59375 
L 19.828125 46.734375 
Q 21.96875 47.46875 24.109375 47.828125 
Q 26.265625 48.1875 28.421875 48.1875 
Q 40.625 48.1875 47.75 41.5 
Q 54.890625 34.8125 54.890625 23.390625 
Q 54.890625 11.625 47.5625 5.09375 
Q 40.234375 -1.421875 26.90625 -1.421875 
Q 22.3125 -1.421875 17.546875 -0.640625 
Q 12.796875 0.140625 7.71875 1.703125 
L 7.71875 11.625 
Q 12.109375 9.234375 16.796875 8.0625 
Q 21.484375 6.890625 26.703125 6.890625 
Q 35.15625 6.890625 40.078125 11.328125 
Q 45.015625 15.765625 45.015625 23.390625 
Q 45.015625 31 40.078125 35.4375 
Q 35.15625 39.890625 26.703125 39.890625 
Q 22.75 39.890625 18.8125 39.015625 
Q 14.890625 38.140625 10.796875 36.28125 
z
" id="BitstreamVeraSans-Roman-35"/>
      </defs>
      <g transform="translate(38.860625 392.11125)scale(0.12 -0.12)">
       <use xlink:href="#BitstreamVeraSans-Roman-2212"/>
       <use x="83.7890625" xlink:href="#BitstreamVeraSans-Roman-32"/>
       <use x="147.412109375" xlink:href="#BitstreamVeraSans-Roman-2e"/>
       <use x="179.19921875" xlink:href="#BitstreamVeraSans-Roman-35"/>
      </g>
     </g>
    </g>
    <g id="ytick_2">
     <g id="line2d_18">
      <g>
       <use style="stroke:#000000;stroke-width:0.5;" x="72.0" xlink:href="#mfef3fd253d" y="345.6"/>
      </g>
     </g>
     <g id="line2d_19">
      <g>
       <use style="stroke:#000000;stroke-width:0.5;" x="518.4" xlink:href="#md07c94c9fe" y="345.6"/>
      </g>
     </g>
     <g id="text_9">
      <!-- −2.0 -->
      <g transform="translate(38.860625 348.91125)scale(0.12 -0.12)">
       <use xlink:href="#BitstreamVeraSans-Roman-2212"/>
       <use x="83.7890625" xlink:href="#BitstreamVeraSans-Roman-32"/>
       <use x="147.412109375" xlink:href="#BitstreamVeraSans-Roman-2e"/>
       <use x="179.19921875" xlink:href="#BitstreamVeraSans-Roman-30"/>
      </g>
     </g>
    </g>
    <g id="ytick_3">
     <g id="line2d_20">
      <g>
       <use style="stroke:#000000;stroke-width:0.5;" x="72.0" xlink:href="#mfef3fd253d" y="302.4"/>
      </g>
     </g>
     <g id="line2d_21">
      <g>
       <use style="stroke:#000000;stroke-width:0.5;" x="518.4" xlink:href="#md07c94c9fe" y="302.4"/>
      </g>
     </g>
     <g id="text_10">
      <!-- −1.5 -->
      <g transform="translate(38.860625 305.71125)scale(0.12 -0.12)">
       <use xlink:href="#BitstreamVeraSans-Roman-2212"/>
       <use x="83.7890625" xlink:href="#BitstreamVeraSans-Roman-31"/>
       <use x="147.412109375" xlink:href="#BitstreamVeraSans-Roman-2e"/>
       <use x="179.19921875" xlink:href="#BitstreamVeraSans-Roman-35"/>
      </g>
     </g>
    </g>
    <g id="ytick_4">
     <g id="line2d_22">
      <g>
       <use style="stroke:#000000;stroke-width:0.5;" x="72.0" xlink:href="#mfef3fd253d" y="259.2"/>
      </g>
     </g>
     <g id="line2d_23">
      <g>
       <use style="stroke:#000000;stroke-width:0.5;" x="518.4" xlink:href="#md07c94c9fe" y="259.2"/>
      </g>
     </g>
     <g id="text_11">
      <!-- −1.0 -->
      <g transform="translate(38.860625 262.51125)scale(0.12 -0.12)">
       <use xlink:href="#BitstreamVeraSans-Roman-2212"/>
       <use x="83.7890625" xlink:href="#BitstreamVeraSans-Roman-31"/>
       <use x="147.412109375" xlink:href="#BitstreamVeraSans-Roman-2e"/>
       <use x="179.19921875" xlink:href="#BitstreamVeraSans-Roman-30"/>
      </g>
     </g>
    </g>
    <g id="ytick_5">
     <g id="line2d_24">
      <g>
       <use style="stroke:#000000;stroke-width:0.5;" x="72.0" xlink:href="#mfef3fd253d" y="216.0"/>
      </g>
     </g>
     <g id="line2d_25">
      <g>
       <use style="stroke:#000000;stroke-width:0.5;" x="518.4" xlink:href="#md07c94c9fe" y="216.0"/>
      </g>
     </g>
     <g id="text_12">
      <!-- −0.5 -->
      <g transform="translate(38.860625 219.31125)scale(0.12 -0.12)">
       <use xlink:href="#BitstreamVeraSans-Roman-2212"/>
       <use x="83.7890625" xlink:href="#BitstreamVeraSans-Roman-30"/>
       <use x="147.412109375" xlink:href="#BitstreamVeraSans-Roman-2e"/>
       <use x="179.19921875" xlink:href="#BitstreamVeraSans-Roman-35"/>
      </g>
     </g>
    </g>
    <g id="ytick_6">
     <g id="line2d_26">
      <g>
       <use style="stroke:#000000;stroke-width:0.5;" x="72.0" xlink:href="#mfef3fd253d" y="172.8"/>
      </g>
     </g>
     <g id="line2d_27">
      <g>
       <use style="stroke:#000000;stroke-width:0.5;" x="518.4" xlink:href="#md07c94c9fe" y="172.8"/>
      </g>
     </g>
     <g id="text_13">
      <!-- 0.0 -->
      <g transform="translate(48.91625 176.11125)scale(0.12 -0.12)">
       <use xlink:href="#BitstreamVeraSans-Roman-30"/>
       <use x="63.623046875" xlink:href="#BitstreamVeraSans-Roman-2e"/>
       <use x="95.41015625" xlink:href="#BitstreamVeraSans-Roman-30"/>
      </g>
     </g>
    </g>
    <g id="ytick_7">
     <g id="line2d_28">
      <g>
       <use style="stroke:#000000;stroke-width:0.5;" x="72.0" xlink:href="#mfef3fd253d" y="129.6"/>
      </g>
     </g>
     <g id="line2d_29">
      <g>
       <use style="stroke:#000000;stroke-width:0.5;" x="518.4" xlink:href="#md07c94c9fe" y="129.6"/>
      </g>
     </g>
     <g id="text_14">
      <!-- 0.5 -->
      <g transform="translate(48.91625 132.91125)scale(0.12 -0.12)">
       <use xlink:href="#BitstreamVeraSans-Roman-30"/>
       <use x="63.623046875" xlink:href="#BitstreamVeraSans-Roman-2e"/>
       <use x="95.41015625" xlink:href="#BitstreamVeraSans-Roman-35"/>
      </g>
     </g>
    </g>
    <g id="ytick_8">
     <g id="line2d_30">
      <g>
       <use style="stroke:#000000;stroke-width:0.5;" x="72.0" xlink:href="#mfef3fd253d" y="86.4"/>
      </g>
     </g>
     <g id="line2d_31">
      <g>
       <use style="stroke:#000000;stroke-width:0.5;" x="518.4" xlink:href="#md07c94c9fe" y="86.4"/>
      </g>
     </g>
     <g id="text_15">
      <!-- 1.0 -->
      <g transform="translate(48.91625 89.71125)scale(0.12 -0.12)">
       <use xlink:href="#BitstreamVeraSans-Roman-31"/>
       <use x="63.623046875" xlink:href="#BitstreamVeraSans-Roman-2e"/>
       <use x="95.41015625" xlink:href="#BitstreamVeraSans-Roman-30"/>
      </g>
     </g>
    </g>
    <g id="ytick_9">
     <g id="line2d_32">
      <g>
       <use style="stroke:#000000;stroke-width:0.5;" x="72.0" xlink:href="#mfef3fd253d" y="43.2"/>
      </g>
     </g>
     <g id="line2d_33">
      <g>
       <use style="stroke:#000000;stroke-width:0.5;" x="518.4" xlink:href="#md07c94c9fe" y="43.2"/>
      </g>
     </g>
     <g id="text_16">
      <!-- 1.5 -->
      <g transform="translate(48.91625 46.51125)scale(0.12 -0.12)">
       <use xlink:href="#BitstreamVeraSans-Roman-31"/>
       <use x="63.623046875" xlink:href="#BitstreamVeraSans-Roman-2e"/>
       <use x="95.41015625" xlink:href="#BitstreamVeraSans-Roman-35"/>
      </g>
     </g>
    </g>
    <g id="text_17">
     <!-- Running Means -->
     <defs>
      <path d="M 9.8125 72.90625 
L 24.515625 72.90625 
L 43.109375 23.296875 
L 61.8125 72.90625 
L 76.515625 72.90625 
L 76.515625 0 
L 66.890625 0 
L 66.890625 64.015625 
L 48.09375 14.015625 
L 38.1875 14.015625 
L 19.390625 64.015625 
L 19.390625 0 
L 9.8125 0 
z
" id="BitstreamVeraSans-Roman-4d"/>
      <path d="M 44.28125 53.078125 
L 44.28125 44.578125 
Q 40.484375 46.53125 36.375 47.5 
Q 32.28125 48.484375 27.875 48.484375 
Q 21.1875 48.484375 17.84375 46.4375 
Q 14.5 44.390625 14.5 40.28125 
Q 14.5 37.15625 16.890625 35.375 
Q 19.28125 33.59375 26.515625 31.984375 
L 29.59375 31.296875 
Q 39.15625 29.25 43.1875 25.515625 
Q 47.21875 21.78125 47.21875 15.09375 
Q 47.21875 7.46875 41.1875 3.015625 
Q 35.15625 -1.421875 24.609375 -1.421875 
Q 20.21875 -1.421875 15.453125 -0.5625 
Q 10.6875 0.296875 5.421875 2 
L 5.421875 11.28125 
Q 10.40625 8.6875 15.234375 7.390625 
Q 20.0625 6.109375 24.8125 6.109375 
Q 31.15625 6.109375 34.5625 8.28125 
Q 37.984375 10.453125 37.984375 14.40625 
Q 37.984375 18.0625 35.515625 20.015625 
Q 33.0625 21.96875 24.703125 23.78125 
L 21.578125 24.515625 
Q 13.234375 26.265625 9.515625 29.90625 
Q 5.8125 33.546875 5.8125 39.890625 
Q 5.8125 47.609375 11.28125 51.796875 
Q 16.75 56 26.8125 56 
Q 31.78125 56 36.171875 55.265625 
Q 40.578125 54.546875 44.28125 53.078125 
" id="BitstreamVeraSans-Roman-73"/>
      <path d="M 54.890625 33.015625 
L 54.890625 0 
L 45.90625 0 
L 45.90625 32.71875 
Q 45.90625 40.484375 42.875 44.328125 
Q 39.84375 48.1875 33.796875 48.1875 
Q 26.515625 48.1875 22.3125 43.546875 
Q 18.109375 38.921875 18.109375 30.90625 
L 18.109375 0 
L 9.078125 0 
L 9.078125 54.6875 
L 18.109375 54.6875 
L 18.109375 46.1875 
Q 21.34375 51.125 25.703125 53.5625 
Q 30.078125 56 35.796875 56 
Q 45.21875 56 50.046875 50.171875 
Q 54.890625 44.34375 54.890625 33.015625 
" id="BitstreamVeraSans-Roman-6e"/>
      <path d="M 45.40625 27.984375 
Q 45.40625 37.75 41.375 43.109375 
Q 37.359375 48.484375 30.078125 48.484375 
Q 22.859375 48.484375 18.828125 43.109375 
Q 14.796875 37.75 14.796875 27.984375 
Q 14.796875 18.265625 18.828125 12.890625 
Q 22.859375 7.515625 30.078125 7.515625 
Q 37.359375 7.515625 41.375 12.890625 
Q 45.40625 18.265625 45.40625 27.984375 
M 54.390625 6.78125 
Q 54.390625 -7.171875 48.1875 -13.984375 
Q 42 -20.796875 29.203125 -20.796875 
Q 24.46875 -20.796875 20.265625 -20.09375 
Q 16.0625 -19.390625 12.109375 -17.921875 
L 12.109375 -9.1875 
Q 16.0625 -11.328125 19.921875 -12.34375 
Q 23.78125 -13.375 27.78125 -13.375 
Q 36.625 -13.375 41.015625 -8.765625 
Q 45.40625 -4.15625 45.40625 5.171875 
L 45.40625 9.625 
Q 42.625 4.78125 38.28125 2.390625 
Q 33.9375 0 27.875 0 
Q 17.828125 0 11.671875 7.65625 
Q 5.515625 15.328125 5.515625 27.984375 
Q 5.515625 40.671875 11.671875 48.328125 
Q 17.828125 56 27.875 56 
Q 33.9375 56 38.28125 53.609375 
Q 42.625 51.21875 45.40625 46.390625 
L 45.40625 54.6875 
L 54.390625 54.6875 
z
" id="BitstreamVeraSans-Roman-67"/>
      <path d="M 9.421875 54.6875 
L 18.40625 54.6875 
L 18.40625 0 
L 9.421875 0 
z
M 9.421875 75.984375 
L 18.40625 75.984375 
L 18.40625 64.59375 
L 9.421875 64.59375 
z
" id="BitstreamVeraSans-Roman-69"/>
      <path d="M 44.390625 34.1875 
Q 47.5625 33.109375 50.5625 29.59375 
Q 53.5625 26.078125 56.59375 19.921875 
L 66.609375 0 
L 56 0 
L 46.6875 18.703125 
Q 43.0625 26.03125 39.671875 28.421875 
Q 36.28125 30.8125 30.421875 30.8125 
L 19.671875 30.8125 
L 19.671875 0 
L 9.8125 0 
L 9.8125 72.90625 
L 32.078125 72.90625 
Q 44.578125 72.90625 50.734375 67.671875 
Q 56.890625 62.453125 56.890625 51.90625 
Q 56.890625 45.015625 53.6875 40.46875 
Q 50.484375 35.9375 44.390625 34.1875 
M 19.671875 64.796875 
L 19.671875 38.921875 
L 32.078125 38.921875 
Q 39.203125 38.921875 42.84375 42.21875 
Q 46.484375 45.515625 46.484375 51.90625 
Q 46.484375 58.296875 42.84375 61.546875 
Q 39.203125 64.796875 32.078125 64.796875 
z
" id="BitstreamVeraSans-Roman-52"/>
     </defs>
     <g transform="translate(31.365 262.231875)rotate(-90.0)scale(0.12 -0.12)">
      <use xlink:href="#BitstreamVeraSans-Roman-52"/>
      <use x="69.419921875" xlink:href="#BitstreamVeraSans-Roman-75"/>
      <use x="132.798828125" xlink:href="#BitstreamVeraSans-Roman-6e"/>
      <use x="196.177734375" xlink:href="#BitstreamVeraSans-Roman-6e"/>
      <use x="259.556640625" xlink:href="#BitstreamVeraSans-Roman-69"/>
      <use x="287.33984375" xlink:href="#BitstreamVeraSans-Roman-6e"/>
      <use x="350.71875" xlink:href="#BitstreamVeraSans-Roman-67"/>
      <use x="414.1953125" xlink:href="#BitstreamVeraSans-Roman-20"/>
      <use x="445.982421875" xlink:href="#BitstreamVeraSans-Roman-4d"/>
      <use x="532.26171875" xlink:href="#BitstreamVeraSans-Roman-65"/>
      <use x="593.78515625" xlink:href="#BitstreamVeraSans-Roman-61"/>
      <use x="655.064453125" xlink:href="#BitstreamVeraSans-Roman-6e"/>
      <use x="718.443359375" xlink:href="#BitstreamVeraSans-Roman-73"/>
     </g>
    </g>
   </g>
   <g id="text_18">
    <!-- Running Means vs Sample Number -->
    <defs>
     <path d="M 2.984375 54.6875 
L 12.5 54.6875 
L 29.59375 8.796875 
L 46.6875 54.6875 
L 56.203125 54.6875 
L 35.6875 0 
L 23.484375 0 
z
" id="BitstreamVeraSans-Roman-76"/>
    </defs>
    <g transform="translate(168.92325 38.2)scale(0.144 -0.144)">
     <use xlink:href="#BitstreamVeraSans-Roman-52"/>
     <use x="69.419921875" xlink:href="#BitstreamVeraSans-Roman-75"/>
     <use x="132.798828125" xlink:href="#BitstreamVeraSans-Roman-6e"/>
     <use x="196.177734375" xlink:href="#BitstreamVeraSans-Roman-6e"/>
     <use x="259.556640625" xlink:href="#BitstreamVeraSans-Roman-69"/>
     <use x="287.33984375" xlink:href="#BitstreamVeraSans-Roman-6e"/>
     <use x="350.71875" xlink:href="#BitstreamVeraSans-Roman-67"/>
     <use x="414.1953125" xlink:href="#BitstreamVeraSans-Roman-20"/>
     <use x="445.982421875" xlink:href="#BitstreamVeraSans-Roman-4d"/>
     <use x="532.26171875" xlink:href="#BitstreamVeraSans-Roman-65"/>
     <use x="593.78515625" xlink:href="#BitstreamVeraSans-Roman-61"/>
     <use x="655.064453125" xlink:href="#BitstreamVeraSans-Roman-6e"/>
     <use x="718.443359375" xlink:href="#BitstreamVeraSans-Roman-73"/>
     <use x="770.54296875" xlink:href="#BitstreamVeraSans-Roman-20"/>
     <use x="802.330078125" xlink:href="#BitstreamVeraSans-Roman-76"/>
     <use x="861.509765625" xlink:href="#BitstreamVeraSans-Roman-73"/>
     <use x="913.609375" xlink:href="#BitstreamVeraSans-Roman-20"/>
     <use x="945.396484375" xlink:href="#BitstreamVeraSans-Roman-53"/>
     <use x="1008.873046875" xlink:href="#BitstreamVeraSans-Roman-61"/>
     <use x="1070.15234375" xlink:href="#BitstreamVeraSans-Roman-6d"/>
     <use x="1167.564453125" xlink:href="#BitstreamVeraSans-Roman-70"/>
     <use x="1231.041015625" xlink:href="#BitstreamVeraSans-Roman-6c"/>
     <use x="1258.82421875" xlink:href="#BitstreamVeraSans-Roman-65"/>
     <use x="1320.34765625" xlink:href="#BitstreamVeraSans-Roman-20"/>
     <use x="1352.134765625" xlink:href="#BitstreamVeraSans-Roman-4e"/>
     <use x="1426.939453125" xlink:href="#BitstreamVeraSans-Roman-75"/>
     <use x="1490.318359375" xlink:href="#BitstreamVeraSans-Roman-6d"/>
     <use x="1587.73046875" xlink:href="#BitstreamVeraSans-Roman-62"/>
     <use x="1651.20703125" xlink:href="#BitstreamVeraSans-Roman-65"/>
     <use x="1712.73046875" xlink:href="#BitstreamVeraSans-Roman-72"/>
    </g>
   </g>
   <g id="legend_1">
    <g id="patch_7">
     <path d="M 295.2 371.52 
L 504.3915 371.52 
L 504.3915 303.7905 
L 295.2 303.7905 
z
" style="fill:#ffffff;stroke:#000000;stroke-linejoin:miter;"/>
    </g>
    <g id="line2d_34">
     <path d="M 305.28 315.45225 
L 325.44 315.45225 
" style="fill:none;stroke:#0000ff;stroke-linecap:square;"/>
    </g>
    <g id="line2d_35"/>
    <g id="text_19">
     <!-- Dependent Samples -->
     <defs>
      <path d="M 18.3125 70.21875 
L 18.3125 54.6875 
L 36.8125 54.6875 
L 36.8125 47.703125 
L 18.3125 47.703125 
L 18.3125 18.015625 
Q 18.3125 11.328125 20.140625 9.421875 
Q 21.96875 7.515625 27.59375 7.515625 
L 36.8125 7.515625 
L 36.8125 0 
L 27.59375 0 
Q 17.1875 0 13.234375 3.875 
Q 9.28125 7.765625 9.28125 18.015625 
L 9.28125 47.703125 
L 2.6875 47.703125 
L 2.6875 54.6875 
L 9.28125 54.6875 
L 9.28125 70.21875 
z
" id="BitstreamVeraSans-Roman-74"/>
      <path d="M 45.40625 46.390625 
L 45.40625 75.984375 
L 54.390625 75.984375 
L 54.390625 0 
L 45.40625 0 
L 45.40625 8.203125 
Q 42.578125 3.328125 38.25 0.953125 
Q 33.9375 -1.421875 27.875 -1.421875 
Q 17.96875 -1.421875 11.734375 6.484375 
Q 5.515625 14.40625 5.515625 27.296875 
Q 5.515625 40.1875 11.734375 48.09375 
Q 17.96875 56 27.875 56 
Q 33.9375 56 38.25 53.625 
Q 42.578125 51.265625 45.40625 46.390625 
M 14.796875 27.296875 
Q 14.796875 17.390625 18.875 11.75 
Q 22.953125 6.109375 30.078125 6.109375 
Q 37.203125 6.109375 41.296875 11.75 
Q 45.40625 17.390625 45.40625 27.296875 
Q 45.40625 37.203125 41.296875 42.84375 
Q 37.203125 48.484375 30.078125 48.484375 
Q 22.953125 48.484375 18.875 42.84375 
Q 14.796875 37.203125 14.796875 27.296875 
" id="BitstreamVeraSans-Roman-64"/>
      <path d="M 19.671875 64.796875 
L 19.671875 8.109375 
L 31.59375 8.109375 
Q 46.6875 8.109375 53.6875 14.9375 
Q 60.6875 21.78125 60.6875 36.53125 
Q 60.6875 51.171875 53.6875 57.984375 
Q 46.6875 64.796875 31.59375 64.796875 
z
M 9.8125 72.90625 
L 30.078125 72.90625 
Q 51.265625 72.90625 61.171875 64.09375 
Q 71.09375 55.28125 71.09375 36.53125 
Q 71.09375 17.671875 61.125 8.828125 
Q 51.171875 0 30.078125 0 
L 9.8125 0 
z
" id="BitstreamVeraSans-Roman-44"/>
     </defs>
     <g transform="translate(341.28 320.49225)scale(0.144 -0.144)">
      <use xlink:href="#BitstreamVeraSans-Roman-44"/>
      <use x="77.001953125" xlink:href="#BitstreamVeraSans-Roman-65"/>
      <use x="138.525390625" xlink:href="#BitstreamVeraSans-Roman-70"/>
      <use x="202.001953125" xlink:href="#BitstreamVeraSans-Roman-65"/>
      <use x="263.525390625" xlink:href="#BitstreamVeraSans-Roman-6e"/>
      <use x="326.904296875" xlink:href="#BitstreamVeraSans-Roman-64"/>
      <use x="390.380859375" xlink:href="#BitstreamVeraSans-Roman-65"/>
      <use x="451.904296875" xlink:href="#BitstreamVeraSans-Roman-6e"/>
      <use x="515.283203125" xlink:href="#BitstreamVeraSans-Roman-74"/>
      <use x="554.4921875" xlink:href="#BitstreamVeraSans-Roman-20"/>
      <use x="586.279296875" xlink:href="#BitstreamVeraSans-Roman-53"/>
      <use x="649.755859375" xlink:href="#BitstreamVeraSans-Roman-61"/>
      <use x="711.03515625" xlink:href="#BitstreamVeraSans-Roman-6d"/>
      <use x="808.447265625" xlink:href="#BitstreamVeraSans-Roman-70"/>
      <use x="871.923828125" xlink:href="#BitstreamVeraSans-Roman-6c"/>
      <use x="899.70703125" xlink:href="#BitstreamVeraSans-Roman-65"/>
      <use x="961.23046875" xlink:href="#BitstreamVeraSans-Roman-73"/>
     </g>
    </g>
    <g id="line2d_36">
     <path d="M 305.28 336.58875 
L 325.44 336.58875 
" style="fill:none;stroke:#008000;stroke-linecap:square;"/>
    </g>
    <g id="line2d_37"/>
    <g id="text_20">
     <!-- Independent Samples -->
     <defs>
      <path d="M 9.8125 72.90625 
L 19.671875 72.90625 
L 19.671875 0 
L 9.8125 0 
z
" id="BitstreamVeraSans-Roman-49"/>
     </defs>
     <g transform="translate(341.28 341.62875)scale(0.144 -0.144)">
      <use xlink:href="#BitstreamVeraSans-Roman-49"/>
      <use x="29.4921875" xlink:href="#BitstreamVeraSans-Roman-6e"/>
      <use x="92.87109375" xlink:href="#BitstreamVeraSans-Roman-64"/>
      <use x="156.34765625" xlink:href="#BitstreamVeraSans-Roman-65"/>
      <use x="217.87109375" xlink:href="#BitstreamVeraSans-Roman-70"/>
      <use x="281.34765625" xlink:href="#BitstreamVeraSans-Roman-65"/>
      <use x="342.87109375" xlink:href="#BitstreamVeraSans-Roman-6e"/>
      <use x="406.25" xlink:href="#BitstreamVeraSans-Roman-64"/>
      <use x="469.7265625" xlink:href="#BitstreamVeraSans-Roman-65"/>
      <use x="531.25" xlink:href="#BitstreamVeraSans-Roman-6e"/>
      <use x="594.62890625" xlink:href="#BitstreamVeraSans-Roman-74"/>
      <use x="633.837890625" xlink:href="#BitstreamVeraSans-Roman-20"/>
      <use x="665.625" xlink:href="#BitstreamVeraSans-Roman-53"/>
      <use x="729.1015625" xlink:href="#BitstreamVeraSans-Roman-61"/>
      <use x="790.380859375" xlink:href="#BitstreamVeraSans-Roman-6d"/>
      <use x="887.79296875" xlink:href="#BitstreamVeraSans-Roman-70"/>
      <use x="951.26953125" xlink:href="#BitstreamVeraSans-Roman-6c"/>
      <use x="979.052734375" xlink:href="#BitstreamVeraSans-Roman-65"/>
      <use x="1040.576171875" xlink:href="#BitstreamVeraSans-Roman-73"/>
     </g>
    </g>
    <g id="line2d_38">
     <path d="M 305.28 357.72525 
L 325.44 357.72525 
" style="fill:none;stroke:#ff0000;stroke-linecap:square;"/>
    </g>
    <g id="line2d_39"/>
    <g id="text_21">
     <!-- True Value -->
     <defs>
      <path d="M 28.609375 0 
L 0.78125 72.90625 
L 11.078125 72.90625 
L 34.1875 11.53125 
L 57.328125 72.90625 
L 67.578125 72.90625 
L 39.796875 0 
z
" id="BitstreamVeraSans-Roman-56"/>
      <path d="M -0.296875 72.90625 
L 61.375 72.90625 
L 61.375 64.59375 
L 35.5 64.59375 
L 35.5 0 
L 25.59375 0 
L 25.59375 64.59375 
L -0.296875 64.59375 
z
" id="BitstreamVeraSans-Roman-54"/>
     </defs>
     <g transform="translate(341.28 362.76525)scale(0.144 -0.144)">
      <use xlink:href="#BitstreamVeraSans-Roman-54"/>
      <use x="60.865234375" xlink:href="#BitstreamVeraSans-Roman-72"/>
      <use x="101.978515625" xlink:href="#BitstreamVeraSans-Roman-75"/>
      <use x="165.357421875" xlink:href="#BitstreamVeraSans-Roman-65"/>
      <use x="226.880859375" xlink:href="#BitstreamVeraSans-Roman-20"/>
      <use x="258.66796875" xlink:href="#BitstreamVeraSans-Roman-56"/>
      <use x="326.966796875" xlink:href="#BitstreamVeraSans-Roman-61"/>
      <use x="388.24609375" xlink:href="#BitstreamVeraSans-Roman-6c"/>
      <use x="416.029296875" xlink:href="#BitstreamVeraSans-Roman-75"/>
      <use x="479.408203125" xlink:href="#BitstreamVeraSans-Roman-65"/>
     </g>
    </g>
   </g>
  </g>
 </g>
 <defs>
  <clipPath id="p0dbb688484">
   <rect height="345.6" width="446.4" x="72.0" y="43.2"/>
  </clipPath>
 </defs>
</svg>
