<?xml version="1.0" encoding="utf-8" standalone="no"?>
<!DOCTYPE svg PUBLIC "-//W3C//DTD SVG 1.1//EN"
  "http://www.w3.org/Graphics/SVG/1.1/DTD/svg11.dtd">
<!-- Created with matplotlib (http://matplotlib.org/) -->
<svg height="432pt" version="1.1" viewBox="0 0 576 432" width="576pt" xmlns="http://www.w3.org/2000/svg" xmlns:xlink="http://www.w3.org/1999/xlink">
 <defs>
  <style type="text/css">
*{stroke-linecap:butt;stroke-linejoin:round;stroke-miterlimit:100000;}
  </style>
 </defs>
 <g id="figure_1">
  <g id="patch_1">
   <path d="M 0 432 
L 576 432 
L 576 0 
L 0 0 
z
" style="fill:#ffffff;"/>
  </g>
  <g id="axes_1">
   <g id="patch_2">
    <path d="M 72 388.8 
L 518.4 388.8 
L 518.4 43.2 
L 72 43.2 
z
" style="fill:#ffffff;"/>
   </g>
   <g id="line2d_1">
    <path clip-path="url(#p5cd354462c)" d="M 72 388.8 
L 72.4464 372.001139 
L 72.8928 376.716102 
L 73.3392 379.40533 
L 73.7856 381.125025 
L 74.232 382.315722 
L 74.6784 383.187885 
L 75.1248 355.701494 
L 75.5712 309.835752 
L 76.0176 282.060961 
L 76.464 275.769747 
L 76.9104 272.970713 
L 77.3568 281.753431 
L 77.8032 273.561994 
L 78.2496 268.433652 
L 79.1424 279.23517 
L 79.5888 268.764574 
L 80.0352 261.047312 
L 80.928 271.699016 
L 81.3744 274.310922 
L 82.2672 282.237581 
L 82.7136 283.418034 
L 84.0528 288.694607 
L 84.4992 285.876631 
L 84.9456 289.060855 
L 85.392 285.53903 
L 85.8384 279.310705 
L 86.2848 282.62843 
L 88.5168 293.682712 
L 88.9632 295.483885 
L 89.856 299.520654 
L 91.1952 304.90259 
L 91.6416 304.0552 
L 92.5344 307.552139 
L 94.32 310.491007 
L 94.7664 311.606626 
L 95.2128 311.969613 
L 96.1056 314.433431 
L 96.9984 309.715683 
L 98.3376 313.553012 
L 99.2304 315.874672 
L 101.016 311.89662 
L 102.3552 311.944148 
L 103.248 313.624194 
L 103.6944 312.274845 
L 104.5872 313.735173 
L 105.0336 314.242575 
L 105.48 313.454583 
L 106.8192 309.392519 
L 107.2656 308.220145 
L 107.712 308.867649 
L 109.0512 311.722375 
L 109.944 307.71314 
L 111.7296 279.751251 
L 113.0688 262.430822 
L 115.3008 237.45471 
L 116.1936 228.914862 
L 116.64 229.472632 
L 117.0864 228.432708 
L 118.4256 226.909162 
L 119.7648 220.537109 
L 121.104 206.881077 
L 121.5504 208.003465 
L 122.4432 208.302284 
L 122.8896 207.988829 
L 123.7824 205.008726 
L 125.1216 182.15831 
L 125.568 179.099441 
L 126.9072 174.811676 
L 127.3536 176.09546 
L 127.8 176.511541 
L 129.1392 173.475413 
L 129.5856 172.575656 
L 130.032 172.333556 
L 130.4784 169.927408 
L 130.9248 168.516221 
L 131.8176 170.147064 
L 132.7104 169.142503 
L 133.1568 170.083493 
L 133.6032 171.470106 
L 134.0496 171.330852 
L 134.9424 173.716624 
L 135.3888 173.806704 
L 137.6208 175.565222 
L 138.96 175.541477 
L 140.7456 175.761156 
L 141.192 175.856382 
L 142.0848 175.646229 
L 142.9776 178.00806 
L 143.8704 176.245096 
L 144.3168 176.397975 
L 145.656 176.206408 
L 146.1024 176.310913 
L 146.5488 175.791669 
L 147.4416 173.716451 
L 147.888 174.375288 
L 148.3344 171.465042 
L 148.7808 172.216031 
L 149.6736 174.288321 
L 150.5664 175.461051 
L 151.0128 176.245972 
L 151.4592 177.356202 
L 152.352 178.754055 
L 153.6912 175.562151 
L 154.1376 176.690737 
L 155.9232 175.287026 
L 156.816 177.273948 
L 157.7088 175.439725 
L 158.1552 174.37283 
L 158.6016 175.144551 
L 160.3872 173.306061 
L 161.28 172.504883 
L 161.7264 173.309147 
L 162.1728 173.653669 
L 162.6192 173.362416 
L 165.744 179.627045 
L 166.1904 179.487422 
L 167.976 181.853834 
L 169.7616 185.506942 
L 170.208 184.421163 
L 171.1008 184.10235 
L 171.9936 183.450201 
L 172.44 183.975185 
L 174.672 184.131891 
L 177.3504 184.804271 
L 177.7968 185.62181 
L 179.136 186.29977 
L 180.9216 187.738807 
L 181.8144 186.942059 
L 182.2608 186.687413 
L 183.6 187.446683 
L 184.4928 188.878261 
L 184.9392 188.950043 
L 185.3856 188.765335 
L 185.832 188.889127 
L 188.9568 192.164137 
L 189.4032 192.744487 
L 190.7424 192.282558 
L 191.6352 193.692627 
L 192.528 192.309942 
L 193.8672 194.045583 
L 194.3136 194.286829 
L 194.76 194.308611 
L 195.6528 192.581484 
L 197.4384 190.820113 
L 198.3312 190.764995 
L 198.7776 191.135933 
L 200.5632 191.453886 
L 201.456 189.191787 
L 203.688 185.168881 
L 204.1344 185.163987 
L 204.5808 185.844076 
L 205.0272 186.160578 
L 205.92 185.673027 
L 206.8128 183.41865 
L 207.2592 183.873144 
L 207.7056 183.836721 
L 208.152 181.832221 
L 209.0448 181.975054 
L 209.4912 182.103767 
L 210.384 180.372605 
L 210.8304 179.433401 
L 211.2768 179.201017 
L 211.7232 179.190971 
L 212.1696 179.812356 
L 215.2944 182.336314 
L 215.7408 180.768261 
L 216.1872 180.735397 
L 217.08 181.736339 
L 217.5264 181.863523 
L 217.9728 181.131169 
L 218.8656 181.957878 
L 220.6512 176.866901 
L 222.8832 171.648143 
L 224.2224 173.029363 
L 224.6688 173.466289 
L 225.1152 172.332808 
L 225.5616 171.938584 
L 229.1328 175.563951 
L 229.5792 174.83783 
L 230.0256 175.338754 
L 232.2576 176.586141 
L 233.1504 177.396426 
L 235.3824 179.089669 
L 235.8288 178.597908 
L 236.7216 178.933361 
L 237.168 178.13936 
L 238.0608 177.853492 
L 238.9536 178.473193 
L 239.4 177.738937 
L 240.2928 175.537255 
L 240.7392 174.940793 
L 242.5248 174.105634 
L 242.9712 174.664525 
L 245.2032 176.519199 
L 245.6496 176.986571 
L 246.096 176.717489 
L 246.5424 176.799296 
L 247.4352 175.236879 
L 250.1136 177.668682 
L 251.0064 177.941964 
L 251.4528 177.747123 
L 251.8992 177.994982 
L 252.792 178.954996 
L 253.2384 179.252388 
L 254.1312 176.948657 
L 254.5776 176.628083 
L 255.9168 176.882707 
L 258.1488 173.667279 
L 258.5952 173.552271 
L 259.0416 174.03329 
L 260.3808 174.659352 
L 261.2736 174.929254 
L 262.1664 172.403028 
L 263.0592 172.835485 
L 263.5056 171.76174 
L 263.952 171.724046 
L 265.2912 172.035043 
L 265.7376 172.489787 
L 266.184 172.504161 
L 267.5232 173.604402 
L 269.3088 174.604083 
L 270.2016 174.307779 
L 270.648 174.552662 
L 271.0944 174.598509 
L 272.88 175.546424 
L 275.112 176.776358 
L 275.5584 177.207049 
L 276.8976 177.476699 
L 278.2368 178.460349 
L 279.1296 179.223708 
L 280.0224 179.223708 
L 280.4688 178.90304 
L 280.9152 179.325209 
L 282.7008 179.212843 
L 283.1472 179.436021 
L 284.4864 178.736532 
L 284.9328 177.761038 
L 285.8256 177.667695 
L 287.1648 177.896189 
L 287.6112 178.239837 
L 288.0576 178.388525 
L 288.504 178.733037 
L 288.9504 178.761064 
L 290.2896 178.058543 
L 292.0752 178.227358 
L 292.968 178.818336 
L 293.4144 178.855891 
L 294.3072 179.278393 
L 294.7536 178.899023 
L 295.2 179.0564 
L 295.6464 178.755518 
L 296.0928 178.996833 
L 296.5392 178.856308 
L 296.9856 178.971086 
L 301.0032 181.818588 
L 302.3424 180.918309 
L 302.7888 180.583589 
L 303.2352 180.832211 
L 304.128 181.47535 
L 305.9136 182.493557 
L 306.8064 183.134151 
L 307.2528 183.291095 
L 307.6992 182.882057 
L 308.1456 182.966767 
L 308.592 182.456509 
L 312.1632 180.145572 
L 313.5024 179.684276 
L 314.3952 178.855528 
L 315.288 179.416368 
L 315.7344 179.265123 
L 316.1808 179.254354 
L 317.52 179.950301 
L 319.3056 180.863814 
L 319.752 181.210013 
L 321.984 181.615288 
L 322.4304 181.927752 
L 322.8768 181.8522 
L 323.3232 182.036135 
L 324.216 182.742381 
L 324.6624 182.644175 
L 325.1088 182.984337 
L 326.448 183.358741 
L 330.0192 184.284149 
L 330.4656 184.599082 
L 330.912 184.519686 
L 331.3584 184.789928 
L 333.144 185.120002 
L 333.5904 184.227956 
L 334.9296 184.116149 
L 336.7152 183.757829 
L 337.608 184.429793 
L 338.0544 184.421201 
L 340.7328 182.40525 
L 341.1792 182.4891 
L 342.072 181.701364 
L 343.8576 181.342725 
L 345.1968 182.218727 
L 345.6432 182.18413 
L 347.4288 182.884902 
L 347.8752 182.54371 
L 349.6608 182.603454 
L 350.1072 182.926646 
L 351 182.826392 
L 352.3392 183.659142 
L 353.232 183.187805 
L 354.1248 183.40273 
L 355.9104 183.260827 
L 356.3568 183.415706 
L 357.696 183.02668 
L 358.1424 182.55096 
L 358.5888 182.828112 
L 359.4816 183.028772 
L 360.8208 183.390948 
L 361.7136 183.523027 
L 363.4992 182.947118 
L 365.2848 179.591002 
L 367.0704 174.745667 
L 367.9632 173.275168 
L 368.4096 172.613914 
L 368.856 172.526285 
L 369.3024 172.146558 
L 370.6416 172.657304 
L 371.088 172.125587 
L 371.5344 172.347691 
L 371.9808 172.226335 
L 373.7664 173.293077 
L 374.2128 173.334707 
L 375.1056 173.864809 
L 375.9984 174.18912 
L 376.8912 174.662908 
L 377.784 175.135758 
L 378.6768 175.592178 
L 382.248 177.652859 
L 384.0336 178.229112 
L 384.9264 178.623487 
L 388.0512 174.599426 
L 388.4976 174.405375 
L 390.2832 175.263346 
L 391.176 175.319556 
L 391.6224 175.381022 
L 392.5152 175.945425 
L 392.9616 176.108917 
L 393.408 176.038899 
L 393.8544 176.1564 
L 394.7472 174.702097 
L 395.64 174.78414 
L 396.5328 175.322799 
L 396.9792 175.515179 
L 397.4256 175.182384 
L 397.872 175.108821 
L 398.7648 175.241416 
L 400.5504 176.171007 
L 401.4432 175.980797 
L 404.568 171.839061 
L 405.9072 170.46816 
L 407.2464 170.996539 
L 409.4784 172.061916 
L 411.264 172.801791 
L 414.3888 174.333685 
L 414.8352 174.182279 
L 415.728 174.164306 
L 417.5136 174.728261 
L 417.96 174.346569 
L 418.4064 174.244273 
L 419.7456 174.750109 
L 421.9776 173.956271 
L 425.1024 174.343992 
L 425.5488 174.597001 
L 429.12 175.339655 
L 429.5664 174.791837 
L 430.4592 175.118392 
L 430.9056 174.712761 
L 434.0304 173.424491 
L 437.1552 172.176128 
L 438.048 171.738771 
L 439.3872 172.370786 
L 439.8336 172.514317 
L 440.7264 172.289445 
L 441.6192 172.154841 
L 444.744 173.105592 
L 445.6368 173.043527 
L 446.0832 172.874148 
L 447.8688 173.1312 
L 448.7616 173.515942 
L 449.6544 173.875868 
L 450.5472 174.340677 
L 452.3328 173.615273 
L 453.2256 174.054783 
L 454.1184 174.144525 
L 455.4576 174.303858 
L 456.3504 174.784864 
L 456.7968 174.701895 
L 458.5824 175.292629 
L 460.368 175.307206 
L 462.1536 175.937958 
L 463.9392 176.704727 
L 465.2784 177.003349 
L 466.6176 176.075481 
L 468.4032 176.457805 
L 469.296 176.554766 
L 469.7424 176.7611 
L 470.6352 176.900832 
L 473.3136 177.997464 
L 474.2064 177.250711 
L 474.6528 177.265238 
L 475.5456 176.724629 
L 477.3312 177.357644 
L 479.1168 177.960413 
L 479.5632 178.170253 
L 481.3488 178.42061 
L 482.688 177.851334 
L 483.5808 176.918737 
L 484.0272 176.614388 
L 484.4736 176.828725 
L 484.92 176.838598 
L 490.2768 178.485592 
L 493.4016 178.518891 
L 495.1872 178.947512 
L 498.312 179.475835 
L 499.2048 179.524656 
L 500.9904 179.504281 
L 501.4368 179.71818 
L 501.8832 179.748524 
L 503.2224 179.288501 
L 503.6688 179.450522 
L 505.008 179.070822 
L 506.3472 179.081509 
L 507.24 178.332742 
L 509.0256 178.24508 
L 509.9184 176.89322 
L 511.2576 174.85905 
L 512.5968 173.571726 
L 513.4896 172.82977 
L 514.3824 172.991583 
L 516.168 173.196541 
L 516.6144 173.372097 
L 517.0608 172.987416 
L 517.9536 173.322616 
L 517.9536 173.322616 
" style="fill:none;stroke:#0000ff;stroke-linecap:square;"/>
   </g>
   <g id="line2d_2">
    <path clip-path="url(#p5cd354462c)" d="M 72 388.8 
L 72.4464 388.751861 
L 72.8928 138.745777 
L 73.3392 108.494654 
L 73.7856 116.224856 
L 74.232 147.50179 
L 74.6784 53.042605 
L 75.5712 114.893561 
L 76.0176 110.62805 
L 76.464 103.876641 
L 76.9104 118.779538 
L 77.3568 137.768226 
L 77.8032 120.088784 
L 78.2496 92.286304 
L 78.696 74.814397 
L 79.1424 92.970011 
L 80.0352 113.091906 
L 80.4816 102.063047 
L 80.928 115.708945 
L 81.3744 108.086787 
L 81.8208 113.175074 
L 82.2672 123.037405 
L 82.7136 124.794234 
L 83.16 118.552144 
L 83.6064 123.488173 
L 84.0528 126.460599 
L 84.4992 131.025424 
L 84.9456 131.197375 
L 85.392 131.815957 
L 85.8384 134.516685 
L 86.2848 135.717479 
L 86.7312 142.21088 
L 87.624 139.77118 
L 88.0704 128.968215 
L 88.5168 124.206818 
L 88.9632 127.702053 
L 89.4096 132.220016 
L 89.856 121.573351 
L 90.3024 122.977754 
L 90.7488 123.664726 
L 91.1952 124.787747 
L 91.6416 124.62582 
L 92.088 129.095961 
L 92.5344 126.575719 
L 92.9808 114.752261 
L 93.4272 119.858729 
L 93.8736 122.614188 
L 94.32 126.583751 
L 94.7664 128.21325 
L 95.6592 112.370334 
L 96.1056 111.04409 
L 96.552 112.281083 
L 96.9984 117.005723 
L 97.4448 116.122215 
L 97.8912 120.122318 
L 98.3376 121.31424 
L 98.784 125.609996 
L 99.2304 123.103199 
L 100.1232 129.39732 
L 100.5696 124.764 
L 101.4624 129.27782 
L 101.9088 122.338007 
L 102.3552 124.979138 
L 102.8016 122.870802 
L 103.248 121.328598 
L 103.6944 124.859177 
L 104.1408 124.327932 
L 105.48 130.748865 
L 105.9264 129.789127 
L 106.8192 135.298673 
L 107.2656 134.843761 
L 107.712 135.08036 
L 108.1584 136.873394 
L 109.4976 143.335592 
L 109.944 139.321771 
L 110.3904 137.652887 
L 110.8368 137.584162 
L 111.2832 138.566999 
L 111.7296 140.874742 
L 112.176 139.639651 
L 112.6224 141.89501 
L 113.0688 135.100806 
L 113.5152 134.565624 
L 113.9616 131.217909 
L 114.8544 134.98432 
L 115.3008 131.268986 
L 115.7472 133.473968 
L 116.1936 132.689175 
L 116.64 134.733967 
L 117.0864 133.380087 
L 117.5328 131.575184 
L 117.9792 130.789943 
L 118.872 135.132374 
L 119.3184 135.678374 
L 119.7648 133.144437 
L 120.2112 131.354419 
L 120.6576 130.249342 
L 121.104 130.566223 
L 121.5504 130.384239 
L 121.9968 132.592112 
L 122.4432 131.743659 
L 122.8896 127.631967 
L 123.336 127.790393 
L 123.7824 127.405564 
L 124.2288 128.334286 
L 124.6752 129.772803 
L 125.1216 128.927013 
L 125.568 130.386395 
L 126.0144 130.13202 
L 126.4608 128.477891 
L 126.9072 129.960178 
L 127.3536 129.704952 
L 127.8 129.980478 
L 128.2464 131.058774 
L 128.6928 129.554734 
L 129.1392 129.391263 
L 130.032 126.887395 
L 130.4784 128.798398 
L 130.9248 125.893165 
L 131.8176 128.399739 
L 132.264 128.388891 
L 132.7104 128.997637 
L 133.1568 130.582874 
L 133.6032 131.341846 
L 134.0496 131.30889 
L 134.496 125.123458 
L 134.9424 123.506499 
L 135.3888 124.582592 
L 135.8352 126.243655 
L 136.2816 127.42747 
L 136.728 127.646371 
L 137.1744 126.453572 
L 137.6208 127.043728 
L 138.0672 128.543733 
L 138.5136 127.156557 
L 138.96 128.344068 
L 139.4064 124.804368 
L 139.8528 125.058924 
L 140.2992 126.516363 
L 140.7456 126.86073 
L 141.192 128.539667 
L 141.6384 129.589336 
L 142.5312 132.370307 
L 142.9776 130.25476 
L 143.424 129.359218 
L 143.8704 130.223045 
L 145.2096 133.649106 
L 145.656 133.614734 
L 146.1024 132.338075 
L 146.5488 130.199898 
L 146.9952 129.885678 
L 147.888 131.229213 
L 148.3344 132.197468 
L 148.7808 131.988646 
L 149.2272 132.546774 
L 150.12 134.873492 
L 151.0128 135.922764 
L 151.4592 135.862394 
L 151.9056 136.558695 
L 152.7984 133.671852 
L 153.6912 129.790705 
L 154.1376 129.438835 
L 154.584 126.361917 
L 155.4768 128.468714 
L 155.9232 129.084627 
L 156.3696 127.707835 
L 156.816 128.356257 
L 157.2624 129.435741 
L 157.7088 129.362274 
L 158.1552 129.65771 
L 158.6016 130.08666 
L 159.048 131.105275 
L 159.4944 130.290743 
L 159.9408 128.966074 
L 161.28 132.023401 
L 161.7264 130.408532 
L 162.1728 129.384548 
L 162.6192 129.139046 
L 163.0656 128.409118 
L 163.512 127.924001 
L 163.9584 129.168882 
L 164.4048 127.726513 
L 165.2976 128.525822 
L 165.744 128.21214 
L 166.1904 127.116768 
L 166.6368 126.877242 
L 167.0832 128.089891 
L 167.5296 127.821533 
L 168.4224 129.936101 
L 168.8688 131.015277 
L 169.3152 131.741747 
L 169.7616 132.093017 
L 170.6544 130.727362 
L 171.1008 129.333409 
L 171.5472 130.242702 
L 171.9936 130.673876 
L 172.44 130.141836 
L 172.8864 130.716926 
L 173.3328 131.78094 
L 173.7792 131.173376 
L 174.2256 131.965099 
L 174.672 130.11445 
L 175.1184 130.098585 
L 175.5648 130.880523 
L 176.0112 131.349496 
L 176.4576 132.270254 
L 176.904 132.643627 
L 177.3504 133.42316 
L 177.7968 133.53175 
L 178.2432 132.24865 
L 178.6896 132.814699 
L 179.136 131.921022 
L 179.5824 131.875613 
L 180.0288 130.814947 
L 180.4752 130.609894 
L 180.9216 131.121502 
L 181.8144 131.713217 
L 182.7072 132.617103 
L 183.1536 132.697248 
L 183.6 132.585195 
L 184.4928 134.35827 
L 184.9392 134.114895 
L 185.3856 133.213175 
L 185.832 131.979014 
L 186.2784 131.646064 
L 187.1712 132.205479 
L 187.6176 132.049273 
L 188.064 132.268259 
L 188.5104 132.765266 
L 188.9568 132.269453 
L 189.4032 132.985434 
L 189.8496 133.283692 
L 190.296 131.947727 
L 190.7424 132.19517 
L 191.1888 133.122999 
L 191.6352 133.526858 
L 192.0816 134.196276 
L 192.528 134.553543 
L 192.9744 134.498454 
L 193.4208 135.229189 
L 193.8672 135.434964 
L 195.2064 133.822899 
L 195.6528 133.459857 
L 196.0992 134.262776 
L 196.5456 134.184945 
L 196.992 133.452989 
L 197.4384 133.399015 
L 197.8848 134.017074 
L 198.3312 133.958971 
L 198.7776 134.083671 
L 199.224 133.310607 
L 199.6704 133.591191 
L 200.1168 134.182246 
L 200.5632 135.063255 
L 201.0096 135.507675 
L 201.456 136.227807 
L 201.9024 136.515094 
L 202.3488 136.342037 
L 202.7952 136.355045 
L 203.688 137.874452 
L 204.5808 136.386931 
L 205.0272 134.903468 
L 205.4736 135.178356 
L 206.3664 132.934446 
L 206.8128 132.544786 
L 207.2592 132.44065 
L 207.7056 133.088392 
L 208.152 133.176072 
L 208.5984 132.496331 
L 209.0448 131.365351 
L 209.4912 131.948141 
L 209.9376 131.251158 
L 210.384 130.993423 
L 210.8304 130.576495 
L 211.2768 131.400491 
L 212.1696 131.582282 
L 212.616 132.017648 
L 213.0624 131.286384 
L 213.5088 130.809231 
L 213.9552 131.194266 
L 214.4016 131.768944 
L 214.848 131.977553 
L 215.2944 132.322977 
L 215.7408 132.156318 
L 216.1872 131.352323 
L 216.6336 131.51516 
L 217.08 132.209736 
L 217.5264 131.98168 
L 218.4192 133.523824 
L 218.8656 133.553224 
L 219.7584 134.819285 
L 220.2048 135.444088 
L 220.6512 135.607487 
L 221.0976 134.343 
L 221.544 134.583577 
L 221.9904 135.228478 
L 222.4368 135.655829 
L 222.8832 135.622508 
L 223.3296 136.33262 
L 223.776 136.161577 
L 224.2224 136.748284 
L 224.6688 137.108324 
L 225.1152 137.788606 
L 225.5616 137.859239 
L 226.008 138.175874 
L 226.4544 137.679322 
L 226.9008 136.974714 
L 227.3472 136.88209 
L 227.7936 137.069604 
L 228.24 137.655383 
L 228.6864 136.7795 
L 229.5792 136.399697 
L 230.0256 136.807075 
L 230.472 136.47814 
L 230.9184 137.113903 
L 231.3648 136.931639 
L 231.8112 136.925937 
L 232.2576 137.322631 
L 232.704 137.445439 
L 233.1504 137.744128 
L 233.5968 137.659241 
L 234.0432 138.270629 
L 234.4896 138.507878 
L 234.936 139.148962 
L 235.3824 138.49097 
L 235.8288 138.673557 
L 236.2752 138.645988 
L 236.7216 139.276488 
L 237.168 138.937165 
L 237.6144 138.420019 
L 238.0608 138.949627 
L 238.5072 139.290496 
L 238.9536 139.111407 
L 239.4 139.389004 
L 239.8464 139.990039 
L 240.2928 139.865592 
L 240.7392 140.521717 
L 241.632 141.271686 
L 242.0784 140.702543 
L 242.5248 140.674438 
L 242.9712 141.006482 
L 243.864 141.039092 
L 244.7568 142.061239 
L 245.2032 141.709985 
L 245.6496 141.68084 
L 246.096 141.799397 
L 246.5424 141.384395 
L 246.9888 140.769197 
L 247.4352 141.053104 
L 247.8816 140.742534 
L 248.328 141.233807 
L 248.7744 140.516971 
L 249.2208 141.107148 
L 249.6672 140.868926 
L 250.1136 141.134698 
L 250.56 140.390179 
L 251.4528 141.573113 
L 251.8992 141.645739 
L 252.3456 141.072007 
L 252.792 140.785454 
L 253.2384 141.144235 
L 253.6848 141.061864 
L 254.5776 142.168449 
L 255.024 142.350401 
L 255.9168 142.940394 
L 256.3632 142.979701 
L 256.8096 143.307524 
L 257.256 143.207444 
L 257.7024 142.792203 
L 258.1488 142.851234 
L 258.5952 143.333509 
L 259.0416 143.524273 
L 259.488 143.210149 
L 259.9344 143.587717 
L 260.3808 143.202616 
L 260.8272 143.778704 
L 261.2736 143.63324 
L 261.72 143.638519 
L 262.1664 143.820998 
L 262.6128 143.744763 
L 263.0592 143.046401 
L 264.8448 143.692922 
L 265.2912 143.823283 
L 265.7376 144.133998 
L 266.184 144.287643 
L 267.0768 143.373195 
L 267.5232 143.147966 
L 267.9696 143.340458 
L 268.8624 144.097496 
L 269.3088 143.48069 
L 269.7552 143.458066 
L 271.0944 144.544112 
L 271.9872 145.504454 
L 272.88 145.356555 
L 273.3264 145.790397 
L 273.7728 144.702651 
L 274.2192 145.106431 
L 275.112 145.564127 
L 275.5584 145.015417 
L 276.0048 144.785468 
L 276.4512 145.023598 
L 276.8976 144.375757 
L 277.344 144.273335 
L 277.7904 144.366416 
L 278.2368 144.043837 
L 279.1296 142.699818 
L 279.576 142.967432 
L 280.0224 142.329545 
L 282.2544 144.504081 
L 282.7008 144.045101 
L 283.1472 143.189465 
L 283.5936 143.424666 
L 284.04 143.326209 
L 284.4864 143.831109 
L 284.9328 143.733371 
L 285.8256 143.893936 
L 286.272 143.558794 
L 286.7184 143.715951 
L 287.1648 144.015554 
L 287.6112 143.990702 
L 288.0576 144.484103 
L 288.504 144.597991 
L 288.9504 144.592507 
L 289.3968 144.948928 
L 289.8432 145.040709 
L 290.2896 145.420764 
L 290.736 145.509603 
L 291.1824 145.758558 
L 291.6288 145.270389 
L 292.0752 145.342669 
L 292.5216 145.20201 
L 292.968 145.495664 
L 293.4144 145.957622 
L 293.8608 145.865492 
L 294.3072 145.196842 
L 294.7536 145.564333 
L 295.6464 145.165577 
L 296.0928 145.181528 
L 296.5392 145.372827 
L 296.9856 145.26179 
L 297.8784 145.31475 
L 298.3248 145.767294 
L 299.2176 146.248585 
L 299.664 146.692679 
L 300.1104 146.477537 
L 300.5568 146.826369 
L 301.0032 146.792785 
L 301.4496 146.08226 
L 302.3424 145.936256 
L 302.7888 145.985026 
L 303.2352 145.275939 
L 303.6816 145.175204 
L 304.5744 145.574449 
L 305.0208 145.075199 
L 306.36 146.167181 
L 307.2528 146.364105 
L 307.6992 146.413672 
L 308.1456 146.596599 
L 308.592 146.567771 
L 309.9312 147.157781 
L 310.3776 147.608532 
L 310.824 147.664165 
L 311.2704 148.075406 
L 311.7168 148.173047 
L 312.1632 148.465473 
L 312.6096 148.480967 
L 313.056 148.85966 
L 313.5024 148.909884 
L 313.9488 149.227395 
L 314.3952 148.961595 
L 314.8416 148.901798 
L 315.288 149.125267 
L 315.7344 149.542452 
L 316.1808 149.180462 
L 316.6272 149.29942 
L 317.52 150.126572 
L 317.9664 149.426734 
L 318.8592 149.126266 
L 319.3056 148.622547 
L 319.752 149.039363 
L 320.6448 149.336606 
L 321.0912 149.717726 
L 321.5376 149.468009 
L 321.984 149.465601 
L 322.8768 149.768986 
L 323.3232 149.585669 
L 323.7696 149.594048 
L 324.6624 148.101038 
L 326.0016 149.021007 
L 326.448 148.67949 
L 326.8944 148.863721 
L 327.3408 148.561938 
L 327.7872 148.630531 
L 328.2336 148.529524 
L 328.68 148.227937 
L 329.1264 148.54637 
L 329.5728 148.68974 
L 330.0192 148.407914 
L 330.4656 148.288987 
L 331.3584 148.551039 
L 332.2512 149.223978 
L 332.6976 149.398519 
L 333.144 149.702413 
L 333.5904 149.587428 
L 334.0368 149.671897 
L 334.4832 149.067189 
L 334.9296 149.415351 
L 335.376 149.591042 
L 335.8224 149.345966 
L 336.2688 149.472712 
L 336.7152 149.820097 
L 337.1616 149.752944 
L 337.608 150.138963 
L 338.5008 150.59595 
L 338.9472 150.993208 
L 339.84 150.724263 
L 340.2864 151.075391 
L 340.7328 151.079823 
L 341.1792 150.788661 
L 341.6256 151.060215 
L 342.072 150.942931 
L 342.9648 151.32956 
L 343.4112 150.907571 
L 343.8576 151.092626 
L 344.304 150.232914 
L 345.1968 150.172976 
L 345.6432 150.291196 
L 346.536 150.082701 
L 347.4288 150.714985 
L 347.8752 149.909336 
L 348.3216 150.178535 
L 349.2144 149.987767 
L 350.1072 150.189832 
L 350.5536 150.086806 
L 351 150.37602 
L 351.4464 150.36857 
L 351.8928 150.637997 
L 352.3392 150.680838 
L 352.7856 151.02013 
L 353.6784 151.461109 
L 354.1248 150.806445 
L 354.5712 150.733207 
L 355.0176 150.534062 
L 355.464 150.54384 
L 355.9104 150.31124 
L 356.3568 150.264561 
L 356.8032 150.617615 
L 357.2496 150.096994 
L 358.1424 149.724487 
L 359.0352 149.938921 
L 359.4816 149.737037 
L 360.3744 149.972998 
L 361.7136 150.795955 
L 362.16 150.937266 
L 362.6064 150.791745 
L 363.0528 150.857822 
L 363.4992 151.062028 
L 363.9456 151.026171 
L 364.8384 151.682348 
L 367.0704 151.557345 
L 367.5168 151.278414 
L 368.4096 151.916548 
L 368.856 151.567479 
L 369.7488 151.580399 
L 370.1952 151.407431 
L 371.5344 151.914995 
L 371.9808 151.596817 
L 372.8736 151.854437 
L 374.6592 152.684362 
L 375.1056 152.740212 
L 375.552 152.964871 
L 376.4448 152.456397 
L 378.2304 153.39264 
L 378.6768 153.362134 
L 380.016 153.792765 
L 380.4624 153.596526 
L 380.9088 153.858025 
L 381.3552 153.898892 
L 382.248 154.464045 
L 382.6944 154.546342 
L 383.1408 154.790867 
L 383.5872 154.478323 
L 384.48 154.98232 
L 384.9264 155.128153 
L 385.3728 155.067981 
L 385.8192 155.370069 
L 386.712 155.633151 
L 387.1584 155.859082 
L 387.6048 155.933149 
L 388.0512 156.237902 
L 388.4976 155.238454 
L 389.3904 155.66402 
L 389.8368 155.282737 
L 390.2832 155.570605 
L 390.7296 155.518571 
L 391.176 155.246191 
L 391.6224 155.310366 
L 392.0688 154.796104 
L 392.9616 155.378476 
L 393.408 155.1518 
L 393.8544 155.313814 
L 394.3008 155.099206 
L 394.7472 155.040431 
L 395.1936 155.354009 
L 395.64 154.987542 
L 396.0864 154.916703 
L 396.5328 154.243027 
L 396.9792 154.525848 
L 397.872 154.176414 
L 398.7648 154.159959 
L 399.2112 153.894907 
L 400.104 154.487278 
L 401.8896 154.832544 
L 402.336 154.646659 
L 402.7824 154.310561 
L 403.2288 154.275858 
L 404.1216 154.561389 
L 404.568 153.971244 
L 405.0144 154.029285 
L 405.4608 153.908391 
L 405.9072 154.127125 
L 406.3536 154.071729 
L 406.8 154.307629 
L 407.6928 154.271168 
L 408.1392 153.678773 
L 409.032 153.409826 
L 409.4784 153.316069 
L 409.9248 153.417681 
L 410.3712 153.210167 
L 411.7104 153.30441 
L 412.6032 153.011243 
L 413.0496 152.291632 
L 413.496 152.178479 
L 413.9424 151.933412 
L 414.3888 152.118671 
L 414.8352 151.708005 
L 415.728 152.077602 
L 416.1744 152.276015 
L 416.6208 152.274095 
L 417.0672 151.875826 
L 417.96 152.360344 
L 418.8528 152.768572 
L 419.2992 152.70143 
L 420.192 153.215803 
L 420.6384 153.015045 
L 421.0848 153.240571 
L 421.5312 153.121467 
L 421.9776 153.178405 
L 422.424 153.373076 
L 423.3168 153.228453 
L 423.7632 153.342522 
L 424.656 152.977605 
L 425.5488 153.420575 
L 426.888 152.62203 
L 428.2272 152.853766 
L 429.12 153.349003 
L 429.5664 153.150011 
L 430.0128 153.383448 
L 430.9056 152.832824 
L 431.352 152.903305 
L 431.7984 152.683986 
L 432.6912 152.554038 
L 433.1376 152.051851 
L 433.584 151.928191 
L 434.0304 151.490738 
L 435.3696 152.339875 
L 435.816 152.265485 
L 437.1552 152.726608 
L 437.6016 152.366307 
L 438.048 152.234374 
L 438.9408 152.602845 
L 439.3872 152.512783 
L 439.8336 152.655656 
L 440.28 151.794402 
L 440.7264 151.456333 
L 441.1728 151.657639 
L 441.6192 151.375337 
L 442.0656 151.577033 
L 442.9584 151.257914 
L 443.4048 150.627012 
L 443.8512 150.455581 
L 444.2976 150.119215 
L 444.744 150.328205 
L 445.1904 150.363337 
L 445.6368 150.075162 
L 447.4224 150.397695 
L 448.3152 150.855386 
L 448.7616 150.71509 
L 449.6544 150.710513 
L 450.1008 150.894172 
L 450.5472 150.831836 
L 450.9936 151.001853 
L 451.44 150.731905 
L 451.8864 150.309923 
L 452.3328 150.495535 
L 452.7792 150.385224 
L 453.2256 150.446705 
L 453.672 150.699318 
L 454.5648 150.272653 
L 455.0112 150.437869 
L 455.904 149.92674 
L 456.3504 150.130368 
L 456.7968 149.82631 
L 457.2432 149.776456 
L 458.136 149.976707 
L 458.5824 149.935219 
L 459.4752 150.211696 
L 459.9216 149.867249 
L 460.8144 150.314995 
L 461.2608 149.820442 
L 461.7072 149.879209 
L 462.1536 150.088419 
L 462.6 149.933749 
L 463.0464 150.075639 
L 463.4928 149.754948 
L 465.2784 150.531576 
L 465.7248 150.635013 
L 466.1712 150.556466 
L 466.6176 150.760082 
L 467.064 150.802513 
L 467.5104 151.056745 
L 468.4032 151.132133 
L 469.296 150.592096 
L 469.7424 150.553558 
L 470.6352 150.910831 
L 471.528 151.087573 
L 471.9744 151.067945 
L 472.8672 151.510594 
L 474.2064 152.197166 
L 475.5456 152.802315 
L 476.8848 153.361385 
L 479.1168 153.880233 
L 479.5632 154.101429 
L 480.0096 154.007483 
L 480.456 153.708407 
L 480.9024 153.738648 
L 481.3488 153.883416 
L 481.7952 153.525239 
L 482.2416 153.625469 
L 482.688 153.566911 
L 483.5808 153.999355 
L 484.0272 153.665727 
L 485.8128 154.045462 
L 486.2592 153.555841 
L 486.7056 153.746192 
L 487.152 153.627643 
L 488.0448 153.164208 
L 488.9376 153.399798 
L 489.8304 153.388535 
L 490.2768 153.291282 
L 491.616 153.735919 
L 492.0624 153.753598 
L 492.9552 153.22988 
L 494.7408 153.827141 
L 495.1872 153.3937 
L 496.5264 153.639769 
L 497.8656 154.132728 
L 498.312 153.948191 
L 500.0976 154.733665 
L 500.544 154.667168 
L 500.9904 154.31177 
L 501.4368 154.24321 
L 501.8832 154.288432 
L 502.776 154.088458 
L 503.2224 153.703713 
L 503.6688 153.744532 
L 504.1152 153.610801 
L 505.4544 153.833264 
L 505.9008 153.734105 
L 506.7936 154.064505 
L 507.24 153.7594 
L 508.1328 154.135388 
L 509.0256 154.090456 
L 509.472 154.250674 
L 509.9184 154.14579 
L 510.3648 154.373999 
L 510.8112 154.257176 
L 512.1504 154.362835 
L 513.0432 154.773268 
L 514.3824 154.767477 
L 514.8288 154.985695 
L 515.2752 154.777447 
L 516.6144 154.753284 
L 517.0608 154.605148 
L 517.9536 154.970629 
L 517.9536 154.970629 
" style="fill:none;stroke:#008000;stroke-linecap:square;"/>
   </g>
   <g id="line2d_3">
    <path clip-path="url(#p5cd354462c)" d="M 72 151.2 
L 518.4 151.2 
" style="fill:none;stroke:#ff0000;stroke-linecap:square;"/>
   </g>
   <g id="patch_3">
    <path d="M 72 388.8 
L 518.4 388.8 
" style="fill:none;stroke:#000000;stroke-linecap:square;stroke-linejoin:miter;"/>
   </g>
   <g id="patch_4">
    <path d="M 72 43.2 
L 518.4 43.2 
" style="fill:none;stroke:#000000;stroke-linecap:square;stroke-linejoin:miter;"/>
   </g>
   <g id="patch_5">
    <path d="M 518.4 388.8 
L 518.4 43.2 
" style="fill:none;stroke:#000000;stroke-linecap:square;stroke-linejoin:miter;"/>
   </g>
   <g id="patch_6">
    <path d="M 72 388.8 
L 72 43.2 
" style="fill:none;stroke:#000000;stroke-linecap:square;stroke-linejoin:miter;"/>
   </g>
   <g id="matplotlib.axis_1">
    <g id="xtick_1">
     <g id="line2d_4">
      <defs>
       <path d="M 0 0 
L 0 -4 
" id="m428cfb805e" style="stroke:#000000;stroke-width:0.5;"/>
      </defs>
      <g>
       <use style="stroke:#000000;stroke-width:0.5;" x="72.0" xlink:href="#m428cfb805e" y="388.8"/>
      </g>
     </g>
     <g id="line2d_5">
      <defs>
       <path d="M 0 0 
L 0 4 
" id="mfdf14e4e64" style="stroke:#000000;stroke-width:0.5;"/>
      </defs>
      <g>
       <use style="stroke:#000000;stroke-width:0.5;" x="72.0" xlink:href="#mfdf14e4e64" y="43.2"/>
      </g>
     </g>
     <g id="text_1">
      <!-- 0 -->
      <defs>
       <path d="M 31.78125 66.40625 
Q 24.171875 66.40625 20.328125 58.90625 
Q 16.5 51.421875 16.5 36.375 
Q 16.5 21.390625 20.328125 13.890625 
Q 24.171875 6.390625 31.78125 6.390625 
Q 39.453125 6.390625 43.28125 13.890625 
Q 47.125 21.390625 47.125 36.375 
Q 47.125 51.421875 43.28125 58.90625 
Q 39.453125 66.40625 31.78125 66.40625 
M 31.78125 74.21875 
Q 44.046875 74.21875 50.515625 64.515625 
Q 56.984375 54.828125 56.984375 36.375 
Q 56.984375 17.96875 50.515625 8.265625 
Q 44.046875 -1.421875 31.78125 -1.421875 
Q 19.53125 -1.421875 13.0625 8.265625 
Q 6.59375 17.96875 6.59375 36.375 
Q 6.59375 54.828125 13.0625 64.515625 
Q 19.53125 74.21875 31.78125 74.21875 
" id="BitstreamVeraSans-Roman-30"/>
      </defs>
      <g transform="translate(68.1825 401.918125)scale(0.12 -0.12)">
       <use xlink:href="#BitstreamVeraSans-Roman-30"/>
      </g>
     </g>
    </g>
    <g id="xtick_2">
     <g id="line2d_6">
      <g>
       <use style="stroke:#000000;stroke-width:0.5;" x="161.28" xlink:href="#m428cfb805e" y="388.8"/>
      </g>
     </g>
     <g id="line2d_7">
      <g>
       <use style="stroke:#000000;stroke-width:0.5;" x="161.28" xlink:href="#mfdf14e4e64" y="43.2"/>
      </g>
     </g>
     <g id="text_2">
      <!-- 200 -->
      <defs>
       <path d="M 19.1875 8.296875 
L 53.609375 8.296875 
L 53.609375 0 
L 7.328125 0 
L 7.328125 8.296875 
Q 12.9375 14.109375 22.625 23.890625 
Q 32.328125 33.6875 34.8125 36.53125 
Q 39.546875 41.84375 41.421875 45.53125 
Q 43.3125 49.21875 43.3125 52.78125 
Q 43.3125 58.59375 39.234375 62.25 
Q 35.15625 65.921875 28.609375 65.921875 
Q 23.96875 65.921875 18.8125 64.3125 
Q 13.671875 62.703125 7.8125 59.421875 
L 7.8125 69.390625 
Q 13.765625 71.78125 18.9375 73 
Q 24.125 74.21875 28.421875 74.21875 
Q 39.75 74.21875 46.484375 68.546875 
Q 53.21875 62.890625 53.21875 53.421875 
Q 53.21875 48.921875 51.53125 44.890625 
Q 49.859375 40.875 45.40625 35.40625 
Q 44.1875 33.984375 37.640625 27.21875 
Q 31.109375 20.453125 19.1875 8.296875 
" id="BitstreamVeraSans-Roman-32"/>
      </defs>
      <g transform="translate(149.8275 401.918125)scale(0.12 -0.12)">
       <use xlink:href="#BitstreamVeraSans-Roman-32"/>
       <use x="63.623046875" xlink:href="#BitstreamVeraSans-Roman-30"/>
       <use x="127.24609375" xlink:href="#BitstreamVeraSans-Roman-30"/>
      </g>
     </g>
    </g>
    <g id="xtick_3">
     <g id="line2d_8">
      <g>
       <use style="stroke:#000000;stroke-width:0.5;" x="250.56" xlink:href="#m428cfb805e" y="388.8"/>
      </g>
     </g>
     <g id="line2d_9">
      <g>
       <use style="stroke:#000000;stroke-width:0.5;" x="250.56" xlink:href="#mfdf14e4e64" y="43.2"/>
      </g>
     </g>
     <g id="text_3">
      <!-- 400 -->
      <defs>
       <path d="M 37.796875 64.3125 
L 12.890625 25.390625 
L 37.796875 25.390625 
z
M 35.203125 72.90625 
L 47.609375 72.90625 
L 47.609375 25.390625 
L 58.015625 25.390625 
L 58.015625 17.1875 
L 47.609375 17.1875 
L 47.609375 0 
L 37.796875 0 
L 37.796875 17.1875 
L 4.890625 17.1875 
L 4.890625 26.703125 
z
" id="BitstreamVeraSans-Roman-34"/>
      </defs>
      <g transform="translate(239.1075 401.918125)scale(0.12 -0.12)">
       <use xlink:href="#BitstreamVeraSans-Roman-34"/>
       <use x="63.623046875" xlink:href="#BitstreamVeraSans-Roman-30"/>
       <use x="127.24609375" xlink:href="#BitstreamVeraSans-Roman-30"/>
      </g>
     </g>
    </g>
    <g id="xtick_4">
     <g id="line2d_10">
      <g>
       <use style="stroke:#000000;stroke-width:0.5;" x="339.84" xlink:href="#m428cfb805e" y="388.8"/>
      </g>
     </g>
     <g id="line2d_11">
      <g>
       <use style="stroke:#000000;stroke-width:0.5;" x="339.84" xlink:href="#mfdf14e4e64" y="43.2"/>
      </g>
     </g>
     <g id="text_4">
      <!-- 600 -->
      <defs>
       <path d="M 33.015625 40.375 
Q 26.375 40.375 22.484375 35.828125 
Q 18.609375 31.296875 18.609375 23.390625 
Q 18.609375 15.53125 22.484375 10.953125 
Q 26.375 6.390625 33.015625 6.390625 
Q 39.65625 6.390625 43.53125 10.953125 
Q 47.40625 15.53125 47.40625 23.390625 
Q 47.40625 31.296875 43.53125 35.828125 
Q 39.65625 40.375 33.015625 40.375 
M 52.59375 71.296875 
L 52.59375 62.3125 
Q 48.875 64.0625 45.09375 64.984375 
Q 41.3125 65.921875 37.59375 65.921875 
Q 27.828125 65.921875 22.671875 59.328125 
Q 17.53125 52.734375 16.796875 39.40625 
Q 19.671875 43.65625 24.015625 45.921875 
Q 28.375 48.1875 33.59375 48.1875 
Q 44.578125 48.1875 50.953125 41.515625 
Q 57.328125 34.859375 57.328125 23.390625 
Q 57.328125 12.15625 50.6875 5.359375 
Q 44.046875 -1.421875 33.015625 -1.421875 
Q 20.359375 -1.421875 13.671875 8.265625 
Q 6.984375 17.96875 6.984375 36.375 
Q 6.984375 53.65625 15.1875 63.9375 
Q 23.390625 74.21875 37.203125 74.21875 
Q 40.921875 74.21875 44.703125 73.484375 
Q 48.484375 72.75 52.59375 71.296875 
" id="BitstreamVeraSans-Roman-36"/>
      </defs>
      <g transform="translate(328.3875 401.918125)scale(0.12 -0.12)">
       <use xlink:href="#BitstreamVeraSans-Roman-36"/>
       <use x="63.623046875" xlink:href="#BitstreamVeraSans-Roman-30"/>
       <use x="127.24609375" xlink:href="#BitstreamVeraSans-Roman-30"/>
      </g>
     </g>
    </g>
    <g id="xtick_5">
     <g id="line2d_12">
      <g>
       <use style="stroke:#000000;stroke-width:0.5;" x="429.12" xlink:href="#m428cfb805e" y="388.8"/>
      </g>
     </g>
     <g id="line2d_13">
      <g>
       <use style="stroke:#000000;stroke-width:0.5;" x="429.12" xlink:href="#mfdf14e4e64" y="43.2"/>
      </g>
     </g>
     <g id="text_5">
      <!-- 800 -->
      <defs>
       <path d="M 31.78125 34.625 
Q 24.75 34.625 20.71875 30.859375 
Q 16.703125 27.09375 16.703125 20.515625 
Q 16.703125 13.921875 20.71875 10.15625 
Q 24.75 6.390625 31.78125 6.390625 
Q 38.8125 6.390625 42.859375 10.171875 
Q 46.921875 13.96875 46.921875 20.515625 
Q 46.921875 27.09375 42.890625 30.859375 
Q 38.875 34.625 31.78125 34.625 
M 21.921875 38.8125 
Q 15.578125 40.375 12.03125 44.71875 
Q 8.5 49.078125 8.5 55.328125 
Q 8.5 64.0625 14.71875 69.140625 
Q 20.953125 74.21875 31.78125 74.21875 
Q 42.671875 74.21875 48.875 69.140625 
Q 55.078125 64.0625 55.078125 55.328125 
Q 55.078125 49.078125 51.53125 44.71875 
Q 48 40.375 41.703125 38.8125 
Q 48.828125 37.15625 52.796875 32.3125 
Q 56.78125 27.484375 56.78125 20.515625 
Q 56.78125 9.90625 50.3125 4.234375 
Q 43.84375 -1.421875 31.78125 -1.421875 
Q 19.734375 -1.421875 13.25 4.234375 
Q 6.78125 9.90625 6.78125 20.515625 
Q 6.78125 27.484375 10.78125 32.3125 
Q 14.796875 37.15625 21.921875 38.8125 
M 18.3125 54.390625 
Q 18.3125 48.734375 21.84375 45.5625 
Q 25.390625 42.390625 31.78125 42.390625 
Q 38.140625 42.390625 41.71875 45.5625 
Q 45.3125 48.734375 45.3125 54.390625 
Q 45.3125 60.0625 41.71875 63.234375 
Q 38.140625 66.40625 31.78125 66.40625 
Q 25.390625 66.40625 21.84375 63.234375 
Q 18.3125 60.0625 18.3125 54.390625 
" id="BitstreamVeraSans-Roman-38"/>
      </defs>
      <g transform="translate(417.6675 401.918125)scale(0.12 -0.12)">
       <use xlink:href="#BitstreamVeraSans-Roman-38"/>
       <use x="63.623046875" xlink:href="#BitstreamVeraSans-Roman-30"/>
       <use x="127.24609375" xlink:href="#BitstreamVeraSans-Roman-30"/>
      </g>
     </g>
    </g>
    <g id="xtick_6">
     <g id="line2d_14">
      <g>
       <use style="stroke:#000000;stroke-width:0.5;" x="518.4" xlink:href="#m428cfb805e" y="388.8"/>
      </g>
     </g>
     <g id="line2d_15">
      <g>
       <use style="stroke:#000000;stroke-width:0.5;" x="518.4" xlink:href="#mfdf14e4e64" y="43.2"/>
      </g>
     </g>
     <g id="text_6">
      <!-- 1000 -->
      <defs>
       <path d="M 12.40625 8.296875 
L 28.515625 8.296875 
L 28.515625 63.921875 
L 10.984375 60.40625 
L 10.984375 69.390625 
L 28.421875 72.90625 
L 38.28125 72.90625 
L 38.28125 8.296875 
L 54.390625 8.296875 
L 54.390625 0 
L 12.40625 0 
z
" id="BitstreamVeraSans-Roman-31"/>
      </defs>
      <g transform="translate(503.13 401.918125)scale(0.12 -0.12)">
       <use xlink:href="#BitstreamVeraSans-Roman-31"/>
       <use x="63.623046875" xlink:href="#BitstreamVeraSans-Roman-30"/>
       <use x="127.24609375" xlink:href="#BitstreamVeraSans-Roman-30"/>
       <use x="190.869140625" xlink:href="#BitstreamVeraSans-Roman-30"/>
      </g>
     </g>
    </g>
    <g id="text_7">
     <!-- Sample Number -->
     <defs>
      <path d="M 41.109375 46.296875 
Q 39.59375 47.171875 37.8125 47.578125 
Q 36.03125 48 33.890625 48 
Q 26.265625 48 22.1875 43.046875 
Q 18.109375 38.09375 18.109375 28.8125 
L 18.109375 0 
L 9.078125 0 
L 9.078125 54.6875 
L 18.109375 54.6875 
L 18.109375 46.1875 
Q 20.953125 51.171875 25.484375 53.578125 
Q 30.03125 56 36.53125 56 
Q 37.453125 56 38.578125 55.875 
Q 39.703125 55.765625 41.0625 55.515625 
z
" id="BitstreamVeraSans-Roman-72"/>
      <path d="M 53.515625 70.515625 
L 53.515625 60.890625 
Q 47.90625 63.578125 42.921875 64.890625 
Q 37.9375 66.21875 33.296875 66.21875 
Q 25.25 66.21875 20.875 63.09375 
Q 16.5 59.96875 16.5 54.203125 
Q 16.5 49.359375 19.40625 46.890625 
Q 22.3125 44.4375 30.421875 42.921875 
L 36.375 41.703125 
Q 47.40625 39.59375 52.65625 34.296875 
Q 57.90625 29 57.90625 20.125 
Q 57.90625 9.515625 50.796875 4.046875 
Q 43.703125 -1.421875 29.984375 -1.421875 
Q 24.8125 -1.421875 18.96875 -0.25 
Q 13.140625 0.921875 6.890625 3.21875 
L 6.890625 13.375 
Q 12.890625 10.015625 18.65625 8.296875 
Q 24.421875 6.59375 29.984375 6.59375 
Q 38.421875 6.59375 43.015625 9.90625 
Q 47.609375 13.234375 47.609375 19.390625 
Q 47.609375 24.75 44.3125 27.78125 
Q 41.015625 30.8125 33.5 32.328125 
L 27.484375 33.5 
Q 16.453125 35.6875 11.515625 40.375 
Q 6.59375 45.0625 6.59375 53.421875 
Q 6.59375 63.09375 13.40625 68.65625 
Q 20.21875 74.21875 32.171875 74.21875 
Q 37.3125 74.21875 42.625 73.28125 
Q 47.953125 72.359375 53.515625 70.515625 
" id="BitstreamVeraSans-Roman-53"/>
      <path d="M 18.109375 8.203125 
L 18.109375 -20.796875 
L 9.078125 -20.796875 
L 9.078125 54.6875 
L 18.109375 54.6875 
L 18.109375 46.390625 
Q 20.953125 51.265625 25.265625 53.625 
Q 29.59375 56 35.59375 56 
Q 45.5625 56 51.78125 48.09375 
Q 58.015625 40.1875 58.015625 27.296875 
Q 58.015625 14.40625 51.78125 6.484375 
Q 45.5625 -1.421875 35.59375 -1.421875 
Q 29.59375 -1.421875 25.265625 0.953125 
Q 20.953125 3.328125 18.109375 8.203125 
M 48.6875 27.296875 
Q 48.6875 37.203125 44.609375 42.84375 
Q 40.53125 48.484375 33.40625 48.484375 
Q 26.265625 48.484375 22.1875 42.84375 
Q 18.109375 37.203125 18.109375 27.296875 
Q 18.109375 17.390625 22.1875 11.75 
Q 26.265625 6.109375 33.40625 6.109375 
Q 40.53125 6.109375 44.609375 11.75 
Q 48.6875 17.390625 48.6875 27.296875 
" id="BitstreamVeraSans-Roman-70"/>
      <path d="M 9.8125 72.90625 
L 23.09375 72.90625 
L 55.421875 11.921875 
L 55.421875 72.90625 
L 64.984375 72.90625 
L 64.984375 0 
L 51.703125 0 
L 19.390625 60.984375 
L 19.390625 0 
L 9.8125 0 
z
" id="BitstreamVeraSans-Roman-4e"/>
      <path id="BitstreamVeraSans-Roman-20"/>
      <path d="M 34.28125 27.484375 
Q 23.390625 27.484375 19.1875 25 
Q 14.984375 22.515625 14.984375 16.5 
Q 14.984375 11.71875 18.140625 8.90625 
Q 21.296875 6.109375 26.703125 6.109375 
Q 34.1875 6.109375 38.703125 11.40625 
Q 43.21875 16.703125 43.21875 25.484375 
L 43.21875 27.484375 
z
M 52.203125 31.203125 
L 52.203125 0 
L 43.21875 0 
L 43.21875 8.296875 
Q 40.140625 3.328125 35.546875 0.953125 
Q 30.953125 -1.421875 24.3125 -1.421875 
Q 15.921875 -1.421875 10.953125 3.296875 
Q 6 8.015625 6 15.921875 
Q 6 25.140625 12.171875 29.828125 
Q 18.359375 34.515625 30.609375 34.515625 
L 43.21875 34.515625 
L 43.21875 35.40625 
Q 43.21875 41.609375 39.140625 45 
Q 35.0625 48.390625 27.6875 48.390625 
Q 23 48.390625 18.546875 47.265625 
Q 14.109375 46.140625 10.015625 43.890625 
L 10.015625 52.203125 
Q 14.9375 54.109375 19.578125 55.046875 
Q 24.21875 56 28.609375 56 
Q 40.484375 56 46.34375 49.84375 
Q 52.203125 43.703125 52.203125 31.203125 
" id="BitstreamVeraSans-Roman-61"/>
      <path d="M 52 44.1875 
Q 55.375 50.25 60.0625 53.125 
Q 64.75 56 71.09375 56 
Q 79.640625 56 84.28125 50.015625 
Q 88.921875 44.046875 88.921875 33.015625 
L 88.921875 0 
L 79.890625 0 
L 79.890625 32.71875 
Q 79.890625 40.578125 77.09375 44.375 
Q 74.3125 48.1875 68.609375 48.1875 
Q 61.625 48.1875 57.5625 43.546875 
Q 53.515625 38.921875 53.515625 30.90625 
L 53.515625 0 
L 44.484375 0 
L 44.484375 32.71875 
Q 44.484375 40.625 41.703125 44.40625 
Q 38.921875 48.1875 33.109375 48.1875 
Q 26.21875 48.1875 22.15625 43.53125 
Q 18.109375 38.875 18.109375 30.90625 
L 18.109375 0 
L 9.078125 0 
L 9.078125 54.6875 
L 18.109375 54.6875 
L 18.109375 46.1875 
Q 21.1875 51.21875 25.484375 53.609375 
Q 29.78125 56 35.6875 56 
Q 41.65625 56 45.828125 52.96875 
Q 50 49.953125 52 44.1875 
" id="BitstreamVeraSans-Roman-6d"/>
      <path d="M 56.203125 29.59375 
L 56.203125 25.203125 
L 14.890625 25.203125 
Q 15.484375 15.921875 20.484375 11.0625 
Q 25.484375 6.203125 34.421875 6.203125 
Q 39.59375 6.203125 44.453125 7.46875 
Q 49.3125 8.734375 54.109375 11.28125 
L 54.109375 2.78125 
Q 49.265625 0.734375 44.1875 -0.34375 
Q 39.109375 -1.421875 33.890625 -1.421875 
Q 20.796875 -1.421875 13.15625 6.1875 
Q 5.515625 13.8125 5.515625 26.8125 
Q 5.515625 40.234375 12.765625 48.109375 
Q 20.015625 56 32.328125 56 
Q 43.359375 56 49.78125 48.890625 
Q 56.203125 41.796875 56.203125 29.59375 
M 47.21875 32.234375 
Q 47.125 39.59375 43.09375 43.984375 
Q 39.0625 48.390625 32.421875 48.390625 
Q 24.90625 48.390625 20.390625 44.140625 
Q 15.875 39.890625 15.1875 32.171875 
z
" id="BitstreamVeraSans-Roman-65"/>
      <path d="M 8.5 21.578125 
L 8.5 54.6875 
L 17.484375 54.6875 
L 17.484375 21.921875 
Q 17.484375 14.15625 20.5 10.265625 
Q 23.53125 6.390625 29.59375 6.390625 
Q 36.859375 6.390625 41.078125 11.03125 
Q 45.3125 15.671875 45.3125 23.6875 
L 45.3125 54.6875 
L 54.296875 54.6875 
L 54.296875 0 
L 45.3125 0 
L 45.3125 8.40625 
Q 42.046875 3.421875 37.71875 1 
Q 33.40625 -1.421875 27.6875 -1.421875 
Q 18.265625 -1.421875 13.375 4.4375 
Q 8.5 10.296875 8.5 21.578125 
" id="BitstreamVeraSans-Roman-75"/>
      <path d="M 9.421875 75.984375 
L 18.40625 75.984375 
L 18.40625 0 
L 9.421875 0 
z
" id="BitstreamVeraSans-Roman-6c"/>
      <path d="M 48.6875 27.296875 
Q 48.6875 37.203125 44.609375 42.84375 
Q 40.53125 48.484375 33.40625 48.484375 
Q 26.265625 48.484375 22.1875 42.84375 
Q 18.109375 37.203125 18.109375 27.296875 
Q 18.109375 17.390625 22.1875 11.75 
Q 26.265625 6.109375 33.40625 6.109375 
Q 40.53125 6.109375 44.609375 11.75 
Q 48.6875 17.390625 48.6875 27.296875 
M 18.109375 46.390625 
Q 20.953125 51.265625 25.265625 53.625 
Q 29.59375 56 35.59375 56 
Q 45.5625 56 51.78125 48.09375 
Q 58.015625 40.1875 58.015625 27.296875 
Q 58.015625 14.40625 51.78125 6.484375 
Q 45.5625 -1.421875 35.59375 -1.421875 
Q 29.59375 -1.421875 25.265625 0.953125 
Q 20.953125 3.328125 18.109375 8.203125 
L 18.109375 0 
L 9.078125 0 
L 9.078125 75.984375 
L 18.109375 75.984375 
z
" id="BitstreamVeraSans-Roman-62"/>
     </defs>
     <g transform="translate(246.691875 418.531875)scale(0.12 -0.12)">
      <use xlink:href="#BitstreamVeraSans-Roman-53"/>
      <use x="63.4765625" xlink:href="#BitstreamVeraSans-Roman-61"/>
      <use x="124.755859375" xlink:href="#BitstreamVeraSans-Roman-6d"/>
      <use x="222.16796875" xlink:href="#BitstreamVeraSans-Roman-70"/>
      <use x="285.64453125" xlink:href="#BitstreamVeraSans-Roman-6c"/>
      <use x="313.427734375" xlink:href="#BitstreamVeraSans-Roman-65"/>
      <use x="374.951171875" xlink:href="#BitstreamVeraSans-Roman-20"/>
      <use x="406.73828125" xlink:href="#BitstreamVeraSans-Roman-4e"/>
      <use x="481.54296875" xlink:href="#BitstreamVeraSans-Roman-75"/>
      <use x="544.921875" xlink:href="#BitstreamVeraSans-Roman-6d"/>
      <use x="642.333984375" xlink:href="#BitstreamVeraSans-Roman-62"/>
      <use x="705.810546875" xlink:href="#BitstreamVeraSans-Roman-65"/>
      <use x="767.333984375" xlink:href="#BitstreamVeraSans-Roman-72"/>
     </g>
    </g>
   </g>
   <g id="matplotlib.axis_2">
    <g id="ytick_1">
     <g id="line2d_16">
      <defs>
       <path d="M 0 0 
L 4 0 
" id="mbfb236c24f" style="stroke:#000000;stroke-width:0.5;"/>
      </defs>
      <g>
       <use style="stroke:#000000;stroke-width:0.5;" x="72.0" xlink:href="#mbfb236c24f" y="388.8"/>
      </g>
     </g>
     <g id="line2d_17">
      <defs>
       <path d="M 0 0 
L -4 0 
" id="m833e8006cf" style="stroke:#000000;stroke-width:0.5;"/>
      </defs>
      <g>
       <use style="stroke:#000000;stroke-width:0.5;" x="518.4" xlink:href="#m833e8006cf" y="388.8"/>
      </g>
     </g>
     <g id="text_8">
      <!-- 0.0 -->
      <defs>
       <path d="M 10.6875 12.40625 
L 21 12.40625 
L 21 0 
L 10.6875 0 
z
" id="BitstreamVeraSans-Roman-2e"/>
      </defs>
      <g transform="translate(48.91625 392.11125)scale(0.12 -0.12)">
       <use xlink:href="#BitstreamVeraSans-Roman-30"/>
       <use x="63.623046875" xlink:href="#BitstreamVeraSans-Roman-2e"/>
       <use x="95.41015625" xlink:href="#BitstreamVeraSans-Roman-30"/>
      </g>
     </g>
    </g>
    <g id="ytick_2">
     <g id="line2d_18">
      <g>
       <use style="stroke:#000000;stroke-width:0.5;" x="72.0" xlink:href="#mbfb236c24f" y="345.6"/>
      </g>
     </g>
     <g id="line2d_19">
      <g>
       <use style="stroke:#000000;stroke-width:0.5;" x="518.4" xlink:href="#m833e8006cf" y="345.6"/>
      </g>
     </g>
     <g id="text_9">
      <!-- 0.5 -->
      <defs>
       <path d="M 10.796875 72.90625 
L 49.515625 72.90625 
L 49.515625 64.59375 
L 19.828125 64.59375 
L 19.828125 46.734375 
Q 21.96875 47.46875 24.109375 47.828125 
Q 26.265625 48.1875 28.421875 48.1875 
Q 40.625 48.1875 47.75 41.5 
Q 54.890625 34.8125 54.890625 23.390625 
Q 54.890625 11.625 47.5625 5.09375 
Q 40.234375 -1.421875 26.90625 -1.421875 
Q 22.3125 -1.421875 17.546875 -0.640625 
Q 12.796875 0.140625 7.71875 1.703125 
L 7.71875 11.625 
Q 12.109375 9.234375 16.796875 8.0625 
Q 21.484375 6.890625 26.703125 6.890625 
Q 35.15625 6.890625 40.078125 11.328125 
Q 45.015625 15.765625 45.015625 23.390625 
Q 45.015625 31 40.078125 35.4375 
Q 35.15625 39.890625 26.703125 39.890625 
Q 22.75 39.890625 18.8125 39.015625 
Q 14.890625 38.140625 10.796875 36.28125 
z
" id="BitstreamVeraSans-Roman-35"/>
      </defs>
      <g transform="translate(48.91625 348.91125)scale(0.12 -0.12)">
       <use xlink:href="#BitstreamVeraSans-Roman-30"/>
       <use x="63.623046875" xlink:href="#BitstreamVeraSans-Roman-2e"/>
       <use x="95.41015625" xlink:href="#BitstreamVeraSans-Roman-35"/>
      </g>
     </g>
    </g>
    <g id="ytick_3">
     <g id="line2d_20">
      <g>
       <use style="stroke:#000000;stroke-width:0.5;" x="72.0" xlink:href="#mbfb236c24f" y="302.4"/>
      </g>
     </g>
     <g id="line2d_21">
      <g>
       <use style="stroke:#000000;stroke-width:0.5;" x="518.4" xlink:href="#m833e8006cf" y="302.4"/>
      </g>
     </g>
     <g id="text_10">
      <!-- 1.0 -->
      <g transform="translate(48.91625 305.71125)scale(0.12 -0.12)">
       <use xlink:href="#BitstreamVeraSans-Roman-31"/>
       <use x="63.623046875" xlink:href="#BitstreamVeraSans-Roman-2e"/>
       <use x="95.41015625" xlink:href="#BitstreamVeraSans-Roman-30"/>
      </g>
     </g>
    </g>
    <g id="ytick_4">
     <g id="line2d_22">
      <g>
       <use style="stroke:#000000;stroke-width:0.5;" x="72.0" xlink:href="#mbfb236c24f" y="259.2"/>
      </g>
     </g>
     <g id="line2d_23">
      <g>
       <use style="stroke:#000000;stroke-width:0.5;" x="518.4" xlink:href="#m833e8006cf" y="259.2"/>
      </g>
     </g>
     <g id="text_11">
      <!-- 1.5 -->
      <g transform="translate(48.91625 262.51125)scale(0.12 -0.12)">
       <use xlink:href="#BitstreamVeraSans-Roman-31"/>
       <use x="63.623046875" xlink:href="#BitstreamVeraSans-Roman-2e"/>
       <use x="95.41015625" xlink:href="#BitstreamVeraSans-Roman-35"/>
      </g>
     </g>
    </g>
    <g id="ytick_5">
     <g id="line2d_24">
      <g>
       <use style="stroke:#000000;stroke-width:0.5;" x="72.0" xlink:href="#mbfb236c24f" y="216.0"/>
      </g>
     </g>
     <g id="line2d_25">
      <g>
       <use style="stroke:#000000;stroke-width:0.5;" x="518.4" xlink:href="#m833e8006cf" y="216.0"/>
      </g>
     </g>
     <g id="text_12">
      <!-- 2.0 -->
      <g transform="translate(48.91625 219.31125)scale(0.12 -0.12)">
       <use xlink:href="#BitstreamVeraSans-Roman-32"/>
       <use x="63.623046875" xlink:href="#BitstreamVeraSans-Roman-2e"/>
       <use x="95.41015625" xlink:href="#BitstreamVeraSans-Roman-30"/>
      </g>
     </g>
    </g>
    <g id="ytick_6">
     <g id="line2d_26">
      <g>
       <use style="stroke:#000000;stroke-width:0.5;" x="72.0" xlink:href="#mbfb236c24f" y="172.8"/>
      </g>
     </g>
     <g id="line2d_27">
      <g>
       <use style="stroke:#000000;stroke-width:0.5;" x="518.4" xlink:href="#m833e8006cf" y="172.8"/>
      </g>
     </g>
     <g id="text_13">
      <!-- 2.5 -->
      <g transform="translate(48.91625 176.11125)scale(0.12 -0.12)">
       <use xlink:href="#BitstreamVeraSans-Roman-32"/>
       <use x="63.623046875" xlink:href="#BitstreamVeraSans-Roman-2e"/>
       <use x="95.41015625" xlink:href="#BitstreamVeraSans-Roman-35"/>
      </g>
     </g>
    </g>
    <g id="ytick_7">
     <g id="line2d_28">
      <g>
       <use style="stroke:#000000;stroke-width:0.5;" x="72.0" xlink:href="#mbfb236c24f" y="129.6"/>
      </g>
     </g>
     <g id="line2d_29">
      <g>
       <use style="stroke:#000000;stroke-width:0.5;" x="518.4" xlink:href="#m833e8006cf" y="129.6"/>
      </g>
     </g>
     <g id="text_14">
      <!-- 3.0 -->
      <defs>
       <path d="M 40.578125 39.3125 
Q 47.65625 37.796875 51.625 33 
Q 55.609375 28.21875 55.609375 21.1875 
Q 55.609375 10.40625 48.1875 4.484375 
Q 40.765625 -1.421875 27.09375 -1.421875 
Q 22.515625 -1.421875 17.65625 -0.515625 
Q 12.796875 0.390625 7.625 2.203125 
L 7.625 11.71875 
Q 11.71875 9.328125 16.59375 8.109375 
Q 21.484375 6.890625 26.8125 6.890625 
Q 36.078125 6.890625 40.9375 10.546875 
Q 45.796875 14.203125 45.796875 21.1875 
Q 45.796875 27.640625 41.28125 31.265625 
Q 36.765625 34.90625 28.71875 34.90625 
L 20.21875 34.90625 
L 20.21875 43.015625 
L 29.109375 43.015625 
Q 36.375 43.015625 40.234375 45.921875 
Q 44.09375 48.828125 44.09375 54.296875 
Q 44.09375 59.90625 40.109375 62.90625 
Q 36.140625 65.921875 28.71875 65.921875 
Q 24.65625 65.921875 20.015625 65.03125 
Q 15.375 64.15625 9.8125 62.3125 
L 9.8125 71.09375 
Q 15.4375 72.65625 20.34375 73.4375 
Q 25.25 74.21875 29.59375 74.21875 
Q 40.828125 74.21875 47.359375 69.109375 
Q 53.90625 64.015625 53.90625 55.328125 
Q 53.90625 49.265625 50.4375 45.09375 
Q 46.96875 40.921875 40.578125 39.3125 
" id="BitstreamVeraSans-Roman-33"/>
      </defs>
      <g transform="translate(48.91625 132.91125)scale(0.12 -0.12)">
       <use xlink:href="#BitstreamVeraSans-Roman-33"/>
       <use x="63.623046875" xlink:href="#BitstreamVeraSans-Roman-2e"/>
       <use x="95.41015625" xlink:href="#BitstreamVeraSans-Roman-30"/>
      </g>
     </g>
    </g>
    <g id="ytick_8">
     <g id="line2d_30">
      <g>
       <use style="stroke:#000000;stroke-width:0.5;" x="72.0" xlink:href="#mbfb236c24f" y="86.4"/>
      </g>
     </g>
     <g id="line2d_31">
      <g>
       <use style="stroke:#000000;stroke-width:0.5;" x="518.4" xlink:href="#m833e8006cf" y="86.4"/>
      </g>
     </g>
     <g id="text_15">
      <!-- 3.5 -->
      <g transform="translate(48.91625 89.71125)scale(0.12 -0.12)">
       <use xlink:href="#BitstreamVeraSans-Roman-33"/>
       <use x="63.623046875" xlink:href="#BitstreamVeraSans-Roman-2e"/>
       <use x="95.41015625" xlink:href="#BitstreamVeraSans-Roman-35"/>
      </g>
     </g>
    </g>
    <g id="ytick_9">
     <g id="line2d_32">
      <g>
       <use style="stroke:#000000;stroke-width:0.5;" x="72.0" xlink:href="#mbfb236c24f" y="43.2"/>
      </g>
     </g>
     <g id="line2d_33">
      <g>
       <use style="stroke:#000000;stroke-width:0.5;" x="518.4" xlink:href="#m833e8006cf" y="43.2"/>
      </g>
     </g>
     <g id="text_16">
      <!-- 4.0 -->
      <g transform="translate(48.91625 46.51125)scale(0.12 -0.12)">
       <use xlink:href="#BitstreamVeraSans-Roman-34"/>
       <use x="63.623046875" xlink:href="#BitstreamVeraSans-Roman-2e"/>
       <use x="95.41015625" xlink:href="#BitstreamVeraSans-Roman-30"/>
      </g>
     </g>
    </g>
    <g id="text_17">
     <!-- Running Variances -->
     <defs>
      <path d="M 28.609375 0 
L 0.78125 72.90625 
L 11.078125 72.90625 
L 34.1875 11.53125 
L 57.328125 72.90625 
L 67.578125 72.90625 
L 39.796875 0 
z
" id="BitstreamVeraSans-Roman-56"/>
      <path d="M 48.78125 52.59375 
L 48.78125 44.1875 
Q 44.96875 46.296875 41.140625 47.34375 
Q 37.3125 48.390625 33.40625 48.390625 
Q 24.65625 48.390625 19.8125 42.84375 
Q 14.984375 37.3125 14.984375 27.296875 
Q 14.984375 17.28125 19.8125 11.734375 
Q 24.65625 6.203125 33.40625 6.203125 
Q 37.3125 6.203125 41.140625 7.25 
Q 44.96875 8.296875 48.78125 10.40625 
L 48.78125 2.09375 
Q 45.015625 0.34375 40.984375 -0.53125 
Q 36.96875 -1.421875 32.421875 -1.421875 
Q 20.0625 -1.421875 12.78125 6.34375 
Q 5.515625 14.109375 5.515625 27.296875 
Q 5.515625 40.671875 12.859375 48.328125 
Q 20.21875 56 33.015625 56 
Q 37.15625 56 41.109375 55.140625 
Q 45.0625 54.296875 48.78125 52.59375 
" id="BitstreamVeraSans-Roman-63"/>
      <path d="M 54.890625 33.015625 
L 54.890625 0 
L 45.90625 0 
L 45.90625 32.71875 
Q 45.90625 40.484375 42.875 44.328125 
Q 39.84375 48.1875 33.796875 48.1875 
Q 26.515625 48.1875 22.3125 43.546875 
Q 18.109375 38.921875 18.109375 30.90625 
L 18.109375 0 
L 9.078125 0 
L 9.078125 54.6875 
L 18.109375 54.6875 
L 18.109375 46.1875 
Q 21.34375 51.125 25.703125 53.5625 
Q 30.078125 56 35.796875 56 
Q 45.21875 56 50.046875 50.171875 
Q 54.890625 44.34375 54.890625 33.015625 
" id="BitstreamVeraSans-Roman-6e"/>
      <path d="M 44.28125 53.078125 
L 44.28125 44.578125 
Q 40.484375 46.53125 36.375 47.5 
Q 32.28125 48.484375 27.875 48.484375 
Q 21.1875 48.484375 17.84375 46.4375 
Q 14.5 44.390625 14.5 40.28125 
Q 14.5 37.15625 16.890625 35.375 
Q 19.28125 33.59375 26.515625 31.984375 
L 29.59375 31.296875 
Q 39.15625 29.25 43.1875 25.515625 
Q 47.21875 21.78125 47.21875 15.09375 
Q 47.21875 7.46875 41.1875 3.015625 
Q 35.15625 -1.421875 24.609375 -1.421875 
Q 20.21875 -1.421875 15.453125 -0.5625 
Q 10.6875 0.296875 5.421875 2 
L 5.421875 11.28125 
Q 10.40625 8.6875 15.234375 7.390625 
Q 20.0625 6.109375 24.8125 6.109375 
Q 31.15625 6.109375 34.5625 8.28125 
Q 37.984375 10.453125 37.984375 14.40625 
Q 37.984375 18.0625 35.515625 20.015625 
Q 33.0625 21.96875 24.703125 23.78125 
L 21.578125 24.515625 
Q 13.234375 26.265625 9.515625 29.90625 
Q 5.8125 33.546875 5.8125 39.890625 
Q 5.8125 47.609375 11.28125 51.796875 
Q 16.75 56 26.8125 56 
Q 31.78125 56 36.171875 55.265625 
Q 40.578125 54.546875 44.28125 53.078125 
" id="BitstreamVeraSans-Roman-73"/>
      <path d="M 45.40625 27.984375 
Q 45.40625 37.75 41.375 43.109375 
Q 37.359375 48.484375 30.078125 48.484375 
Q 22.859375 48.484375 18.828125 43.109375 
Q 14.796875 37.75 14.796875 27.984375 
Q 14.796875 18.265625 18.828125 12.890625 
Q 22.859375 7.515625 30.078125 7.515625 
Q 37.359375 7.515625 41.375 12.890625 
Q 45.40625 18.265625 45.40625 27.984375 
M 54.390625 6.78125 
Q 54.390625 -7.171875 48.1875 -13.984375 
Q 42 -20.796875 29.203125 -20.796875 
Q 24.46875 -20.796875 20.265625 -20.09375 
Q 16.0625 -19.390625 12.109375 -17.921875 
L 12.109375 -9.1875 
Q 16.0625 -11.328125 19.921875 -12.34375 
Q 23.78125 -13.375 27.78125 -13.375 
Q 36.625 -13.375 41.015625 -8.765625 
Q 45.40625 -4.15625 45.40625 5.171875 
L 45.40625 9.625 
Q 42.625 4.78125 38.28125 2.390625 
Q 33.9375 0 27.875 0 
Q 17.828125 0 11.671875 7.65625 
Q 5.515625 15.328125 5.515625 27.984375 
Q 5.515625 40.671875 11.671875 48.328125 
Q 17.828125 56 27.875 56 
Q 33.9375 56 38.28125 53.609375 
Q 42.625 51.21875 45.40625 46.390625 
L 45.40625 54.6875 
L 54.390625 54.6875 
z
" id="BitstreamVeraSans-Roman-67"/>
      <path d="M 9.421875 54.6875 
L 18.40625 54.6875 
L 18.40625 0 
L 9.421875 0 
z
M 9.421875 75.984375 
L 18.40625 75.984375 
L 18.40625 64.59375 
L 9.421875 64.59375 
z
" id="BitstreamVeraSans-Roman-69"/>
      <path d="M 44.390625 34.1875 
Q 47.5625 33.109375 50.5625 29.59375 
Q 53.5625 26.078125 56.59375 19.921875 
L 66.609375 0 
L 56 0 
L 46.6875 18.703125 
Q 43.0625 26.03125 39.671875 28.421875 
Q 36.28125 30.8125 30.421875 30.8125 
L 19.671875 30.8125 
L 19.671875 0 
L 9.8125 0 
L 9.8125 72.90625 
L 32.078125 72.90625 
Q 44.578125 72.90625 50.734375 67.671875 
Q 56.890625 62.453125 56.890625 51.90625 
Q 56.890625 45.015625 53.6875 40.46875 
Q 50.484375 35.9375 44.390625 34.1875 
M 19.671875 64.796875 
L 19.671875 38.921875 
L 32.078125 38.921875 
Q 39.203125 38.921875 42.84375 42.21875 
Q 46.484375 45.515625 46.484375 51.90625 
Q 46.484375 58.296875 42.84375 61.546875 
Q 39.203125 64.796875 32.078125 64.796875 
z
" id="BitstreamVeraSans-Roman-52"/>
     </defs>
     <g transform="translate(41.420625 272.2621875)rotate(-90.0)scale(0.12 -0.12)">
      <use xlink:href="#BitstreamVeraSans-Roman-52"/>
      <use x="69.419921875" xlink:href="#BitstreamVeraSans-Roman-75"/>
      <use x="132.798828125" xlink:href="#BitstreamVeraSans-Roman-6e"/>
      <use x="196.177734375" xlink:href="#BitstreamVeraSans-Roman-6e"/>
      <use x="259.556640625" xlink:href="#BitstreamVeraSans-Roman-69"/>
      <use x="287.33984375" xlink:href="#BitstreamVeraSans-Roman-6e"/>
      <use x="350.71875" xlink:href="#BitstreamVeraSans-Roman-67"/>
      <use x="414.1953125" xlink:href="#BitstreamVeraSans-Roman-20"/>
      <use x="445.982421875" xlink:href="#BitstreamVeraSans-Roman-56"/>
      <use x="514.28125" xlink:href="#BitstreamVeraSans-Roman-61"/>
      <use x="575.560546875" xlink:href="#BitstreamVeraSans-Roman-72"/>
      <use x="616.673828125" xlink:href="#BitstreamVeraSans-Roman-69"/>
      <use x="644.45703125" xlink:href="#BitstreamVeraSans-Roman-61"/>
      <use x="705.736328125" xlink:href="#BitstreamVeraSans-Roman-6e"/>
      <use x="769.115234375" xlink:href="#BitstreamVeraSans-Roman-63"/>
      <use x="824.095703125" xlink:href="#BitstreamVeraSans-Roman-65"/>
      <use x="885.619140625" xlink:href="#BitstreamVeraSans-Roman-73"/>
     </g>
    </g>
   </g>
   <g id="text_18">
    <!-- Running Variances vs Sample Number -->
    <defs>
     <path d="M 2.984375 54.6875 
L 12.5 54.6875 
L 29.59375 8.796875 
L 46.6875 54.6875 
L 56.203125 54.6875 
L 35.6875 0 
L 23.484375 0 
z
" id="BitstreamVeraSans-Roman-76"/>
    </defs>
    <g transform="translate(156.886875 38.2)scale(0.144 -0.144)">
     <use xlink:href="#BitstreamVeraSans-Roman-52"/>
     <use x="69.419921875" xlink:href="#BitstreamVeraSans-Roman-75"/>
     <use x="132.798828125" xlink:href="#BitstreamVeraSans-Roman-6e"/>
     <use x="196.177734375" xlink:href="#BitstreamVeraSans-Roman-6e"/>
     <use x="259.556640625" xlink:href="#BitstreamVeraSans-Roman-69"/>
     <use x="287.33984375" xlink:href="#BitstreamVeraSans-Roman-6e"/>
     <use x="350.71875" xlink:href="#BitstreamVeraSans-Roman-67"/>
     <use x="414.1953125" xlink:href="#BitstreamVeraSans-Roman-20"/>
     <use x="445.982421875" xlink:href="#BitstreamVeraSans-Roman-56"/>
     <use x="514.28125" xlink:href="#BitstreamVeraSans-Roman-61"/>
     <use x="575.560546875" xlink:href="#BitstreamVeraSans-Roman-72"/>
     <use x="616.673828125" xlink:href="#BitstreamVeraSans-Roman-69"/>
     <use x="644.45703125" xlink:href="#BitstreamVeraSans-Roman-61"/>
     <use x="705.736328125" xlink:href="#BitstreamVeraSans-Roman-6e"/>
     <use x="769.115234375" xlink:href="#BitstreamVeraSans-Roman-63"/>
     <use x="824.095703125" xlink:href="#BitstreamVeraSans-Roman-65"/>
     <use x="885.619140625" xlink:href="#BitstreamVeraSans-Roman-73"/>
     <use x="937.71875" xlink:href="#BitstreamVeraSans-Roman-20"/>
     <use x="969.505859375" xlink:href="#BitstreamVeraSans-Roman-76"/>
     <use x="1028.685546875" xlink:href="#BitstreamVeraSans-Roman-73"/>
     <use x="1080.78515625" xlink:href="#BitstreamVeraSans-Roman-20"/>
     <use x="1112.572265625" xlink:href="#BitstreamVeraSans-Roman-53"/>
     <use x="1176.048828125" xlink:href="#BitstreamVeraSans-Roman-61"/>
     <use x="1237.328125" xlink:href="#BitstreamVeraSans-Roman-6d"/>
     <use x="1334.740234375" xlink:href="#BitstreamVeraSans-Roman-70"/>
     <use x="1398.216796875" xlink:href="#BitstreamVeraSans-Roman-6c"/>
     <use x="1426.0" xlink:href="#BitstreamVeraSans-Roman-65"/>
     <use x="1487.5234375" xlink:href="#BitstreamVeraSans-Roman-20"/>
     <use x="1519.310546875" xlink:href="#BitstreamVeraSans-Roman-4e"/>
     <use x="1594.115234375" xlink:href="#BitstreamVeraSans-Roman-75"/>
     <use x="1657.494140625" xlink:href="#BitstreamVeraSans-Roman-6d"/>
     <use x="1754.90625" xlink:href="#BitstreamVeraSans-Roman-62"/>
     <use x="1818.3828125" xlink:href="#BitstreamVeraSans-Roman-65"/>
     <use x="1879.90625" xlink:href="#BitstreamVeraSans-Roman-72"/>
    </g>
   </g>
   <g id="legend_1">
    <g id="patch_7">
     <path d="M 295.2 371.52 
L 504.3915 371.52 
L 504.3915 303.7905 
L 295.2 303.7905 
z
" style="fill:#ffffff;stroke:#000000;stroke-linejoin:miter;"/>
    </g>
    <g id="line2d_34">
     <path d="M 305.28 315.45225 
L 325.44 315.45225 
" style="fill:none;stroke:#0000ff;stroke-linecap:square;"/>
    </g>
    <g id="line2d_35"/>
    <g id="text_19">
     <!-- Dependent Samples -->
     <defs>
      <path d="M 18.3125 70.21875 
L 18.3125 54.6875 
L 36.8125 54.6875 
L 36.8125 47.703125 
L 18.3125 47.703125 
L 18.3125 18.015625 
Q 18.3125 11.328125 20.140625 9.421875 
Q 21.96875 7.515625 27.59375 7.515625 
L 36.8125 7.515625 
L 36.8125 0 
L 27.59375 0 
Q 17.1875 0 13.234375 3.875 
Q 9.28125 7.765625 9.28125 18.015625 
L 9.28125 47.703125 
L 2.6875 47.703125 
L 2.6875 54.6875 
L 9.28125 54.6875 
L 9.28125 70.21875 
z
" id="BitstreamVeraSans-Roman-74"/>
      <path d="M 45.40625 46.390625 
L 45.40625 75.984375 
L 54.390625 75.984375 
L 54.390625 0 
L 45.40625 0 
L 45.40625 8.203125 
Q 42.578125 3.328125 38.25 0.953125 
Q 33.9375 -1.421875 27.875 -1.421875 
Q 17.96875 -1.421875 11.734375 6.484375 
Q 5.515625 14.40625 5.515625 27.296875 
Q 5.515625 40.1875 11.734375 48.09375 
Q 17.96875 56 27.875 56 
Q 33.9375 56 38.25 53.625 
Q 42.578125 51.265625 45.40625 46.390625 
M 14.796875 27.296875 
Q 14.796875 17.390625 18.875 11.75 
Q 22.953125 6.109375 30.078125 6.109375 
Q 37.203125 6.109375 41.296875 11.75 
Q 45.40625 17.390625 45.40625 27.296875 
Q 45.40625 37.203125 41.296875 42.84375 
Q 37.203125 48.484375 30.078125 48.484375 
Q 22.953125 48.484375 18.875 42.84375 
Q 14.796875 37.203125 14.796875 27.296875 
" id="BitstreamVeraSans-Roman-64"/>
      <path d="M 19.671875 64.796875 
L 19.671875 8.109375 
L 31.59375 8.109375 
Q 46.6875 8.109375 53.6875 14.9375 
Q 60.6875 21.78125 60.6875 36.53125 
Q 60.6875 51.171875 53.6875 57.984375 
Q 46.6875 64.796875 31.59375 64.796875 
z
M 9.8125 72.90625 
L 30.078125 72.90625 
Q 51.265625 72.90625 61.171875 64.09375 
Q 71.09375 55.28125 71.09375 36.53125 
Q 71.09375 17.671875 61.125 8.828125 
Q 51.171875 0 30.078125 0 
L 9.8125 0 
z
" id="BitstreamVeraSans-Roman-44"/>
     </defs>
     <g transform="translate(341.28 320.49225)scale(0.144 -0.144)">
      <use xlink:href="#BitstreamVeraSans-Roman-44"/>
      <use x="77.001953125" xlink:href="#BitstreamVeraSans-Roman-65"/>
      <use x="138.525390625" xlink:href="#BitstreamVeraSans-Roman-70"/>
      <use x="202.001953125" xlink:href="#BitstreamVeraSans-Roman-65"/>
      <use x="263.525390625" xlink:href="#BitstreamVeraSans-Roman-6e"/>
      <use x="326.904296875" xlink:href="#BitstreamVeraSans-Roman-64"/>
      <use x="390.380859375" xlink:href="#BitstreamVeraSans-Roman-65"/>
      <use x="451.904296875" xlink:href="#BitstreamVeraSans-Roman-6e"/>
      <use x="515.283203125" xlink:href="#BitstreamVeraSans-Roman-74"/>
      <use x="554.4921875" xlink:href="#BitstreamVeraSans-Roman-20"/>
      <use x="586.279296875" xlink:href="#BitstreamVeraSans-Roman-53"/>
      <use x="649.755859375" xlink:href="#BitstreamVeraSans-Roman-61"/>
      <use x="711.03515625" xlink:href="#BitstreamVeraSans-Roman-6d"/>
      <use x="808.447265625" xlink:href="#BitstreamVeraSans-Roman-70"/>
      <use x="871.923828125" xlink:href="#BitstreamVeraSans-Roman-6c"/>
      <use x="899.70703125" xlink:href="#BitstreamVeraSans-Roman-65"/>
      <use x="961.23046875" xlink:href="#BitstreamVeraSans-Roman-73"/>
     </g>
    </g>
    <g id="line2d_36">
     <path d="M 305.28 336.58875 
L 325.44 336.58875 
" style="fill:none;stroke:#008000;stroke-linecap:square;"/>
    </g>
    <g id="line2d_37"/>
    <g id="text_20">
     <!-- Independent Samples -->
     <defs>
      <path d="M 9.8125 72.90625 
L 19.671875 72.90625 
L 19.671875 0 
L 9.8125 0 
z
" id="BitstreamVeraSans-Roman-49"/>
     </defs>
     <g transform="translate(341.28 341.62875)scale(0.144 -0.144)">
      <use xlink:href="#BitstreamVeraSans-Roman-49"/>
      <use x="29.4921875" xlink:href="#BitstreamVeraSans-Roman-6e"/>
      <use x="92.87109375" xlink:href="#BitstreamVeraSans-Roman-64"/>
      <use x="156.34765625" xlink:href="#BitstreamVeraSans-Roman-65"/>
      <use x="217.87109375" xlink:href="#BitstreamVeraSans-Roman-70"/>
      <use x="281.34765625" xlink:href="#BitstreamVeraSans-Roman-65"/>
      <use x="342.87109375" xlink:href="#BitstreamVeraSans-Roman-6e"/>
      <use x="406.25" xlink:href="#BitstreamVeraSans-Roman-64"/>
      <use x="469.7265625" xlink:href="#BitstreamVeraSans-Roman-65"/>
      <use x="531.25" xlink:href="#BitstreamVeraSans-Roman-6e"/>
      <use x="594.62890625" xlink:href="#BitstreamVeraSans-Roman-74"/>
      <use x="633.837890625" xlink:href="#BitstreamVeraSans-Roman-20"/>
      <use x="665.625" xlink:href="#BitstreamVeraSans-Roman-53"/>
      <use x="729.1015625" xlink:href="#BitstreamVeraSans-Roman-61"/>
      <use x="790.380859375" xlink:href="#BitstreamVeraSans-Roman-6d"/>
      <use x="887.79296875" xlink:href="#BitstreamVeraSans-Roman-70"/>
      <use x="951.26953125" xlink:href="#BitstreamVeraSans-Roman-6c"/>
      <use x="979.052734375" xlink:href="#BitstreamVeraSans-Roman-65"/>
      <use x="1040.576171875" xlink:href="#BitstreamVeraSans-Roman-73"/>
     </g>
    </g>
    <g id="line2d_38">
     <path d="M 305.28 357.72525 
L 325.44 357.72525 
" style="fill:none;stroke:#ff0000;stroke-linecap:square;"/>
    </g>
    <g id="line2d_39"/>
    <g id="text_21">
     <!-- True Value -->
     <defs>
      <path d="M -0.296875 72.90625 
L 61.375 72.90625 
L 61.375 64.59375 
L 35.5 64.59375 
L 35.5 0 
L 25.59375 0 
L 25.59375 64.59375 
L -0.296875 64.59375 
z
" id="BitstreamVeraSans-Roman-54"/>
     </defs>
     <g transform="translate(341.28 362.76525)scale(0.144 -0.144)">
      <use xlink:href="#BitstreamVeraSans-Roman-54"/>
      <use x="60.865234375" xlink:href="#BitstreamVeraSans-Roman-72"/>
      <use x="101.978515625" xlink:href="#BitstreamVeraSans-Roman-75"/>
      <use x="165.357421875" xlink:href="#BitstreamVeraSans-Roman-65"/>
      <use x="226.880859375" xlink:href="#BitstreamVeraSans-Roman-20"/>
      <use x="258.66796875" xlink:href="#BitstreamVeraSans-Roman-56"/>
      <use x="326.966796875" xlink:href="#BitstreamVeraSans-Roman-61"/>
      <use x="388.24609375" xlink:href="#BitstreamVeraSans-Roman-6c"/>
      <use x="416.029296875" xlink:href="#BitstreamVeraSans-Roman-75"/>
      <use x="479.408203125" xlink:href="#BitstreamVeraSans-Roman-65"/>
     </g>
    </g>
   </g>
  </g>
 </g>
 <defs>
  <clipPath id="p5cd354462c">
   <rect height="345.6" width="446.4" x="72.0" y="43.2"/>
  </clipPath>
 </defs>
</svg>
