<?xml version="1.0" encoding="UTF-8" standalone="no"?>
<!-- Created with Inkscape (http://www.inkscape.org/) -->

<svg
   xmlns:dc="http://purl.org/dc/elements/1.1/"
   xmlns:cc="http://creativecommons.org/ns#"
   xmlns:rdf="http://www.w3.org/1999/02/22-rdf-syntax-ns#"
   xmlns:svg="http://www.w3.org/2000/svg"
   xmlns="http://www.w3.org/2000/svg"
   xmlns:xlink="http://www.w3.org/1999/xlink"
   xmlns:sodipodi="http://sodipodi.sourceforge.net/DTD/sodipodi-0.dtd"
   xmlns:inkscape="http://www.inkscape.org/namespaces/inkscape"
   width="169.35577mm"
   height="160.84326mm"
   viewBox="0 0 600.07951 569.91707"
   id="svg2"
   version="1.1"
   inkscape:version="0.91 r13725"
   sodipodi:docname="FujiApple.svg"
   style="enable-background:new"
   inkscape:export-filename="C:\Users\Matthew\Desktop\Drawings\FujiApple-thumbnail.png"
   inkscape:export-xdpi="31.645807"
   inkscape:export-ydpi="31.645807">
  <title
     id="title5627">Fuji Apple</title>
  <defs
     id="defs4">
    <linearGradient
       inkscape:collect="always"
       id="linearGradient5619">
      <stop
         style="stop-color:#754220;stop-opacity:1;"
         offset="0"
         id="stop5621" />
      <stop
         style="stop-color:#502e14;stop-opacity:1"
         offset="1"
         id="stop5623" />
    </linearGradient>
    <linearGradient
       inkscape:collect="always"
       id="linearGradient4187">
      <stop
         style="stop-color:#ffffff;stop-opacity:1"
         offset="0"
         id="stop4189" />
      <stop
         style="stop-color:#999999;stop-opacity:1"
         offset="1"
         id="stop4191" />
    </linearGradient>
    <linearGradient
       inkscape:collect="always"
       id="linearGradient4151">
      <stop
         style="stop-color:#d9d926;stop-opacity:1"
         offset="0"
         id="stop4153" />
      <stop
         id="stop4159"
         offset="0.6045512"
         style="stop-color:#d9d926;stop-opacity:1" />
      <stop
         style="stop-color:#d9d926;stop-opacity:0"
         offset="1"
         id="stop4155" />
    </linearGradient>
    <radialGradient
       inkscape:collect="always"
       xlink:href="#linearGradient4151"
       id="radialGradient4157"
       cx="72.918922"
       cy="480.75461"
       fx="72.918922"
       fy="480.75461"
       r="66.671333"
       gradientTransform="matrix(0.93171329,0,0,0.34248896,-156.48584,336.15211)"
       gradientUnits="userSpaceOnUse" />
    <radialGradient
       inkscape:collect="always"
       xlink:href="#linearGradient4187"
       id="radialGradient4193"
       cx="258.21506"
       cy="361.56717"
       fx="258.21506"
       fy="361.56717"
       r="203.08202"
       gradientTransform="matrix(0.93746078,1.5517989,-1.6098228,0.97251388,633.95269,-380.79814)"
       gradientUnits="userSpaceOnUse" />
    <filter
       inkscape:collect="always"
       style="color-interpolation-filters:sRGB"
       id="filter5011"
       x="-0.16082427"
       width="1.3216485"
       y="-0.13844869"
       height="1.2768974">
      <feGaussianBlur
         inkscape:collect="always"
         stdDeviation="12.592075"
         id="feGaussianBlur5013" />
    </filter>
    <filter
       inkscape:collect="always"
       style="color-interpolation-filters:sRGB"
       id="filter5114"
       x="-0.13247931"
       width="1.2649586"
       y="-0.28068107"
       height="1.5613621">
      <feGaussianBlur
         inkscape:collect="always"
         stdDeviation="23.480457"
         id="feGaussianBlur5116" />
    </filter>
    <filter
       inkscape:collect="always"
       style="color-interpolation-filters:sRGB"
       id="filter5230"
       x="-0.13170601"
       width="1.263412"
       y="-0.28421658"
       height="1.5684332">
      <feGaussianBlur
         inkscape:collect="always"
         stdDeviation="8.2049415"
         id="feGaussianBlur5232" />
    </filter>
    <linearGradient
       inkscape:collect="always"
       xlink:href="#linearGradient5619"
       id="linearGradient5625"
       x1="286.39767"
       y1="356.20941"
       x2="290.28137"
       y2="354.57202"
       gradientUnits="userSpaceOnUse" />
  </defs>
  <sodipodi:namedview
     id="base"
     pagecolor="#ffffff"
     bordercolor="#666666"
     borderopacity="1.0"
     inkscape:pageopacity="0.0"
     inkscape:pageshadow="2"
     inkscape:zoom="1"
     inkscape:cx="273.20961"
     inkscape:cy="298.60454"
     inkscape:document-units="px"
     inkscape:current-layer="layer8"
     showgrid="false"
     inkscape:window-width="1536"
     inkscape:window-height="801"
     inkscape:window-x="-8"
     inkscape:window-y="-8"
     inkscape:window-maximized="1"
     fit-margin-top="0"
     fit-margin-left="0"
     fit-margin-right="0"
     fit-margin-bottom="0" />
  <metadata
     id="metadata7">
    <rdf:RDF>
      <cc:Work
         rdf:about="">
        <dc:format>image/svg+xml</dc:format>
        <dc:type
           rdf:resource="http://purl.org/dc/dcmitype/StillImage" />
        <dc:title>Fuji Apple</dc:title>
        <dc:date>2022-04-24</dc:date>
        <dc:creator>
          <cc:Agent>
            <dc:title>Matthew McGonagle</dc:title>
          </cc:Agent>
        </dc:creator>
        <dc:description>Made with Inkscape</dc:description>
      </cc:Work>
    </rdf:RDF>
  </metadata>
  <g
     inkscape:groupmode="layer"
     id="layer8"
     inkscape:label="Shadow"
     style="display:inline"
     transform="translate(-178.37638,-321.44513)"
     sodipodi:insensitive="true">
    <path
       style="fill:#000000;fill-rule:evenodd;stroke:none;stroke-width:1px;stroke-linecap:butt;stroke-linejoin:miter;stroke-opacity:1;filter:url(#filter5114)"
       d="m 304,713.3622 c -9.24124,18.88467 -11.13226,28.55553 3,52 14.13226,23.44447 53.788,46.08766 96,58 42.212,11.91234 102.42438,11.21061 151,1 48.57562,-10.21061 107.49067,-36.98613 134,-60 26.50933,-23.01387 32.8022,-32.66406 34,-54 1.1978,-21.33594 -8.0686,-42.234 -28,-58 -19.9314,-15.766 -56.66194,-15.79778 -86,-19 -29.33806,-3.20222 -82,-2 -89,0 -7,2 -118.62931,22.1003 -154,38 -35.37069,15.8997 -51.75876,23.11533 -61,42 z"
       id="path5024"
       inkscape:connector-curvature="0"
       sodipodi:nodetypes="zzzzzzzzzzz" />
  </g>
  <g
     inkscape:label="Layer 1"
     inkscape:groupmode="layer"
     id="layer1"
     style="display:inline"
     transform="translate(-178.37638,-321.44513)"
     sodipodi:insensitive="true">
    <path
       style="fill:#e80000;fill-opacity:1;fill-rule:evenodd;stroke:#000000;stroke-width:1px;stroke-linecap:butt;stroke-linejoin:miter;stroke-opacity:1"
       d="m 292,340.3622 c -10.46337,4.00918 -21.26807,7.44616 -31,13 -16.96523,9.68177 -33.93257,20.48112 -47,35 -13.9971,15.55182 -26.47002,33.82087 -32,54 -5.72649,20.89621 -2.24385,43.44984 0,65 2.68108,25.74945 6.02745,52.1092 16,76 7.69241,18.42837 20.75933,34.22205 33,50 17.6477,22.74748 34.75765,47.00935 58,64 16.85894,12.32425 36.62663,21.41338 57,26 21.79045,4.90564 44.97961,4.74052 67,1 21.00122,-3.5674 41.0956,-12.18158 60,-22 17.64258,-9.16306 35.0992,-19.78768 49,-34 18.16499,-18.57208 32.53254,-41.22351 43,-65 11.07537,-25.15734 20.77834,-52.52365 20,-80 -0.88965,-31.40573 -13.56075,-62.09625 -28,-90 -12.348,-23.86243 -29.03178,-46.02337 -49,-64 -15.67777,-14.11409 -34.41731,-25.15664 -54,-33 -18.99696,-7.60876 -39.63364,-11.00269 -60,-13 -18.58051,-1.82218 -37.61974,-2.27436 -56,1 -15.98276,2.84726 -30.84034,10.19137 -46,16 z"
       id="path4136"
       inkscape:connector-curvature="0"
       sodipodi:nodetypes="aaaaaaaaaaaaaaaaaaaa" />
  </g>
  <g
     inkscape:groupmode="layer"
     id="layer2"
     inkscape:label="Yellow"
     style="display:inline"
     transform="translate(-178.37638,-321.44513)"
     sodipodi:insensitive="true">
    <ellipse
       style="color:#000000;clip-rule:nonzero;display:inline;overflow:visible;visibility:visible;opacity:1;isolation:auto;mix-blend-mode:normal;color-interpolation:sRGB;color-interpolation-filters:linearRGB;solid-color:#000000;solid-opacity:1;fill:url(#radialGradient4157);fill-opacity:1;fill-rule:nonzero;stroke:none;stroke-width:2;stroke-linecap:butt;stroke-linejoin:miter;stroke-miterlimit:4;stroke-dasharray:none;stroke-dashoffset:0;stroke-opacity:1;color-rendering:auto;image-rendering:auto;shape-rendering:auto;text-rendering:auto;enable-background:accumulate"
       id="path4139"
       cx="-88.54631"
       cy="500.80524"
       rx="62.118568"
       ry="22.834196"
       transform="matrix(0.88725175,-0.46128552,0.75391147,0.65697602,0,0)" />
  </g>
  <g
     inkscape:groupmode="layer"
     id="layer4"
     inkscape:label="Stem"
     style="display:inline"
     transform="translate(-178.37638,-321.44513)"
     sodipodi:insensitive="true">
    <path
       style="fill:url(#linearGradient5625);fill-opacity:1;fill-rule:evenodd;stroke:none;stroke-width:1px;stroke-linecap:butt;stroke-linejoin:miter;stroke-opacity:1"
       d="m 264.97987,331.4811 c 0,0 8.12976,2.8701 12.17627,3.399 4.04651,0.52889 11.69619,-0.10883 11.69619,-0.10883 0,0 -2.53275,3.5706 -1.98498,9.2847 0.54777,5.7141 5.40609,14.21263 9.89482,23.70453 4.48875,9.49191 17.51979,33.05431 17.51979,33.05431 l -5.95744,5.42655 c 0,0 -14.70174,-26.92895 -19.66606,-36.62965 -4.96434,-9.7007 -6.4244,-15.09811 -10.44953,-21.45899 -4.02512,-6.36088 -13.22906,-16.67159 -13.22906,-16.67159 z"
       id="path4165"
       inkscape:connector-curvature="0"
       sodipodi:nodetypes="czczzcczzc" />
  </g>
  <g
     inkscape:groupmode="layer"
     id="layer3"
     inkscape:label="AboveStem"
     style="display:inline"
     transform="translate(-178.37638,-321.44513)"
     sodipodi:insensitive="true">
    <path
       style="fill:#e80000;fill-opacity:1;fill-rule:evenodd;stroke:none;stroke-width:1px;stroke-linecap:butt;stroke-linejoin:miter;stroke-opacity:1"
       d="m 248,383.3622 c 8.47651,-5.11909 17.10559,3.975 26,3 8.89441,-0.975 18.83404,-5.32422 26,-9 7.16596,-3.67578 8.79252,-5.20072 17,-12 8.20748,-6.79928 18.0364,-30.23854 31,-30 12.9636,0.23854 23.16217,8.67702 24,25 0.83783,16.32298 -20.64961,37.4666 -39,50 -18.35039,12.5334 -49.76619,21.72802 -67,20 -17.23381,-1.72802 -26.09667,-5.4948 -30,-16 -3.90333,-10.5052 3.52349,-25.88091 12,-31 z"
       id="path4162"
       inkscape:connector-curvature="0"
       sodipodi:nodetypes="zzzzzzzzzz" />
  </g>
  <g
     inkscape:groupmode="layer"
     id="layer5"
     inkscape:label="Shadows"
     style="display:inline;mix-blend-mode:darken"
     transform="translate(-178.37638,-321.44513)"
     sodipodi:insensitive="true">
    <rect
       style="color:#000000;clip-rule:nonzero;display:inline;overflow:visible;visibility:visible;opacity:1;isolation:auto;mix-blend-mode:normal;color-interpolation:sRGB;color-interpolation-filters:linearRGB;solid-color:#000000;solid-opacity:1;fill:#ffffff;fill-opacity:1;fill-rule:nonzero;stroke:none;stroke-width:2;stroke-linecap:butt;stroke-linejoin:miter;stroke-miterlimit:4;stroke-dasharray:none;stroke-dashoffset:0;stroke-opacity:1;color-rendering:auto;image-rendering:auto;shape-rendering:auto;text-rendering:auto;enable-background:accumulate"
       id="rect5154"
       width="530"
       height="331"
       x="242"
       y="560.36218" />
    <path
       style="fill:url(#radialGradient4193);fill-opacity:1;fill-rule:evenodd;stroke:none;stroke-width:1px;stroke-linecap:butt;stroke-linejoin:miter;stroke-opacity:1"
       d="m 291.99832,340.36222 c -10.46337,4.00918 -21.26807,7.44616 -31,13 -16.96523,9.68177 -33.93257,20.48112 -47,35 -13.9971,15.55182 -26.47002,33.82086 -32,53.99999 -5.72649,20.89621 -2.24385,43.44984 0,65 2.68108,25.74945 6.02745,52.1092 16,76 7.69241,18.42837 20.75933,34.22205 33,50 17.6477,22.74748 34.75765,47.00935 58,64 16.85894,12.32425 36.62663,21.41338 57,26 21.79045,4.90564 44.97961,4.74052 67,1 21.00122,-3.5674 41.0956,-12.18158 60,-22 17.64258,-9.16306 35.0992,-19.78768 49,-34 18.16499,-18.57208 32.53254,-41.22351 43,-65 11.07537,-25.15734 20.77834,-52.52365 20,-80 -0.88965,-31.40573 -13.56075,-62.09625 -28,-90 -12.348,-23.86242 -29.03178,-46.02336 -49,-63.99999 -15.67777,-14.11409 -34.41731,-25.15664 -54,-33 -18.99696,-7.60876 -39.63364,-11.00269 -60,-13 -18.58051,-1.82218 -37.61974,-2.27436 -56,1 -15.98276,2.84726 -30.84034,10.19137 -46,16 z"
       id="path4136-6"
       inkscape:connector-curvature="0"
       sodipodi:nodetypes="aaaaaaaaaaaaaaaaaaaa" />
  </g>
  <g
     inkscape:groupmode="layer"
     id="layer7"
     inkscape:label="Highlights"
     style="display:inline;mix-blend-mode:screen"
     transform="translate(-178.37638,-321.44513)"
     sodipodi:insensitive="true">
    <path
       style="fill:#323232;fill-opacity:1;fill-rule:evenodd;stroke:none;stroke-width:1px;stroke-linecap:butt;stroke-linejoin:miter;stroke-opacity:1;filter:url(#filter5011)"
       d="m 409,392.3622 c -13.84509,7.92861 -22.42825,33.47732 -30,51 -7.57175,17.52268 -8.98313,56.77923 -1,52 7.98313,-4.77923 11.27312,38.73309 31,56 19.72688,17.26691 58.91958,-8.04375 80,-12 21.08042,-3.95625 23.22005,58.72241 38.28987,51.68674 15.06982,-7.03567 22.20946,-34.357 30.71013,-58.68674 8.50067,-24.32974 -5.25254,-89.35502 -27,-114 -21.74746,-24.64498 -65.97615,-44.13328 -85,-45 -19.02385,-0.86672 -23.15491,11.07139 -37,19 z"
       id="path4845"
       inkscape:connector-curvature="0"
       sodipodi:nodetypes="zzzzzzzzzz" />
    <path
       style="fill:#d5d5d5;fill-opacity:1;fill-rule:evenodd;stroke:#000000;stroke-width:1px;stroke-linecap:butt;stroke-linejoin:miter;stroke-opacity:1;filter:url(#filter5230)"
       d="m 240.56591,375.30389 c -7.95645,-4.69408 -22,17 -24,21 -2,4 -6.78704,12.72791 -2,21 4.78704,8.27209 20.24403,13.53153 33,15 12.75597,1.46847 23.40606,-2.56461 40,-8 16.59394,-5.43539 46.48035,-15.20909 58,-27 11.51965,-11.79091 21.14812,-25.3362 14,-32 -7.14812,-6.6638 -11.0629,5.14815 -21,11 -9.9371,5.85185 -23.32197,19.58998 -38,25 -14.67803,5.41002 -36.91647,8.03143 -48,6 -11.08353,-2.03143 -13.99639,-2.53489 -17,-9 -3.00361,-6.46511 12.95645,-18.30592 5,-23 z"
       id="path5172"
       inkscape:connector-curvature="0"
       sodipodi:nodetypes="zzzzzzzzzzzz" />
  </g>
</svg>
