<?xml version="1.0" encoding="UTF-8" standalone="no"?>
<!-- Created with Inkscape (http://www.inkscape.org/) -->

<svg
   xmlns:dc="http://purl.org/dc/elements/1.1/"
   xmlns:cc="http://creativecommons.org/ns#"
   xmlns:rdf="http://www.w3.org/1999/02/22-rdf-syntax-ns#"
   xmlns:svg="http://www.w3.org/2000/svg"
   xmlns="http://www.w3.org/2000/svg"
   xmlns:sodipodi="http://sodipodi.sourceforge.net/DTD/sodipodi-0.dtd"
   xmlns:inkscape="http://www.inkscape.org/namespaces/inkscape"
   width="205.74001mm"
   height="187.67778mm"
   viewBox="0 0 729.00002 665"
   id="svg2"
   version="1.1"
   inkscape:version="0.91 r13725"
   sodipodi:docname="parrot.svg"
   inkscape:export-filename="C:\Users\Matthew\Desktop\Drawings\parrot_desktop.png"
   inkscape:export-xdpi="146.16542"
   inkscape:export-ydpi="146.16542">
  <title
     id="title4380">Parrot</title>
  <defs
     id="defs4" />
  <sodipodi:namedview
     id="base"
     pagecolor="#ffffff"
     bordercolor="#666666"
     borderopacity="1.0"
     inkscape:pageopacity="0.0"
     inkscape:pageshadow="2"
     inkscape:zoom="1"
     inkscape:cx="223.42194"
     inkscape:cy="483.746"
     inkscape:document-units="px"
     inkscape:current-layer="layer4"
     showgrid="false"
     inkscape:snap-intersection-paths="true"
     inkscape:object-nodes="true"
     inkscape:snap-global="false"
     inkscape:window-width="1536"
     inkscape:window-height="801"
     inkscape:window-x="-8"
     inkscape:window-y="-8"
     inkscape:window-maximized="1"
     showguides="false"
     fit-margin-top="0"
     fit-margin-left="0"
     fit-margin-right="0"
     fit-margin-bottom="0"
     inkscape:object-paths="true" />
  <metadata
     id="metadata7">
    <rdf:RDF>
      <cc:Work
         rdf:about="">
        <dc:format>image/svg+xml</dc:format>
        <dc:type
           rdf:resource="http://purl.org/dc/dcmitype/StillImage" />
        <dc:title>Parrot</dc:title>
        <dc:date>2022-09-03</dc:date>
        <dc:creator>
          <cc:Agent>
            <dc:title>Matthew McGonagle</dc:title>
          </cc:Agent>
        </dc:creator>
      </cc:Work>
    </rdf:RDF>
  </metadata>
  <g
     inkscape:groupmode="layer"
     id="layer2"
     inkscape:label="background"
     transform="translate(9,7.5462561)"
     sodipodi:insensitive="true">
    <rect
       style="color:#000000;clip-rule:nonzero;display:inline;overflow:visible;visibility:visible;opacity:1;isolation:auto;mix-blend-mode:normal;color-interpolation:sRGB;color-interpolation-filters:linearRGB;solid-color:#000000;solid-opacity:1;fill:#647864;fill-opacity:1;fill-rule:nonzero;stroke:none;stroke-width:3;stroke-linecap:butt;stroke-linejoin:miter;stroke-miterlimit:4;stroke-dasharray:none;stroke-dashoffset:0;stroke-opacity:1;color-rendering:auto;image-rendering:auto;shape-rendering:auto;text-rendering:auto;enable-background:accumulate"
       id="rect4257"
       width="729"
       height="665"
       x="-9"
       y="-7.5462561"
       ry="0" />
  </g>
  <g
     inkscape:label="body"
     inkscape:groupmode="layer"
     id="layer1"
     style="display:inline"
     sodipodi:insensitive="true"
     transform="translate(73.254834,-140.26831)">
    <rect
       style="color:#000000;clip-rule:nonzero;display:inline;overflow:visible;visibility:visible;opacity:1;isolation:auto;mix-blend-mode:normal;color-interpolation:sRGB;color-interpolation-filters:linearRGB;solid-color:#000000;solid-opacity:1;fill:#1ad61a;fill-opacity:1;fill-rule:nonzero;stroke:none;stroke-width:1;stroke-linecap:butt;stroke-linejoin:miter;stroke-miterlimit:4;stroke-dasharray:none;stroke-dashoffset:0;stroke-opacity:1;color-rendering:auto;image-rendering:auto;shape-rendering:auto;text-rendering:auto;enable-background:accumulate"
       id="rect4234"
       width="83.527153"
       height="48.357826"
       x="452.25558"
       y="189.61459" />
  </g>
  <g
     style="display:none"
     sodipodi:insensitive="true"
     transform="translate(9,7.5462605)"
     inkscape:label="feet copy"
     id="g4258"
     inkscape:groupmode="layer">
    <path
       style="fill:#917c6f;fill-rule:evenodd;stroke:#000000;stroke-width:1px;stroke-linecap:butt;stroke-linejoin:miter;stroke-opacity:1"
       d="m 208.22684,531.95285 c 0,0 22.14057,-25.30351 54.82428,-30.57508 32.6837,-5.27157 96.46965,-11.07029 143.38658,-13.17891 46.91693,-2.10863 143.91374,-4.21726 180.28754,-4.21726 l 10.01597,32.15655 c -45.86262,1.58147 -174.48881,4.21726 -212.97124,6.32588 -38.48243,2.10863 -102.79553,16.34185 -128.09904,25.83067 -25.30352,9.48882 -50.07988,27.41214 -77.49202,49.02556"
       id="path4269"
       inkscape:connector-curvature="0"
       sodipodi:nodetypes="cssccssc" />
    <path
       inkscape:connector-curvature="0"
       id="path4309"
       d="m 266.21406,496.63336 c 0,0 -15.28754,16.86901 -16.34186,21.08626 -1.05431,4.21725 -4.7444,15.28754 2.63579,18.45048 7.38019,3.16294 15.28754,4.74441 15.28754,4.74441 0,0 -6.85304,-2.10863 -10.54313,-7.38019 -3.6901,-5.27157 2.63578,-19.50479 17.92332,-32.15655"
       style="fill:#767d8a;fill-opacity:1;fill-rule:evenodd;stroke:#000000;stroke-width:1px;stroke-linecap:butt;stroke-linejoin:miter;stroke-opacity:1" />
    <path
       sodipodi:nodetypes="cccscccscc"
       inkscape:connector-curvature="0"
       id="path4311"
       d="m 289.00721,439.91168 -27.8232,10.65422 c 0,0 -1.42861,21.57717 -0.32467,36.19598 0.76751,7.8679 4.34209,11.59486 6.14066,13.6932 5.92799,6.91599 16.19095,6.22808 24.18837,-0.54533 l -0.75478,-2.01327 9.48792,-1.15778 c -0.37957,-2.96525 -3.18002,-8.13669 -7.03202,-11.21612 -2.24594,-1.79548 -3.83351,-5.02296 -4.15604,-6.53056 0.45922,-22.04822 0.27376,-39.08034 0.27376,-39.08034 z"
       style="fill:#767d8a;fill-opacity:1;fill-rule:evenodd;stroke:#000000;stroke-width:1px;stroke-linecap:butt;stroke-linejoin:miter;stroke-opacity:1" />
    <path
       inkscape:connector-curvature="0"
       id="path4313"
       d="m 284.48096,502.52044 c 0,0 1.05431,10.54313 4.21725,14.23323 3.16294,3.69009 13.70607,11.07028 13.70607,11.07028 0,0 -6.85303,-10.01597 -7.90735,-14.23322 -1.05431,-4.21726 -2.63578,-13.70607 -1.58147,-22.14058"
       style="fill:#767d8a;fill-opacity:1;fill-rule:evenodd;stroke:#000000;stroke-width:1px;stroke-linecap:butt;stroke-linejoin:miter;stroke-opacity:1" />
    <path
       sodipodi:nodetypes="ccsc"
       inkscape:connector-curvature="0"
       id="path4315"
       d="m 386.01111,487.09632 c -2.6656,2.71057 -7.52406,14.49062 -4.14046,21.9985 -6.14536,-7.12432 -6.73642,-8.84155 -6.94693,-12.63079 -0.21052,-3.78923 6.94692,-16.42001 6.94692,-16.42001"
       style="fill:#767d8a;fill-opacity:1;fill-rule:evenodd;stroke:#000000;stroke-width:1px;stroke-linecap:butt;stroke-linejoin:miter;stroke-opacity:1" />
    <path
       sodipodi:nodetypes="cssccsssccscssccc"
       inkscape:connector-curvature="0"
       id="path4317"
       d="m 381.4375,456.04297 c 0,0 -1.93275,24.65588 -0.48242,28.52344 1.45034,3.86756 2.90002,5.80068 6.76758,6.76757 3.86756,0.96688 16.91992,1.93555 16.91992,1.93555 7.73512,-0.96689 13.53711,-6.28515 13.53711,-6.28515 0,0 -3.38477,25.62258 -3.38477,30.45703 0,4.83445 0.001,6.76832 4.83594,9.18554 4.83445,2.41722 9.66788,6.2846 10.63476,1.9336 0.48184,-2.16825 0.84227,-5.29523 1.08399,-7.88867 l -2.29297,0.0684 c -0.23427,0.34189 -0.44694,0.65808 -0.72461,1.05079 -1.10742,1.56626 -3.42815,0.64228 -5.80078,-1.44922 -2.49659,-3.5961 4.3497,-24.10947 3.38281,-33.29492 -0.96689,-9.18546 -2.61812,-22.27838 -13.2539,-21.79493 -3.62716,0.16487 -1.73157,0.0676 -5.05413,0.35798 l 0.21666,-10.39991 z"
       style="fill:#767d8a;fill-opacity:1;fill-rule:evenodd;stroke:#000000;stroke-width:1px;stroke-linecap:butt;stroke-linejoin:miter;stroke-opacity:1" />
    <path
       inkscape:connector-curvature="0"
       id="path4319"
       d="m 407.88423,452.2563 -0.42102,20.20925"
       style="fill:none;fill-rule:evenodd;stroke:#000000;stroke-width:1px;stroke-linecap:butt;stroke-linejoin:miter;stroke-opacity:1" />
    <path
       inkscape:connector-curvature="0"
       id="path4321"
       d="m 431.34961,520.67188 -2.29297,0.0684 c -0.23427,0.34189 -0.44694,0.65808 -0.72461,1.05079 -0.2663,0.37663 -0.60367,0.60586 -0.99414,0.71289 1.03082,0.83067 2.24247,1.62214 3.57227,2.16211 0.17418,-1.3429 0.32181,-2.73198 0.43945,-3.99414 z"
       style="fill:#000000;fill-opacity:1;fill-rule:evenodd;stroke:#000000;stroke-width:1px;stroke-linecap:butt;stroke-linejoin:miter;stroke-opacity:1" />
    <path
       inkscape:connector-curvature="0"
       id="path4323"
       d="m 380.61523,500.05273 c -1.51256,-0.0298 -3.16595,0.17012 -4.83789,0.60352 0.82889,1.9646 2.49751,4.27032 6.09375,8.43945 -1.20275,-2.6688 -1.35283,-5.87816 -0.9414,-9.02734 -0.10551,-0.004 -0.2075,-0.0135 -0.31446,-0.0156 z"
       style="fill:#000000;fill-rule:evenodd;stroke:#000000;stroke-width:1px;stroke-linecap:butt;stroke-linejoin:miter;stroke-opacity:1" />
    <path
       inkscape:connector-curvature="0"
       id="path4325"
       d="m 256.56445,532.09375 c -2.04076,0.79151 -3.88952,1.95991 -5.45117,3.29102 0.41494,0.29627 0.87444,0.56225 1.39453,0.78515 7.38019,3.16294 15.28711,4.74414 15.28711,4.74414 0,0 -6.85288,-2.10734 -10.54297,-7.3789 -0.29579,-0.42256 -0.51987,-0.90912 -0.6875,-1.44141 z"
       style="fill:#000000;fill-opacity:1;fill-rule:evenodd;stroke:#000000;stroke-width:1px;stroke-linecap:butt;stroke-linejoin:miter;stroke-opacity:1" />
    <path
       inkscape:connector-curvature="0"
       id="path4327"
       d="m 295.36719,515.89258 c -1.88584,0.66076 -3.53852,1.53821 -4.98242,2.56445 4.18434,3.87782 12.01953,9.36719 12.01953,9.36719 0,0 -4.89424,-7.17033 -7.03711,-11.93164 z"
       style="fill:#000000;fill-opacity:1;fill-rule:evenodd;stroke:#000000;stroke-width:1px;stroke-linecap:butt;stroke-linejoin:miter;stroke-opacity:1" />
  </g>
  <g
     inkscape:groupmode="layer"
     id="layer13"
     inkscape:label="feet"
     transform="translate(9,7.5462605)"
     style="display:inline"
     sodipodi:insensitive="true">
    <path
       sodipodi:nodetypes="cssccssc"
       inkscape:connector-curvature="0"
       id="path4430"
       d="m 208.22684,531.95285 c 0,0 22.14057,-25.30351 54.82428,-30.57508 32.6837,-5.27157 96.46965,-11.07029 143.38658,-13.17891 46.91693,-2.10863 143.91374,-4.21726 180.28754,-4.21726 l 10.01597,32.15655 c -45.86262,1.58147 -174.48881,4.21726 -212.97124,6.32588 -38.48243,2.10863 -102.79553,16.34185 -128.09904,25.83067 -25.30352,9.48882 -50.07988,27.41214 -77.49202,49.02556"
       style="fill:#917c6f;fill-rule:evenodd;stroke:none;stroke-width:1px;stroke-linecap:butt;stroke-linejoin:miter;stroke-opacity:1" />
    <path
       style="fill:#4c413a;fill-opacity:1;fill-rule:evenodd;stroke:none;stroke-width:1px;stroke-linecap:butt;stroke-linejoin:miter;stroke-opacity:1"
       d="m 258.62891,512.32227 c -5.09967,1.75177 -9.83413,3.90296 -14.13868,6.23046 1.01037,12.54136 6.52737,28.96823 14.57227,35.18555 1.73703,1.34242 3.58529,1.65024 4.94531,2.36719 0.22156,-0.0844 0.44243,-0.18056 0.66407,-0.26367 1.19517,-0.4482 2.52142,-0.91089 3.9082,-1.38086 1.08226,-0.37152 2.22416,-0.74715 3.4043,-1.12891 1.5e-4,-6.2e-4 -1.6e-4,-10e-4 0,-0.002 0.0563,-0.22992 0.10945,-0.43293 0.16796,-0.68164 -0.53394,-7.50712 -8.5044,-32.70251 -13.52343,-40.32617 z"
       transform="translate(-9,-7.5462605)"
       id="path4382"
       inkscape:connector-curvature="0"
       sodipodi:nodetypes="ccsccccccc" />
    <path
       style="fill:#484c58;fill-opacity:1;fill-rule:evenodd;stroke:none;stroke-width:1px;stroke-linecap:butt;stroke-linejoin:miter;stroke-opacity:1"
       d="m 266.21406,496.63336 c 0,0 -15.28754,16.86901 -16.34186,21.08626 -1.05431,4.21725 -4.7444,15.28754 2.63579,18.45048 7.38019,3.16294 15.28754,4.74441 15.28754,4.74441 0,0 -6.85304,-2.10863 -10.54313,-7.38019 -3.6901,-5.27157 2.63578,-19.50479 17.92332,-32.15655"
       id="path4424"
       inkscape:connector-curvature="0" />
    <path
       style="fill:#484c58;fill-opacity:1;fill-rule:evenodd;stroke:none;stroke-width:1px;stroke-linecap:butt;stroke-linejoin:miter;stroke-opacity:1"
       d="m 289.00721,439.91168 -27.8232,10.65422 c 0,0 -1.42861,21.57717 -0.32467,36.19598 0.76751,7.8679 4.34209,11.59486 6.14066,13.6932 5.92799,6.91599 16.19095,6.22808 24.18837,-0.54533 l -0.75478,-2.01327 9.48792,-1.15778 c -0.37957,-2.96525 -3.18002,-8.13669 -7.03202,-11.21612 -2.24594,-1.79548 -3.83351,-5.02296 -4.15604,-6.53056 0.45922,-22.04822 0.27376,-39.08034 0.27376,-39.08034 z"
       id="path4332"
       inkscape:connector-curvature="0"
       sodipodi:nodetypes="cccscccscc" />
    <path
       style="fill:#484c58;fill-opacity:1;fill-rule:evenodd;stroke:none;stroke-width:1px;stroke-linecap:butt;stroke-linejoin:miter;stroke-opacity:1"
       d="m 284.48096,502.52044 c 0,0 1.05431,10.54313 4.21725,14.23323 3.16294,3.69009 13.70607,11.07028 13.70607,11.07028 0,0 -6.85303,-10.01597 -7.90735,-14.23322 -1.05431,-4.21726 -2.63578,-13.70607 -1.58147,-22.14058"
       id="path4426"
       inkscape:connector-curvature="0" />
    <path
       style="fill:#767d8a;fill-opacity:1;fill-rule:evenodd;stroke:none;stroke-width:1px;stroke-linecap:butt;stroke-linejoin:miter;stroke-opacity:1"
       d="m 386.01111,487.09632 c -2.6656,2.71057 -7.52406,14.49062 -4.14046,21.9985 -6.14536,-7.12432 -6.73642,-8.84155 -6.94693,-12.63079 -0.21052,-3.78923 6.94692,-16.42001 6.94692,-16.42001"
       id="path4354"
       inkscape:connector-curvature="0"
       sodipodi:nodetypes="ccsc" />
    <path
       style="fill:#b5a79f;fill-opacity:1;fill-rule:evenodd;stroke:none;stroke-width:1px;stroke-linecap:butt;stroke-linejoin:miter;stroke-opacity:1"
       d="m 388.20044,506.49559 c 1.23565,0.17111 3.60429,1.8726 6.46378,1.72838 2.15976,-0.10893 5.19577,-0.1385 7.84801,-0.46187 2.39449,-0.29194 4.67334,-1.41278 7.14546,-1.80609 4.26643,-0.67879 8.62641,0.25378 12.18457,-0.15669 3.67209,-0.4236 6.4972,1.16199 7.94368,1.16199 5.7508,0 9.77636,-2.19127 10.0639,0.10905 0.0878,0.70229 -3.97024,2.52385 -9.93654,3.14247 -2.69546,0.27948 -5.78041,-0.45866 -9.04853,-0.30946 -3.33788,0.15238 -7.15753,-0.84746 -10.57164,-0.58957 -2.63095,0.19873 -5.10904,1.68903 -7.54113,1.88503 -3.2776,0.26415 -6.17291,1.45361 -8.63745,1.61249 -2.71285,0.17489 -4.45376,-1.84352 -5.51878,-1.75091 -6.61342,0.57508 -8.73399,-3.98974 -0.39533,-4.56482 z"
       id="path4405"
       inkscape:connector-curvature="0"
       sodipodi:nodetypes="cssssssssssssc" />
    <path
       style="fill:#b5a79f;fill-opacity:1;fill-rule:evenodd;stroke:none;stroke-width:1px;stroke-linecap:butt;stroke-linejoin:miter;stroke-opacity:1"
       d="m 389.12787,516.58162 c 1.38748,-0.0496 4.88556,0.69158 9.67334,0.37624 2.55101,-0.16801 5.33159,-1.74649 8.4907,-1.98988 2.96019,-0.22807 5.99893,-1.82199 9.28647,-2.04622 3.02027,-0.206 6.68464,0.85113 9.81976,0.70696 3.2098,-0.1476 6.55629,-1.12541 9.68611,-1.28658 3.0692,-0.15804 6.05501,-0.96354 8.88453,-1.05972 2.87807,-0.0978 6.27732,2.20696 8.75528,2.23139 2.63318,0.026 5.70019,1.61491 7.56618,1.22237 2.6531,-0.55812 4.80803,-0.98345 5.93024,-1.01852 8.07869,-0.25246 9.16302,0.16968 9.00575,1.60166 -0.16454,1.49821 -3.17911,0.9845 -6.94506,1.53876 -2.57347,0.37876 -5.05975,2.05775 -7.92933,2.05775 -1.19231,0 -4.97024,-0.84954 -8.39122,-1.69519 -2.6273,-0.64945 -4.75701,-2.11607 -8.47876,-2.37433 -2.27279,-0.15772 -5.49362,1.35317 -7.97121,1.2817 -3.18846,-0.092 -6.50316,0.79615 -9.83248,0.77198 -3.48251,-0.0253 -6.8512,0.12713 -10.25449,0.20361 -2.98735,0.0671 -6.29542,1.37885 -9.01707,1.48 -3.37066,0.12527 -6.4703,1.47255 -9.13236,1.5774 -4.71779,0.18581 -7.80625,0.71242 -8.89392,0.71242 -5.43822,0 -5.6488,-0.0612 -5.5541,-2.27213 0.0668,-1.55977 2.73152,-1.7879 5.30164,-2.01967 z"
       id="path4407"
       inkscape:connector-curvature="0"
       sodipodi:nodetypes="csssssssssssssssssssssc" />
    <path
       style="fill:#767d8a;fill-opacity:1;fill-rule:evenodd;stroke:none;stroke-width:1px;stroke-linecap:butt;stroke-linejoin:miter;stroke-opacity:1"
       d="m 381.4375,456.04297 c 0,0 -1.93275,24.65588 -0.48242,28.52344 1.45034,3.86756 2.90002,5.80068 6.76758,6.76757 3.86756,0.96688 16.91992,1.93555 16.91992,1.93555 7.73512,-0.96689 13.53711,-6.28515 13.53711,-6.28515 0,0 -3.38477,25.62258 -3.38477,30.45703 0,4.83445 0.001,6.76832 4.83594,9.18554 4.83445,2.41722 9.66788,6.2846 10.63476,1.9336 0.48184,-2.16825 0.84227,-5.29523 1.08399,-7.88867 l -2.29297,0.0684 c -0.23427,0.34189 -0.44694,0.65808 -0.72461,1.05079 -1.10742,1.56626 -3.42815,0.64228 -5.80078,-1.44922 -2.49659,-3.5961 4.3497,-24.10947 3.38281,-33.29492 -0.96689,-9.18546 -2.61812,-22.27838 -13.2539,-21.79493 -3.62716,0.16487 -1.73157,0.0676 -5.05413,0.35798 l 0.21666,-10.39991 z"
       id="path4334"
       inkscape:connector-curvature="0"
       sodipodi:nodetypes="cssccsssccscssccc" />
    <path
       style="fill:none;fill-rule:evenodd;stroke:none;stroke-width:1px;stroke-linecap:butt;stroke-linejoin:miter;stroke-opacity:1"
       d="m 407.88423,452.2563 -0.42102,20.20925"
       id="path4336"
       inkscape:connector-curvature="0" />
    <path
       style="fill:#000000;fill-opacity:1;fill-rule:evenodd;stroke:none;stroke-width:1px;stroke-linecap:butt;stroke-linejoin:miter;stroke-opacity:1"
       d="m 431.34961,520.67188 -2.29297,0.0684 c -0.23427,0.34189 -0.44694,0.65808 -0.72461,1.05079 -0.2663,0.37663 -0.60367,0.60586 -0.99414,0.71289 1.03082,0.83067 2.24247,1.62214 3.57227,2.16211 0.17418,-1.3429 0.32181,-2.73198 0.43945,-3.99414 z"
       id="path4359"
       inkscape:connector-curvature="0" />
    <path
       style="fill:#000000;fill-rule:evenodd;stroke:none;stroke-width:1px;stroke-linecap:butt;stroke-linejoin:miter;stroke-opacity:1"
       d="m 380.61523,500.05273 c -1.51256,-0.0298 -3.16595,0.17012 -4.83789,0.60352 0.82889,1.9646 2.49751,4.27032 6.09375,8.43945 -1.20275,-2.6688 -1.35283,-5.87816 -0.9414,-9.02734 -0.10551,-0.004 -0.2075,-0.0135 -0.31446,-0.0156 z"
       id="path4364"
       inkscape:connector-curvature="0" />
    <path
       style="fill:#000000;fill-opacity:1;fill-rule:evenodd;stroke:none;stroke-width:1px;stroke-linecap:butt;stroke-linejoin:miter;stroke-opacity:1"
       d="m 256.56445,532.09375 c -2.04076,0.79151 -3.88952,1.95991 -5.45117,3.29102 0.41494,0.29627 0.87444,0.56225 1.39453,0.78515 7.38019,3.16294 15.28711,4.74414 15.28711,4.74414 0,0 -6.85288,-2.10734 -10.54297,-7.3789 -0.29579,-0.42256 -0.51987,-0.90912 -0.6875,-1.44141 z"
       id="path4370"
       inkscape:connector-curvature="0" />
    <path
       style="fill:#b5a79f;fill-opacity:1;fill-rule:evenodd;stroke:none;stroke-width:1px;stroke-linecap:butt;stroke-linejoin:miter;stroke-opacity:1"
       d="m 289.13044,521.92383 c 1.1878,-0.15326 2.43292,-1.13104 3.92858,-1.20049 2.69915,-0.12533 5.87298,0.66001 8.57718,0.0611 2.7168,-0.6017 4.44936,-3.82123 6.60291,-4.16858 5.48489,-0.88465 10.43898,-0.70772 12.2083,1.23853 1.76932,1.94625 -1.41546,2.30011 -9.20047,3.36171 -2.69172,0.36705 -4.84493,3.83999 -7.7142,4.53759 -3.0982,0.75326 -6.35732,-0.30816 -9.27236,-0.14681 -2.1932,0.12139 -4.12601,1.52551 -6.0146,1.62491 -6.72341,0.35387 -10.61592,-2.83092 0.88466,-5.30796 z"
       id="path4398"
       inkscape:connector-curvature="0"
       sodipodi:nodetypes="cssssssssc" />
    <path
       style="fill:#000000;fill-opacity:1;fill-rule:evenodd;stroke:none;stroke-width:1px;stroke-linecap:butt;stroke-linejoin:miter;stroke-opacity:1"
       d="m 295.36719,515.89258 c -1.88584,0.66076 -3.53852,1.53821 -4.98242,2.56445 4.18434,3.87782 12.01953,9.36719 12.01953,9.36719 0,0 -4.89424,-7.17033 -7.03711,-11.93164 z"
       id="path4375"
       inkscape:connector-curvature="0" />
    <path
       style="fill:#2f3235;fill-opacity:1;fill-rule:evenodd;stroke:none;stroke-width:1px;stroke-linecap:butt;stroke-linejoin:miter;stroke-opacity:1"
       d="m 298.00781,447.45703 -17.87695,6.8457 -10.09961,6.49219 c -0.25061,4.47433 -0.72939,14.86001 -0.52344,25.14063 6.68246,4.23115 17.17592,3.70421 28.625,1.82031 -0.18648,-0.4637 -0.32759,-0.88565 -0.39843,-1.2168 0.45922,-22.04822 0.27343,-39.08203 0.27343,-39.08203 z"
       transform="translate(-9,-7.5462605)"
       id="path4342"
       inkscape:connector-curvature="0" />
    <path
       style="fill:#2f3235;fill-opacity:1;fill-rule:evenodd;stroke:none;stroke-width:1px;stroke-linecap:butt;stroke-linejoin:miter;stroke-opacity:1"
       d="m 274,505.54883 c -1.33949,1.50025 -4.07943,4.59199 -7.35156,8.5625 3.98574,-0.9418 7.92859,-0.75044 12.04297,-0.20899 0.73576,-0.73227 1.51422,-1.46274 2.31054,-2.1914 -1.85897,-0.80434 -3.56064,-2.02745 -5.00195,-3.70899 -0.54474,-0.63553 -1.25676,-1.44899 -2,-2.45312 z"
       transform="translate(-9,-7.5462605)"
       id="path4349"
       inkscape:connector-curvature="0" />
    <path
       style="fill:#2f3235;fill-opacity:1;fill-rule:evenodd;stroke:none;stroke-width:1px;stroke-linecap:butt;stroke-linejoin:miter;stroke-opacity:1"
       d="m 299.74219,504.8457 c -1.85242,2.54187 -3.65553,5.12622 -5.99805,7.23242 0.26545,1.81507 0.74704,4.56952 1.5332,7.14454 0.36942,-5.38125 2.28249,-9.94989 4.46485,-14.37696 z"
       transform="translate(-9,-7.5462605)"
       id="path4363"
       inkscape:connector-curvature="0" />
    <path
       style="fill:#2f3235;fill-opacity:1;fill-rule:evenodd;stroke:none;stroke-width:1px;stroke-linecap:butt;stroke-linejoin:miter;stroke-opacity:1"
       d="m 389.58008,489.96484 c -0.74019,1.39242 -1.70014,3.24873 -2.62305,5.19141 2.07385,0.97024 3.78351,2.37206 5.30664,4.11133 0.31361,-0.72302 0.63793,-1.36643 0.96094,-1.96875 -1.47145,-1.14128 -2.37157,-2.791 -3.26953,-5.18555 -0.16895,-0.45054 -0.28947,-1.20552 -0.375,-2.14844 z"
       transform="translate(-9,-7.5462605)"
       id="path4368"
       inkscape:connector-curvature="0" />
    <path
       style="fill:#2f3235;fill-opacity:1;fill-rule:evenodd;stroke:none;stroke-width:1px;stroke-linecap:butt;stroke-linejoin:miter;stroke-opacity:1"
       d="m 429.35938,491.47852 c -1.1763,1.44728 -2.35301,2.85419 -3.5293,4.13281 0.84213,-0.63301 1.34961,-1.08008 1.34961,-1.08008 0,0 -0.32402,2.4981 -0.74024,5.77344 l 0.29297,0.21093 c 0.44491,-2.0072 1.17189,-5.89186 2.62696,-9.0371 z"
       transform="translate(-9,-7.5462605)"
       id="path4377"
       inkscape:connector-curvature="0" />
    <path
       style="fill:#b5a79f;fill-opacity:1;fill-rule:evenodd;stroke:none;stroke-width:1px;stroke-linecap:butt;stroke-linejoin:miter;stroke-opacity:1"
       d="m 306.34332,508.47265 c 2.15145,-0.11952 7.01645,-1.76801 13.21023,-2.23969 4.13674,-0.31504 8.96421,0.67893 13.61057,0.1137 7.95521,-0.96775 16.04155,-3.54352 23.05221,-4.34133 8.23619,-0.93727 14.92049,0.0412 17.16849,1.00468 3.90938,1.67545 -4.54585,1.46439 -15.5667,2.63918 -8.57866,0.91447 -18.8513,3.22646 -25.1548,4.31327 -3.80754,0.65647 -9.0248,-0.73744 -15.07575,-0.37184 -3.29624,0.19916 -7.01084,2.36377 -10.10354,2.55874 -12.7036,0.8009 -20.53063,-0.73884 -1.14071,-3.67671 z"
       id="path4396"
       inkscape:connector-curvature="0"
       sodipodi:nodetypes="cssssssssc" />
    <path
       style="fill:#b5a79f;fill-opacity:1;fill-rule:evenodd;stroke:none;stroke-width:1px;stroke-linecap:butt;stroke-linejoin:miter;stroke-opacity:1"
       d="m 365.39453,528.43359 c -1.84781,0 -4.25564,0.34373 -6.83398,0.60157 -0.91884,0.0919 -4.01096,-0.75317 -6.85547,-0.0996 -2.98924,0.68681 -5.80881,2.88518 -9.93164,3.42187 -3.1249,0.40678 -6.34464,-0.77654 -9.64844,-0.14844 -3.75877,0.7146 -7.22983,3.28274 -10.71875,3.85157 -3.01976,0.49234 -6.30408,-0.52285 -8.66406,-0.0996 -3.23224,0.57967 -5.66064,2.19291 -6.7793,2.35742 -5.50045,1.03134 -6.01572,2.40602 -4.8125,5.15625 1.20323,2.75023 7.34529,-1.17768 12.33008,-1.86523 0.47265,-0.0653 1.20169,0.11331 2.10937,0.30664 3.7535,-0.8269 7.57821,-1.62632 11.42969,-2.41016 1.90856,-0.9942 3.92339,-2.00268 6.1875,-2.60938 2.56931,-0.68847 6.16247,0.30807 8.67188,-0.34179 4.16952,-1.07977 8.08569,-2.22098 11.1875,-2.81446 1.21691,-0.23284 2.30643,0.0945 3.23828,0.45899 3.6631,-0.57626 7.27934,-1.11469 10.82031,-1.5957 1.40833,-0.7958 2.05492,-1.718 1.75,-2.70899 -0.34378,-1.11728 -1.63266,-1.46094 -3.48047,-1.46094 z"
       transform="translate(-9,-7.5462605)"
       id="path4400"
       inkscape:connector-curvature="0" />
    <path
       style="fill:#b5a79f;fill-opacity:1;fill-rule:evenodd;stroke:none;stroke-width:1px;stroke-linecap:butt;stroke-linejoin:miter;stroke-opacity:1"
       d="m 450.01639,492.97287 c 1.28064,0.0512 3.87324,1.51684 6.49204,1.4602 2.40856,-0.0521 5.41667,-1.64917 8.59392,-1.81836 2.44183,-0.13002 9.35485,1.07736 12.07767,0.94156 3.31748,-0.16547 7.45859,1.77182 10.72935,1.53869 3.2626,-0.23255 7.63057,-2.19869 10.62159,-2.61372 10.86437,-1.50753 18.28854,-2.18596 21.48543,-2.18596 7.65028,0 8.91194,3.76493 -4.85855,4.52996 -3.67271,0.20404 -9.38258,1.18477 -14.96421,2.32839 -3.56399,0.73023 -6.25094,2.89357 -10.40169,3.23825 -3.13085,0.25999 -6.77518,-1.26869 -10.07535,-1.13695 -3.88247,0.15499 -10.33799,-1.80015 -13.8109,-1.55428 -2.77819,0.19669 -6.92971,3.29611 -9.12224,3.37408 -2.94774,0.10483 -5.78184,-1.98164 -7.14957,-1.98164 -8.4153,0 -13.77049,-5.7377 0.38251,-6.12022 z"
       id="path4409"
       inkscape:connector-curvature="0"
       sodipodi:nodetypes="csssssssssssssc" />
    <path
       style="fill:#b5a79f;fill-opacity:1;fill-rule:evenodd;stroke:none;stroke-width:1px;stroke-linecap:butt;stroke-linejoin:miter;stroke-opacity:1"
       d="m 588.65234,512.33984 c -2.70115,0.0352 -6.02128,0.33902 -9.32031,0.53321 -5.07904,0.29895 -10.74848,1.90867 -16.66797,2.39648 -3.76035,0.30988 -7.56881,2.03545 -11.26758,2.17188 -3.47113,0.12803 -8.39896,-2.17228 -11.4121,-2.08008 -2.37656,0.0727 -5.3547,-1.05826 -7.25,-0.97656 -2.974,0.12821 -5.26135,2.25193 -6.5625,2.33203 -15.83481,0.67096 -6.84295,5.50162 0.67187,4.96484 1.27836,-0.0913 3.53927,-2.85569 6.71484,-2.92969 1.81951,-0.0424 4.97189,1.28502 7.24219,1.29102 3.23625,0.009 7.36207,1.75505 11.13477,1.74805 3.91709,-0.007 7.99999,-2.4082 12.07031,-2.59375 5.34564,-0.24367 10.80393,-2.47569 15.70898,-2.36915 3.74398,0.0813 7.47045,0.2318 10.50977,0.90235 2.42022,0.53397 4.03789,0.83864 5.86133,0.73047 4.10186,-0.24333 6.51291,-0.56816 7.74023,-0.91992 l -0.4414,-1.42188 c -1.80471,-0.50441 -4.9905,-0.90731 -7.96875,-1.01367 -0.97327,-0.0348 -2.1065,-2.51418 -4.29297,-2.69727 -0.73902,-0.0619 -1.57032,-0.0801 -2.47071,-0.0684 z"
       transform="translate(-9,-7.5462605)"
       id="path4411"
       inkscape:connector-curvature="0" />
    <path
       style="fill:#b5a79f;fill-opacity:1;fill-rule:evenodd;stroke:none;stroke-width:1px;stroke-linecap:butt;stroke-linejoin:miter;stroke-opacity:1"
       d="m 188.99781,580.61878 c 7.54972,-5.58023 17.08711,-10.00722 23.76898,-15.84805 2.71507,-2.37334 3.01317,-7.07526 5.54253,-8.92231 2.17834,-1.59071 4.78772,-1.91634 6.72822,-3.05595 2.74178,-1.61017 6.87223,0.43755 8.65754,-0.61741 8.12678,-4.80219 9.97376,-12.19017 -4.06339,-4.80219 -1.33499,0.70263 -4.25767,-0.45957 -5.85873,0.43019 -1.79112,0.99539 -4.95782,1.40144 -6.93742,2.60837 -2.59692,1.5833 -4.73419,8.17259 -7.38065,9.98191 -12.49423,8.54197 -24.88986,13.57626 -24.88986,13.57626 z"
       id="path4416"
       inkscape:connector-curvature="0"
       sodipodi:nodetypes="csssssssscc" />
    <path
       style="fill:#2f3235;fill-opacity:1;fill-rule:evenodd;stroke:none;stroke-width:1px;stroke-linecap:butt;stroke-linejoin:miter;stroke-opacity:1"
       d="m 416.69922,468.6543 -0.98047,0.082 -0.21875,12.34179 c 0.66972,-3.2611 2.5234,-5.87028 4.58008,-8.20117 -0.89981,0.0464 -1.14611,0.0758 -3.47461,0.2793 l 0.0937,-4.50195 z"
       transform="translate(-9,-7.5462605)"
       id="path4418"
       inkscape:connector-curvature="0" />
  </g>
  <g
     inkscape:groupmode="layer"
     id="layer12"
     inkscape:label="tail-feathers"
     transform="translate(73.254834,-140.26831)"
     style="display:inline"
     sodipodi:insensitive="true">
    <path
       style="fill:#c7e2f8;fill-opacity:1;fill-rule:evenodd;stroke:none;stroke-width:1px;stroke-linecap:butt;stroke-linejoin:miter;stroke-opacity:1"
       d="m 131.51953,614.68945 -39.214842,-9.84179 c -1.196983,6.0727 -1.718145,10.69713 -1.050782,12.69922 5,15 16.000004,24 31.000004,13 2.3434,-1.7185 5.57903,-7.63202 9.26562,-15.85743 z"
       id="path4419"
       transform="translate(-64.254834,147.81457)"
       inkscape:connector-curvature="0" />
    <path
       style="fill:#3799e8;fill-opacity:1;fill-rule:evenodd;stroke:none;stroke-width:1px;stroke-linecap:butt;stroke-linejoin:miter;stroke-opacity:1"
       d="m 147.06641,574.07617 -43.65039,-9.83008 c -5.0222,16.12504 -9.152142,30.66192 -11.111332,40.60157 l 39.214842,9.84179 c 4.59317,-10.24811 9.97204,-24.63805 15.54688,-40.61328 z"
       id="path4417"
       transform="translate(-64.254834,147.81457)"
       inkscape:connector-curvature="0" />
    <path
       style="fill:#1ad61a;fill-opacity:1;fill-rule:evenodd;stroke:none;stroke-width:1px;stroke-linecap:butt;stroke-linejoin:miter;stroke-opacity:1"
       d="m 186.25391,449.54688 -45,5 c 0,0 -22.93985,61.86525 -37.83789,109.69921 l 43.65039,9.83008 c 18.59172,-53.27635 39.1875,-124.52929 39.1875,-124.52929 z"
       id="path4305"
       transform="translate(-64.254834,147.81457)"
       inkscape:connector-curvature="0" />
    <path
       style="fill:#c8e3f9;fill-opacity:1;fill-rule:evenodd;stroke:none;stroke-width:1px;stroke-linecap:butt;stroke-linejoin:miter;stroke-opacity:1"
       d="m 178.73633,635.24609 -32.19727,-7.63867 c -0.40321,2.3778 -0.59256,4.24779 -0.28515,4.93946 4,9 14,19 25,15 1.5505,-0.56383 4.25594,-5.43308 7.48242,-12.30079 z"
       id="path4403"
       transform="translate(-64.254834,147.81457)"
       inkscape:connector-curvature="0" />
    <path
       style="fill:#1889e7;fill-opacity:1;fill-rule:evenodd;stroke:none;stroke-width:1px;stroke-linecap:butt;stroke-linejoin:miter;stroke-opacity:1"
       d="m 196.58594,590.75391 -36.60742,-9.05079 c -6.73768,20.3784 -12.05996,37.76911 -13.43946,45.9043 l 32.19727,7.63867 c 4.80027,-10.21758 11.05141,-26.0888 17.84961,-44.49218 z"
       id="path4401"
       transform="translate(-64.254834,147.81457)"
       inkscape:connector-curvature="0" />
    <path
       style="fill:#1fe51f;fill-opacity:1;fill-rule:evenodd;stroke:none;stroke-width:1px;stroke-linecap:butt;stroke-linejoin:miter;stroke-opacity:1"
       d="m 243.25391,454.54688 -40,5 c 0,0 -26.35747,70.98725 -43.27539,122.15624 l 36.60742,9.05079 c 21.04969,-56.98357 46.66797,-136.20703 46.66797,-136.20703 z"
       id="path4312"
       transform="translate(-64.254834,147.81457)"
       inkscape:connector-curvature="0" />
    <path
       style="fill:#bcddf7;fill-opacity:1;fill-rule:evenodd;stroke:none;stroke-width:1px;stroke-linecap:butt;stroke-linejoin:miter;stroke-opacity:1"
       d="m 162.99609,619.49609 -45.11914,-13.04297 c -2.56859,9.00553 -4.30498,16.21843 -3.62304,18.09376 4,11 22,25 36,18 2.84433,-1.42217 7.38399,-10.24135 12.74218,-23.05079 z"
       id="path4391"
       transform="translate(-64.254834,147.81457)"
       inkscape:connector-curvature="0" />
    <path
       style="fill:#2791e7;fill-opacity:1;fill-rule:evenodd;stroke:none;stroke-width:1px;stroke-linecap:butt;stroke-linejoin:miter;stroke-opacity:1"
       d="m 175.52539,586.49414 -47.16992,-12.62695 c -4.41431,12.76226 -7.9612,23.76019 -10.47852,32.58593 l 45.11914,13.04297 c 3.8222,-9.13746 8.11518,-20.66557 12.5293,-33.00195 z"
       id="path4389"
       transform="translate(-64.254834,147.81457)"
       inkscape:connector-curvature="0" />
    <path
       style="fill:#1ac21a;fill-opacity:1;fill-rule:evenodd;stroke:none;stroke-width:1px;stroke-linecap:butt;stroke-linejoin:miter;stroke-opacity:1"
       d="m 173.25391,453.54688 c 0,0 -27.39678,69.72102 -44.89844,120.32031 l 47.16992,12.62695 c 19.8555,-55.49126 42.72852,-131.94726 42.72852,-131.94726 l -45,-1 z"
       id="path4307"
       transform="translate(-64.254834,147.81457)"
       inkscape:connector-curvature="0" />
    <path
       style="fill:#323232;fill-opacity:1;fill-rule:evenodd;stroke:none;stroke-width:1px;stroke-linecap:butt;stroke-linejoin:miter;stroke-opacity:1"
       d="m 38,549.3622 c 0,0 -49,18 -57,36 -8,18 -4,47 11,47 15,0 78,-35 78,-35"
       id="path4366"
       inkscape:connector-curvature="0" />
    <path
       style="fill:#3f31a9;fill-opacity:1;fill-rule:evenodd;stroke:none;stroke-width:1px;stroke-linecap:butt;stroke-linejoin:miter;stroke-opacity:1"
       d="m 56,584.3622 c 0,0 -107,43 -115,56 -8,13 -8,22 8,24 16,2 134,-54 134,-54"
       id="path4362"
       inkscape:connector-curvature="0" />
  </g>
  <g
     inkscape:groupmode="layer"
     id="layer8"
     inkscape:label="body-feathers-0"
     style="display:inline"
     sodipodi:insensitive="true"
     transform="translate(73.254834,-140.26831)">
    <path
       style="display:inline;fill:#1fe51f;fill-opacity:1;fill-rule:evenodd;stroke:none;stroke-width:1px;stroke-linecap:butt;stroke-linejoin:miter;stroke-opacity:1"
       d="m 379.59343,289.76583 c 0,0 -17.72951,11.81967 -21.82094,11.13777 -4.09143,-0.68191 -19.53481,-1.86424 -10.21545,-6.86487 9.31936,-5.00064 14.79053,-19.76959 14.79053,-19.76959"
       id="path4303"
       inkscape:connector-curvature="0"
       sodipodi:nodetypes="cssc" />
    <path
       style="fill:#323232;fill-opacity:1;fill-rule:evenodd;stroke:none;stroke-width:1px;stroke-linecap:butt;stroke-linejoin:miter;stroke-opacity:1"
       d="m 301.91693,311.65933 c 0,0 2.58786,-12.36422 -18.11501,-11.5016 -20.70288,0.86262 -1.15016,-8.33866 10.92652,-4.60064 12.07667,3.73802 23.00319,12.36422 23.00319,12.36422"
       id="path4285"
       inkscape:connector-curvature="0"
       sodipodi:nodetypes="cssc" />
    <path
       style="fill:#464646;fill-opacity:1;fill-rule:evenodd;stroke:none;stroke-width:1px;stroke-linecap:butt;stroke-linejoin:miter;stroke-opacity:1"
       d="m 290.68477,325.38457 c -9.03408,-1.85996 -43.31044,-12.22258 -72.27263,6.90841 -28.96219,19.13099 -37.46486,54.47018 -36.93344,63.76997 0.53142,9.29979 133.65123,-48.89031 133.65123,-48.89031"
       id="path4259"
       inkscape:connector-curvature="0" />
    <path
       style="fill:#1fe51f;fill-opacity:1;fill-rule:evenodd;stroke:none;stroke-width:1px;stroke-linecap:butt;stroke-linejoin:miter;stroke-opacity:1"
       d="m 305.64199,336.89332 c 0,0 -41.47646,-21.232 -56.78325,-21.72577 -15.30678,-0.49377 -17.77562,1.97507 -24.1946,-2.46883 -6.41897,-4.44391 55.30195,-6.91275 81.47162,21.23199"
       id="path4245"
       inkscape:connector-curvature="0" />
    <path
       style="fill:#464646;fill-opacity:1;fill-rule:evenodd;stroke:none;stroke-width:1px;stroke-linecap:butt;stroke-linejoin:miter;stroke-opacity:1"
       d="m 305.9071,339.38953 c 0,0 13.13115,-16.04918 -7.78141,-28.20766 -15.50519,-9.01464 35.01639,-11.67213 46.68852,-3.89071 11.67213,7.78142 10.69945,44.25684 10.69945,44.25684"
       id="path4271"
       inkscape:connector-curvature="0"
       sodipodi:nodetypes="cssc" />
    <path
       style="fill:#1ac21a;fill-opacity:1;fill-rule:evenodd;stroke:none;stroke-width:1px;stroke-linecap:butt;stroke-linejoin:miter;stroke-opacity:1"
       d="m 307.9977,302.88418 c 0,0 -5.29451,-3.76725 -11.81083,-6.00723 -6.51631,-2.23998 -5.49814,-1.93453 -11.60718,-1.01818 -6.10905,0.91636 -8.95993,2.03635 -7.94176,2.74907 1.01817,0.71273 3.15634,2.85089 -1.11999,1.52727 -4.27633,-1.32363 0,-4.68361 6.10904,-5.8036 6.10905,-1.11999 12.52355,-0.20363 15.88352,1.22181 3.35998,1.42545 12.93081,6.61813 12.93081,6.61813"
       id="path4289"
       inkscape:connector-curvature="0" />
    <path
       style="fill:#1fe51f;fill-opacity:1;fill-rule:evenodd;stroke:none;stroke-width:1px;stroke-linecap:butt;stroke-linejoin:miter;stroke-opacity:1"
       d="m 322.54565,303.98822 c 0,0 -7.33058,-1.43994 -20.0282,0.52361 -12.69762,1.96355 -0.1309,-2.48716 5.62884,-3.14167 5.75975,-0.65452 15.05388,0 15.05388,0"
       id="path4279"
       inkscape:connector-curvature="0"
       sodipodi:nodetypes="cssc" />
    <path
       style="fill:#464646;fill-opacity:1;fill-rule:evenodd;stroke:none;stroke-width:1px;stroke-linecap:butt;stroke-linejoin:miter;stroke-opacity:1"
       d="m 327.59672,298.36548 c 0,0 -3.0918,-2.55409 -11.15738,-2.15082 -8.06557,0.40328 -10.21639,-2.82295 12.36722,-2.28524 22.5836,0.5377 25.1377,12.50164 25.1377,12.50164"
       id="path4291"
       inkscape:connector-curvature="0" />
    <path
       style="fill:#323232;fill-opacity:1;fill-rule:evenodd;stroke:none;stroke-width:1px;stroke-linecap:butt;stroke-linejoin:miter;stroke-opacity:1"
       d="m 344.8142,351.06166 c 0,0 0.48635,-39.87978 -22.37158,-46.68853 -22.85792,-6.80874 6.80875,-13.61748 32.09836,0 14.56535,7.84288 53.98361,42.79782 61.76503,53.98361 7.78142,11.18579 48.63388,71.97815 48.63388,71.97815"
       id="path4275"
       inkscape:connector-curvature="0"
       sodipodi:nodetypes="csssc" />
    <path
       style="fill:#323232;fill-opacity:1;fill-rule:evenodd;stroke:none;stroke-width:1px;stroke-linecap:butt;stroke-linejoin:miter;stroke-opacity:1"
       d="m 356.15274,301.90681 c 0,0 -2.99864,-7.35444 -16.48717,-14.50745 -13.48852,-7.153 -18.18907,-8.5836 1.83935,12.2623"
       id="path4295"
       inkscape:connector-curvature="0"
       sodipodi:nodetypes="csc" />
    <path
       style="fill:#1ac21a;fill-opacity:1;fill-rule:evenodd;stroke:none;stroke-width:1px;stroke-linecap:butt;stroke-linejoin:miter;stroke-opacity:1"
       d="m 345.78393,298.91788 c 0,0 -4.43313,-4.12094 -15.42229,-4.43313 -10.98916,-0.31219 -13.73645,-0.31219 -18.0447,0.56195 -4.30825,0.87414 -2.99704,-1.56096 11.67598,-1.74828 14.67303,-0.18731 18.91884,2.93461 22.41539,4.55801"
       id="path4293"
       inkscape:connector-curvature="0" />
    <path
       style="fill:#1ac21a;fill-opacity:1;fill-rule:evenodd;stroke:none;stroke-width:1px;stroke-linecap:butt;stroke-linejoin:miter;stroke-opacity:1"
       d="m 353.75742,300.23723 c 0,0 -1.65946,-3.31892 -6.14976,-6.93068 -4.4903,-3.61176 -11.12813,-7.80921 -16.78981,-9.46867 -5.66168,-1.65946 -0.68331,-2.63561 9.27344,2.44038 9.95675,5.07599 11.12813,7.02829 12.78759,9.46867 1.65946,2.44038 4.29507,6.34499 4.29507,6.34499"
       id="path4297"
       inkscape:connector-curvature="0" />
    <path
       style="fill:#1fe51f;fill-opacity:1;fill-rule:evenodd;stroke:#1fe51f;stroke-width:1px;stroke-linecap:butt;stroke-linejoin:miter;stroke-opacity:1"
       d="m 371.98489,316.38065 c -14.3788,-11.44978 -21.30193,-14.3788 -27.42623,-16.24272 -6.12431,-1.86392 -10.91724,-2.92901 -18.10664,-3.46156 -7.1894,-0.53255 27.88789,-6.699 52.95981,21.14293"
       id="path4281"
       inkscape:connector-curvature="0"
       sodipodi:nodetypes="cssc" />
    <path
       style="fill:#1ac21a;fill-opacity:1;fill-rule:evenodd;stroke:#1ac21a;stroke-width:1px;stroke-linecap:butt;stroke-linejoin:miter;stroke-opacity:1"
       d="m 403.13895,343.80688 c -6.39057,-5.85803 -15.71017,-14.3788 -19.438,-17.57409 -3.72784,-3.19529 -7.98823,-6.39058 -11.98234,-9.85214 -3.99411,-3.46156 14.60293,0.70114 33.65781,23.25972"
       id="path4283"
       inkscape:connector-curvature="0"
       sodipodi:nodetypes="cssc" />
  </g>
  <g
     inkscape:groupmode="layer"
     id="layer9"
     inkscape:label="body-feathers-0-1"
     style="display:inline"
     sodipodi:insensitive="true"
     transform="translate(73.254834,-140.26831)">
    <path
       style="fill:#1ad61a;fill-opacity:1;fill-rule:evenodd;stroke:none;stroke-width:1px;stroke-linecap:butt;stroke-linejoin:miter;stroke-opacity:1"
       d="m 396.56393,330.49991 c 0,0 -28.30163,-18.07213 -33.75737,-24.8918 -5.45574,-6.81968 36.14426,16.36721 36.14426,16.36721"
       id="path4287"
       inkscape:connector-curvature="0" />
  </g>
  <g
     inkscape:groupmode="layer"
     id="layer7"
     inkscape:label="body-feathers"
     sodipodi:insensitive="true"
     style="display:inline"
     transform="translate(73.254834,-140.26831)">
    <path
       style="fill:#1ad61a;fill-opacity:1;fill-rule:evenodd;stroke:none;stroke-width:1px;stroke-linecap:butt;stroke-linejoin:miter;stroke-opacity:1"
       d="m 258,571.3622 c -29,21 -63,43 -84,45 -21,2 -41,9 -60,-3 -19,-12 77,-63 77,-63"
       id="path4270"
       inkscape:connector-curvature="0" />
    <path
       style="fill:#1ac21a;fill-opacity:1;fill-rule:evenodd;stroke:none;stroke-width:1px;stroke-linecap:butt;stroke-linejoin:miter;stroke-opacity:1"
       d="m 206,540.3622 c -23,28 -107,78 -128,83 -21,5 -45,-7 -40,-27 5,-20 140,-86 140,-86"
       id="path4274"
       inkscape:connector-curvature="0" />
    <path
       style="fill:#1ad61a;fill-opacity:1;fill-rule:evenodd;stroke:none;stroke-width:1px;stroke-linecap:butt;stroke-linejoin:miter;stroke-opacity:1"
       d="m 166,527.3622 c 0,0 -92,69 -111,69 -19,0 -42,-6 -36,-23 6,-17 115,-82 115,-82"
       id="path4276"
       inkscape:connector-curvature="0" />
    <path
       style="fill:#1fe51f;fill-opacity:1;fill-rule:evenodd;stroke:none;stroke-width:1px;stroke-linecap:butt;stroke-linejoin:miter;stroke-opacity:1"
       d="m 138,517.3622 c 0,0 -73,63 -97,67 -24,4 -27,-23 -22,-36 5,-13 100,-72 100,-72"
       id="path4278"
       inkscape:connector-curvature="0" />
    <path
       style="fill:#1ac21a;fill-opacity:1;fill-rule:evenodd;stroke:none;stroke-width:1px;stroke-linecap:butt;stroke-linejoin:miter;stroke-opacity:1"
       d="m 221,462.3622 c -80,78 -72,83 -111,92 -39,9 -51,-7 -41,-27 10,-20 124,-117 124,-117"
       id="path4280"
       inkscape:connector-curvature="0" />
    <path
       style="fill:#1ac21a;fill-opacity:1;fill-rule:evenodd;stroke:none;stroke-width:1px;stroke-linecap:butt;stroke-linejoin:miter;stroke-opacity:1"
       d="m 417,547.3622 c -31,25 -64,57 -93,63 -29,6 -40,-1 -37,-17 3,-16 92,-81 92,-81"
       id="path4284"
       inkscape:connector-curvature="0" />
    <path
       style="fill:#1ad61a;fill-opacity:1;fill-rule:evenodd;stroke:none;stroke-width:1px;stroke-linecap:butt;stroke-linejoin:miter;stroke-opacity:1"
       d="m 385,518.3622 c -14,14 -58,72 -90,76 -32,4 -66,12 -55,-14 11,-26 98,-103 98,-103"
       id="path4286"
       inkscape:connector-curvature="0" />
    <path
       style="fill:#1fe51f;fill-opacity:1;fill-rule:evenodd;stroke:none;stroke-width:1px;stroke-linecap:butt;stroke-linejoin:miter;stroke-opacity:1"
       d="m 352,491.3622 c 0,0 -67,76 -91,81 -24,5 -49,9 -52,-6 -3,-15 100,-116 100,-116"
       id="path4288"
       inkscape:connector-curvature="0" />
    <path
       style="fill:#1ac21a;fill-opacity:1;fill-rule:evenodd;stroke:none;stroke-width:1px;stroke-linecap:butt;stroke-linejoin:miter;stroke-opacity:1"
       d="m 315,461.3622 c 0,0 -63,77 -82,85 -19,8 -60,36 -54,10 6,-26 102,-110 102,-110"
       id="path4290"
       inkscape:connector-curvature="0" />
    <path
       style="fill:#1ad61a;fill-opacity:1;fill-rule:evenodd;stroke:none;stroke-width:1px;stroke-linecap:butt;stroke-linejoin:miter;stroke-opacity:1"
       d="m 286,457.3622 c 0,0 -43,62 -70,71 -27,9 -50,15 -50,-6 0,-21 83,-89 83,-89"
       id="path4282"
       inkscape:connector-curvature="0" />
    <path
       style="fill:#1ad61a;fill-opacity:1;fill-rule:evenodd;stroke:none;stroke-width:1px;stroke-linecap:butt;stroke-linejoin:miter;stroke-opacity:1"
       d="m 452,509.3622 c -13,15 -14,38 -34,40 -20,2 -39,-6 -34,-21 5,-15 33,-41 33,-41"
       id="path4292"
       inkscape:connector-curvature="0" />
    <path
       style="fill:#1fe51f;fill-opacity:1;fill-rule:evenodd;stroke:none;stroke-width:1px;stroke-linecap:butt;stroke-linejoin:miter;stroke-opacity:1"
       d="m 422,493.3622 c 0,0 -15,30 -26,38 -11,8 -24,18 -36,6 -12,-12 -4,-51 3,-63"
       id="path4294"
       inkscape:connector-curvature="0" />
    <path
       style="fill:#1ac21a;fill-opacity:1;fill-rule:evenodd;stroke:none;stroke-width:1px;stroke-linecap:butt;stroke-linejoin:miter;stroke-opacity:1"
       d="m 383,467.3622 c -6,2 -28,35 -52,33 -24,-2 -22,-16 -19,-24 3,-8 15,-34 21,-39"
       id="path4296"
       inkscape:connector-curvature="0" />
    <path
       style="fill:#1fe51f;fill-opacity:1;fill-rule:evenodd;stroke:none;stroke-width:1px;stroke-linecap:butt;stroke-linejoin:miter;stroke-opacity:1"
       d="m 344,438.3622 c -9,4 -18,27 -47,37 -29,10 -41,3 -41,-11 0,-14 31,-55 31,-55"
       id="path4298"
       inkscape:connector-curvature="0" />
    <path
       style="fill:#1fe51f;fill-opacity:1;fill-rule:evenodd;stroke:none;stroke-width:1px;stroke-linecap:butt;stroke-linejoin:miter;stroke-opacity:1"
       d="m 287,396.3622 c -12,13 -88,64 -102,65 -14,1 -39,-2 -31,-17 8,-15 109,-95 116,-100"
       id="path4302"
       inkscape:connector-curvature="0" />
    <path
       style="fill:#1ac21a;fill-opacity:1;fill-rule:evenodd;stroke:none;stroke-width:1px;stroke-linecap:butt;stroke-linejoin:miter;stroke-opacity:1"
       d="m 299,414.3622 c -15,13 -34,47 -57,54 -23,7 -45,20 -40,-3 5,-23 46,-73 46,-73"
       id="path4300"
       inkscape:connector-curvature="0" />
    <path
       style="fill:#1ac21a;fill-opacity:1;fill-rule:evenodd;stroke:none;stroke-width:1px;stroke-linecap:butt;stroke-linejoin:miter;stroke-opacity:1"
       d="m 245,363.3622 c 0,0 -61,65 -84,79 -23,14 -24,2 -11,-17 13,-19 87,-81 95,-84"
       id="path4304"
       inkscape:connector-curvature="0" />
    <path
       style="fill:#1ac21a;fill-opacity:1;fill-rule:evenodd;stroke:none;stroke-width:1px;stroke-linecap:butt;stroke-linejoin:miter;stroke-opacity:1"
       d="m 476,472.3622 c -7,11 -21,42 -31,42 -10,0 -31,-2 -30,-13 1,-11 29,-52 29,-52"
       id="path4306"
       inkscape:connector-curvature="0" />
    <path
       style="fill:#1ad61a;fill-opacity:1;fill-rule:evenodd;stroke:none;stroke-width:1px;stroke-linecap:butt;stroke-linejoin:miter;stroke-opacity:1"
       d="m 447,460.3622 c -15,16 -26,34 -42,39 -16,5 -33,0 -35,-13 -2,-13 32,-56 32,-56"
       id="path4308"
       inkscape:connector-curvature="0" />
    <path
       style="fill:#1fe51f;fill-opacity:1;fill-rule:evenodd;stroke:none;stroke-width:1px;stroke-linecap:butt;stroke-linejoin:miter;stroke-opacity:1"
       d="m 399,445.3622 c -13,11 -28.99521,31.55112 -41.99521,32.55112 -13,1 -21.00479,-11.55112 -21.00479,-19.55112 0,-8 11,-50 11,-50"
       id="path4310"
       inkscape:connector-curvature="0"
       sodipodi:nodetypes="cssc" />
    <path
       style="fill:#1ac21a;fill-opacity:1;fill-rule:evenodd;stroke:none;stroke-width:1px;stroke-linecap:butt;stroke-linejoin:miter;stroke-opacity:1"
       d="m 360.25137,415.41357 c -6.66011,9.08197 -19.98033,26.64044 -30.27323,26.03497 -10.29289,-0.60546 -27.2459,-7.26557 -28.45683,-13.32022 -1.21093,-6.05464 24.82405,-41.77704 24.82405,-41.77704"
       id="path4230"
       inkscape:connector-curvature="0" />
    <path
       style="fill:#1ad61a;fill-opacity:1;fill-rule:evenodd;stroke:none;stroke-width:1px;stroke-linecap:butt;stroke-linejoin:miter;stroke-opacity:1"
       d="m 335.42732,389.3786 c 0,0 -32.69508,38.74972 -43.59344,38.14426 -10.89836,-0.60546 -25.42951,-10.89836 -26.03497,-16.95301 -0.60547,-6.05464 29.66776,-39.96065 29.66776,-39.96065"
       id="path4232"
       inkscape:connector-curvature="0" />
    <path
       style="fill:#1fe51f;fill-opacity:1;fill-rule:evenodd;stroke:none;stroke-width:1px;stroke-linecap:butt;stroke-linejoin:miter;stroke-opacity:1"
       d="m 298.49399,371.82013 c -6.05465,10.89836 -13.92568,35.7224 -26.64044,35.7224 -12.71475,0 -21.79672,-4.84371 -24.82404,-13.92568 -3.02732,-9.08197 26.03497,-46.0153 26.03497,-46.0153"
       id="path4240"
       inkscape:connector-curvature="0" />
    <path
       style="fill:#1ad61a;fill-opacity:1;fill-rule:evenodd;stroke:none;stroke-width:1px;stroke-linecap:butt;stroke-linejoin:miter;stroke-opacity:1"
       d="m 275.48634,351.23434 c -12.71476,10.89836 -25.42951,29.66776 -33.30055,30.87868 -7.87104,1.21093 -22.30706,-12.04734 -20.49066,-19.31291 0.97816,-3.91264 9.97355,-14.98234 21.77453,-20.92392 10.11283,-5.09163 25.93474,2.31897 25.93474,2.31897"
       id="path4242"
       inkscape:connector-curvature="0"
       sodipodi:nodetypes="csssc" />
    <path
       style="fill:#1fe51f;fill-opacity:1;fill-rule:evenodd;stroke:none;stroke-width:1px;stroke-linecap:butt;stroke-linejoin:miter;stroke-opacity:1"
       d="m 486.18798,442.05401 c -4.23825,12.71475 -5.44918,29.66776 -12.71476,32.08962 -7.26557,2.42185 -25.4295,-7.26558 -25.4295,-13.32022 0,-6.05465 13.32021,-32.69509 13.32021,-32.69509"
       id="path4244"
       inkscape:connector-curvature="0" />
    <path
       style="fill:#1ad61a;fill-opacity:1;fill-rule:evenodd;stroke:none;stroke-width:1px;stroke-linecap:butt;stroke-linejoin:miter;stroke-opacity:1"
       d="m 464.99672,431.15565 c 0,0 -9.08197,23.00765 -16.34754,25.42951 -7.26557,2.42185 -21.79672,-1.8164 -25.42951,-9.08197 -3.63278,-7.26558 11.50383,-34.51148 11.50383,-34.51148"
       id="path4246"
       inkscape:connector-curvature="0" />
    <path
       style="fill:#1ac21a;fill-opacity:1;fill-rule:evenodd;stroke:none;stroke-width:1px;stroke-linecap:butt;stroke-linejoin:miter;stroke-opacity:1"
       d="m 435.93443,416.6245 c -3.63279,5.44918 -9.08197,29.06229 -15.74208,30.27322 -6.66011,1.21093 -20.58579,1.8164 -24.82404,-2.42185 -4.23826,-4.23826 9.68743,-38.74973 9.68743,-38.74973"
       id="path4248"
       inkscape:connector-curvature="0" />
    <path
       style="fill:#1ad61a;fill-opacity:1;fill-rule:evenodd;stroke:none;stroke-width:1px;stroke-linecap:butt;stroke-linejoin:miter;stroke-opacity:1"
       d="m 408.68852,416.01904 c 0,0 -6.05464,26.64043 -12.10929,27.2459 -6.05464,0.60546 -29.06229,-7.26558 -27.2459,-13.92569 1.8164,-6.66011 15.13662,-32.08961 15.13662,-32.08961"
       id="path4250"
       inkscape:connector-curvature="0" />
    <path
       style="fill:#1fe51f;fill-opacity:1;fill-rule:evenodd;stroke:none;stroke-width:1px;stroke-linecap:butt;stroke-linejoin:miter;stroke-opacity:1"
       d="m 387.49727,402.69882 c 0,0 -14.53115,25.4295 -21.79672,25.4295 -7.26558,0 -23.61312,-14.53114 -23.00765,-20.58579 0.60546,-6.05464 22.40218,-26.64043 22.40218,-26.64043"
       id="path4252"
       inkscape:connector-curvature="0" />
    <path
       style="fill:#1ad61a;fill-opacity:1;fill-rule:evenodd;stroke:none;stroke-width:1px;stroke-linecap:butt;stroke-linejoin:miter;stroke-opacity:1"
       d="m 367.51694,385.14035 c 0,0 -18.7694,21.79672 -26.03497,19.98032 -7.26558,-1.81639 -24.21858,-13.92568 -24.21858,-18.76939 0,-4.84372 25.42951,-23.61312 25.42951,-23.61312"
       id="path4254"
       inkscape:connector-curvature="0" />
    <path
       style="fill:#1ad61a;fill-opacity:1;fill-rule:evenodd;stroke:none;stroke-width:1px;stroke-linecap:butt;stroke-linejoin:miter;stroke-opacity:1"
       d="m 316.72417,345.57839 c -8.50266,6.64271 -22.05378,21.78807 -30.02502,20.99095 -7.97125,-0.79712 -15.41108,-10.09691 -13.81683,-14.87966 1.59425,-4.78275 31.88499,-19.66241 31.88499,-19.66241"
       id="path4261"
       inkscape:connector-curvature="0" />
    <path
       style="fill:#1ac21a;fill-opacity:1;fill-rule:evenodd;stroke:none;stroke-width:1px;stroke-linecap:butt;stroke-linejoin:miter;stroke-opacity:1"
       d="m 342.08743,366.37095 c 0,0 -14.53115,24.82404 -23.61311,21.19125 -9.08197,-3.63278 -29.66776,-7.26557 -30.87869,-13.92568 -1.21093,-6.66011 29.66776,-33.90601 29.66776,-33.90601"
       id="path4256"
       inkscape:connector-curvature="0" />
    <path
       style="fill:#1ac21a;fill-opacity:1;fill-rule:evenodd;stroke:none;stroke-width:1px;stroke-linecap:butt;stroke-linejoin:miter;stroke-opacity:1"
       d="m 489.81721,423.79637 c 0,0 2.9626,21.72576 -4.93767,26.66344 -7.90028,4.93767 -21.72577,0.49376 -21.72577,-7.40651 0,-7.90028 7.40651,-32.09488 7.40651,-32.09488"
       id="path4247"
       inkscape:connector-curvature="0" />
    <path
       style="fill:#1fe51f;fill-opacity:1;fill-rule:evenodd;stroke:none;stroke-width:1px;stroke-linecap:butt;stroke-linejoin:miter;stroke-opacity:1"
       d="m 469.57275,403.55191 c 0,0 3.45637,32.58864 -2.46884,34.06994 -5.92521,1.48131 -25.18213,0 -27.1572,-7.90027 -1.97507,-7.90028 4.4439,-35.05748 4.4439,-35.05748"
       id="path4249"
       inkscape:connector-curvature="0" />
    <path
       style="fill:#1ad61a;fill-opacity:1;fill-rule:evenodd;stroke:none;stroke-width:1px;stroke-linecap:butt;stroke-linejoin:miter;stroke-opacity:1"
       d="m 447.84699,396.1454 c 0,0 0,26.66343 -4.93768,29.62604 -4.93767,2.9626 -24.68837,2.46884 -28.14474,-2.96261 -3.45637,-5.43144 1.48131,-38.02008 1.48131,-38.02008"
       id="path4251"
       inkscape:connector-curvature="0" />
    <path
       style="fill:#1ac21a;fill-opacity:1;fill-rule:evenodd;stroke:none;stroke-width:1px;stroke-linecap:butt;stroke-linejoin:miter;stroke-opacity:1"
       d="m 420.19601,388.24512 c 0,0 -0.49376,23.70083 -4.4439,27.1572 -3.95014,3.45638 -20.73823,5.92521 -23.20707,-0.49376 -2.46883,-6.41898 0.49377,-35.55125 0.49377,-35.55125"
       id="path4253"
       inkscape:connector-curvature="0" />
    <path
       style="fill:#1fe51f;fill-opacity:1;fill-rule:evenodd;stroke:none;stroke-width:1px;stroke-linecap:butt;stroke-linejoin:miter;stroke-opacity:1"
       d="m 396.98895,377.87601 c 0,0 1.97507,24.1946 -2.46884,27.65097 -4.4439,3.45637 -23.70083,4.93767 -24.1946,-2.46884 -0.49377,-7.40651 3.95014,-35.05748 3.95014,-35.05748"
       id="path4255"
       inkscape:connector-curvature="0" />
    <path
       style="fill:#1ad61a;fill-opacity:1;fill-rule:evenodd;stroke:none;stroke-width:1px;stroke-linecap:butt;stroke-linejoin:miter;stroke-opacity:1"
       d="m 376.74449,368.49443 c 0,0 0,22.21953 -5.92521,25.6759 -5.92521,3.45637 -20.73823,-7.90028 -20.73823,-12.34419 0,-4.4439 4.44391,-29.62604 4.44391,-29.62604"
       id="path4257"
       inkscape:connector-curvature="0" />
    <path
       style="fill:#1ac21a;fill-opacity:1;fill-rule:evenodd;stroke:none;stroke-width:1px;stroke-linecap:butt;stroke-linejoin:miter;stroke-opacity:1"
       d="m 360.45016,353.18764 c 0,0 -2.9626,21.72576 -8.88781,23.70083 -5.92521,1.97507 -21.23199,-7.40651 -20.73823,-11.85042 0.49377,-4.4439 9.87535,-26.66343 9.87535,-26.66343"
       id="path4260"
       inkscape:connector-curvature="0" />
    <path
       style="fill:#1ac21a;fill-opacity:1;fill-rule:evenodd;stroke:none;stroke-width:1px;stroke-linecap:butt;stroke-linejoin:miter;stroke-opacity:1"
       d="m 327.30777,338.94367 c 0,0 -14.26837,7.13419 -18.59212,6.05325 -4.32374,-1.08093 -7.13418,-3.89137 -6.48562,-7.78275 0.64856,-3.89137 12.32269,-13.18743 20.53781,-11.24174"
       id="path4264"
       inkscape:connector-curvature="0" />
    <path
       style="fill:#1fe51f;fill-opacity:1;fill-rule:evenodd;stroke:none;stroke-width:1px;stroke-linecap:butt;stroke-linejoin:miter;stroke-opacity:1"
       d="m 345.14338,340.34969 c 0,0 1.97507,12.34418 -7.90028,16.29432 -9.87535,3.95014 -21.232,-0.98754 -21.72576,-6.91274 -0.49377,-5.92521 7.40651,-24.68837 7.40651,-24.68837"
       id="path4262"
       inkscape:connector-curvature="0" />
  </g>
  <g
     inkscape:groupmode="layer"
     id="layer10"
     inkscape:label="body-feathers-2"
     style="display:inline"
     sodipodi:insensitive="true"
     transform="translate(73.254834,-140.26831)">
    <path
       style="fill:#1ad61a;fill-opacity:1;fill-rule:evenodd;stroke:none;stroke-width:1px;stroke-linecap:butt;stroke-linejoin:miter;stroke-opacity:1"
       d="m 487.72624,384.97123 c 0,0 7.25918,36.29591 1.36109,39.4718 -5.89808,3.17589 -22.23124,-0.9074 -23.59233,-11.79617 -1.3611,-10.88877 0,-38.1107 0,-38.1107"
       id="path4263"
       inkscape:connector-curvature="0" />
    <path
       style="fill:#1ac21a;fill-opacity:1;fill-rule:evenodd;stroke:none;stroke-width:1px;stroke-linecap:butt;stroke-linejoin:miter;stroke-opacity:1"
       d="m 468.67089,377.25835 c 0,0 1.36109,28.12933 -4.53699,29.94412 -5.89809,1.8148 -23.13864,-3.62959 -25.40713,-10.88877 -2.2685,-7.25918 7.71288,-39.4718 7.71288,-39.4718"
       id="path4266"
       inkscape:connector-curvature="0" />
    <path
       style="fill:#1fe51f;fill-opacity:1;fill-rule:evenodd;stroke:none;stroke-width:1px;stroke-linecap:butt;stroke-linejoin:miter;stroke-opacity:1"
       d="m 447.80074,360.47149 c 0,0 0,29.49043 -6.80548,30.85152 -6.80548,1.3611 -19.96275,-14.97206 -19.50905,-20.41644 0.4537,-5.44439 9.98137,-27.67563 9.98137,-27.67563"
       id="path4268"
       inkscape:connector-curvature="0" />
    <path
       style="fill:#1ad61a;fill-opacity:1;fill-rule:evenodd;stroke:none;stroke-width:1px;stroke-linecap:butt;stroke-linejoin:miter;stroke-opacity:1"
       d="m 434.18978,347.76793 c 0,0 -5.44439,23.13863 -10.88878,21.32384 -5.44438,-1.8148 -16.78685,-14.97206 -17.69425,-21.77754 -0.9074,-6.80548 13.15727,-18.60165 13.15727,-18.60165"
       id="path4272"
       inkscape:connector-curvature="0"
       sodipodi:nodetypes="cssc" />
    <path
       style="fill:#1ac21a;fill-opacity:1;fill-rule:evenodd;stroke:none;stroke-width:1px;stroke-linecap:butt;stroke-linejoin:miter;stroke-opacity:1"
       d="m 419.21772,331.43477 c 0,0 -5.44439,17.69425 -11.79617,16.78685 -6.35179,-0.90739 -18.14796,-16.78685 -17.69426,-21.77754 0.4537,-4.99068 10.88877,-14.51836 10.88877,-14.51836"
       id="path4277"
       inkscape:connector-curvature="0"
       sodipodi:nodetypes="cssc" />
    <path
       style="fill:#1fe51f;fill-opacity:1;fill-rule:evenodd;stroke:none;stroke-width:1px;stroke-linecap:butt;stroke-linejoin:miter;stroke-opacity:1"
       d="m 401.64167,313.63248 c 0,0 -6.36444,11.59237 -10.22857,11.81967 -3.86412,0.22731 -16.1384,-7.95555 -15.22919,-13.18348 0.9092,-5.22793 16.3657,-8.63746 16.3657,-8.63746"
       id="path4273"
       inkscape:connector-curvature="0" />
    <path
       style="fill:#1ad61a;fill-opacity:1;fill-rule:evenodd;stroke:none;stroke-width:1px;stroke-linecap:butt;stroke-linejoin:miter;stroke-opacity:1"
       d="m 392.09501,304.99502 c 0,0 -9.09206,5.68254 -14.09269,5.68254 -5.00063,0 -18.41142,-3.63682 -11.81968,-5.90984 6.59175,-2.27301 19.09333,-7.27364 19.09333,-7.27364"
       id="path4299"
       inkscape:connector-curvature="0" />
    <path
       style="fill:#1ac21a;fill-opacity:1;fill-rule:evenodd;stroke:none;stroke-width:1px;stroke-linecap:butt;stroke-linejoin:miter;stroke-opacity:1"
       d="m 386.86708,298.40328 c 0,0 -13.86539,9.31936 -20.00253,7.72825 -6.13714,-1.59111 -15.9111,-2.50032 -9.31936,-6.59174 6.59174,-4.09143 22.27554,-10.68317 22.27554,-10.68317"
       id="path4301"
       inkscape:connector-curvature="0" />
  </g>
  <g
     inkscape:groupmode="layer"
     id="layer4"
     inkscape:label="head-feathers-3"
     style="display:inline"
     transform="translate(73.254834,-140.26831)"
     sodipodi:insensitive="true">
    <path
       style="fill:#1ad61a;fill-opacity:1;fill-rule:evenodd;stroke:none;stroke-width:1px;stroke-linecap:butt;stroke-linejoin:miter;stroke-opacity:1"
       d="m 453.94645,321.31193 c 0,0 18.55513,42.65233 9.9901,48.1944 -8.56503,5.54208 -38.70813,-17.96489 -39.21196,-25.01844 -0.50382,-7.05355 6.54973,-28.21421 6.54973,-28.21421"
       id="path4335"
       inkscape:connector-curvature="0"
       sodipodi:nodetypes="cssc" />
    <path
       style="fill:#1aae1a;fill-opacity:1;fill-rule:evenodd;stroke:none;stroke-width:1px;stroke-linecap:butt;stroke-linejoin:miter;stroke-opacity:1"
       d="m 433.6695,317.12841 c 0,0 -1.13884,26.87658 -7.0608,25.05444 -5.92195,-1.82214 -24.37113,-18.67695 -23.46006,-21.86569 0.91107,-3.18875 10.02177,-15.03266 10.02177,-15.03266"
       id="path4337"
       inkscape:connector-curvature="0" />
    <path
       style="fill:#1fe51f;fill-opacity:1;fill-rule:evenodd;stroke:none;stroke-width:1px;stroke-linecap:butt;stroke-linejoin:miter;stroke-opacity:1"
       d="m 415.90363,307.10664 c 0,0 -5.23866,12.75498 -10.70508,11.84391 -5.46642,-0.91107 -19.81578,-13.66605 -19.36025,-16.62703 0.45554,-2.96098 8.19964,-9.33847 8.19964,-9.33847"
       id="path4339"
       inkscape:connector-curvature="0" />
    <path
       style="fill:#1fe51f;fill-opacity:1;fill-rule:evenodd;stroke:none;stroke-width:1px;stroke-linecap:butt;stroke-linejoin:miter;stroke-opacity:1"
       d="m 394.72124,294.57942 c 0,0 -4.78312,6.37749 -9.1107,5.46642 -4.32759,-0.91107 -13.89383,-8.65517 -13.43829,-11.84391 0.45553,-3.18875 8.19963,-15.94373 8.19963,-15.94373"
       id="path4341"
       inkscape:connector-curvature="0" />
    <path
       style="fill:#1ac21a;fill-opacity:1;fill-rule:evenodd;stroke:none;stroke-width:1px;stroke-linecap:butt;stroke-linejoin:miter;stroke-opacity:1"
       d="m 421.54098,284.94144 c -9.86885,7.51913 -22.55737,15.5082 -22.55737,22.08743 0,6.57924 37.12568,21.14754 45.5847,17.38798 8.45901,-3.75956 12.21858,-34.77596 12.21858,-34.77596"
       id="path4221"
       inkscape:connector-curvature="0" />
    <path
       style="fill:#1fe51f;fill-opacity:1;fill-rule:evenodd;stroke:none;stroke-width:1px;stroke-linecap:butt;stroke-linejoin:miter;stroke-opacity:1"
       d="m 450,289.3622 c -3,26 -4,39 2,55 6,16 20,71 37,88 14,-37 30.34919,-119.0084 29.34919,-142.0084"
       id="path4215"
       inkscape:connector-curvature="0"
       sodipodi:nodetypes="cscc" />
    <path
       style="fill:#1ad61a;fill-opacity:1;fill-rule:evenodd;stroke:none;stroke-width:1px;stroke-linecap:butt;stroke-linejoin:miter;stroke-opacity:1"
       d="m 399,197.3622 c 0,0 -40,56 -39,71 1,15 5,20 17,16 12,-4 76,-44 88,-73"
       id="path4201"
       inkscape:connector-curvature="0" />
    <path
       style="fill:#1aae1a;fill-opacity:1;fill-rule:evenodd;stroke:none;stroke-width:1px;stroke-linecap:butt;stroke-linejoin:miter;stroke-opacity:1"
       d="m 441,236.3622 c 0,0 -55,33 -59,50 -1,21 52,15 61,9 9,-6 41,-52 41,-52"
       id="path4203"
       inkscape:connector-curvature="0" />
    <path
       style="fill:#1ac21a;fill-opacity:1;fill-rule:evenodd;stroke:none;stroke-width:1px;stroke-linecap:butt;stroke-linejoin:miter;stroke-opacity:1"
       d="m 466,212.3622 c 0,0 -35,23 -38,35 -3,12 26,21 42,11 16,-10 25,-36 25,-36"
       id="path4205"
       inkscape:connector-curvature="0" />
    <path
       style="fill:#1fe51f;fill-opacity:1;fill-rule:evenodd;stroke:none;stroke-width:1px;stroke-linecap:butt;stroke-linejoin:miter;stroke-opacity:1"
       d="m 499,197.3622 c -22,7 -29,21 -54,17 -25,-4 -54,-11 -54,-11 0,0 57.19344,-49.93115 95.19344,-53.93115"
       id="path4207"
       inkscape:connector-curvature="0"
       sodipodi:nodetypes="cscc" />
    <path
       style="fill:#3ee43e;fill-opacity:1;fill-rule:evenodd;stroke:none;stroke-width:1px;stroke-linecap:butt;stroke-linejoin:miter;stroke-opacity:1"
       d="m 576,211.3622 c -16,0 -67,-4 -81,-12 -14,-8 -36,-35 -29,-44 7,-9 78,-14 101,9 23,23 9,24 9,47 z"
       id="path4209"
       inkscape:connector-curvature="0" />
    <path
       style="fill:#1ad61a;fill-opacity:1;fill-rule:evenodd;stroke:none;stroke-width:1px;stroke-linecap:butt;stroke-linejoin:miter;stroke-opacity:1"
       d="m 494,224.3622 c -10,14 -55,59 -46,73 9,14 38,23 51,14 13,-9 20,-79 20,-79"
       id="path4211"
       inkscape:connector-curvature="0" />
    <path
       style="fill:#1ac21a;fill-opacity:1;fill-rule:evenodd;stroke:none;stroke-width:1px;stroke-linecap:butt;stroke-linejoin:miter;stroke-opacity:1"
       d="m 576,211.3622 c 0,0 -36,-10 -49,-4 -13,6 -24,92 -20,100 4,8 0,10 9,1 9,-9 -9,-41 28,-52 37,-11 33,-8 32,-45 z"
       id="path4213"
       inkscape:connector-curvature="0" />
  </g>
  <g
     inkscape:groupmode="layer"
     id="layer6"
     inkscape:label="beak"
     sodipodi:insensitive="true"
     style="display:inline"
     transform="translate(73.254834,-140.26831)">
    <path
       style="fill:#000000;fill-rule:evenodd;stroke:#000000;stroke-width:1px;stroke-linecap:butt;stroke-linejoin:miter;stroke-opacity:1"
       d="m 540,256.3622 c 14,11.5 37.5,29 81,20 43.5,-9 -33.5,-72 -33.5,-72 -11.38506,10.08391 -7.44071,30.88983 -17.2496,40.5433 -6.3406,6.24013 -14.31244,6.87364 -30.2504,11.4567 z"
       id="path4267"
       inkscape:connector-curvature="0"
       sodipodi:nodetypes="cscsc" />
    <path
       style="fill:#eee910;fill-opacity:1;fill-rule:evenodd;stroke:none;stroke-width:1px;stroke-linecap:butt;stroke-linejoin:miter;stroke-opacity:1"
       d="m 601.32422,263.57031 c 21.17357,23.98447 35.98298,36.13779 30.07422,63.97461 23.28997,-31.2237 18.12445,-70.64582 10.76562,-91.78711 -1.58969,1.4122 -2.87663,2.65171 -5.03906,4.37696 -3.59375,2.86718 -7.875,6.07031 -12.5,9.28906 -4.625,3.21875 -9.59375,6.45312 -14.5625,9.38281 -2.48438,1.46484 -4.96875,2.85449 -7.41016,4.12695 -0.45337,0.2363 -0.87798,0.40869 -1.32812,0.63672 z"
       id="path4265"
       inkscape:connector-curvature="0"
       sodipodi:nodetypes="cccssssc" />
    <path
       style="fill:#ec6e12;fill-opacity:1;fill-rule:evenodd;stroke:none;stroke-width:1px;stroke-linecap:butt;stroke-linejoin:miter;stroke-opacity:1"
       d="m 601.32422,263.57031 c 0.45014,-0.22803 0.87475,-0.40042 1.32812,-0.63672 2.44141,-1.27246 4.92578,-2.66211 7.41016,-4.12695 4.96875,-2.92969 9.9375,-6.16406 14.5625,-9.38281 4.625,-3.21875 8.90625,-6.42188 12.5,-9.28906 2.16243,-1.72525 3.44937,-2.96476 5.03906,-4.37696 -0.82928,-2.38245 -1.67376,-4.70272 -2.52148,-6.57812 C 626.45408,197.857 594.5812,192.9116 579.74414,182.4707 l -1.09961,-1.64843 c -1.62292,23.78668 -4.29376,40.76186 -9.58441,60.35685 12.56598,11.50069 22.90638,13.86121 32.2641,22.39119 z"
       id="path4239"
       inkscape:connector-curvature="0"
       sodipodi:nodetypes="csssscccccc" />
  </g>
  <g
     inkscape:groupmode="layer"
     id="layer5"
     inkscape:label="eye"
     sodipodi:insensitive="true"
     transform="translate(73.254834,-140.26831)">
    <path
       style="fill:#e31b1b;fill-opacity:1;fill-rule:evenodd;stroke:#000000;stroke-width:1px;stroke-linecap:butt;stroke-linejoin:miter;stroke-opacity:1"
       d="m 481.92971,206.10022 c 9.89138,-6.04472 20.88179,-7.14377 29.67412,-1.09904 0,0 -4.39616,12.08946 -10.44089,13.1885 -6.04473,1.09904 -15.38659,-4.94569 -19.23323,-12.08946 z"
       id="path4227"
       inkscape:connector-curvature="0" />
    <path
       style="color:#000000;clip-rule:nonzero;display:inline;overflow:visible;visibility:visible;opacity:1;isolation:auto;mix-blend-mode:normal;color-interpolation:sRGB;color-interpolation-filters:linearRGB;solid-color:#000000;solid-opacity:1;fill:#000000;fill-opacity:1;fill-rule:nonzero;stroke:none;stroke-width:1;stroke-linecap:butt;stroke-linejoin:miter;stroke-miterlimit:4;stroke-dasharray:none;stroke-dashoffset:0;stroke-opacity:1;color-rendering:auto;image-rendering:auto;shape-rendering:auto;text-rendering:auto;enable-background:accumulate"
       d="m 499.07812,200.98633 c -2.26201,-0.0482 -4.56244,0.23018 -6.86328,0.77929 a 13.738019,13.738019 0 0 0 -3.14062,8.73047 13.738019,13.738019 0 0 0 0.62305,4.04688 c 3.84788,2.69702 8.15004,4.24917 11.46484,3.64648 6.04473,-1.09904 10.44141,-13.1875 10.44141,-13.1875 -3.84665,-2.64457 -8.1134,-3.92171 -12.5254,-4.01562 z"
       id="path4229"
       inkscape:connector-curvature="0" />
  </g>
</svg>
