<?xml version="1.0" encoding="UTF-8" standalone="no"?>
<!-- Created with Inkscape (http://www.inkscape.org/) -->

<svg
   xmlns:dc="http://purl.org/dc/elements/1.1/"
   xmlns:cc="http://creativecommons.org/ns#"
   xmlns:rdf="http://www.w3.org/1999/02/22-rdf-syntax-ns#"
   xmlns:svg="http://www.w3.org/2000/svg"
   xmlns="http://www.w3.org/2000/svg"
   xmlns:sodipodi="http://sodipodi.sourceforge.net/DTD/sodipodi-0.dtd"
   xmlns:inkscape="http://www.inkscape.org/namespaces/inkscape"
   width="173.44205mm"
   height="213.86839mm"
   viewBox="0 0 614.55843 757.80139"
   id="svg2"
   version="1.1"
   inkscape:version="0.91 r13725"
   sodipodi:docname="wolf.svg"
   inkscape:export-filename="C:\Users\Matthew\Desktop\Drawings\wolf-thumbnail.png"
   inkscape:export-xdpi="17.054285"
   inkscape:export-ydpi="17.054285">
  <title
     id="title4227">Wolf</title>
  <defs
     id="defs4">
    <clipPath
       clipPathUnits="userSpaceOnUse"
       id="clipPath4190">
      <path
         sodipodi:nodetypes="cccc"
         inkscape:connector-curvature="0"
         id="path4192"
         d="m 231.0623,423.21524 c 0.27006,-12.29877 -1.07439,-25.95201 -4.84185,-29.93771 -16.83665,-5.32121 -24.03258,-3.29854 -36.66134,3.54793 3.17916,26.98316 14.25247,31.40766 41.50319,26.38978 z"
         style="fill:none;fill-rule:evenodd;stroke:#000000;stroke-width:1px;stroke-linecap:butt;stroke-linejoin:miter;stroke-opacity:1" />
    </clipPath>
    <clipPath
       clipPathUnits="userSpaceOnUse"
       id="clipPath4202">
      <path
         sodipodi:nodetypes="ccc"
         inkscape:connector-curvature="0"
         id="path4204"
         d="m 321.96721,426.78843 c -3.60655,-50.4918 34.17243,-35.6958 42.95082,-26.22951 -4.37674,15.2102 -23.8503,26.86751 -42.95082,26.22951 z"
         style="fill:#000000;fill-rule:evenodd;stroke:#000000;stroke-width:1px;stroke-linecap:butt;stroke-linejoin:miter;stroke-opacity:1" />
    </clipPath>
  </defs>
  <sodipodi:namedview
     id="base"
     pagecolor="#ffffff"
     bordercolor="#666666"
     borderopacity="1.0"
     inkscape:pageopacity="0.0"
     inkscape:pageshadow="2"
     inkscape:zoom="1"
     inkscape:cx="-194.41854"
     inkscape:cy="329.36898"
     inkscape:document-units="px"
     inkscape:current-layer="layer1"
     showgrid="false"
     inkscape:window-width="1536"
     inkscape:window-height="801"
     inkscape:window-x="-8"
     inkscape:window-y="-8"
     inkscape:window-maximized="1"
     showguides="false"
     inkscape:snap-global="true"
     inkscape:object-paths="true"
     inkscape:object-nodes="false"
     inkscape:snap-intersection-paths="false"
     fit-margin-top="0"
     fit-margin-left="0"
     fit-margin-right="0"
     fit-margin-bottom="0" />
  <metadata
     id="metadata7">
    <rdf:RDF>
      <cc:Work
         rdf:about="">
        <dc:format>image/svg+xml</dc:format>
        <dc:type
           rdf:resource="http://purl.org/dc/dcmitype/StillImage" />
        <dc:title>Wolf</dc:title>
        <dc:date>2022-04-09</dc:date>
        <dc:creator>
          <cc:Agent>
            <dc:title>Matthew McGonagle</dc:title>
          </cc:Agent>
        </dc:creator>
        <dc:description>Made with Inkscape</dc:description>
      </cc:Work>
    </rdf:RDF>
  </metadata>
  <g
     inkscape:groupmode="layer"
     id="layer2"
     inkscape:label="head"
     style="display:inline"
     sodipodi:insensitive="true"
     transform="translate(18.749336,-81.218297)">
    <path
       style="fill:#ffffff;fill-rule:evenodd;stroke:#000000;stroke-width:1px;stroke-linecap:butt;stroke-linejoin:miter;stroke-opacity:1"
       d="m 192,235.3622 c 2.15751,-13.48608 7.68783,-25.96032 18,-37 -2.94437,13.1717 -1.03054,25.4601 5,37 4.24341,-11.19518 6.79096,-22.57878 18,-33 0.15571,11.1555 1.0195,22.05352 10,30 1.4484,-10.97699 4.46414,-21.6405 14,-31 3.3935,12.54634 7.98309,22.70048 13,32 7.71834,-7.75937 12.80428,-17.16399 14,-29 7.55921,8.87249 11.13137,18.31457 13,28 9.69989,-7.61117 15.64429,-17.30873 18,-29 5.95794,9.37504 11.26789,18.82209 10,29 7.90187,-7.52555 14.17448,-16.02865 18,-26 5.62618,8.81531 5.97978,18.38384 6,28 6.16981,-8.66527 14.6989,-16.28197 14,-28 9.5563,7.8888 14.9605,16.2966 18,25"
       id="path4183"
       inkscape:connector-curvature="0"
       sodipodi:nodetypes="ccccccccccccccc" />
    <path
       style="fill:#808080;fill-opacity:1;fill-rule:evenodd;stroke:#000000;stroke-width:1px;stroke-linecap:butt;stroke-linejoin:miter;stroke-opacity:1"
       d="m 77,251.3622 118.9367,-36.34177 c 6.49921,-4.40797 14.49073,-7.32363 25.0633,-7.65823 -0.83591,13.99623 7.52655,21.21123 13,28 6.13696,-7.66667 10.33143,-15.33333 25,-23 2.27936,9.48042 11.53187,14.31208 21,19 7.82449,-10.26032 18.27996,-17.45116 31,-22 0.46483,8.66667 0.60343,17.33333 9,26 13.48061,-4.85272 25.97264,-10.69402 33,-22 8.64397,1.68913 17.6983,2.86531 23.20141,8.48052 L 498,266.3622"
       id="path4185"
       inkscape:connector-curvature="0"
       sodipodi:nodetypes="ccccccccccc" />
  </g>
  <g
     inkscape:label="ears"
     inkscape:groupmode="layer"
     id="layer1"
     style="display:inline"
     sodipodi:insensitive="true"
     transform="translate(18.749336,-81.218297)">
    <path
       style="fill:#4d4d4d;fill-opacity:1;fill-rule:evenodd;stroke:#000000;stroke-width:1px;stroke-linecap:butt;stroke-linejoin:miter;stroke-opacity:1"
       d="m 107.4668,88.619141 c 0.80434,2.164062 3.36437,4.328125 0.93945,6.492187 -2.82689,-2.486691 -6.51292,-4.018773 -11.023438,-4.634766 2.081581,1.819909 5.013808,3.389628 4.095708,6.091797 -4.519561,-1.817998 -9.210828,-1.060276 -13.914067,-0.123047 3.109448,0.947204 6.648131,1.52649 7.25,4.623048 -5.055134,-0.46341 -9.865023,0.78989 -14.546875,2.93945 4.472723,-0.0295 8.47373,0.33825 9.4375,3.26367 -5.408863,0.16389 -9.481944,2.83236 -13.417969,5.75782 4.320262,-1.20404 7.457655,-1.02807 9.533203,0.38672 -4.630939,1.05311 -7.677911,3.5318 -10.460937,6.24804 3.683815,-1.58905 5.197908,-0.67457 6.488281,0.49805 -3.98263,1.11047 -7.371467,2.81473 -9.673828,5.60547 2.330651,0.0323 5.554059,-1.39623 5.996094,1.72656 l 0.148437,0.0137 C 67.399096,153.25912 67.874362,186.36606 80,218.36133 c -12.517,13.22815 -24.38178,26.55665 -3,45 l 126,-23 c -0.029,-0.059 -0.057,-0.11871 -0.0859,-0.17774 1.69979,-7.00799 2.19215,-14.31784 2.10156,-21.77343 -1.64482,3.38346 -2.9106,7.19334 -8.01953,6.67968 5.73571,-5.28632 4.13185,-11.55126 3.39063,-17.70117 -1.9242,6.53823 -5.69999,5.67011 -9.36524,5.24414 -7.4e-4,-0.002 -0.001,-0.004 -0.002,-0.006 4.50452,-5.82824 6.50592,-12.81177 5.17774,-21.33203 -0.98397,5.81459 -4.7082,8.06686 -10.17579,8.05274 3.63709,-6.72561 4.36461,-14.54232 4.44532,-22.60157 -1.51462,4.15461 -4.65874,6.88341 -9.76368,7.89649 4.22054,-7.28897 4.45034,-15.37608 4.25196,-23.54883 -1.54047,4.72206 -3.59035,8.9913 -9.11719,10.16992 2.06644,-6.413 5.14028,-12.22156 2.94531,-21.1914 -0.51666,4.24371 -5.08725,5.01263 -8.52343,6.7539 -3.08747,-7.6324 -6.30211,-14.89325 -9.81055,-21.53711 l 0.0215,0.002 c 1.8707,-4.24141 1.49012,-8.38902 -1.1289,-12.44336 -0.18413,2.50994 -0.85379,4.49699 -3.44922,4.41015 1.46578,-4.16732 0.8132,-8.33463 -1.46094,-12.50195 -0.40559,2.80117 -0.90617,5.46778 -3.51172,5.15234 0.69173,-4.01758 -0.26835,-8.03515 -2.1914,-12.05273 -0.57005,2.58319 -1.16422,5.13259 -3.5625,5.15625 -0.22658,-4.5052 -1.55438,-8.61711 -4.39844,-12.1875 -0.22334,2.27074 0.57633,5.08308 -2.6211,5.7793 -0.38048,-4.60344 -2.8229,-8.255215 -5.60546,-11.750004 0.19019,2.710785 1.69568,6.040534 -1.04297,7.373044 -0.62042,-4.418704 -3.95243,-7.401869 -7.71289,-10.158201 1.18307,2.644423 2.00486,5.161327 0.0527,6.699219 -1.29004,-3.948824 -3.83909,-7.08828 -7.74805,-9.353516 0.81617,2.28125 2.27395,4.5625 0.61133,6.84375 -2.16902,-3.076536 -4.83675,-5.862153 -9.23437,-7.638671 z m 95.44336,151.556639 c -135.27344,541.45762 -67.63672,270.72881 0,0 z"
       id="path4136"
       inkscape:connector-curvature="0"
       sodipodi:nodetypes="cccccccccccccccccccccccccccccccccccccccccccccccccccc" />
    <path
       style="fill:#4d4d4d;fill-opacity:1;fill-rule:evenodd;stroke:#000000;stroke-width:1px;stroke-linecap:butt;stroke-linejoin:miter;stroke-opacity:1"
       d="m 454.51758,81.841797 c -5.99148,0.725628 -8.94929,3.726509 -11.30664,7.177734 -2.97883,-2.25 -0.96509,-4.5 -0.22071,-6.75 -4.86671,2.221072 -7.29956,5.565467 -8.1914,9.621094 -3.94345,-0.966 -4.01186,-3.5466 -4.4043,-5.992187 -3.78554,4.475524 -6.47414,9.204187 -6.29883,14.593752 -4.13906,-1.182711 -4.91477,-3.566619 -4.80273,-6.267581 -3.86771,5.70573 -4.95363,11.411461 -5.17188,17.117191 -0.004,0.004 -0.008,0.009 -0.0117,0.0137 -4.91916,-0.63194 -3.73873,-3.70373 -4.42383,-6.0293 -1.93554,4.68519 -4.43879,9.31878 -3.15235,14.29688 l -0.006,0.006 c -4.03184,-0.88606 -4.37236,-4.79229 -5.16796,-8.32618 -1.97222,5.30858 -3.48753,10.65869 -2.13477,16.26954 -4.1303,-0.31087 -4.51383,-3.61915 -5.76367,-6.23438 -1.91598,4.90994 -2.63574,9.91957 -0.88867,15.13477 -5.1486,1.39535 -4.64012,-2.86639 -5.51758,-5.74219 -3.577,5.53279 -1.66581,10.45578 -0.30078,15.43945 -3.55953,1.06594 -5.95347,-1.36485 -7.81055,-5.40625 -1.13322,6.4991 -1.73445,12.76175 2.17969,17.01758 -4.25389,1.09762 -6.30178,-2.21676 -7.73047,-6.76953 0.17646,6.62555 -0.85429,13.04989 2.5,20.20508 -5.07492,0.10927 -8.58825,-1.53826 -9.11914,-6.54102 -0.56149,8.16107 0.77365,15.13675 4.76367,20.45313 -3.93281,2.56131 -6.58494,-8e-5 -8.82031,-4.22852 -0.41731,7.08366 1.1884,13.1558 5.32422,17.96289 -5.53202,0.90115 -6.84356,-2.41817 -8.5254,-5.36719 -0.009,7.05134 1.60494,13.63911 5.57813,19.55274 -5.15865,1.13292 -6.44304,-3.15813 -8.99414,-5.67578 0.13807,6.82138 1.59451,13.2033 6.82812,18.32617 -4.4348,2.51743 -7.27043,-0.82874 -10.03125,-4.44922 -0.0645,6.67533 0.86104,13.12221 8.10352,18.11133 l 140,32 c 12.53444,-21.49679 7.33127,-35.1102 -4,-46 22.34365,-35.17921 11.08578,-69.30026 -1.42578,-93.23242 2.13041,-0.87271 3.75798,-2.33206 7.61914,-1.18555 -3.0902,-4.25681 -8.97107,-4.19711 -11.95313,-6.71094 2.34269,-1.7555 5.42762,-2.39763 9.60547,-1.40039 -7.07326,-7.30169 -9.83848,-5.02996 -14.46679,-6.89844 1.78496,-2.12226 4.53367,-1.67454 7.20703,-1.42773 -2.65793,-2.64053 -4.99906,-5.52477 -11.50782,-5.20313 -0.0329,-2.30015 2.88638,-2.72169 6.17188,-2.91015 -3.2452,-2.96406 -7.44717,-4.39728 -12.2207,-4.91602 0.38302,-2.564223 4.31006,-2.228795 7.94922,-2.128904 -4.05047,-3.511689 -9.5506,-4.124065 -15.09961,-4.638672 -1.84919,-2.950869 1.65491,-4.012344 4.85351,-5.18164 -3.37734,-1.305638 -8.07341,-0.501302 -12.96094,0.609375 0.48567,-2.405882 3.37948,-3.779704 5.91602,-5.306641 -5.12616,0.258418 -10.12644,0.852478 -14.3457,3.529297 -1.99293,-1.946063 0.75619,-4.287297 2.17591,-6.517748 z"
       id="path4138"
       inkscape:connector-curvature="0"
       sodipodi:nodetypes="cccccccccccccccccccccccccccccccccccccccccccccccccc" />
    <path
       style="fill:#ffffff;fill-rule:evenodd;stroke:#000000;stroke-width:1px;stroke-linecap:butt;stroke-linejoin:miter;stroke-opacity:1"
       d="m 110.65234,112.36328 c 1.95775,1.70702 4.739,3.27679 5.0293,5.26172 -5.26069,-3.61687 -11.06548,-3.96911 -16.923828,-4 2.071328,1.26259 5.089138,2.11954 5.212888,4.2168 -9.038115,-2.56542 -12.991136,-0.77217 -18.007809,0.10937 2.553042,0.8222 6.17355,1.40718 6.199218,2.79102 -4.133764,-0.3917 -7.708666,0.61375 -11.246093,1.71289 2.7093,1.03278 4.215441,1.973 2.990234,2.70312 -3.112984,1.91821 -4.149472,0.92932 -5.873047,0.90235 0.278234,0.96196 0.142546,1.92475 -0.167969,2.88672 -3.730041,2.56588 -5.867621,5.6095 -7.695312,8.74609 2.445679,-1.19047 4.132265,-1.62185 4.847656,-1.08203 -3.913955,3.54016 -5.127876,6.50173 -6.421875,9.48047 1.818326,-1.04681 3.661205,-2.14273 4.167969,-0.56641 -4.02154,3.2806 -4.630884,6.5612 -5.917969,9.8418 1.734434,-0.87121 3.689509,-2.18371 4.511719,-1.23047 -5.859803,6.09364 -4.972974,7.35301 -5.210938,10.85351 1.300077,-1.75025 2.631905,-3.35232 4.498047,-2.46093 -3.046829,3.23175 -4.471511,7.33695 -5.023437,11.91211 1.573127,-2.12273 3.147264,-4.22829 4.908203,-3.15821 -2.969017,3.41511 -3.620598,7.3755 -3.333985,11.55664 0.468463,-2.59521 1.732194,-4.93228 3.791016,-3.32031 -2.196409,3.32357 -3.436881,6.64713 -2.566406,9.9707 0.694137,-2.78029 1.734026,-4.264 3.197266,-4.16015 -2.091298,4.24479 -2.094058,8.48958 -0.921876,12.73437 0.375311,-2.86065 1.19371,-4.05972 2.337891,-4.03711 -1.184434,3.47614 -2.31099,6.98123 -1.988281,11.21094 1.067025,-2.14731 1.986365,-5.10689 3.787109,-3.21875 -1.841899,3.47487 -2.397797,6.94088 -1.162109,10.39453 0.58613,-3.24573 1.612579,-4.46599 3.160156,-3.28906 -1.09665,2.92176 -2.088301,5.88551 -0.359375,9.9375 0.933039,-0.86746 1.600604,-2.42515 3.439453,-0.9375 l 0,-0.008 c 0.03066,0.0813 0.05903,0.16283 0.08984,0.24414 -2.641312,2.79138 -5.232806,5.59007 -7.509766,8.4375 -3.787313,-0.87769 -6.687547,0.22792 -9.103515,1.96875 2.739106,0.48036 5.538952,0.92428 5.501953,3.07031 -4.680693,0.3685 -6.580373,2.50673 -8.173828,4.83984 2.15843,-0.37741 4.653224,-1.42754 5.460937,0.89649 -3.881158,1.86338 -5.669734,4.29746 -6.423828,7.01367 1.554642,-1.27967 3.076884,-2.66733 5.462891,-1.17578 -2.660665,2.9991 -4.218088,5.96761 -3.431641,8.87109 1.238744,-1.61145 2.220478,-3.86187 4.638672,-2.54101 -2.366419,3.23437 -2.168898,6.46875 -1.431641,9.70312 1.227472,-1.53444 1.561198,-3.85091 4.896485,-3.54101 -1.552122,1.71482 -0.227815,5.07331 0.01953,7.8164 l 3.400391,-3.82617 0,-0.006 c 1.102727,1.13734 2.327977,2.29492 3.693359,3.47266 l 32.511725,-5.93555 c 1.54455,-9.31722 0.71459,-19.07114 -0.82227,-28.90625 -1.43532,-4.56106 -2.02627,-9.22767 -8.05273,-13.21484 0.5965,-3.21586 2.80947,-3.19876 5.17773,-2.8711 -3.58571,-4.41361 -6.541698,-7.56776 -8.33008,-8.38671 1.373315,-0.8823 2.97913,-1.5902 6.7168,-0.69922 -2.47441,-4.2566 0.40018,-7.44341 -7.617191,-12.8086 1.587096,-2.68902 3.859431,-1.26664 6.019541,-0.51758 -0.14753,-6.16422 -3.67587,-6.91914 -6.695322,-8.48828 1.854017,-2.02955 4.132082,-1.5149 6.583992,0.043 0.65314,-4.26839 -0.11697,-7.92681 -3.656257,-10.39844 0.787158,-3.64783 5.665157,-0.10118 5.673837,-1.69335 -0.61781,-3.21373 -4.02894,-3.98474 -5.9004,-3.93555 3.37019,-2.74837 7.81991,-2.7979 12.3711,-2.59375 1.17387,-2.8468 -1.29463,-4.4946 -4.26563,-5.51172 5.92249,-0.63456 11.28749,2.07587 16.6211,4.97461 0.76847,-1.86943 -0.50568,-4.07929 -3.33789,-6.54883 5.42145,0.15444 10.32941,4.4168 15.1582,9.3125 1.07701,-2.54393 0.78746,-4.89263 -2.32617,-6.83789 3.98047,-0.43835 7.96092,4.8944 11.94139,9.66992 0.007,0.002 0.0143,0.004 0.0215,0.006 1.76463,-0.86348 3.2734,-2.11073 2.67187,-6.52344 3.21706,2.07031 6.3603,4.26366 7.8125,9.27539 5.8761,1.23736 11.08449,1.59065 14.80274,-0.125 1.45384,-2.22971 2.42466,-4.50281 2.97265,-6.79101 -0.11488,-0.29895 -0.2325,-0.58679 -0.34765,-0.88477 l 0.0703,0.16211 c 2.05005,-5.56057 2.77784,-11.4517 1.52539,-17.83789 -1.41705,4.1245 -3.78272,5.40318 -6.64259,5.19922 2.71087,-10.19057 -0.37859,-14.96748 -2.96875,-21.33398 -1.19833,4.52816 -1.74805,8.08094 -3.90038,6.73828 l 0.14062,0.31836 c -4.14439,-6.85171 -8.2892,-10.47216 -12.4336,-14.1211 0.98908,2.3614 2.23564,4.85155 1.37696,6.28907 -2.70055,-4.75207 -7.54614,-8.21711 -13.27149,-11.1543 1.70475,2.51948 3.61942,5.18891 3.27149,6.24219 -3.95108,-4.67418 -9.21974,-7.59156 -14.98438,-9.84766 0.83703,1.84769 2.59999,3.54106 1.78516,5.66406 -5.19862,-3.58535 -10.51939,-6.0716 -16.02149,-6.92578 z"
       id="path4158"
       inkscape:connector-curvature="0"
       sodipodi:nodetypes="ccccccccccccccccccccccccccccccccccccccccccccccccccccccccccccccccccccccccccccccccccccccccc" />
    <path
       style="fill:#ffffff;fill-rule:evenodd;stroke:#000000;stroke-width:1px;stroke-linecap:butt;stroke-linejoin:miter;stroke-opacity:1"
       d="m 171.59315,247.41993 c -12.22263,-5.00068 -23.8874,-10.55924 -40.2623,-11.40765 3.63688,-3.46255 7.07104,-7.12781 14.90094,-6.39734 -9.51573,-8.14377 -21.10052,-11.26266 -34.39294,-10.23445 5.59092,-6.98831 11.85938,-13.0958 22.77501,-13.16199 -8.72801,-5.58588 -20.92306,-7.70472 -34.48628,-8.4554 13.60537,-4.68017 26.02347,-11.0753 44.22595,-9.1152 -2.48629,-5.51984 -8.35553,-9.24871 -20.00115,-9.91949 16.11996,-8.93596 32.59558,-12.18158 49.25388,-12.50411 3.02647,27.68146 0.88489,54.50158 -2.01311,81.19563 z"
       id="path4148"
       inkscape:connector-curvature="0"
       sodipodi:nodetypes="cccccccccc" />
    <path
       style="fill:#ffffff;fill-rule:evenodd;stroke:#000000;stroke-width:1px;stroke-linecap:butt;stroke-linejoin:miter;stroke-opacity:1"
       d="m 455.58594,95.511719 c -5.04346,1.354977 -8.71816,4.078705 -10.76563,8.429691 -2.86937,-0.88935 -1.36919,-4.131537 -1.25586,-6.626957 -3.33544,3.242187 -7.01744,6.321297 -6.24609,11.496097 -2.83223,-0.46638 -3.56558,-2.84083 -3.66992,-5.78711 -1.79192,3.54096 -4.24318,6.70516 -2.69922,12.15234 -3.13027,0.38027 -2.39919,-3.10081 -3.31055,-4.93945 -2.11403,4 -4.39133,8 -2.13476,12 -2.34867,1.09064 -2.96716,-2.31716 -4.17774,-4.18555 -1.04366,3.73231 -2.35461,7.44235 -0.50195,11.41602 -2.59785,-0.24457 -2.68517,-3.35832 -3.70508,-5.40625 -1.29513,3.74739 -1.60167,7.49479 0.33789,11.24218 -1.77604,1.06512 -2.90645,-1.09797 -3.94336,-3.72851 -0.98345,3.36456 -2.19917,6.71363 0.44922,10.32031 l 0.0176,-0.002 c -1.18123,2.31532 -2.36237,4.68634 -3.54688,7.17773 3.356,-0.7493 6.85619,-1.60308 10.42579,-2.46289 -0.11463,-3.6578 1.04537,-6.46585 3.33984,-8.51758 0.47207,2.89721 0.65528,6.02552 3.70898,6.85743 1.10067,-3.12961 2.91749,-6.116 6.68164,-8.71289 -1.41143,2.95133 -1.98154,5.60222 0.32813,7.2246 1.32061,-3.31305 3.37437,-6.38172 7.0957,-8.89453 -1.18325,2.75797 -2.26276,5.49866 -0.30078,7.73243 2.08674,-3.68344 4.98167,-6.5587 9.20703,-8.10352 -2.54702,3.02894 -2.30943,5.31533 -0.85547,7.27734 2.56531,-2.92884 4.97114,-6.01715 10.13282,-6.34961 -1.81682,1.89834 -4.43033,3.60922 -1.89649,6.53125 2.68738,-3.94554 7.42974,-4.07468 11.91797,-4.67578 -3.92995,1.32133 -5.27412,3.43829 -5.74414,5.82422 3.62012,-2.04686 7.44833,-3.26139 11.86719,-2.11328 -2.85912,1.15752 -5.64721,2.34346 -5.88672,4.54883 4.2513,-2.11166 8.5026,-1.52872 12.7539,0.0898 -3.00522,0.78644 -7.17738,0.40595 -7.72656,3.64844 4.67015,-0.81292 8.47419,0.45285 11.8086,2.8457 -3.58287,-0.74409 -6.66557,-0.73793 -8.1211,1.70899 5.14373,0.0204 7.82976,1.62079 9.23438,4.04492 -2.55161,-0.85887 -5.18078,-1.97499 -7.04102,-0.5293 4.50427,1.39834 6.18209,3.97437 7.52149,6.69141 -2.61197,-1.36718 -5.64135,-3.44394 -5.6875,-0.44922 2.85714,1.63861 5.70538,3.28449 5.6875,7.27539 -1.62561,-1.68733 -3.26065,-3.26148 -5.14844,-1.80273 2.64156,2.11516 4.94711,4.46553 4.94726,8.42968 -1.76823,-3.3637 -3.53645,-2.35239 -5.30468,-2.15429 2.09066,3.124 4.59667,6.07495 3.59765,10.48632 -1.42724,-2.28911 -2.87787,-4.41443 -4.71484,-3.83593 1.90855,3.12188 3.29137,6.47742 2.80859,10.66211 -1.20725,-3.25956 -2.74236,-4.22401 -4.48437,-3.74024 1.99729,3.92383 3.014,7.84766 2.07422,11.77149 -1.48373,-3.57884 -2.96745,-3.39856 -4.45118,-3.625 1.52936,3.49064 3.26469,6.94382 1.94141,10.95312 -0.89131,-3.11445 -2.34178,-4.17866 -4.0332,-4.35937 2.04166,3.20748 3.32259,6.65268 1.12304,11.18554 -0.2375,-2.80319 -1.04376,-4.79387 -3.14843,-4.92968 -4.5e-4,0.001 -0.002,0.003 -0.002,0.004 1.36576,3.08073 1.91561,6.16146 1.14258,9.24219 -1.02995,-2.66948 -2.05989,-3.40302 -3.08984,-3.13477 1.14941,2.88542 3.0642,5.77083 2.48633,8.65625 -1.1675,-2.35055 -2.54571,-3.54223 -4.24805,-2.95117 1.99105,2.11232 3.93276,4.24707 3.04492,7.66797 -1.05948,-2.68137 -2.84641,-2.4529 -4.69531,-1.97656 -3.27106,11.73566 -5.71771,23.81565 -5.49024,35.61914 L 501,271.36133 c 2.3538,-4.03681 4.08203,-7.79557 5.26172,-11.31055 2.04941,0.78956 4.29201,1.27002 5.14453,3.97461 -0.60687,-3.66599 -0.3404,-7.57016 -3.51758,-10.53516 1.56256,-0.76235 3.21742,-0.50944 5.0293,1.47071 -0.18712,-3.38768 -1.2066,-6.7159 -4.86719,-9.85547 1.82357,-1.35778 3.64713,-0.57893 5.4707,0.78906 -0.76737,-3.81479 -4.20201,-5.7625 -7.3789,-7.89062 1.46804,-1.38761 3.46554,-0.65736 5.41601,-0.11524 -1.93307,-2.71778 -4.41099,-5.17736 -9.23047,-6.52734 1.48927,-1.19687 2.73764,-2.77221 5.90626,-1.33008 -2.58506,-3.47573 -6.80386,-3.68394 -10.83008,-4.27734 2.42646,-1.5949 4.80618,-3.47017 7.95898,-0.70703 -0.0693,-4.22174 -1.90684,-6.32143 -3.10742,-9.18555 1.88277,1.30165 3.95486,1.56206 5.375,5.4082 1.22596,-4.14788 -0.55342,-7.86644 -2.77734,-11.52148 2.29082,0.63017 4.71253,0.84152 5.79882,5.32617 0.34184,-4.49237 0.0356,-9.07732 -3.08593,-14.06445 2.66551,0.13289 4.87276,1.4491 5.80468,6.05859 0.48019,-5.4518 -1.04065,-10.76067 -4.05468,-15.96289 2.93102,-0.39237 4.8079,2.64125 6.77343,5.38672 -0.31082,-6.13493 -3.05598,-10.84983 -6.33398,-15.25391 2.50262,-0.59533 4.26024,1.54099 6.0332,3.6211 -0.70134,-4.79437 -2.88115,-9.36124 -6.82812,-13.65626 1.97744,-1.0927 4.1498,0.3484 6.375,2.47657 -0.86397,-5.63342 -4.53595,-8.45884 -8.06641,-11.42578 2.48698,-3.0405 4.97396,-0.67203 7.46094,0.24414 -1.81505,-4.21752 -4.08237,-8.1158 -10.08008,-9.38086 2.19618,-2.22485 4.99678,-0.52093 7.66406,0.3164 -3.09791,-4.5959 -6.63462,-6.12015 -10.22461,-7.27148 0.87917,-3.55646 4.18647,-2.98509 7.50391,-2.39649 -3.06458,-5.19506 -7.23953,-6.17075 -11.5332,-6.69531 -0.003,-0.006 -0.007,-0.0131 -0.01,-0.0195 -0.11297,-2.00386 3.22449,-2.52897 6.51953,-3.07226 -2.37948,-2.72941 -6.71583,-3.85774 -11.83008,-4.34961 1.11091,-3.34101 4.99238,-2.17986 7.92383,-2.5625 -3.48925,-3.20855 -8.41089,-4.44756 -13.88867,-4.92188 2.07736,-1.52592 4.66043,-2.40163 8.47852,-1.68945 -4.17412,-3.40371 -8.7159,-4.05001 -13.38672,-3.72852 -0.25523,-2.38338 3.03376,-2.74149 6.17578,-3.18359 -3.67677,-2.21152 -7.67021,-3.15639 -12.0957,-2.37305 -0.0214,-1.62146 1.80968,-2.66405 5.7832,-3.03711 -4.00977,-2.40503 -8.01953,-2.09081 -12.0293,-1.55078 -0.64156,-2.30971 2.72575,-2.61499 5.41797,-3.25781 -3.72528,-1.46937 -7.59686,-2.66443 -13.28516,-0.45313 -0.50229,-2.73804 2.53176,-4.002607 4.8711,-5.556637 -5.16949,0.144745 -9.16066,1.762384 -12.33399,4.402347 -1.82262,-2.068379 -0.0817,-4.136711 1.21485,-6.205081 z"
       id="path4177"
       inkscape:connector-curvature="0"
       sodipodi:nodetypes="cccccccccccccccccccccccccccccccccccccccccccccccccccccccccccccccccccccccccccccccccccccccccccccccccccccccccccccc" />
    <path
       style="fill:#ffffff;fill-rule:evenodd;stroke:#000000;stroke-width:1px;stroke-linecap:butt;stroke-linejoin:miter;stroke-opacity:1"
       d="m 403.70607,248.87498 c 9.6859,-9.08394 17.65045,-19.41977 35.17413,-22.80351 -5.216,-7.81429 -11.19218,-8.78692 -17.13579,-10.05272 9.52663,-5.53269 21.40253,-7.77639 34.66773,-8.07508 -6.95166,-10.39321 -16.7936,-13.56074 -26.67253,-16.63577 6.00869,-5.03263 14.49566,-7.86235 27.23323,-6.91375 -6.91744,-6.13749 -12.22118,-12.59772 -26.25719,-17.3115 3.40733,-3.90144 9.5707,-6.08035 18.96806,-6.23802 -9.60869,-9.46373 -22.34086,-16.15104 -38.6885,-19.6246 -24.9124,25.77371 -45.21285,63.21126 -36.79067,83.12818 6.49758,10.00169 18.1558,12.05095 29.50153,24.52677 z"
       id="path4175"
       inkscape:connector-curvature="0"
       sodipodi:nodetypes="ccccccccccc" />
  </g>
  <g
     inkscape:groupmode="layer"
     id="layer6"
     inkscape:label="head 1_5"
     style="display:inline"
     sodipodi:insensitive="true"
     transform="translate(18.749336,-81.218297)">
    <path
       style="display:inline;fill:#4d4d4d;fill-rule:evenodd;stroke:#000000;stroke-width:1px;stroke-linecap:butt;stroke-linejoin:miter;stroke-opacity:1"
       d="m 538.23047,429.14844 -390.71291,7.0163 -99.388654,25.51885 C 26.18375,471.83708 12.929213,489.0517 7.9550781,512.99414 22.330365,507.12115 36.699918,501.27301 47.96875,508.86133 30.547707,521.01321 23.512835,537.78062 15.863281,554.27539 28.866758,548.56129 40.885044,538.57803 57.054688,546.58398 44.641466,557.93959 40.70324,575.5102 36.484375,592.875 c 8.476237,-8.25343 16.335452,-17.62872 30.775391,-15.03906 -7.658899,16.5391 -10.457067,33.36412 -8.56836,50.46484 6.705668,-7.01054 13.604369,-13.63501 25.261719,-10.74219 -3.625013,15.00924 -4.651551,30.53818 0.119141,47.22657 4.284778,-7.17253 7.732803,-15.8094 18.503904,-11.63086 -1.10092,13.49995 0.16824,27.18221 6.34766,41.24218 2.14845,-7.51339 5.96858,-12.13939 13.78125,-9.86914 -2.75176,11.28555 -0.55075,18.27871 1.76562,25.17188 1.6462,-8.11257 6.46866,-9.00637 11.8711,-8.58203 -1.7986,8.33388 -2.10321,16.59662 3.29297,24.58789 0.89971,-4.79408 0.90714,-10.183 8.78906,-10.32227 -2.40123,10.00419 0.50162,18.24035 6.375,25.48633 -0.75553,-5.20063 -1.21078,-10.23691 7.62305,-10.18945 -1.16922,9.05976 2.17,16.88995 8.59374,23.8789 -0.87976,-5.01443 1.75125,-7.55066 6.73829,-8.42382 -0.0647,7.6421 1.7928,14.71887 7.58398,20.63867 -1.09553,-4.7302 -0.0745,-8.13757 4.34961,-9.41797 1.18606,7.50821 2.12643,15.13926 8.28711,20.16015 -1.55992,-3.92388 0.26894,-6.80506 4.25195,-9.02343 0.30287,8.08105 0.96561,16.0986 8.38477,22.92383 -2.61521,-6.01283 0.90485,-8.79658 6.34765,-10.56836 -0.70938,7.95875 2.28262,14.43695 7.97266,19.83593 -2.3545,-6.64898 0.96344,-8.38186 4.91406,-9.5664 -0.84419,7.30735 3.74713,13.83821 8.77539,20.30664 -2.33554,-5.62242 1.95137,-7.27136 5.82227,-9.16992 1.15828,6.35612 1.78863,12.71224 9.97461,19.06836 -2.61648,-5.5872 0.59808,-7.28705 2.87305,-9.61329 0.17333,8.7798 1.96114,16.44966 8.91992,20.56446 -3.97934,-6.54794 0.82487,-8.7041 2.20898,-12.57032 1.83445,4.33074 2.30857,8.66146 1.58203,12.99219 8.7006,-18.29241 6.87931,-0.37722 2.99805,5.9336 8.13469,-6.49256 16.12584,-13.04424 17.25391,-22.42188 1.72436,5.90809 3.14282,11.79433 -0.91993,17.28906 8.03753,-7.0079 13.3471,-15.07667 13.8125,-25.02929 2.68617,3.70787 4.37995,8.32543 2.05274,16.6289 6.85848,-7.71096 12.47852,-16.43519 14.72461,-27.91992 2.75725,3.24767 2.93007,8.88096 0.20898,17.18555 6.8065,-8.40244 13.81817,-16.73243 13.65235,-27.59571 2.23809,3.43516 4.87134,6.37632 2.21484,15.92969 7.03644,-8.71908 13.04492,-17.95215 14.24023,-29.59179 3.14043,4.1096 4.91909,9.01356 3.02735,16.05859 7.78206,-9.75719 13.59093,-20.09473 14.24219,-31.94922 3.41763,3.14595 5.21542,8.39769 4.42382,17.01563 5.37811,-9.89567 12.16376,-19.12898 10.71289,-32.23829 2.61108,4.55261 7.17143,6.55617 4.6875,17.77149 6.48504,-10.30849 10.9211,-21.04834 9.44336,-33.0332 2.97198,4.01006 6.14444,7.77954 5.02344,16.70117 7.81053,-10.09343 12.05523,-21.07835 9.77149,-33.69531 6.69009,1.20149 8.96896,7.10828 9.36132,15.02734 5.68538,-11.20874 8.3542,-22.58507 6.46094,-34.21484 7.51175,3.02354 10.52049,8.7489 11.73828,15.54882 3.42009,-10.43824 5.3777,-21.1507 2.10547,-32.84375 13.38569,-6.43963 17.45343,2.84272 20.97266,13.05274 5.38268,-17.13086 0.73694,-34.26172 -5.90235,-51.39258 l 0,-0.002 c 7.38802,0.49481 13.58491,4.56299 17.14844,16.53125 2.63656,-16.50456 4.06417,-33.00912 -4.01562,-49.51368 10.59531,-0.1016 15.57451,8.47622 19.19726,19.15039 1.60458,-18.19114 0.26168,-35.89105 -5.79883,-52.80468 l 0,-0.002 c 8.31964,3.26513 16.76991,5.65939 23.23047,21.31836 0.28837,-19.62002 -0.0437,-39.19572 -8.55078,-58.1875 10.09749,2.44576 16.6557,8.78473 20.35938,18.26368 2.1457,-17.06935 2.33847,-34.03591 -7.53516,-50.47266 14.44011,1.33398 23.56968,7.97849 27.77734,19.54492 0.38656,-20.8027 -0.87835,-41.2384 -11.86523,-59.51367 l 0,-0.002 c 14.87291,0.15835 25.95609,5.82902 33.79492,16.21875 -4.547,-15.8854 -6.36487,-32.22565 -21.82031,-46.29297 z"
       id="path4186"
       inkscape:connector-curvature="0"
       sodipodi:nodetypes="cccccccccccccccccccccccccccccccccccccccccccccccccccccccccccccccccccccccccccccc" />
    <path
       style="display:inline;fill:#ffffff;fill-rule:evenodd;stroke:#000000;stroke-width:1px;stroke-linecap:butt;stroke-linejoin:miter;stroke-opacity:1"
       d="m 150,437.36133 -124.505859,0.99414 c -15.5508416,5.3822 -31.7274097,18.72733 -33.8583671,33.18114 8.93064571,-9.72376 30.3924491,-10.61184 36.7314141,-6.11669 -19.1696452,7.21418 -24.1772428,17.14759 -23.2630241,27.6025 4.6032563,-8.47553 20.6118041,-10.82736 29.5227891,-7.83687 -8.233629,9.66521 -14.501584,19.81614 -14.749206,29.98047 3.114295,-7.568 13.795827,-13.37461 23.507019,-14.34571 -7.210957,9.02841 -7.633102,17.98632 -5.410736,27.51122 2.045419,-6.50958 8.736863,-11.31802 17.879486,-13.26512 -2.891172,6.67384 -7.656886,14.19643 -1.458118,22.38526 1.182768,-6.98786 6.37391,-13.63874 16.044055,-11.11183 -3.892846,6.32904 -1.991195,13.89977 1.1875,21.74414 2.346202,-7.82324 5.931574,-13.89099 14.347656,-13.11523 l -0.01367,-0.0215 c 6.979818,3.33831 14.350001,6.26478 22.015621,8.87695 z"
       id="path4188"
       inkscape:connector-curvature="0"
       sodipodi:nodetypes="ccccccccccccccccc" />
    <path
       style="display:inline;fill:#808080;fill-rule:evenodd;stroke:#000000;stroke-width:1px;stroke-linecap:butt;stroke-linejoin:miter;stroke-opacity:1"
       d="m 491.14648,209.48633 c -14.44839,14.11368 -33.50225,21.80189 -46.58007,43.2832 5.19448,-11.44383 1.18128,-25.01221 4.34179,-38.87305 -8.80547,13.09783 -21.79579,23.1366 -34.45117,35.94922 -90.28629,-5.29232 -181.47975,-13.41039 -276.13281,-3.38476 l 0.31836,-0.53906 c -19.62447,-13.3658 -41.462886,-24.33142 -69.376955,-28.7168 9.20399,19.85921 9.541487,31.65181 23.603516,45.95898 -19.600013,-9.83493 -28.702672,-4.89722 -50.271485,0.43164 19.598366,3.73915 32.368402,14.30581 42.587891,27.42383 -24.32559,-4.02493 -45.975184,5.33356 -67.677735,14.42383 23.221534,-2.6292 38.817364,2.3696 51.3125,10.4668 -20.544235,-2.94857 -39.773739,11.20357 -59.0039058,25.33789 14.8994788,-1.08888 29.7997398,-7.23435 44.6992188,2.83007 -30.53524,11.70795 -52.4699502,24.02997 -56.640625,37.6211 18.586416,-6.05726 37.297069,-12.23834 44.835938,-7.24805 -27.8954,11.87081 -53.029311,24.74571 -60.416016,44.07422 17.54439495,-7.31785 34.462219,-11.50232 50.123047,-9.40234 -25.7100431,11.63296 -37.9617956,23.26547 -50.832031,34.89843 15.810728,-5.78844 32.224749,-13.83922 44.314453,-5.67382 C 8.3849123,447.12762 3.871182,458.90805 4.1777344,471.80078 17.017871,456.0819 34.02049,445.806 52.808594,437.86523 c -7.513115,4.94204 -10.602659,10.68837 -8.015625,17.4668 10.890404,-9.38388 24.15811,-15.06973 39.179687,-18.02734 l 0.002,0 c -5.128146,5.86523 -6.993304,11.73047 -4.77539,17.5957 12.007347,-12.62734 25.515714,-12.49599 38.337894,-18.19727 l 304.54101,-5.46874 c 13.74832,3.52991 27,7.53709 34.66993,16.9082 -1.12961,-5.6228 -1.30055,-11.17186 -9.72071,-17.35547 18.36515,3.42976 32.67822,10.2882 43.4668,20.12891 -2.15101,-9.53192 -7.96418,-16.31723 -17.10937,-20.60352 l 0.002,0 c 18.52937,5.3495 37.31405,10.31603 51.31836,22.45312 -1.20031,-9.90282 -10.57692,-16.53511 -20.34766,-23.00976 l 0.002,0 0.002,0 c 22.1211,7.17097 44.23888,14.34618 60.10156,29.48242 -4.99435,-11.79456 -11.44588,-22.90338 -26.23242,-30.08984 15.20326,-5.83362 36.31974,4.10524 56.12695,10.54883 -13.06786,-16.13824 -33.68559,-27.74681 -63.02344,-34.12305 14.10936,-1.96313 28.98047,-0.11899 44.7168,6.05273 -8.18345,-14.65179 -27.59641,-26.24012 -53.65234,-36.01757 15.44799,-7.3368 26.5579,2.68239 39.00781,7.33789 -6.78259,-19.78578 -27.70199,-29.67541 -50.53125,-38.22852 12.16534,-2.60101 25.34052,-10.5963 37.50586,-5.11719 -5.23493,-17.75838 -26.79199,-16.83646 -53.07813,-24.8789 10.27344,-11.47395 25.44286,-11.52338 39.52539,-14.10938 -19.79552,-9.85561 -23.37871,-13.20436 -41.83398,-12.33789 11.15345,-11.52957 14.43433,-18.15212 30.51367,-27.21875 -22.58808,-1.4443 -35.21364,-4.64583 -52.26953,5.47461 11.73245,-16.46638 12.24832,-36.64882 19.9082,-57.04492 z"
       id="path4164"
       inkscape:connector-curvature="0"
       sodipodi:nodetypes="cccccccccccccccccccccccccccccccccccccccccccccccccccc" />
  </g>
  <g
     inkscape:groupmode="layer"
     id="layer4"
     inkscape:label="head 2"
     style="display:inline"
     sodipodi:insensitive="true"
     transform="translate(18.749336,-81.218297)">
    <path
       style="fill:#ffffff;fill-rule:evenodd;stroke:#000000;stroke-width:1px;stroke-linecap:butt;stroke-linejoin:miter;stroke-opacity:1"
       d="m 97.763672,444.50195 c -0.0316,0.28929 -0.05715,0.57798 -0.08789,0.86719 l -0.002,-0.0312 c -15.947753,12.33279 -21.75046,25.39022 -25.234375,38.61328 7.109868,-6.02853 14.567581,-9.44822 23.458985,-2.11523 -11.128912,9.36757 -20.198737,21.00014 -22.402344,40.18554 7.684287,-8.40289 15.695874,-10.91437 24.277344,-3.16796 -11.738609,12.16015 -16.814306,24.32031 -16.875,36.48046 6.291786,-3.69205 11.828312,-10.1534 20.658198,-4.53906 -11.374991,13.49805 -17.102412,26.99609 -15.898433,40.49414 6.008713,-6.41033 12.265544,-11.91087 20.927733,-8.59179 -12.350166,11.19207 -13.771125,24.20568 -15.640624,37.14453 5.985109,-5.04466 6.321223,-19.12771 20.314454,-11.35938 l -0.004,-0.043 c 0.11435,0.34835 0.23293,0.67858 0.34766,1.02539 l -0.0156,-0.0195 c -10.81641,9.93689 -11.23246,20.61667 -12.544917,31.23242 6.384767,-7.27005 12.953547,-12.14806 20.037107,-10.33398 -6.98168,9.48892 -8.1232,20.60011 -8.90039,31.8125 4.8322,-6.4946 9.70694,-12.8809 18.31445,-9.76563 -6.33766,10.51012 -5.20677,20.68074 -3.99414,30.84766 4.57489,-5.84414 9.82565,-9.27448 16.84766,-6.3789 -4.03397,10.25649 -4.58039,19.75484 -0.53907,28.25585 3.0018,-5.43915 7.56159,-8.10854 13.72461,-7.92773 -3.37351,8.8737 -1.11635,17.74739 0.59375,26.62109 3.43118,-6.17132 8.5381,-7.31538 13.6875,-8.33203 -3.13973,9.4069 -1.06623,18.81381 4.21289,28.22071 2.33139,-6.03739 6.30298,-9.68904 12.4961,-10.10938 -0.0867,8.42011 0.19048,16.85842 6.99414,25.62305 1.64859,-5.51711 4.66896,-9.11371 9.82617,-9.71875 -0.93987,7.88021 1.98882,15.76041 8.07227,23.64062 2.4807,-4.31645 5.02353,-8.52935 10.5957,-7.69336 -0.81236,8.95437 3.51563,15.85261 9.6914,22.01172 -0.0525,-5.98246 3.57599,-7.43443 8.04688,-7.84961 -1.33915,6.7977 1.75086,13.82852 7.06836,20.97656 0.44271,-6.33397 3.59804,-8.98655 8.95703,-8.64843 -2.1969,6.65721 -1.49954,13.61908 2.97461,20.97851 3.33298,-3.94264 3.72082,-11.01449 12.13477,-9.55859 0.002,10e-4 0.004,0.002 0.006,0.004 0.51776,-0.41222 1.01217,-0.79787 1.5254,-1.20508 1.58793,5.49219 0.66793,10.98437 -0.83399,16.47656 5.01475,-5.61187 12.48947,-8.61907 9.18359,-23.04102 10e-4,-10e-4 0.002,-0.003 0.004,-0.004 4.67873,4.9082 2.17716,9.81641 1.50781,14.72461 6.35679,-5.52509 11.79339,-11.61252 8.9375,-22.76758 0.005,-0.004 0.0108,-0.006 0.0156,-0.01 4.25599,2.58975 3.59685,8.45627 3.32812,14.0625 5.23586,-6.09447 8.82173,-12.95047 7.3418,-22.14453 0.003,-0.002 0.006,-0.005 0.01,-0.008 4.15913,2.7032 7.12235,6.48273 6.11914,13.83203 6.25006,-7.98062 10.23629,-16.52719 10.25976,-26.06445 4.89677,2.0876 6.80873,7.16003 7.56641,13.38672 7.03315,-8.09837 9.94089,-17.14876 10.22461,-26.80469 4.87587,2.01356 8.51514,5.57288 7.20703,15.31641 6.87911,-9.28711 9.28084,-18.57422 8.36719,-27.86133 6.77488,2.0621 7.15486,7.32166 7.87695,12.41015 4.75977,-7.78499 7.76619,-16.00832 6.31641,-25.3457 3.95535,2.55809 7.87711,5.14641 6.75586,12.27344 6.01107,-9.13737 8.00213,-18.27474 7.26171,-27.41211 11.04289,0.48712 9.04013,7.15376 10.96289,11.96094 6.29407,-10.91696 5.93772,-20.72552 2.91602,-30.08985 7.73282,-1.33592 11.96567,2.92811 14.51563,9.88477 3.07985,-10.33333 1.68209,-20.66667 -0.91016,-31 8.05243,-1.88241 14.94476,4.93573 21.5957,13.56445 1.41243,-16.71538 -2.3942,-31.69108 -9.47851,-45.57422 6.62038,-0.91454 12.52187,-3.62631 25.98437,12.56446 -0.19946,-19.95715 -6.01485,-36.89034 -15.41992,-51.89063 12.40329,-2.0134 18.685,6.85601 24.84961,15.93359 0.30046,-21.30829 -4.3417,-41.29855 -14.67383,-59.77148 9.96816,-1.88058 16.86826,6.21006 24.10547,13.20508 -1.34288,-18.01243 -4.24279,-35.63559 -16.78711,-50.84766 10.78738,-9.95433 20.83443,-0.65989 30.93555,7.22852 -2.90713,-21.94032 -9.47651,-40.90507 -23.69336,-53.65625 12.74202,-4.94987 24.12713,2.99078 35.48242,11.21484 -6.76095,-15.80846 -3.9636,-29.76694 -30.89062,-49.47851 l -0.0117,0.0566 c 0.0416,-0.39631 0.0876,-0.78281 0.1289,-1.17969 l -3.5e-4,4.2e-4"
       id="path4208"
       inkscape:connector-curvature="0"
       sodipodi:nodetypes="cccccccccccccccccccccccccccccccccccccccccccccccccccccccccccccccccccccccccccccc" />
    <path
       style="fill:none;fill-rule:evenodd;stroke:#000000;stroke-width:1px;stroke-linecap:butt;stroke-linejoin:miter;stroke-opacity:1"
       d="m 150.35547,442.29688 c -5.55974,5.17383 -7.7972,10.34765 -8.75586,15.52148 3.02152,-2.03695 6.06793,-3.9619 9.69336,-3.28125 -5.3474,5.01966 -5.60111,10.76699 -6.85742,16.37109 2.35248,-2.69489 4.69353,-5.43549 7.94726,-4.52539 -3.83323,5.51271 -5.30982,12.09662 -5.76562,19.14453 1.7489,-2.66326 3.092,-5.78305 7.20117,-5.79101 -3.35604,6.48397 -5.56595,13.34998 -5.23633,21.0625 1.65653,-3.79022 3.90605,-6.15725 7.10156,-6.25391 -4.9296,6.40882 -5.61635,13.06722 -5.35742,19.78125 1.59243,-3.43968 3.72952,-5.86783 7.4668,-5.32422 -2.90196,3.55221 -3.60368,7.83784 -3.75586,12.30664 1.51021,-1.65427 2.95904,-3.49267 5.36523,-2.45898 0.008,0.0408 0.0173,0.0822 0.0254,0.12305 -2.1726,3.45164 -3.38905,7.47698 -2.49023,12.77148 1.24569,-2.61492 2.65108,-4.19186 4.50977,-2.82226 -1.73838,3.91012 -3.44806,7.831 -2.77735,12.64453 1.56202,-1.94801 3.17414,-3.3449 5.04102,-1.93946 -2.27627,5.16972 -3.37394,10.44659 -2.26758,15.92383 1.27041,-1.81503 1.41339,-5.18029 4.9375,-3.89648 -2.0902,4.64404 -2.46127,9.45999 -1.4707,14.41211 0.94929,-2.43986 2.24663,-3.71956 4.11914,-3.08203 -1.54274,4.86824 -1.99547,9.61538 -0.76758,14.17578 1.03482,-2.55447 2.36281,-2.47039 3.69922,-2.31055 -1.61227,3.40507 -2.70877,7.17119 -1.27149,12.71094 1.21876,-1.18378 2.15979,-3.38591 4.2461,-1.38867 -0.86297,4.63426 -2.14057,9.15543 0.25976,14.67968 0.50002,-2.6409 1.42247,-3.9089 3.15235,-2.55273 -1.19393,3.68481 -2.42018,7.35024 -0.60938,12.83789 0.8683,-2.70874 1.98849,-4.03208 3.47266,-3.35352 -1.25595,4.00177 -2.11252,8.10339 -0.92969,12.71485 0.86831,-2.61889 2.08923,-4.06237 3.88086,-3.60352 -1.30198,3.7089 -1.56631,7.79513 0.50977,12.73242 0.77329,-1.89283 1.73648,-3.26341 3.72851,-1.80468 -1.02474,4.45377 -0.77252,8.90755 1.58789,13.36132 -0.44086,-3.23123 1.54045,-4.04028 4.15625,-4.21484 -0.0533,5.23494 2.12669,8.23659 3.81836,11.72656 0.13898,-2.20053 0.39687,-4.26517 2.65234,-4.04687 -0.94127,3.75477 1.45396,6.9029 3.81836,10.05664 -0.37729,-1.99708 -0.22581,-3.67689 2.44727,-3.84375 -0.48173,3.46852 1.80704,6.01354 4.02539,8.58203 0.088,-1.39904 -0.61068,-3.13523 1.48047,-3.67578 0.1947,4.49838 2.45534,7.22596 4.75976,9.91601 -0.32829,-2.10482 -1.14828,-4.49061 0.57032,-5.42578 3.18702,2.64926 6.10373,5.05542 8.2832,7.10352 l 110,0 c 3.58044,-3.07829 7.0966,-6.08721 10.56055,-9.08594 l -0.0195,0.043 c 2.84851,0.80561 2.77786,3.36271 3.11718,5.67383 3.53652,-3.87237 7.30639,-7.6514 5.75586,-13.5586 4.01748,0.96522 3.43062,4.23261 2.28906,7.77735 3.29112,-4.08714 5.97332,-8.7832 6.1504,-15.98438 3.23428,0.17493 3.09979,3.34431 1.64257,7.68946 3.82246,-4.68023 7.21926,-9.59694 6.4043,-16.85352 3.0901,3.35547 1.14355,6.71094 0.88477,10.06641 4.30529,-6.49349 7.08688,-12.98698 5.66211,-19.48047 2.90057,-0.10911 3.57561,2.89753 3.89062,6.4082 1.73863,-5.81771 3.45445,-11.63541 1.61328,-17.45312 2.48017,-1.14544 3.96905,2.16988 5.42383,5.63867 1.11637,-6.77669 1.50591,-13.55339 -1.01172,-20.33008 2.83945,-1.24098 3.74753,1.86364 4.53125,5.24805 3.04723,-6.48673 0.57516,-12.3602 -0.85351,-18.34961 1.98499,-0.0741 3.43529,1.45583 4.37304,4.52343 3.92047,-6.77354 0.87741,-12.28097 -0.63672,-18.0664 1.86123,-0.39244 3.34051,0.93386 4.15625,5.24609 1.47882,-6.97342 2.83533,-13.98762 0.37696,-22.27344 1.88542,-0.12512 3.77083,1.62277 5.65625,6.18555 1.02604,-6.79514 0.69316,-13.36379 -2.29297,-19.49023 2.20626,-0.41195 4.27129,0.16476 5.8125,4.4082 2.2042,-8.35757 0.0739,-15.27029 -1.59766,-22.33594 0.007,-0.0327 0.0142,-0.065 0.0215,-0.0976 l -0.0156,0.0976 c 4.28626,-0.24728 6.88373,1.53197 7.81836,5.30664 0.7219,-8.46199 -0.72001,-16.20271 -4.01953,-23.32422 2.85192,-1.65536 5.52963,-1.22022 7.71484,5.125 0.49978,-8.10091 -0.0519,-16.20182 -4.21093,-24.30273 3.46277,-2.76178 5.76803,0.26399 7.9082,4.11523 1.15159,-6.99674 0.20945,-13.99349 -5.32031,-20.99023 3.31699,-1.23509 6.74257,-1.27575 10.72265,4.7832 1.00062,-9.52902 -2.94585,-16.08978 -8.61133,-21.61914 4.2629,-1.7503 8.14741,-0.47353 11.74024,3.13672 -0.82092,-9.9735 -3.56846,-18.50204 -9.74219,-24.46094 l -0.0137,0.0879 c 0.0384,-0.50316 0.0819,-0.99906 0.11914,-1.5039"
       id="path4226"
       inkscape:connector-curvature="0"
       sodipodi:nodetypes="cccccccccccccccccccccccccccccccccccccccccccccccccccccccccccccccccccccccccccccccccccc" />
    <path
       style="fill:#808080;fill-rule:evenodd;stroke:#000000;stroke-width:1px;stroke-linecap:butt;stroke-linejoin:miter;stroke-opacity:1"
       d="m 311.13086,204.74609 c -14.68001,8.69803 -20.61014,21.37322 -25.07422,34.71485 -3.43029,-11.52586 -9.13301,-21.53806 -18.19922,-29.30664 -9.09399,7.66398 -16.56907,16.74656 -18.19922,30.9414 -7.04686,-15.29477 -14.09376,-19.08267 -21.14062,-25.53125 -13.03398,7.98816 -20.08934,15.08733 -22.9043,31.08594 -6.27347,-12.33649 -23.69745,-13.14177 -36.76758,-15.0957 10.60055,16.78017 14.51879,30.44702 16.82032,35.99804 -12.64039,-9.80673 -34.93908,-3.58638 -49.55079,-5.50781 5.35828,12.17717 24.60305,15.69525 24.22071,34.83594 -12.38153,-4.53204 -34.84429,1.08509 -49.25586,3.6582 16.97825,15.92379 31.07006,14.53015 29.31836,27.00586 -16.04481,-3.58633 -39.00961,0.0303 -51.990237,2.57227 10.215714,14.72224 30.240287,13.3597 35.216797,32.7539 -14.01746,1.33121 -38.309235,4.35499 -51.398438,14.96875 9.023264,11.67897 35.101578,6.29441 39.824218,21.37696 -11.48212,-0.30758 -34.086135,14.48781 -52.191405,27.59961 11.541696,8.34631 30.416886,1.03139 44.498045,15.18554 -10.568668,5.75602 -12.17309,13.62127 -13.031248,21.66211 10.795258,-8.91559 22.159818,-16.8349 35.265628,-21.70703 -3.96763,4.88345 -7.47965,9.80195 -4.03125,15.25586 4.95859,-7.77617 11.44684,-12.49304 18.72461,-15.63086 -0.85422,3.39974 -1.90239,6.79948 0.62695,10.19922 2.69845,-5.11231 7.45626,-8.98901 15.95508,-10.62109 -1.13999,2.89209 -2.36963,5.8066 1.01953,7.5664 3.52942,-4.26159 8.37506,-7.20697 15.38672,-7.98633 l 212.37304,-5.42187 c 3.37019,0.73913 5.61654,1.91335 7.72136,4.76144 1.20728,-1.66637 1.68363,-3.59396 0.60286,-4.97433 2.99277,0.85033 5.94277,4.06635 8.07413,5.77809 0.41131,-1.25846 -0.89746,-4.67393 -2.03702,-5.93239 3.44991,0.45398 5.17387,3.71052 8.24107,5.77242 0.63655,-1.5056 0.53515,-4.63831 -0.90122,-5.95992 l 0.002,0 c 3.96429,0.64643 7.93967,7.3488 11.62305,10.10205 0.73223,-1.31435 -0.52433,-8.88484 -2.22461,-10.34228 l 0.002,0 c 5.48837,0.99675 10.75823,8.91907 15.04697,12.71496 0.98106,-2.92994 -1.13678,-11.26352 -2.88095,-13.02551 l 0.002,0 c 6.41681,1.85099 18.23945,16.55844 23.04373,21.23135 0.47964,-3.0319 -6.51708,-18.50804 -10.92654,-21.53994 15.66421,0.41546 38.42145,25.24959 44.53148,30.68161 2.80697,-5.13004 -9.36009,-30.74901 -20.9807,-31.28318 10.76344,-11.78093 30.70886,-8.8935 43.63476,-7.4082 -11.61585,-11.67663 -34.40167,-25.60124 -50.27343,-20.19726 6.60609,-6.1061 19.86807,-17.54312 39.6289,-19.55079 -11.07937,-9.10498 -30.15016,-13.43519 -47.78125,-5.70117 2.87367,-15.00039 25.51001,-17.90978 39.58008,-20.80078 -11.84425,-7.76321 -33.90417,-9.05322 -49.49609,-7.44726 5.71004,-14.28774 22.85971,-20.40228 38.13281,-25.12696 -14.77968,-4.44555 -36.64024,-5.67407 -51.41992,-3.76953 8.07656,-17.2842 25.1553,-22.8991 32.73437,-30.70703 -15.79578,-6.09559 -36.45396,-2.13924 -50.46679,2.46289 1.24605,-15.03136 20.43936,-26.2279 28.92187,-35.67383 -12.31346,3.40186 -38.6089,3.08083 -49.21094,12.47266 -0.77791,-13.40903 13.35492,-25.57353 17.64649,-40.78125 -15.88722,3.71128 -34.6646,3.70696 -42.0964,15.87366 -10.24062,-10.94899 -4.99937,-19.49253 -7.90165,-33.29749 -12.03375,6.81478 -29.13666,15.91965 -32.71289,29.3125 -2.76558,-12.73919 -1.10825,-25.47761 -13.375,-38.2168 z"
       id="path4161"
       inkscape:connector-curvature="0"
       sodipodi:nodetypes="cccccccccccccccccccccccccccccccccccccccccccccccccccccccccccccc" />
  </g>
  <g
     inkscape:groupmode="layer"
     id="layer3"
     inkscape:label="head 3"
     style="display:inline"
     sodipodi:insensitive="true"
     transform="translate(18.749336,-81.218297)">
    <rect
       style="color:#000000;clip-rule:nonzero;display:inline;overflow:visible;visibility:visible;opacity:1;isolation:auto;mix-blend-mode:normal;color-interpolation:sRGB;color-interpolation-filters:linearRGB;solid-color:#000000;solid-opacity:1;fill:#000000;fill-opacity:1;fill-rule:nonzero;stroke:none;stroke-width:5;stroke-linecap:butt;stroke-linejoin:miter;stroke-miterlimit:4;stroke-dasharray:none;stroke-dashoffset:0;stroke-opacity:1;color-rendering:auto;image-rendering:auto;shape-rendering:auto;text-rendering:auto;enable-background:accumulate"
       id="rect4216"
       width="110"
       height="26"
       x="226"
       y="641.36218" />
    <path
       style="fill:#ffffff;fill-rule:evenodd;stroke:#000000;stroke-width:1px;stroke-linecap:butt;stroke-linejoin:miter;stroke-opacity:1"
       d="m 215,653.36133 c -0.60071,2.40674 -1.25192,4.81396 -0.11133,7.2207 0.76081,-0.47118 0.97698,-2.03373 2.82813,-0.32422 0.0931,2.90951 0.77487,5.81901 2.77734,8.72852 -0.31973,-0.69276 1.86706,-3.52261 3.24024,-2.31055 -1.14869,1.22714 -0.58377,6.63069 1.8496,7.86328 0.64777,-1.52402 1.17313,-3.12454 4.13672,-3.20117 -0.0233,2.9873 -0.75299,6.10305 2.3418,8.52344 0.39358,-2.54262 1.40196,-4.47044 4.16797,-4.64063 0.39811,2.6263 0.0749,5.25261 3.00391,7.87891 0.36852,-2.45075 2.0374,-3.99127 5.38671,-4.35547 -0.38379,3.44238 0.80641,5.94038 3.4043,7.59375 0.30373,-2.62577 1.89785,-4.49882 5.77344,-5.04101 0.34085,2.75349 1.01578,5.42346 3.71289,7.58789 0.20291,-2.82144 1.45652,-5.06977 4.92969,-6.10743 0.0637,3.46969 2.29777,5.73359 5.01953,7.72657 0.65334,-2.60145 -0.19064,-5.702 4.63672,-6.91211 0.61714,2.71049 2.61317,5.027 5.3125,7.14258 0.43347,-2.08916 1.79696,-4.41083 4.61328,-7.09571 1.96312,1.65237 4.26287,2.88398 5.10351,5.93945 3.17245,-0.65278 3.57023,-3.52532 3.81836,-6.51757 1.84035,0.70334 3.28904,1.99418 3.35352,5.36133 2.57538,-1.10782 3.75429,-3.41262 4.24805,-6.30469 1.70413,0.88166 4.71544,1.23775 3.38867,5.84179 3.78107,-0.32891 4.21141,-3.39108 4.20507,-7.20898 2.35967,0.63254 4.5608,1.15169 4.58594,4.66406 2.27748,-0.87715 3.98657,-2.20447 3.10156,-6.51953 2.64345,0.18164 3.9452,1.57081 3.60743,4.43555 2.2916,-1.65842 2.99871,-3.9959 3.21679,-6.54297 1.01682,0.6487 2.53977,0.1164 1.87305,4.69336 2.61289,-1.94284 4.28976,-4.19768 4.22461,-7.0332 2.05806,0.11346 3.71479,0.72858 3.41211,3.79296 3.97174,-2.14956 3.02146,-4.67773 3.37695,-7.10546 2.61819,-0.31169 3.79019,1.36515 4.02539,4.33007 2.49836,-2.8969 2.1818,-5.51232 1.75977,-8.11718 2.58986,-0.78865 3.40968,1.37275 4.25586,3.49023 1.68517,-2.66732 0.66631,-5.33463 0.41406,-8.00195 1.27889,0.88863 2.89948,1.2647 3.05664,3.83594 2.4448,-2.41541 0.58549,-5.1619 -0.6875,-7.86329 1.44702,-0.54637 2.60637,-0.0839 3.45703,1.45703 -0.16134,-3.59627 -1.83118,-5.23953 -2.82031,-6.90429 l -44.47852,0 c -0.9033,1.06365 -0.71501,2.67309 -2.7871,3.15234 -0.27182,-1.78766 -2.08717,-2.25229 -3.39454,-3.15234 -0.5656,1.20901 -0.98836,2.53704 -2.48437,2.9707 -0.54569,-1.75693 -1.80672,-2.08317 -2.78711,-2.9707 -0.62618,1.14074 -0.36555,2.68457 -2.60547,3.09179 -1.31551,-2.00878 -2.19399,-2.26943 -3.21289,-3.09179 -0.72933,1.31104 -1.28907,2.79165 -2.78711,3.33398 -0.0583,-1.77652 -1.90748,-2.27386 -2.96875,-3.33398 -0.53836,1.18971 -0.51709,2.58929 -2.24219,3.33398 -1.59514,-0.50698 -2.76119,-1.87213 -3.8789,-3.33398 -1.40262,0.87931 -2.34984,1.80922 -2.30274,2.84961 -1.30771,-0.40381 -2.4705,-1.31485 -3.45508,-2.84961 -1.17423,0.92819 -2.4296,1.8158 -2.66601,3.21289 -1.55048,-0.53557 -1.55112,-2.10437 -2.24219,-3.21289 -1.14997,0.97066 -2.53237,1.80851 -2.60547,3.39453 -1.75096,-0.26922 -1.94884,-2.09152 -2.66601,-3.39453 -1.26409,1.06331 -2.53159,2.12434 -2.84961,3.81836 -1.23384,-0.73114 -1.96213,-2.30487 -2.72656,-3.81836 z"
       id="path4218"
       inkscape:connector-curvature="0"
       sodipodi:nodetypes="ccccccccccccccccccccccccccccccccccccccccccccccccccccccccccccc" />
    <path
       style="fill:none;fill-rule:evenodd;stroke:#000000;stroke-width:1px;stroke-linecap:butt;stroke-linejoin:miter;stroke-opacity:1"
       d="M 205.43047,640.07169 C 190.31042,618.10538 185.37146,593.7062 181.40328,570.36439"
       id="path4222"
       inkscape:connector-curvature="0"
       sodipodi:nodetypes="cc" />
    <path
       style="fill:none;fill-rule:evenodd;stroke:#000000;stroke-width:1px;stroke-linecap:butt;stroke-linejoin:miter;stroke-opacity:1"
       d="m 357.62075,641.32086 c 17.09097,-22.48931 26.7981,-45.93905 31.34974,-70.95646"
       id="path4220"
       inkscape:connector-curvature="0"
       sodipodi:nodetypes="cc" />
    <path
       style="fill:#ffffff;fill-rule:evenodd;stroke:#000000;stroke-width:1px;stroke-linecap:butt;stroke-linejoin:miter;stroke-opacity:1"
       d="m 206,588.36133 c -0.0296,0.0968 -0.0566,0.19946 -0.0859,0.29687 l 0,-0.0137 c -4.10809,1.26106 -6.27201,3.4942 -7.75,6.07031 2.71951,-1.66821 4.62395,-1.50251 6.47852,-1.22461 -4.87615,2.50195 -5.50483,5.00391 -6.3125,7.50586 2.14926,-2.15038 3.75073,-2.29219 5.24609,-2.04492 -3.69317,2.72922 -6.06587,5.54097 -6.23828,8.49024 1.78255,-1.47202 3.56511,-2.36649 5.34766,-1.64649 -3.01364,2.64258 -4.35724,5.28516 -5.18164,7.92774 1.58073,-1.63315 3.16145,-2.48533 4.74218,-1.48438 -3.44293,2.22733 -4.24521,5.15883 -4.41211,8.25977 1.45117,-1.59778 2.90235,-2.61924 4.35352,-1.8086 -2.25092,2.21836 -3.74362,4.94219 -3.36133,8.91602 1.13159,-1.49355 2.3983,-2.0413 3.75,-1.99414 -2.49043,2.92318 -3.51834,5.84635 -2.92383,8.76953 0.98897,-1.2506 1.54517,-3.22242 3.76954,-2.41406 -0.91717,2.79826 -2.63725,5.15856 -1.29102,9.1914 0.81614,-1.76023 1.84275,-2.36291 3.09961,-1.69922 -1.81634,3.44709 -1.48602,6.23368 -0.45508,8.80469 0.65724,-2.21565 1.43205,-3.73299 2.58203,-2.99219 -1.35142,3.28233 -0.23099,6.18438 1.50196,8.99219 0.18315,-2.26257 0.78791,-3.86266 2.63671,-3.50781 0.39144,3.15344 1.17819,6.20806 3.46875,8.88672 -0.004,-2.80332 0.49506,-5.1026 3.33399,-5.0625 0.49589,2.1423 0.85475,4.37024 3.20508,5.35351 0.29997,-1.8486 0.50664,-3.75462 3.83398,-3.74023 -0.031,2.17633 0.55824,3.90154 3.14258,4.17578 -0.11585,-1.59243 0.33902,-2.94027 1.89453,-3.81641 0.85582,1.5296 1.28097,3.48987 3.48438,3.67188 -0.50041,-2.60521 0.67962,-3.53002 2.3164,-3.99805 0.81894,1.41922 1.44358,3.00036 3.64258,3.26953 -0.24568,-1.57875 0.0461,-3.00395 1.4707,-4.10547 0.82197,1.75226 1.78484,3.3636 4.48828,3.23438 -0.84013,-1.63892 -0.38002,-3.13337 0.93164,-4.5332 0.78684,1.85131 1.80268,3.35912 4.00977,3.08008 -0.88095,-1.67791 0.19624,-3.11106 1.17383,-4.55665 0.82294,1.24999 1.52406,2.57611 4.20312,2.66602 -0.68555,-1.76536 -0.39916,-3.23915 1.30664,-4.28711 0.002,-5.7e-4 0.004,-8e-4 0.006,-0.002 0.67815,1.0526 0.38362,2.31363 4.21094,2.6914 -1.27737,-2.17938 0.006,-3.07855 1.03711,-4.10351 0.006,-0.001 0.0118,-0.002 0.0176,-0.004 0.52249,1.93188 1.93009,2.83114 3.88672,3.08985 -0.36725,-1.65738 -0.65761,-3.29169 1.31836,-4.2461 0.1699,1.55739 1.53021,2.66313 3.07031,3.30662 0.035,-1.54046 0.0765,-3.07763 1.39062,-3.97851 0.39243,1.34129 1.13867,2.41163 2.82811,2.63277 0.38227,-1.02032 -0.0362,-2.24081 1.51562,-2.96875 0.4256,1.92419 1.37082,2.33951 2.25388,2.87886 0.44265,-1.02542 0.15243,-2.36492 1.61523,-2.95313 1.0336,0.78916 1.09938,1.92333 1.16616,3.04297 1.08526,-0.97244 2.35089,-1.97493 2.49805,-2.79102 1.12096,1.11662 1.40838,2.28185 1.54104,3.41997 l 1.2306,-2.80885 c 0.10895,1.07649 0.74386,2.07377 0.8341,3.16631 0.59267,-0.82863 0.52226,-2.45298 1.84765,-2.40235 1.14172,1.14644 0.46578,1.92936 0.0371,2.76172 1.48598,-0.0212 2.91968,-0.2122 3.76172,-2.32617 1.10882,0.99496 0.98475,2.25516 0.45522,3.58404 1.7681,-0.23971 3.45478,-0.56086 3.61719,-2.40626 1.31957,0.75432 1.9999,1.72971 0.87119,3.30278 1.70857,0.14514 3.04594,-0.32838 3.77344,-1.81836 0.003,8.3e-4 0.005,10e-4 0.008,0.002 1.44261,1.26698 1.48836,2.41755 0.97461,3.52149 2.13284,0.37113 3.43257,-0.40326 4.25781,-1.83008 1.67659,1.46803 2.05587,2.85975 0.94922,4.16406 1.62916,-0.24406 3.25073,-0.50631 4.08008,-2.66992 1.55952,0.70136 2.0926,1.91594 1.03515,3.92578 2.6261,-0.0672 3.87909,-1.08511 4.38086,-2.62305 2.61967,1.45402 2.36359,2.8375 1.63282,4.14844 2.99279,-0.0236 4.28956,-1.24428 4.50195,-3.23047 2.17164,0.58585 3.1808,1.81753 2.4082,4.03907 2.73203,-0.44681 3.90802,-1.80893 3.85742,-3.89258 2.10914,0.49551 4.2193,0.99038 3.77149,3.08398 2.69718,-1.29753 2.72816,-2.59505 2.70312,-3.89258 1.31692,0.52919 2.91556,0.40104 3.3086,3.08594 1.63049,-1.1177 2.32247,-2.70464 2.3164,-4.64062 1.85172,0.0686 3.03247,1.00948 3.24805,3.20507 1.8336,-1.69922 1.62902,-3.39843 1.38086,-5.09765 1.40859,0.28443 2.44527,1.06473 2.38867,3.30273 1.56422,-2.04847 1.98534,-4.19219 1.58594,-6.40429 0.90676,0.0418 1.57138,0.93115 1.82422,3.26171 1.41671,-2.26367 1.80543,-4.52734 1.42187,-6.79101 0.58301,0.22917 1.25379,0.82705 1.45118,2.66406 1.2188,-1.64946 1.13475,-3.68978 0.73046,-5.82617 1.06461,0.16245 1.4398,1.70373 1.8711,3.13281 0.90928,-2.23047 0.6811,-4.46093 -0.041,-6.6914 1.17409,-0.24011 1.52647,1.1632 2.01563,2.29296 0.97709,-2.25 0.28299,-4.5 -0.3711,-6.75 0.70145,-0.0388 1.49506,0.65972 2.43555,2.53321 1.0882,-2.33113 -0.48819,-4.36619 -1.42188,-6.47266 0.96948,0.0463 1.9416,0.0714 2.67774,1.98438 0.75449,-2.1543 -0.53902,-4.30859 -1.89258,-6.46289 0.876,-0.31938 1.88767,-0.0283 3.24024,1.79687 0.2206,-2.76353 -1.30329,-4.77943 -2.70508,-6.84766 0.99154,-1.08415 1.98307,-0.25191 2.97461,1.28321 0.34917,-2.56331 -1.19173,-4.41785 -2.70899,-6.28125 1.08203,-1.20534 2.16407,-0.15235 3.2461,0.98633 0.0818,-2.46658 -1.63442,-4.6763 -3.16797,-6.91211 0.79981,-1.67347 2.08241,0.0326 3.34765,1.61718 0.52729,-3.44171 -1.68349,-5.51437 -3.43945,-7.81445 1.16136,-0.31451 2.31483,-0.73144 3.70899,1.98047 0.73193,-3.64754 -1.87772,-5.62429 -3.87696,-7.90625 1.3154,-1.36819 2.86734,0.10211 4.41602,1.5332 -0.14699,-3.99805 -2.62791,-5.37042 -4.57813,-7.33984 1.06072,-1.41856 2.71746,-0.45306 4.48828,0.96875 -0.45231,-2.762 -2.26227,-4.50577 -4.62109,-5.83789"
       id="path4210"
       inkscape:connector-curvature="0"
       sodipodi:nodetypes="cccccccccccccccccccccccccccccccccccccccccccccccccccccccccccccccccccccccccccccccccccccccccccccccccccccccccccc" />
    <path
       style="fill:#4d4d4d;fill-rule:evenodd;stroke:#000000;stroke-width:1px;stroke-linecap:butt;stroke-linejoin:miter;stroke-opacity:1"
       d="m 249.91575,608.0538 c 0.45122,-5.56094 1.9221,-11.67093 5.08425,-18.6916 15.43336,-16.5923 42.59561,-11.09038 53,0 2.50227,9.05283 3.5393,16.34738 3.69991,22.59022"
       id="path4176"
       inkscape:connector-curvature="0"
       sodipodi:nodetypes="cccc" />
    <path
       sodipodi:nodetypes="ccccc"
       inkscape:connector-curvature="0"
       id="path4179"
       d="m 311.09555,604.26863 c 1.86404,14.50626 0.36247,16.95891 -1.92834,26.47936 -7.54468,15.11765 -52.72645,10.91487 -55.55628,0.77814 -4.58832,-10.14683 -5.82084,-15.87551 -2.69899,-30.08419 11.32396,-10.39463 49.08873,-15.10651 60.18361,2.82669 z"
       style="fill:#333333;fill-rule:evenodd;stroke:#000000;stroke-width:1px;stroke-linecap:butt;stroke-linejoin:miter;stroke-opacity:1" />
    <circle
       style="color:#000000;clip-rule:nonzero;display:inline;overflow:visible;visibility:visible;opacity:1;isolation:auto;mix-blend-mode:normal;color-interpolation:sRGB;color-interpolation-filters:linearRGB;solid-color:#000000;solid-opacity:1;fill:#000000;fill-opacity:1;fill-rule:nonzero;stroke:none;stroke-width:4;stroke-linecap:butt;stroke-linejoin:miter;stroke-miterlimit:4;stroke-dasharray:none;stroke-dashoffset:0;stroke-opacity:1;color-rendering:auto;image-rendering:auto;shape-rendering:auto;text-rendering:auto;enable-background:accumulate"
       id="path4184"
       cx="266.05466"
       cy="615.75012"
       r="10.032787" />
    <circle
       r="10.032787"
       cy="615.37854"
       cx="296.5246"
       id="circle4188"
       style="color:#000000;clip-rule:nonzero;display:inline;overflow:visible;visibility:visible;opacity:1;isolation:auto;mix-blend-mode:normal;color-interpolation:sRGB;color-interpolation-filters:linearRGB;solid-color:#000000;solid-opacity:1;fill:#000000;fill-opacity:1;fill-rule:nonzero;stroke:none;stroke-width:4;stroke-linecap:butt;stroke-linejoin:miter;stroke-miterlimit:4;stroke-dasharray:none;stroke-dashoffset:0;stroke-opacity:1;color-rendering:auto;image-rendering:auto;shape-rendering:auto;text-rendering:auto;enable-background:accumulate" />
    <path
       style="display:inline;fill:#b3b3b3;fill-opacity:1;fill-rule:evenodd;stroke:#000000;stroke-width:1px;stroke-linecap:butt;stroke-linejoin:miter;stroke-opacity:1"
       d="m 303.06055,386.91992 c 0.0922,3.21857 -1.05081,5.96203 -5.48047,7.44141 -1.36418,-1.56784 0.85855,-3.14826 -5.48242,-7.11914 -1.60338,4.75353 -4.68895,6.54266 -8.38086,7.11914 -0.89867,-2.01216 -2.09475,-4.83343 -5.80469,-6.47461 -1.31715,3.74275 -4.60291,5.51688 -8.70508,6.47461 -0.99122,-2.48032 -2.41086,-4.74564 -4.51367,-6.47461 -1.40706,2.31951 -1.84113,4.81594 -6.88281,6.47461 l -15.81055,0 -27.375,21.02734 c -4.80564,0.11888 -9.30576,0.95064 -13.42969,2.66016 3.56736,0.64739 6.00283,1.46891 6.61914,2.57031 -4.30187,0.29069 -8.42948,1.36549 -12.27734,3.69922 3.02614,0.0268 5.27436,0.33655 5.80859,1.26953 -4.83174,-0.2297 -8.83399,1.36546 -12.53515,3.62305 2.43843,0.10913 5.66494,-0.45723 6.6582,0.89062 -5.10512,-0.14179 -9.0607,1.75544 -13.07813,3.54297 2.82529,-0.0909 6.01773,-0.54898 7.33399,0.86914 -6.51242,0.2004 -9.77734,1.89964 -13.45117,3.41016 4.18809,-0.13084 7.08172,0.16981 7.1914,1.39844 -4.13462,-0.25225 -8.58135,0.11974 -14.07031,2.57617 3.99629,-0.2 6.99425,0.26555 8.26758,1.88086 l -0.40039,0.30859 -0.002,0 c -4.78015,-1.05085 -8.7806,0.75717 -12.91016,2.0918 4.09883,6.1e-4 6.85435,0.61404 8.66992,1.71679 0.46585,0.26431 0.93905,0.51925 1.4082,0.7793 l -0.12304,-0.0566 c -0.83995,1.97312 -3.54902,2.82474 -5.91407,3.88281 4.11923,0.57335 7.28972,-0.27637 10.13282,-1.61718 -0.29662,1.80774 -2.09623,2.86399 -4.30274,3.71679 3.29683,0.28875 6.6296,0.82906 9.61719,-1.04687 0.16607,2.00521 0.4165,4.01809 -2.85351,5.71093 3.82463,0.52403 7.37488,-0.59839 10.88281,-1.9746 0.12432,2.41795 -1.69351,3.86483 -4.11914,5.00781 4.89561,1.32288 9.35134,0.66631 13.60742,-0.88867 0.62866,2.61385 -1.37168,4.35137 -3.58008,6.01953 4.74587,0.44616 8.94885,-0.19345 12.41211,-2.3125 0.96901,2.65416 -0.24886,4.57937 -2.14844,6.27734 4.32008,1.38098 7.98671,-0.50526 11.6836,-2.24023 0.001,5.7e-4 0.003,8e-4 0.004,0.002 0.002,2.01819 -0.66008,3.88861 -3.52539,5.26953 3.7292,0.53272 7.32896,0.41822 10.42188,-2.23047 0.12473,0.0564 0.25234,0.10946 0.37695,0.16602 l -0.0781,0.42969 c -3.05161,2.46274 -5.66215,5.36649 -7.11719,9.42578 2.10721,-1.03063 4.08197,-1.66389 5.55273,-0.78516 -3.80096,2.20123 -5.46468,4.63992 -6.39453,7.16016 1.85134,-1.27186 3.72333,-2.75021 5.26367,-0.91211 -3.49556,2.01429 -5.04026,4.5163 -5.98633,7.16797 1.62175,-0.76254 3.24349,-2.85077 4.86524,-0.97461 -2.97129,2.16605 -5.21529,4.7477 -5.94727,8.19336 1.58399,-1.25452 3.16797,-2.2405 4.75196,-1.59375 -3.97807,3.41727 -5.42398,6.55318 -6.55664,9.65429 1.64853,-1.03005 3.19909,-2.6479 5.14843,-1.87304 -3.63806,3.36118 -6.07946,6.85532 -6.83203,10.53711 1.68316,-1.14109 3.28165,-2.87485 5.26758,-1.89649 -3.76364,2.19475 -6.0769,5.19527 -6.95312,8.99414 1.87782,-0.98089 3.55494,-3.76857 5.71874,-2.17578 -4.82821,3.57174 -5.43179,6.43937 -6.56054,9.39453 1.93618,-1.82282 3.71277,-2.68807 5.32812,-2.58594 -2.59145,2.4827 -5.40695,4.57332 -6.77148,9.20313 1.83073,-1.51617 3.66146,-3.67838 5.49219,-2.13867 -3.2786,2.68202 -5.05478,5.79331 -6.09375,9.11523 1.60742,-1.23006 3.21484,-3.26001 4.82226,-2.08594 -3.27101,2.40086 -4.91465,6.4291 -6.62695,10.38868 1.7181,-1.61826 3.4362,-3.43515 5.1543,-2.25586 -4.06993,2.07748 -5.74488,6.01772 -6.95899,10.3164 1.91976,-1.59779 3.93935,-4.29402 5.5586,-2.58593 -4.12873,2.2279 -5.30105,5.70016 -6.4004,9.20312 1.73763,-1.47818 3.47527,-3.86566 5.2129,-2.64062 -3.46418,2.37435 -5.30797,5.44316 -6.53711,8.77539 1.50416,-1.47397 3.21921,-2.42072 5.36328,-2.29493 -3.77465,2.04994 -5.05816,5.65685 -6.32617,9.27344 1.7168,-1.7682 3.43359,-3.79414 5.15039,-2.77148 -3.6368,2.01099 -5.41895,5.87662 -6.83399,10.10937 1.80664,-1.56369 3.61328,-3.23513 5.41992,-2.30469 2.91438,-1.06022 4.05227,2.07838 5.78907,2.25977 2.41215,-1.00111 2.08271,-2.99916 1.97656,-4.91601 0.0104,-0.004 0.0208,-0.008 0.0312,-0.0117 2.3484,0.4974 4.40758,1.24272 5.11523,3.14648 1.73324,-1.8776 1.79446,-3.75521 1.66211,-5.63281 0.0111,-0.004 0.0221,-0.008 0.0332,-0.0117 2.65401,0.62507 4.65012,1.62609 5.64844,3.19727 2.86896,-1.7589 1.90055,-3.86665 2.4336,-5.8379 l 0.002,0 c 2.55827,0.80176 5.078,1.64205 6.24609,3.83399 2.88705,-1.45996 2.70755,-3.9421 2.85742,-6.31445 0.009,-0.002 0.0182,-0.006 0.0273,-0.008 3.45562,0.25029 4.71406,1.96537 5.34961,4.09571 2.18502,-1.34455 3.01031,-3.44451 3.06836,-5.97071 0.008,-0.002 0.017,-0.002 0.0254,-0.004 2.55125,0.88185 4.68257,2.12365 5.58594,4.41797 2.14865,-1.09518 2.21362,-3.6787 2.8125,-5.88086 0.002,-2.8e-4 0.004,2.8e-4 0.006,0 2.01964,1.24317 4.28122,1.76051 5.63868,4.99023 2.17557,-1.30295 2.20219,-3.83386 2.83984,-6.01562 0.009,-9e-4 0.0182,-0.003 0.0273,-0.004 2.53179,0.37381 3.78953,2.02167 4.92383,3.79297 2.98501,-1.10899 2.71732,-2.86852 3.53907,-4.41016 0.01,-4.6e-4 0.0195,4.7e-4 0.0293,0 3.30447,0.89473 5.07728,2.34642 5.7793,4.1875 2.52816,-0.86124 3.33083,-2.58524 3.99805,-4.37695 0.008,7e-5 0.0169,-8e-5 0.0254,0 1.02122,1.6804 1.83534,3.60931 3.98828,3.93164 0.85494,-1.55164 1.96626,-3.00073 5.15429,-3.61914 0.006,3.5e-4 0.0117,0.002 0.0176,0.002 0.71735,2.39764 1.36075,4.84457 4.84375,5.39844 1.04608,-1.98194 2.54834,-3.67878 5.47657,-4.48438 0.01,10e-4 0.0195,0.003 0.0293,0.004 0.98272,2.69804 2.73594,4.96803 5.84571,6.48438 0.0175,-2.97243 1.99817,-4.17808 4.35742,-5.04297 l 0.0234,0.004 c 0.77666,2.62994 2.02869,5.12406 6.08008,6.81836 0.0629,-2.79699 2.78331,-3.66126 5.375,-4.61914 0.003,5.7e-4 0.005,10e-4 0.008,0.002 0.10569,2.74077 1.94958,4.61245 4.41016,6.17578 -0.007,-2.19328 1.29917,-3.6861 4.83789,-3.98828 0.003,8.1e-4 0.007,10e-4 0.01,0.002 0.64889,2.77217 0.4991,5.66721 4.05468,7.99219 1.33576,-1.93578 1.95993,-4.06562 5.75,-5.33204 0.003,9.7e-4 0.006,0.003 0.01,0.004 -0.23581,3.11387 0.10614,5.87218 2.91992,7.10938 0.35957,-2.39936 2.6647,-3.63139 5.36719,-4.625 0.011,0.003 0.0222,0.006 0.0332,0.01 0.58613,2.67945 0.63415,5.51264 4.39453,7.28516 1.46687,-2.17571 3.58681,-3.69835 7.41016,-3.51758 0.0123,0.004 0.0248,0.008 0.0371,0.0117 l -0.002,-0.0293 c 1.50809,-1.90614 3.69096,-0.43841 6.07031,2.01172 -0.72669,-5.25907 -3.78867,-9.73972 -7.10742,-14.13477 1.7906,-0.0409 3.01723,-1.77384 6.44922,3.10938 0.10965,-4.96342 -3.47962,-8.69386 -7.24024,-12.36719 1.61248,-0.4544 3.60026,0.59245 6.08985,3.64649 -0.2611,-7.21696 -4.10213,-8.46738 -6.77539,-11.66407 2.32019,-1.93964 4.22675,0.25718 6.11718,2.61524 0.28417,-5.09127 -2.86281,-8.81009 -6.93164,-12.16016 1.80235,-0.36494 3.70526,-0.1265 5.94336,2.12305 -0.32628,-3.4031 -3.35269,-7.19195 -6.70508,-11.02734 2.3409,-1.28931 4.30289,0.0738 6.21094,1.81445 -0.63603,-3.56689 -2.93609,-7.54978 -7.08203,-11.99414 l 0,-0.002 c 2.37912,-2.1992 4.30614,-0.32953 6.25977,1.30079 -0.18017,-4.98316 -3.50935,-8.39181 -7.14258,-11.64844 2.16146,-1.99965 4.32291,-1.21275 6.48437,1.61133 -0.99466,-4.63169 -4.26439,-8.35336 -7.38476,-12.13477 1.91341,-0.65183 3.82682,0.11728 5.74023,2.09766 0.22899,-3.89909 -2.88905,-7.79818 -6.56055,-11.69727 1.96745,-1.20531 3.9349,-0.23076 5.90235,1.16797 -0.6922,-5.4317 -3.85773,-7.40074 -6.64844,-9.89453 1.35187,-0.78844 2.6054,-1.77358 5.66016,0.84375 0.2108,-3.07565 -1.81661,-6.35478 -6.43164,-9.86914 0.21042,-3.20292 3.96026,-1.09671 7.58398,0.82031 -0.9897,-3.98454 -4.43522,-7.61826 -8.46875,-11.16797 l -0.032,-0.37145 0.29297,-0.19727 c 5.61585,1.06619 10.74439,-0.79148 15.93945,-2.25 -3.87439,-0.29636 -6.7476,-1.21846 -7.12695,-3.69922 4.99215,1.18832 9.75381,1.3394 13.87305,-1.40039 -4.28344,-0.58564 -6.60282,-1.82597 -5.62891,-4.16406 6.08588,1.44039 10.61215,0.0735 14.51367,-2.41797 -3.56531,-0.0628 -6.27088,-0.69876 -7.21094,-2.51172 5.5291,0.9163 10.45484,-0.2792 15.10938,-2.42382 -4.23317,0.3188 -7.47192,-0.0727 -8.64258,-1.94141 5.62026,0.19588 11.12855,-0.0561 15.88281,-3.32422 -3.03144,-0.14007 -6.29292,0.007 -7.63672,-2.24219 l 0.27735,-0.1875 0.002,0 c 2.54693,-2.56179 7.60275,-2.6147 11.92969,-3.39648 -5.31584,-1.76451 -10.36427,-0.85473 -15.41211,0.0605 1.48605,-2.19479 6.18576,-2.78276 10.2793,-3.67382 -4.74774,-0.52403 -9.22169,-1.96051 -14.73829,0.0781 0.22895,-2.58963 4.70428,-3.05606 9.22461,-3.5 -4.75458,-1.30852 -9.39494,-2.93115 -15.20898,-1.32617 0.0263,-1.76345 3.71406,-2.75606 8.93555,-3.42578 -4.59517,-1.58204 -9.32031,-2.44927 -14.46094,-1.03125 -0.9163,-2.07877 3.42742,-2.98864 6.85742,-4.10156 -4.80127,-1.92205 -8.88815,-1.7009 -12.67969,-0.59375 0.53268,-2.44701 3.08845,-3.73797 7.16797,-4.15821 -4.25391,-1.42134 -8.50781,-1.95932 -12.76172,-0.35156 0.18246,-2.86906 2.82509,-4.50803 7.0586,-5.35156 -4.32255,-1.80985 -8.90883,-1.77343 -13.73828,-0.0352 l -0.002,0 L 330,394.36133 l -19.49414,0 c -1.50347,-2.69787 -2.88385,-5.42309 -7.44531,-7.44141 z"
       id="path4172"
       inkscape:connector-curvature="0"
       sodipodi:nodetypes="cccccccccccccccccccccccccccccccccccccccccccccccccccccccccccccccccccccccccccccccccccccccccccccccccccccccccccccccccccccccccccccccccccccccccccccccccccccccccccccccccccccccccccccccccccccccccc" />
  </g>
  <g
     inkscape:groupmode="layer"
     id="layer5"
     inkscape:label="eyes"
     style="display:inline"
     sodipodi:insensitive="true"
     transform="translate(18.749336,-81.218297)">
    <path
       style="display:inline;fill:#ffffff;fill-rule:evenodd;stroke:#000000;stroke-width:1px;stroke-linecap:butt;stroke-linejoin:miter;stroke-opacity:1"
       d="m 252.74446,423.52689 c 3.69977,-3.78297 6.53148,-8.32549 7.11816,-14.83242 -1.90318,1.30374 -3.57484,3.99662 -5.82792,3.20101 4.07728,-4.58759 5.91855,-10.06958 6.0883,-16.22018 -1.282,2.35356 -3.028,2.3871 -4.6803,2.88915 3.19467,-4.9476 5.50454,-10.58339 5.20107,-18.25177 -1.19929,2.35549 -2.75027,2.95251 -4.33406,3.3855 2.39941,-6.12313 3.85954,-12.50243 1.99061,-19.78965 -0.46856,2.96317 -1.71163,4.57095 -3.74395,4.79755 -0.32175,-6.84654 -3.54175,-12.24394 -6.93177,-17.55634 0.15771,3.32012 -0.6856,4.88845 -2.08874,5.47709 -1.35016,-6.54925 -6.25983,-9.539 -11.4512,-12.24705 1.31004,2.8357 2.81237,5.69277 0.70802,8.14909 -5.19978,-6.672 -11.14764,-7.73344 -17.11217,-8.66986 2.92376,1.686 5.05037,4.00971 6.02095,7.25825 -4.05004,-4.65578 -8.74872,-5.41968 -13.57207,-5.43557 4.67016,1.53286 7.39125,3.49886 8.54389,5.81339 -4.22314,0.98375 -7.87521,2.06346 -9.40818,4.58445 4.049,-0.51954 6.16658,1.21425 7.89464,3.40248 -5.6098,-0.12527 -7.01115,2.69539 -8.85303,5.20767 3.54532,-0.79474 6.08734,0.66795 8.07188,3.38498 -3.76352,0.0492 -5.40934,2.63957 -7.29073,4.94729 4.57557,0.33471 8.74708,1.02857 9.85371,4.44678 -1.5042,0.0757 -2.59708,0.76845 -3.31944,2.01693 5.7707,1.11419 5.43122,2.78386 7.3087,4.25198 l 4.84185,29.93771 c 2.01317,-1.15564 4.0641,-2.16023 6.31198,-2.37704 -1.55725,3.5261 -1.20589,6.18464 -0.16633,8.53037 2.1896,-2.26576 2.88129,-0.67688 6.15515,-3.58309 -0.46003,2.99176 0.71891,3.72007 2.60617,7.54139 1.52202,-1.77982 2.34505,-3.48197 5.86263,-5.48351 0.72217,2.13696 0.78003,4.66145 4.20218,5.22342 z"
       id="path4216"
       inkscape:connector-curvature="0"
       sodipodi:nodetypes="cccccccccccccccccccccccccccccccc" />
    <path
       style="display:inline;fill:#ffffff;fill-rule:evenodd;stroke:#000000;stroke-width:1px;stroke-linecap:butt;stroke-linejoin:miter;stroke-opacity:1"
       d="m 338.48438,352.26953 c -5.25723,2.72096 -10.70079,5.11064 -12.29493,14.34375 -2.50385,-1.30559 -0.87506,-5.36626 -1.14648,-8.16016 -2.7118,5.10794 -5.85858,9.92589 -4.93555,17.45704 -2.69345,-0.19284 -2.32046,-4.67871 -3.13086,-7.50782 -1.54767,4.9645 -1.36848,9.93532 0.4375,14.91211 -2.26148,1.16183 -3.54282,-1.59692 -5.00781,-3.62109 -1.21503,5.77864 0.26946,10.4579 2.79492,14.14648 -1.31635,2.22404 -2.94262,0.72895 -4.67578,-2.04882 -0.27326,5.21128 0.86068,10.22154 3.52149,15.01367 -1.69946,0.66515 -3.55581,-0.0817 -5.67383,-3.1836 0.0669,5.54391 2.17723,10.32156 5.59375,14.60938 5.49813,1.12899 5.20307,-3.53521 5.43945,-7.66797 1.77953,0.91258 4.8835,4.47402 7.87891,7.81836 10e-4,-2.4e-4 0.003,-0.002 0.004,-0.002 3.28036,0.001 2.34822,-4.21038 2.49219,-7.34571 1.8072,0.84663 3.3958,2.34907 4.36914,5.69727 3.6211,1.91927 2.25212,-2.26044 2.39063,-4.59766 2.30097,0.13392 3.02628,1.84351 4.15039,3.1543 2.22019,0.55505 1.25787,-6.66476 3.95507,-14.88867 l 31.21094,-18.13867 c 5.61018,-2.30258 9.32455,1.71417 13.8125,3.15234 -0.9046,-2.81279 -2.82202,-5.33619 -6.6543,-7.3125 3.25912,-1.27371 6.51823,1.44454 9.77735,2.40039 -3.91253,-2.99358 -6.78428,-6.71572 -14.66211,-6.93359 4.10199,-2.39149 6.30502,-0.98504 9.28516,-1.13282 -4.55974,-2.72048 -8.72745,-5.7617 -17.7461,-4.83398 -3.38869,-2.40745 4.18369,-1.93042 8.06836,-2.42383 -5.86105,-2.39047 -11.72915,-4.70334 -18,-2.58594 -3.11112,-1.37891 1.81139,-2.75779 4.55664,-4.13672 -5.66615,-1.8457 -10.57649,-1.17205 -14.98633,1.16993 -5.68221,-0.96551 1.94571,-3.92754 3.69532,-6.00782 -6.63191,0.38473 -12.74203,1.34339 -15.23829,6.27735 -3.182,-0.54509 -0.94695,-4.25013 0.71876,-7.62305 z"
       id="path4239"
       inkscape:connector-curvature="0"
       sodipodi:nodetypes="cccccccccccccccccccccccccccccccccc" />
    <path
       style="fill:#000000;fill-rule:evenodd;stroke:#000000;stroke-width:1px;stroke-linecap:butt;stroke-linejoin:miter;stroke-opacity:1"
       d="m 340.6907,415.28788 c -3.60655,-50.4918 34.17243,-35.6958 42.95082,-26.22951 -4.37674,15.2102 -23.8503,26.86751 -42.95082,26.22951 z"
       id="path4198"
       inkscape:connector-curvature="0"
       sodipodi:nodetypes="ccc" />
    <circle
       r="17.5"
       cy="406.86221"
       cx="339.5"
       id="circle4180"
       style="color:#000000;clip-rule:nonzero;display:inline;overflow:visible;visibility:visible;opacity:1;isolation:auto;mix-blend-mode:normal;color-interpolation:sRGB;color-interpolation-filters:linearRGB;solid-color:#000000;solid-opacity:1;fill:#ffff00;fill-opacity:1;fill-rule:nonzero;stroke:none;stroke-width:4;stroke-linecap:butt;stroke-linejoin:miter;stroke-miterlimit:4;stroke-dasharray:none;stroke-dashoffset:0;stroke-opacity:1;color-rendering:auto;image-rendering:auto;shape-rendering:auto;text-rendering:auto;enable-background:accumulate"
       clip-path="url(#clipPath4202)"
       transform="translate(18.723497,-11.500546)" />
    <path
       style="fill:#000000;fill-rule:evenodd;stroke:#000000;stroke-width:1px;stroke-linecap:butt;stroke-linejoin:miter;stroke-opacity:1"
       d="m 227.77268,413.67535 c 0.27006,-12.29877 -1.07439,-25.95201 -4.84185,-29.93771 -16.83665,-5.32121 -24.03258,-3.29854 -36.66134,3.54793 3.17916,26.98316 14.25247,31.40766 41.50319,26.38978 z"
       id="path4182"
       inkscape:connector-curvature="0"
       sodipodi:nodetypes="cccc" />
    <circle
       style="color:#000000;clip-rule:nonzero;display:inline;overflow:visible;visibility:visible;opacity:1;isolation:auto;mix-blend-mode:normal;color-interpolation:sRGB;color-interpolation-filters:linearRGB;solid-color:#000000;solid-opacity:1;fill:#ffff00;fill-opacity:1;fill-rule:nonzero;stroke:none;stroke-width:4;stroke-linecap:butt;stroke-linejoin:miter;stroke-miterlimit:4;stroke-dasharray:none;stroke-dashoffset:0;stroke-opacity:1;color-rendering:auto;image-rendering:auto;shape-rendering:auto;text-rendering:auto;enable-background:accumulate"
       id="path4178"
       cx="210.5"
       cy="406.86221"
       r="17.5"
       clip-path="url(#clipPath4190)"
       transform="translate(-3.2896175,-9.5398907)" />
    <circle
       style="color:#000000;clip-rule:nonzero;display:inline;overflow:visible;visibility:visible;opacity:1;isolation:auto;mix-blend-mode:normal;color-interpolation:sRGB;color-interpolation-filters:linearRGB;solid-color:#000000;solid-opacity:1;fill:#000000;fill-opacity:1;fill-rule:nonzero;stroke:none;stroke-width:4;stroke-linecap:butt;stroke-linejoin:miter;stroke-miterlimit:4;stroke-dasharray:none;stroke-dashoffset:0;stroke-opacity:1;color-rendering:auto;image-rendering:auto;shape-rendering:auto;text-rendering:auto;enable-background:accumulate"
       id="path4196"
       cx="209.23354"
       cy="391.23611"
       r="8.3386583" />
    <circle
       r="8.3386583"
       cy="389.08731"
       cx="357.56488"
       id="circle4206"
       style="color:#000000;clip-rule:nonzero;display:inline;overflow:visible;visibility:visible;opacity:1;isolation:auto;mix-blend-mode:normal;color-interpolation:sRGB;color-interpolation-filters:linearRGB;solid-color:#000000;solid-opacity:1;fill:#000000;fill-opacity:1;fill-rule:nonzero;stroke:none;stroke-width:4;stroke-linecap:butt;stroke-linejoin:miter;stroke-miterlimit:4;stroke-dasharray:none;stroke-dashoffset:0;stroke-opacity:1;color-rendering:auto;image-rendering:auto;shape-rendering:auto;text-rendering:auto;enable-background:accumulate" />
  </g>
</svg>
