<?xml version="1.0" encoding="UTF-8" standalone="no"?>
<!DOCTYPE svg PUBLIC "-//W3C//DTD SVG 1.1//EN"
 "http://www.w3.org/Graphics/SVG/1.1/DTD/svg11.dtd">
<!-- Generated by graphviz version 2.38.0 (20140413.2041)
 -->
<!-- Title: Tree Pages: 1 -->
<svg width="1453pt" height="581pt"
 viewBox="0.00 0.00 1453.00 581.00" xmlns="http://www.w3.org/2000/svg" xmlns:xlink="http://www.w3.org/1999/xlink">
<g id="graph0" class="graph" transform="scale(1 1) rotate(0) translate(4 577)">
<title>Tree</title>
<polygon fill="white" stroke="none" points="-4,4 -4,-577 1449,-577 1449,4 -4,4"/>
<!-- 0 -->
<g id="node1" class="node"><title>0</title>
<polygon fill="none" stroke="black" points="579.5,-573 461.5,-573 461.5,-505 579.5,-505 579.5,-573"/>
<text text-anchor="middle" x="520.5" y="-557.8" font-family="Times New Roman,serif" font-size="14.00">X[0] &lt;= 0.3909</text>
<text text-anchor="middle" x="520.5" y="-542.8" font-family="Times New Roman,serif" font-size="14.00">entropy = 0.9997</text>
<text text-anchor="middle" x="520.5" y="-527.8" font-family="Times New Roman,serif" font-size="14.00">samples = 500</text>
<text text-anchor="middle" x="520.5" y="-512.8" font-family="Times New Roman,serif" font-size="14.00">value = [245, 255]</text>
</g>
<!-- 1 -->
<g id="node2" class="node"><title>1</title>
<polygon fill="none" stroke="black" points="496,-469 383,-469 383,-401 496,-401 496,-469"/>
<text text-anchor="middle" x="439.5" y="-453.8" font-family="Times New Roman,serif" font-size="14.00">X[1] &lt;= 0.7898</text>
<text text-anchor="middle" x="439.5" y="-438.8" font-family="Times New Roman,serif" font-size="14.00">entropy = 0.7241</text>
<text text-anchor="middle" x="439.5" y="-423.8" font-family="Times New Roman,serif" font-size="14.00">samples = 184</text>
<text text-anchor="middle" x="439.5" y="-408.8" font-family="Times New Roman,serif" font-size="14.00">value = [147, 37]</text>
</g>
<!-- 0&#45;&gt;1 -->
<g id="edge1" class="edge"><title>0&#45;&gt;1</title>
<path fill="none" stroke="black" d="M494.202,-504.884C487.199,-496.065 479.547,-486.43 472.245,-477.235"/>
<polygon fill="black" stroke="black" points="474.903,-474.954 465.944,-469.299 469.422,-479.307 474.903,-474.954"/>
<text text-anchor="middle" x="463.093" y="-490.436" font-family="Times New Roman,serif" font-size="14.00">True</text>
</g>
<!-- 72 -->
<g id="node11" class="node"><title>72</title>
<polygon fill="none" stroke="black" points="658,-469 545,-469 545,-401 658,-401 658,-469"/>
<text text-anchor="middle" x="601.5" y="-453.8" font-family="Times New Roman,serif" font-size="14.00">X[1] &lt;= 0.3607</text>
<text text-anchor="middle" x="601.5" y="-438.8" font-family="Times New Roman,serif" font-size="14.00">entropy = 0.8933</text>
<text text-anchor="middle" x="601.5" y="-423.8" font-family="Times New Roman,serif" font-size="14.00">samples = 316</text>
<text text-anchor="middle" x="601.5" y="-408.8" font-family="Times New Roman,serif" font-size="14.00">value = [98, 218]</text>
</g>
<!-- 0&#45;&gt;72 -->
<g id="edge10" class="edge"><title>0&#45;&gt;72</title>
<path fill="none" stroke="black" d="M546.798,-504.884C553.801,-496.065 561.453,-486.43 568.755,-477.235"/>
<polygon fill="black" stroke="black" points="571.578,-479.307 575.056,-469.299 566.097,-474.954 571.578,-479.307"/>
<text text-anchor="middle" x="577.907" y="-490.436" font-family="Times New Roman,serif" font-size="14.00">False</text>
</g>
<!-- 2 -->
<g id="node3" class="node"><title>2</title>
<polygon fill="none" stroke="black" points="306,-365 193,-365 193,-297 306,-297 306,-365"/>
<text text-anchor="middle" x="249.5" y="-349.8" font-family="Times New Roman,serif" font-size="14.00">X[1] &lt;= 0.5452</text>
<text text-anchor="middle" x="249.5" y="-334.8" font-family="Times New Roman,serif" font-size="14.00">entropy = 0.5502</text>
<text text-anchor="middle" x="249.5" y="-319.8" font-family="Times New Roman,serif" font-size="14.00">samples = 157</text>
<text text-anchor="middle" x="249.5" y="-304.8" font-family="Times New Roman,serif" font-size="14.00">value = [137, 20]</text>
</g>
<!-- 1&#45;&gt;2 -->
<g id="edge2" class="edge"><title>1&#45;&gt;2</title>
<path fill="none" stroke="black" d="M382.751,-403.535C361.511,-392.132 337.209,-379.086 315.225,-367.284"/>
<polygon fill="black" stroke="black" points="316.751,-364.131 306.285,-362.484 313.44,-370.298 316.751,-364.131"/>
</g>
<!-- 53 -->
<g id="node10" class="node"><title>53</title>
<polygon fill="none" stroke="black" points="492.5,-357.5 386.5,-357.5 386.5,-304.5 492.5,-304.5 492.5,-357.5"/>
<text text-anchor="middle" x="439.5" y="-342.3" font-family="Times New Roman,serif" font-size="14.00">entropy = 0.951</text>
<text text-anchor="middle" x="439.5" y="-327.3" font-family="Times New Roman,serif" font-size="14.00">samples = 27</text>
<text text-anchor="middle" x="439.5" y="-312.3" font-family="Times New Roman,serif" font-size="14.00">value = [10, 17]</text>
</g>
<!-- 1&#45;&gt;53 -->
<g id="edge9" class="edge"><title>1&#45;&gt;53</title>
<path fill="none" stroke="black" d="M439.5,-400.884C439.5,-390.326 439.5,-378.597 439.5,-367.854"/>
<polygon fill="black" stroke="black" points="443,-367.52 439.5,-357.52 436,-367.52 443,-367.52"/>
</g>
<!-- 3 -->
<g id="node4" class="node"><title>3</title>
<polygon fill="none" stroke="black" points="175,-253.5 62,-253.5 62,-200.5 175,-200.5 175,-253.5"/>
<text text-anchor="middle" x="118.5" y="-238.3" font-family="Times New Roman,serif" font-size="14.00">entropy = 0.3583</text>
<text text-anchor="middle" x="118.5" y="-223.3" font-family="Times New Roman,serif" font-size="14.00">samples = 103</text>
<text text-anchor="middle" x="118.5" y="-208.3" font-family="Times New Roman,serif" font-size="14.00">value = [96, 7]</text>
</g>
<!-- 2&#45;&gt;3 -->
<g id="edge3" class="edge"><title>2&#45;&gt;3</title>
<path fill="none" stroke="black" d="M206.968,-296.884C191.713,-285.006 174.556,-271.646 159.439,-259.876"/>
<polygon fill="black" stroke="black" points="161.316,-256.902 151.276,-253.52 157.016,-262.425 161.316,-256.902"/>
</g>
<!-- 28 -->
<g id="node5" class="node"><title>28</title>
<polygon fill="none" stroke="black" points="306,-261 193,-261 193,-193 306,-193 306,-261"/>
<text text-anchor="middle" x="249.5" y="-245.8" font-family="Times New Roman,serif" font-size="14.00">X[0] &lt;= 0.2503</text>
<text text-anchor="middle" x="249.5" y="-230.8" font-family="Times New Roman,serif" font-size="14.00">entropy = 0.7963</text>
<text text-anchor="middle" x="249.5" y="-215.8" font-family="Times New Roman,serif" font-size="14.00">samples = 54</text>
<text text-anchor="middle" x="249.5" y="-200.8" font-family="Times New Roman,serif" font-size="14.00">value = [41, 13]</text>
</g>
<!-- 2&#45;&gt;28 -->
<g id="edge4" class="edge"><title>2&#45;&gt;28</title>
<path fill="none" stroke="black" d="M249.5,-296.884C249.5,-288.778 249.5,-279.982 249.5,-271.472"/>
<polygon fill="black" stroke="black" points="253,-271.299 249.5,-261.299 246,-271.299 253,-271.299"/>
</g>
<!-- 29 -->
<g id="node6" class="node"><title>29</title>
<polygon fill="none" stroke="black" points="178,-157 65,-157 65,-89 178,-89 178,-157"/>
<text text-anchor="middle" x="121.5" y="-141.8" font-family="Times New Roman,serif" font-size="14.00">X[0] &lt;= 0.0876</text>
<text text-anchor="middle" x="121.5" y="-126.8" font-family="Times New Roman,serif" font-size="14.00">entropy = 0.6321</text>
<text text-anchor="middle" x="121.5" y="-111.8" font-family="Times New Roman,serif" font-size="14.00">samples = 44</text>
<text text-anchor="middle" x="121.5" y="-96.8" font-family="Times New Roman,serif" font-size="14.00">value = [37, 7]</text>
</g>
<!-- 28&#45;&gt;29 -->
<g id="edge5" class="edge"><title>28&#45;&gt;29</title>
<path fill="none" stroke="black" d="M207.942,-192.884C196.205,-183.531 183.316,-173.259 171.154,-163.568"/>
<polygon fill="black" stroke="black" points="173.289,-160.794 163.287,-157.299 168.927,-166.269 173.289,-160.794"/>
</g>
<!-- 46 -->
<g id="node9" class="node"><title>46</title>
<polygon fill="none" stroke="black" points="302.5,-149.5 196.5,-149.5 196.5,-96.5 302.5,-96.5 302.5,-149.5"/>
<text text-anchor="middle" x="249.5" y="-134.3" font-family="Times New Roman,serif" font-size="14.00">entropy = 0.971</text>
<text text-anchor="middle" x="249.5" y="-119.3" font-family="Times New Roman,serif" font-size="14.00">samples = 10</text>
<text text-anchor="middle" x="249.5" y="-104.3" font-family="Times New Roman,serif" font-size="14.00">value = [4, 6]</text>
</g>
<!-- 28&#45;&gt;46 -->
<g id="edge8" class="edge"><title>28&#45;&gt;46</title>
<path fill="none" stroke="black" d="M249.5,-192.884C249.5,-182.326 249.5,-170.597 249.5,-159.854"/>
<polygon fill="black" stroke="black" points="253,-159.52 249.5,-149.52 246,-159.52 253,-159.52"/>
</g>
<!-- 30 -->
<g id="node7" class="node"><title>30</title>
<polygon fill="none" stroke="black" points="113,-53 0,-53 0,-0 113,-0 113,-53"/>
<text text-anchor="middle" x="56.5" y="-37.8" font-family="Times New Roman,serif" font-size="14.00">entropy = 0.9544</text>
<text text-anchor="middle" x="56.5" y="-22.8" font-family="Times New Roman,serif" font-size="14.00">samples = 16</text>
<text text-anchor="middle" x="56.5" y="-7.8" font-family="Times New Roman,serif" font-size="14.00">value = [10, 6]</text>
</g>
<!-- 29&#45;&gt;30 -->
<g id="edge6" class="edge"><title>29&#45;&gt;30</title>
<path fill="none" stroke="black" d="M98.7662,-88.9485C92.6626,-80.0749 86.0525,-70.4648 79.9129,-61.5388"/>
<polygon fill="black" stroke="black" points="82.7534,-59.4924 74.2025,-53.2367 76.986,-63.4594 82.7534,-59.4924"/>
</g>
<!-- 41 -->
<g id="node8" class="node"><title>41</title>
<polygon fill="none" stroke="black" points="244,-53 131,-53 131,-0 244,-0 244,-53"/>
<text text-anchor="middle" x="187.5" y="-37.8" font-family="Times New Roman,serif" font-size="14.00">entropy = 0.2223</text>
<text text-anchor="middle" x="187.5" y="-22.8" font-family="Times New Roman,serif" font-size="14.00">samples = 28</text>
<text text-anchor="middle" x="187.5" y="-7.8" font-family="Times New Roman,serif" font-size="14.00">value = [27, 1]</text>
</g>
<!-- 29&#45;&gt;41 -->
<g id="edge7" class="edge"><title>29&#45;&gt;41</title>
<path fill="none" stroke="black" d="M144.584,-88.9485C150.781,-80.0749 157.493,-70.4648 163.727,-61.5388"/>
<polygon fill="black" stroke="black" points="166.669,-63.4392 169.525,-53.2367 160.93,-59.4311 166.669,-63.4392"/>
</g>
<!-- 73 -->
<g id="node12" class="node"><title>73</title>
<polygon fill="none" stroke="black" points="658,-365 545,-365 545,-297 658,-297 658,-365"/>
<text text-anchor="middle" x="601.5" y="-349.8" font-family="Times New Roman,serif" font-size="14.00">X[0] &lt;= 0.7687</text>
<text text-anchor="middle" x="601.5" y="-334.8" font-family="Times New Roman,serif" font-size="14.00">entropy = 0.9418</text>
<text text-anchor="middle" x="601.5" y="-319.8" font-family="Times New Roman,serif" font-size="14.00">samples = 117</text>
<text text-anchor="middle" x="601.5" y="-304.8" font-family="Times New Roman,serif" font-size="14.00">value = [75, 42]</text>
</g>
<!-- 72&#45;&gt;73 -->
<g id="edge11" class="edge"><title>72&#45;&gt;73</title>
<path fill="none" stroke="black" d="M601.5,-400.884C601.5,-392.778 601.5,-383.982 601.5,-375.472"/>
<polygon fill="black" stroke="black" points="605,-375.299 601.5,-365.299 598,-375.299 605,-375.299"/>
</g>
<!-- 112 -->
<g id="node21" class="node"><title>112</title>
<polygon fill="none" stroke="black" points="1009,-365 896,-365 896,-297 1009,-297 1009,-365"/>
<text text-anchor="middle" x="952.5" y="-349.8" font-family="Times New Roman,serif" font-size="14.00">X[1] &lt;= 0.6268</text>
<text text-anchor="middle" x="952.5" y="-334.8" font-family="Times New Roman,serif" font-size="14.00">entropy = 0.5165</text>
<text text-anchor="middle" x="952.5" y="-319.8" font-family="Times New Roman,serif" font-size="14.00">samples = 199</text>
<text text-anchor="middle" x="952.5" y="-304.8" font-family="Times New Roman,serif" font-size="14.00">value = [23, 176]</text>
</g>
<!-- 72&#45;&gt;112 -->
<g id="edge20" class="edge"><title>72&#45;&gt;112</title>
<path fill="none" stroke="black" d="M658.284,-417.499C720.478,-399.425 820.117,-370.47 885.938,-351.343"/>
<polygon fill="black" stroke="black" points="887.171,-354.629 895.797,-348.478 885.218,-347.907 887.171,-354.629"/>
</g>
<!-- 74 -->
<g id="node13" class="node"><title>74</title>
<polygon fill="none" stroke="black" points="558.5,-261 452.5,-261 452.5,-193 558.5,-193 558.5,-261"/>
<text text-anchor="middle" x="505.5" y="-245.8" font-family="Times New Roman,serif" font-size="14.00">X[1] &lt;= 0.3188</text>
<text text-anchor="middle" x="505.5" y="-230.8" font-family="Times New Roman,serif" font-size="14.00">entropy = 0.422</text>
<text text-anchor="middle" x="505.5" y="-215.8" font-family="Times New Roman,serif" font-size="14.00">samples = 70</text>
<text text-anchor="middle" x="505.5" y="-200.8" font-family="Times New Roman,serif" font-size="14.00">value = [64, 6]</text>
</g>
<!-- 73&#45;&gt;74 -->
<g id="edge12" class="edge"><title>73&#45;&gt;74</title>
<path fill="none" stroke="black" d="M570.332,-296.884C561.864,-287.887 552.597,-278.041 543.785,-268.678"/>
<polygon fill="black" stroke="black" points="546.243,-266.183 536.841,-261.299 541.146,-270.98 546.243,-266.183"/>
</g>
<!-- 91 -->
<g id="node18" class="node"><title>91</title>
<polygon fill="none" stroke="black" points="686.5,-261 580.5,-261 580.5,-193 686.5,-193 686.5,-261"/>
<text text-anchor="middle" x="633.5" y="-245.8" font-family="Times New Roman,serif" font-size="14.00">X[1] &lt;= 0.093</text>
<text text-anchor="middle" x="633.5" y="-230.8" font-family="Times New Roman,serif" font-size="14.00">entropy = 0.785</text>
<text text-anchor="middle" x="633.5" y="-215.8" font-family="Times New Roman,serif" font-size="14.00">samples = 47</text>
<text text-anchor="middle" x="633.5" y="-200.8" font-family="Times New Roman,serif" font-size="14.00">value = [11, 36]</text>
</g>
<!-- 73&#45;&gt;91 -->
<g id="edge17" class="edge"><title>73&#45;&gt;91</title>
<path fill="none" stroke="black" d="M611.889,-296.884C614.488,-288.6 617.313,-279.595 620.038,-270.911"/>
<polygon fill="black" stroke="black" points="623.399,-271.889 623.053,-261.299 616.72,-269.793 623.399,-271.889"/>
</g>
<!-- 75 -->
<g id="node14" class="node"><title>75</title>
<polygon fill="none" stroke="black" points="434,-149.5 321,-149.5 321,-96.5 434,-96.5 434,-149.5"/>
<text text-anchor="middle" x="377.5" y="-134.3" font-family="Times New Roman,serif" font-size="14.00">entropy = 0.2108</text>
<text text-anchor="middle" x="377.5" y="-119.3" font-family="Times New Roman,serif" font-size="14.00">samples = 60</text>
<text text-anchor="middle" x="377.5" y="-104.3" font-family="Times New Roman,serif" font-size="14.00">value = [58, 2]</text>
</g>
<!-- 74&#45;&gt;75 -->
<g id="edge13" class="edge"><title>74&#45;&gt;75</title>
<path fill="none" stroke="black" d="M463.942,-192.884C449.037,-181.006 432.272,-167.646 417.501,-155.876"/>
<polygon fill="black" stroke="black" points="419.527,-153.015 409.525,-149.52 415.164,-158.489 419.527,-153.015"/>
</g>
<!-- 84 -->
<g id="node15" class="node"><title>84</title>
<polygon fill="none" stroke="black" points="558.5,-157 452.5,-157 452.5,-89 558.5,-89 558.5,-157"/>
<text text-anchor="middle" x="505.5" y="-141.8" font-family="Times New Roman,serif" font-size="14.00">X[0] &lt;= 0.6436</text>
<text text-anchor="middle" x="505.5" y="-126.8" font-family="Times New Roman,serif" font-size="14.00">entropy = 0.971</text>
<text text-anchor="middle" x="505.5" y="-111.8" font-family="Times New Roman,serif" font-size="14.00">samples = 10</text>
<text text-anchor="middle" x="505.5" y="-96.8" font-family="Times New Roman,serif" font-size="14.00">value = [6, 4]</text>
</g>
<!-- 74&#45;&gt;84 -->
<g id="edge14" class="edge"><title>74&#45;&gt;84</title>
<path fill="none" stroke="black" d="M505.5,-192.884C505.5,-184.778 505.5,-175.982 505.5,-167.472"/>
<polygon fill="black" stroke="black" points="509,-167.299 505.5,-157.299 502,-167.299 509,-167.299"/>
</g>
<!-- 85 -->
<g id="node16" class="node"><title>85</title>
<polygon fill="none" stroke="black" points="501,-53 388,-53 388,-0 501,-0 501,-53"/>
<text text-anchor="middle" x="444.5" y="-37.8" font-family="Times New Roman,serif" font-size="14.00">entropy = 0.5917</text>
<text text-anchor="middle" x="444.5" y="-22.8" font-family="Times New Roman,serif" font-size="14.00">samples = 7</text>
<text text-anchor="middle" x="444.5" y="-7.8" font-family="Times New Roman,serif" font-size="14.00">value = [6, 1]</text>
</g>
<!-- 84&#45;&gt;85 -->
<g id="edge15" class="edge"><title>84&#45;&gt;85</title>
<path fill="none" stroke="black" d="M484.165,-88.9485C478.496,-80.1664 472.362,-70.6629 466.65,-61.815"/>
<polygon fill="black" stroke="black" points="469.477,-59.7402 461.113,-53.2367 463.596,-63.5365 469.477,-59.7402"/>
</g>
<!-- 90 -->
<g id="node17" class="node"><title>90</title>
<polygon fill="none" stroke="black" points="611.5,-53 519.5,-53 519.5,-0 611.5,-0 611.5,-53"/>
<text text-anchor="middle" x="565.5" y="-37.8" font-family="Times New Roman,serif" font-size="14.00">entropy = 0.0</text>
<text text-anchor="middle" x="565.5" y="-22.8" font-family="Times New Roman,serif" font-size="14.00">samples = 3</text>
<text text-anchor="middle" x="565.5" y="-7.8" font-family="Times New Roman,serif" font-size="14.00">value = [0, 3]</text>
</g>
<!-- 84&#45;&gt;90 -->
<g id="edge16" class="edge"><title>84&#45;&gt;90</title>
<path fill="none" stroke="black" d="M526.485,-88.9485C532.061,-80.1664 538.095,-70.6629 543.713,-61.815"/>
<polygon fill="black" stroke="black" points="546.754,-63.5549 549.159,-53.2367 540.844,-59.8028 546.754,-63.5549"/>
</g>
<!-- 92 -->
<g id="node19" class="node"><title>92</title>
<polygon fill="none" stroke="black" points="690,-149.5 577,-149.5 577,-96.5 690,-96.5 690,-149.5"/>
<text text-anchor="middle" x="633.5" y="-134.3" font-family="Times New Roman,serif" font-size="14.00">entropy = 0.8113</text>
<text text-anchor="middle" x="633.5" y="-119.3" font-family="Times New Roman,serif" font-size="14.00">samples = 8</text>
<text text-anchor="middle" x="633.5" y="-104.3" font-family="Times New Roman,serif" font-size="14.00">value = [6, 2]</text>
</g>
<!-- 91&#45;&gt;92 -->
<g id="edge18" class="edge"><title>91&#45;&gt;92</title>
<path fill="none" stroke="black" d="M633.5,-192.884C633.5,-182.326 633.5,-170.597 633.5,-159.854"/>
<polygon fill="black" stroke="black" points="637,-159.52 633.5,-149.52 630,-159.52 637,-159.52"/>
</g>
<!-- 99 -->
<g id="node20" class="node"><title>99</title>
<polygon fill="none" stroke="black" points="821,-149.5 708,-149.5 708,-96.5 821,-96.5 821,-149.5"/>
<text text-anchor="middle" x="764.5" y="-134.3" font-family="Times New Roman,serif" font-size="14.00">entropy = 0.5525</text>
<text text-anchor="middle" x="764.5" y="-119.3" font-family="Times New Roman,serif" font-size="14.00">samples = 39</text>
<text text-anchor="middle" x="764.5" y="-104.3" font-family="Times New Roman,serif" font-size="14.00">value = [5, 34]</text>
</g>
<!-- 91&#45;&gt;99 -->
<g id="edge19" class="edge"><title>91&#45;&gt;99</title>
<path fill="none" stroke="black" d="M676.032,-192.884C691.287,-181.006 708.444,-167.646 723.561,-155.876"/>
<polygon fill="black" stroke="black" points="725.984,-158.425 731.724,-149.52 721.684,-152.902 725.984,-158.425"/>
</g>
<!-- 113 -->
<g id="node22" class="node"><title>113</title>
<polygon fill="none" stroke="black" points="1009,-261 896,-261 896,-193 1009,-193 1009,-261"/>
<text text-anchor="middle" x="952.5" y="-245.8" font-family="Times New Roman,serif" font-size="14.00">X[0] &lt;= 0.5539</text>
<text text-anchor="middle" x="952.5" y="-230.8" font-family="Times New Roman,serif" font-size="14.00">entropy = 0.6962</text>
<text text-anchor="middle" x="952.5" y="-215.8" font-family="Times New Roman,serif" font-size="14.00">samples = 80</text>
<text text-anchor="middle" x="952.5" y="-200.8" font-family="Times New Roman,serif" font-size="14.00">value = [15, 65]</text>
</g>
<!-- 112&#45;&gt;113 -->
<g id="edge21" class="edge"><title>112&#45;&gt;113</title>
<path fill="none" stroke="black" d="M952.5,-296.884C952.5,-288.778 952.5,-279.982 952.5,-271.472"/>
<polygon fill="black" stroke="black" points="956,-271.299 952.5,-261.299 949,-271.299 956,-271.299"/>
</g>
<!-- 138 -->
<g id="node29" class="node"><title>138</title>
<polygon fill="none" stroke="black" points="1201,-261 1088,-261 1088,-193 1201,-193 1201,-261"/>
<text text-anchor="middle" x="1144.5" y="-245.8" font-family="Times New Roman,serif" font-size="14.00">X[1] &lt;= 0.772</text>
<text text-anchor="middle" x="1144.5" y="-230.8" font-family="Times New Roman,serif" font-size="14.00">entropy = 0.3555</text>
<text text-anchor="middle" x="1144.5" y="-215.8" font-family="Times New Roman,serif" font-size="14.00">samples = 119</text>
<text text-anchor="middle" x="1144.5" y="-200.8" font-family="Times New Roman,serif" font-size="14.00">value = [8, 111]</text>
</g>
<!-- 112&#45;&gt;138 -->
<g id="edge28" class="edge"><title>112&#45;&gt;138</title>
<path fill="none" stroke="black" d="M1009.07,-299.948C1030.94,-288.328 1056.12,-274.951 1078.79,-262.908"/>
<polygon fill="black" stroke="black" points="1080.48,-265.972 1087.67,-258.189 1077.2,-259.79 1080.48,-265.972"/>
</g>
<!-- 114 -->
<g id="node23" class="node"><title>114</title>
<polygon fill="none" stroke="black" points="945.5,-157 839.5,-157 839.5,-89 945.5,-89 945.5,-157"/>
<text text-anchor="middle" x="892.5" y="-141.8" font-family="Times New Roman,serif" font-size="14.00">X[1] &lt;= 0.5096</text>
<text text-anchor="middle" x="892.5" y="-126.8" font-family="Times New Roman,serif" font-size="14.00">entropy = 0.971</text>
<text text-anchor="middle" x="892.5" y="-111.8" font-family="Times New Roman,serif" font-size="14.00">samples = 20</text>
<text text-anchor="middle" x="892.5" y="-96.8" font-family="Times New Roman,serif" font-size="14.00">value = [8, 12]</text>
</g>
<!-- 113&#45;&gt;114 -->
<g id="edge22" class="edge"><title>113&#45;&gt;114</title>
<path fill="none" stroke="black" d="M933.02,-192.884C927.99,-184.332 922.508,-175.013 917.248,-166.072"/>
<polygon fill="black" stroke="black" points="920.175,-164.144 912.088,-157.299 914.141,-167.693 920.175,-164.144"/>
</g>
<!-- 123 -->
<g id="node26" class="node"><title>123</title>
<polygon fill="none" stroke="black" points="1077,-157 964,-157 964,-89 1077,-89 1077,-157"/>
<text text-anchor="middle" x="1020.5" y="-141.8" font-family="Times New Roman,serif" font-size="14.00">X[1] &lt;= 0.553</text>
<text text-anchor="middle" x="1020.5" y="-126.8" font-family="Times New Roman,serif" font-size="14.00">entropy = 0.5197</text>
<text text-anchor="middle" x="1020.5" y="-111.8" font-family="Times New Roman,serif" font-size="14.00">samples = 60</text>
<text text-anchor="middle" x="1020.5" y="-96.8" font-family="Times New Roman,serif" font-size="14.00">value = [7, 53]</text>
</g>
<!-- 113&#45;&gt;123 -->
<g id="edge25" class="edge"><title>113&#45;&gt;123</title>
<path fill="none" stroke="black" d="M974.578,-192.884C980.338,-184.243 986.621,-174.819 992.638,-165.793"/>
<polygon fill="black" stroke="black" points="995.666,-167.561 998.3,-157.299 989.841,-163.678 995.666,-167.561"/>
</g>
<!-- 115 -->
<g id="node24" class="node"><title>115</title>
<polygon fill="none" stroke="black" points="828,-53 715,-53 715,-0 828,-0 828,-53"/>
<text text-anchor="middle" x="771.5" y="-37.8" font-family="Times New Roman,serif" font-size="14.00">entropy = 0.8454</text>
<text text-anchor="middle" x="771.5" y="-22.8" font-family="Times New Roman,serif" font-size="14.00">samples = 11</text>
<text text-anchor="middle" x="771.5" y="-7.8" font-family="Times New Roman,serif" font-size="14.00">value = [8, 3]</text>
</g>
<!-- 114&#45;&gt;115 -->
<g id="edge23" class="edge"><title>114&#45;&gt;115</title>
<path fill="none" stroke="black" d="M850.18,-88.9485C837.998,-79.4346 824.732,-69.074 812.624,-59.6175"/>
<polygon fill="black" stroke="black" points="814.489,-56.6335 804.454,-53.2367 810.181,-62.1504 814.489,-56.6335"/>
</g>
<!-- 122 -->
<g id="node25" class="node"><title>122</title>
<polygon fill="none" stroke="black" points="938.5,-53 846.5,-53 846.5,-0 938.5,-0 938.5,-53"/>
<text text-anchor="middle" x="892.5" y="-37.8" font-family="Times New Roman,serif" font-size="14.00">entropy = 0.0</text>
<text text-anchor="middle" x="892.5" y="-22.8" font-family="Times New Roman,serif" font-size="14.00">samples = 9</text>
<text text-anchor="middle" x="892.5" y="-7.8" font-family="Times New Roman,serif" font-size="14.00">value = [0, 9]</text>
</g>
<!-- 114&#45;&gt;122 -->
<g id="edge24" class="edge"><title>114&#45;&gt;122</title>
<path fill="none" stroke="black" d="M892.5,-88.9485C892.5,-80.7153 892.5,-71.848 892.5,-63.4814"/>
<polygon fill="black" stroke="black" points="896,-63.2367 892.5,-53.2367 889,-63.2367 896,-63.2367"/>
</g>
<!-- 124 -->
<g id="node27" class="node"><title>124</title>
<polygon fill="none" stroke="black" points="1071,-53 958,-53 958,-0 1071,-0 1071,-53"/>
<text text-anchor="middle" x="1014.5" y="-37.8" font-family="Times New Roman,serif" font-size="14.00">entropy = 0.1623</text>
<text text-anchor="middle" x="1014.5" y="-22.8" font-family="Times New Roman,serif" font-size="14.00">samples = 42</text>
<text text-anchor="middle" x="1014.5" y="-7.8" font-family="Times New Roman,serif" font-size="14.00">value = [1, 41]</text>
</g>
<!-- 123&#45;&gt;124 -->
<g id="edge26" class="edge"><title>123&#45;&gt;124</title>
<path fill="none" stroke="black" d="M1018.4,-88.9485C1017.88,-80.7153 1017.32,-71.848 1016.78,-63.4814"/>
<polygon fill="black" stroke="black" points="1020.26,-62.9948 1016.13,-53.2367 1013.27,-63.4384 1020.26,-62.9948"/>
</g>
<!-- 129 -->
<g id="node28" class="node"><title>129</title>
<polygon fill="none" stroke="black" points="1202,-53 1089,-53 1089,-0 1202,-0 1202,-53"/>
<text text-anchor="middle" x="1145.5" y="-37.8" font-family="Times New Roman,serif" font-size="14.00">entropy = 0.9183</text>
<text text-anchor="middle" x="1145.5" y="-22.8" font-family="Times New Roman,serif" font-size="14.00">samples = 18</text>
<text text-anchor="middle" x="1145.5" y="-7.8" font-family="Times New Roman,serif" font-size="14.00">value = [6, 12]</text>
</g>
<!-- 123&#45;&gt;129 -->
<g id="edge27" class="edge"><title>123&#45;&gt;129</title>
<path fill="none" stroke="black" d="M1064.22,-88.9485C1076.92,-79.3431 1090.77,-68.8747 1103.38,-59.345"/>
<polygon fill="black" stroke="black" points="1105.59,-62.0593 1111.46,-53.2367 1101.37,-56.4754 1105.59,-62.0593"/>
</g>
<!-- 139 -->
<g id="node30" class="node"><title>139</title>
<polygon fill="none" stroke="black" points="1193.5,-149.5 1095.5,-149.5 1095.5,-96.5 1193.5,-96.5 1193.5,-149.5"/>
<text text-anchor="middle" x="1144.5" y="-134.3" font-family="Times New Roman,serif" font-size="14.00">entropy = 0.0</text>
<text text-anchor="middle" x="1144.5" y="-119.3" font-family="Times New Roman,serif" font-size="14.00">samples = 52</text>
<text text-anchor="middle" x="1144.5" y="-104.3" font-family="Times New Roman,serif" font-size="14.00">value = [0, 52]</text>
</g>
<!-- 138&#45;&gt;139 -->
<g id="edge29" class="edge"><title>138&#45;&gt;139</title>
<path fill="none" stroke="black" d="M1144.5,-192.884C1144.5,-182.326 1144.5,-170.597 1144.5,-159.854"/>
<polygon fill="black" stroke="black" points="1148,-159.52 1144.5,-149.52 1141,-159.52 1148,-159.52"/>
</g>
<!-- 140 -->
<g id="node31" class="node"><title>140</title>
<polygon fill="none" stroke="black" points="1325,-157 1212,-157 1212,-89 1325,-89 1325,-157"/>
<text text-anchor="middle" x="1268.5" y="-141.8" font-family="Times New Roman,serif" font-size="14.00">X[1] &lt;= 0.7772</text>
<text text-anchor="middle" x="1268.5" y="-126.8" font-family="Times New Roman,serif" font-size="14.00">entropy = 0.5276</text>
<text text-anchor="middle" x="1268.5" y="-111.8" font-family="Times New Roman,serif" font-size="14.00">samples = 67</text>
<text text-anchor="middle" x="1268.5" y="-96.8" font-family="Times New Roman,serif" font-size="14.00">value = [8, 59]</text>
</g>
<!-- 138&#45;&gt;140 -->
<g id="edge30" class="edge"><title>138&#45;&gt;140</title>
<path fill="none" stroke="black" d="M1184.76,-192.884C1196.02,-183.62 1208.38,-173.455 1220.06,-163.845"/>
<polygon fill="black" stroke="black" points="1222.52,-166.355 1228.02,-157.299 1218.07,-160.949 1222.52,-166.355"/>
</g>
<!-- 141 -->
<g id="node32" class="node"><title>141</title>
<polygon fill="none" stroke="black" points="1313.5,-53 1221.5,-53 1221.5,-0 1313.5,-0 1313.5,-53"/>
<text text-anchor="middle" x="1267.5" y="-37.8" font-family="Times New Roman,serif" font-size="14.00">entropy = 0.0</text>
<text text-anchor="middle" x="1267.5" y="-22.8" font-family="Times New Roman,serif" font-size="14.00">samples = 2</text>
<text text-anchor="middle" x="1267.5" y="-7.8" font-family="Times New Roman,serif" font-size="14.00">value = [2, 0]</text>
</g>
<!-- 140&#45;&gt;141 -->
<g id="edge31" class="edge"><title>140&#45;&gt;141</title>
<path fill="none" stroke="black" d="M1268.15,-88.9485C1268.06,-80.7153 1267.97,-71.848 1267.88,-63.4814"/>
<polygon fill="black" stroke="black" points="1271.38,-63.1991 1267.77,-53.2367 1264.38,-63.2732 1271.38,-63.1991"/>
</g>
<!-- 142 -->
<g id="node33" class="node"><title>142</title>
<polygon fill="none" stroke="black" points="1445,-53 1332,-53 1332,-0 1445,-0 1445,-53"/>
<text text-anchor="middle" x="1388.5" y="-37.8" font-family="Times New Roman,serif" font-size="14.00">entropy = 0.4441</text>
<text text-anchor="middle" x="1388.5" y="-22.8" font-family="Times New Roman,serif" font-size="14.00">samples = 65</text>
<text text-anchor="middle" x="1388.5" y="-7.8" font-family="Times New Roman,serif" font-size="14.00">value = [6, 59]</text>
</g>
<!-- 140&#45;&gt;142 -->
<g id="edge32" class="edge"><title>140&#45;&gt;142</title>
<path fill="none" stroke="black" d="M1310.47,-88.9485C1322.55,-79.4346 1335.71,-69.074 1347.72,-59.6175"/>
<polygon fill="black" stroke="black" points="1350.13,-62.1734 1355.82,-53.2367 1345.8,-56.6739 1350.13,-62.1734"/>
</g>
</g>
</svg>
