<?xml version="1.0" encoding="UTF-8" standalone="no"?>
<!DOCTYPE svg PUBLIC "-//W3C//DTD SVG 1.1//EN"
 "http://www.w3.org/Graphics/SVG/1.1/DTD/svg11.dtd">
<!-- Generated by graphviz version 2.38.0 (20140413.2041)
 -->
<!-- Title: g Pages: 1 -->
<svg width="288pt" height="313pt"
 viewBox="0.00 0.00 288.00 313.22" xmlns="http://www.w3.org/2000/svg" xmlns:xlink="http://www.w3.org/1999/xlink">
<g id="graph0" class="graph" transform="scale(1 1) rotate(0) translate(4 309.22)">
<title>g</title>
<polygon fill="white" stroke="none" points="-4,4 -4,-309.22 284,-309.22 284,4 -4,4"/>
<!-- 0 -->
<g id="node1" class="node"><title>0</title>
<ellipse fill="none" stroke="black" cx="142" cy="-278.35" rx="31.2258" ry="26.7407"/>
<text text-anchor="middle" x="142" y="-282.15" font-family="Times New Roman,serif" font-size="14.00">0</text>
<text text-anchor="middle" x="142" y="-267.15" font-family="Times New Roman,serif" font-size="14.00"> 84.3</text>
</g>
<!-- 72 -->
<g id="node2" class="node"><title>72</title>
<ellipse fill="none" stroke="black" cx="102" cy="-188.61" rx="31.2258" ry="26.7407"/>
<text text-anchor="middle" x="102" y="-192.41" font-family="Times New Roman,serif" font-size="14.00">72</text>
<text text-anchor="middle" x="102" y="-177.41" font-family="Times New Roman,serif" font-size="14.00"> 69.3</text>
</g>
<!-- 0&#45;&gt;72 -->
<g id="edge2" class="edge"><title>0&#45;&gt;72</title>
<path fill="none" stroke="black" d="M130.858,-252.91C126.653,-243.688 121.795,-233.03 117.277,-223.12"/>
<polygon fill="black" stroke="black" points="120.415,-221.567 113.082,-213.92 114.046,-224.471 120.415,-221.567"/>
</g>
<!-- 1 -->
<g id="node7" class="node"><title>1</title>
<ellipse fill="none" stroke="black" cx="182" cy="-188.61" rx="31.2258" ry="26.7407"/>
<text text-anchor="middle" x="182" y="-192.41" font-family="Times New Roman,serif" font-size="14.00">1</text>
<text text-anchor="middle" x="182" y="-177.41" font-family="Times New Roman,serif" font-size="14.00"> 21.2</text>
</g>
<!-- 0&#45;&gt;1 -->
<g id="edge1" class="edge"><title>0&#45;&gt;1</title>
<path fill="none" stroke="black" d="M153.142,-252.91C157.347,-243.688 162.205,-233.03 166.723,-223.12"/>
<polygon fill="black" stroke="black" points="169.954,-224.471 170.918,-213.92 163.585,-221.567 169.954,-224.471"/>
</g>
<!-- 112 -->
<g id="node3" class="node"><title>112</title>
<ellipse fill="none" stroke="black" cx="27" cy="-98.8701" rx="27" ry="18"/>
<text text-anchor="middle" x="27" y="-95.1701" font-family="Times New Roman,serif" font-size="14.00">112</text>
</g>
<!-- 72&#45;&gt;112 -->
<g id="edge6" class="edge"><title>72&#45;&gt;112</title>
<path fill="none" stroke="black" d="M83.8446,-166.371C72.5716,-153.183 58.0869,-136.238 46.5604,-122.753"/>
<polygon fill="black" stroke="black" points="48.9792,-120.196 39.821,-114.869 43.6582,-124.745 48.9792,-120.196"/>
</g>
<!-- 73 -->
<g id="node4" class="node"><title>73</title>
<ellipse fill="none" stroke="black" cx="103" cy="-98.8701" rx="31.2258" ry="26.7407"/>
<text text-anchor="middle" x="103" y="-102.67" font-family="Times New Roman,serif" font-size="14.00">73</text>
<text text-anchor="middle" x="103" y="-87.6701" font-family="Times New Roman,serif" font-size="14.00"> 43.8</text>
</g>
<!-- 72&#45;&gt;73 -->
<g id="edge5" class="edge"><title>72&#45;&gt;73</title>
<path fill="none" stroke="black" d="M102.3,-161.285C102.391,-153.319 102.492,-144.428 102.589,-135.939"/>
<polygon fill="black" stroke="black" points="106.089,-135.913 102.704,-125.874 99.0898,-135.833 106.089,-135.913"/>
</g>
<!-- 91 -->
<g id="node5" class="node"><title>91</title>
<ellipse fill="none" stroke="black" cx="67" cy="-18" rx="27" ry="18"/>
<text text-anchor="middle" x="67" y="-14.3" font-family="Times New Roman,serif" font-size="14.00">91</text>
</g>
<!-- 73&#45;&gt;91 -->
<g id="edge8" class="edge"><title>73&#45;&gt;91</title>
<path fill="none" stroke="black" d="M91.8067,-73.3474C87.6838,-64.3148 83.0021,-54.058 78.8252,-44.9071"/>
<polygon fill="black" stroke="black" points="81.8777,-43.1655 74.5413,-35.5217 75.5097,-46.0722 81.8777,-43.1655"/>
</g>
<!-- 74 -->
<g id="node6" class="node"><title>74</title>
<ellipse fill="none" stroke="black" cx="139" cy="-18" rx="27" ry="18"/>
<text text-anchor="middle" x="139" y="-14.3" font-family="Times New Roman,serif" font-size="14.00">74</text>
</g>
<!-- 73&#45;&gt;74 -->
<g id="edge7" class="edge"><title>73&#45;&gt;74</title>
<path fill="none" stroke="black" d="M114.193,-73.3474C118.316,-64.3148 122.998,-54.058 127.175,-44.9071"/>
<polygon fill="black" stroke="black" points="130.49,-46.0722 131.459,-35.5217 124.122,-43.1655 130.49,-46.0722"/>
</g>
<!-- 53 -->
<g id="node8" class="node"><title>53</title>
<ellipse fill="none" stroke="black" cx="181" cy="-98.8701" rx="27" ry="18"/>
<text text-anchor="middle" x="181" y="-95.1701" font-family="Times New Roman,serif" font-size="14.00">53</text>
</g>
<!-- 1&#45;&gt;53 -->
<g id="edge4" class="edge"><title>1&#45;&gt;53</title>
<path fill="none" stroke="black" d="M181.7,-161.285C181.577,-150.534 181.436,-138.099 181.312,-127.242"/>
<polygon fill="black" stroke="black" points="184.809,-126.991 181.196,-117.031 177.81,-127.071 184.809,-126.991"/>
</g>
<!-- 2 -->
<g id="node9" class="node"><title>2</title>
<ellipse fill="none" stroke="black" cx="253" cy="-98.8701" rx="27" ry="18"/>
<text text-anchor="middle" x="253" y="-95.1701" font-family="Times New Roman,serif" font-size="14.00">2</text>
</g>
<!-- 1&#45;&gt;2 -->
<g id="edge3" class="edge"><title>1&#45;&gt;2</title>
<path fill="none" stroke="black" d="M199.551,-165.922C210.161,-152.81 223.674,-136.111 234.458,-122.784"/>
<polygon fill="black" stroke="black" points="237.2,-124.96 240.769,-114.984 231.758,-120.556 237.2,-124.96"/>
</g>
</g>
</svg>
